<?xml version="1.0" encoding="UTF-8" standalone="no"?>
<svg
   xmlns:svg="http://www.w3.org/2000/svg"
   xmlns="http://www.w3.org/2000/svg"
   width="1300.0"
   height="760.0"

>
    <g transform="scale(0.6737588652482269, -0.6737588652482269)   translate(296.8421052631579,-875.6842105263158)" stroke-width="0.7"  fill="none">
       <!-- hidden lines -->
       <g  stroke="rgb(160,160,160)" fill="none" stroke-dasharray="0.7,0.7" >
			<path d="M0.0,846.0 L0.0,0.0 " />
			<path d="M0.0,846.0 L379.01187316494,846.0 " />
			<path d="M0.0,0.0 L379.01187316494,0.0 " />
			<path d="M379.01187316494,846.0 L379.01187316494,0.0 " />
			<path d="M131.5,754.125 L131.5,832.125 " />
			<path d="M131.5,832.125 L28.5,832.125 " />
			<path d="M28.5,832.125 L28.5,754.125 " />
			<path d="M28.5,754.125 L131.5,754.125 " />
			<path d="M131.5,648.375 L131.5,726.375 " />
			<path d="M131.5,726.375 L28.5,726.375 " />
			<path d="M28.5,726.375 L28.5,648.375 " />
			<path d="M28.5,648.375 L131.5,648.375 " />
			<path d="M131.5,542.625 L131.5,620.625 " />
			<path d="M131.5,620.625 L28.5,620.625 " />
			<path d="M28.5,620.625 L28.5,542.625 " />
			<path d="M28.5,542.625 L131.5,542.625 " />
			<path d="M131.5,436.875 L131.5,514.875 " />
			<path d="M131.5,514.875 L28.5,514.875 " />
			<path d="M28.5,514.875 L28.5,436.875 " />
			<path d="M28.5,436.875 L131.5,436.875 " />
			<path d="M215.0,780.0 L214.9960291851288,780.1781874058368 L214.98412462420058,780.3560210370731 L214.96430995261912,780.5331478214952 L214.9366245105807,780.7092160902681 L214.90112326496785,780.883876276142 L214.8578767002175,781.0567816074852 L214.80697067838094,781.227588796767 L214.74850626865242,781.3959587221239 L214.68259954670572,781.561557100654 L214.60938136423667,781.7240551521054 L214.52899708916914,781.8831302516385 L214.44160631704057,782.0384665703676 L214.34738255413973,782.1897557024109 L214.24651287302612,782.3366972772004 L214.13919754111464,782.478999555841 L214.02564962306323,782.6163800103305 L213.90609455775265,782.7485658844932 L213.78076971069856,782.8752947355117 L213.64992390278417,782.9963149549827 L213.51381691624943,783.1113862684628 L213.37271897891742,783.2202802125103 L213.22691022768208,783.3227805882792 L213.0766801523223,783.4186838907613 L212.92232702074674,783.5077997128267 L212.76415728681053,783.5899511232597 L212.6024849818795,783.6649750180391 L212.43763109135006,783.7327224441664 L212.26992291736218,783.7930588953981 L212.09969342897153,783.8458645792952 L211.92728060107012,783.8910346550601 L211.75302674336845,783.9284794416889 L211.57727782077131,783.9581245960234 L211.4003827664964,783.979911260354 L211.2226927892998,783.9937961792753 L211.04456067618347,783.999751785566 L210.8663400919693,783.997766254921 L210.6883848771304,783.9878435294278 L210.51104834527348,783.9700033097392 L210.3346825816675,783.9442810159601 L210.1596377442109,783.9107277173239 L209.98626136822554,783.869410030799 L209.81489767645746,783.8204099888277 L209.6458868956545,783.7638248764574 L209.47956458107754,783.6997670381912 L209.31626095028668,783.6283636549374 L209.1563002275247,783.549756491504 L209.0,783.4641016151378 L208.84767058734653,783.3715690856671 L208.69961442551275,783.2723426178643 L208.55612546630334,783.1666192166961 L208.4174885937648,783.0546087861893 L208.28397905857472,782.9365337126857 L208.15586193155696,782.8126284233139 L208.03339157740817,782.6831389205569 L207.91681114968011,782.5483222938363 L207.80635210802083,782.4084462090852 L207.70223375863296,782.2637883773224 L207.60466281886158,782.1146360032826 L207.51383300677597,781.9612852151982 L207.42992465656047,781.8040404768644 L207.3531043604775,781.6432139831536 L207.28352463811405,781.4791250401825 L207.22132363356832,781.3120994313583 L207.16662484117722,781.1424687705669 L207.1195368603299,780.9705698437834 L207.08015317985365,780.7967439404154 L207.04855199240052,780.6213361757037 L207.02479603920307,780.4446948055288 L207.0089324855074,780.2671705349804 L207.00099282693097,780.0891158220654 L207.00099282693097,779.9108841779346 L207.0089324855074,779.7328294650194 L207.02479603920307,779.5553051944712 L207.04855199240052,779.3786638242963 L207.08015317985365,779.2032560595846 L207.1195368603299,779.0294301562166 L207.16662484117722,778.8575312294331 L207.22132363356832,778.6879005686417 L207.28352463811405,778.5208749598175 L207.3531043604775,778.3567860168464 L207.42992465656047,778.1959595231356 L207.513833006776,778.0387147848016 L207.60466281886158,777.8853639967174 L207.70223375863296,777.7362116226776 L207.80635210802083,777.5915537909148 L207.91681114968011,777.4516777061637 L208.0333915774082,777.3168610794431 L208.15586193155698,777.1873715766861 L208.28397905857472,777.0634662873143 L208.4174885937648,776.9453912138107 L208.55612546630334,776.8333807833039 L208.69961442551278,776.7276573821357 L208.84767058734653,776.6284309143329 L209.0,776.5358983848622 L209.1563002275247,776.450243508496 L209.31626095028668,776.3716363450626 L209.47956458107754,776.3002329618088 L209.6458868956545,776.2361751235426 L209.81489767645746,776.1795900111723 L209.98626136822554,776.130589969201 L210.1596377442109,776.0892722826761 L210.3346825816675,776.0557189840399 L210.51104834527348,776.0299966902608 L210.6883848771304,776.0121564705722 L210.8663400919693,776.002233745079 L211.04456067618347,776.000248214434 L211.2226927892998,776.0062038207247 L211.4003827664964,776.020088739646 L211.57727782077131,776.0418754039766 L211.75302674336845,776.0715205583111 L211.92728060107012,776.1089653449399 L212.0996934289715,776.1541354207048 L212.26992291736215,776.2069411046019 L212.43763109135006,776.2672775558336 L212.6024849818795,776.3350249819609 L212.76415728681053,776.4100488767403 L212.92232702074674,776.4922002871733 L213.0766801523223,776.5813161092387 L213.22691022768208,776.6772194117208 L213.37271897891742,776.7797197874897 L213.51381691624943,776.8886137315372 L213.64992390278417,777.0036850450173 L213.78076971069856,777.1247052644883 L213.90609455775265,777.2514341155066 L214.0256496230632,777.3836199896695 L214.13919754111464,777.521000444159 L214.24651287302612,777.6633027227996 L214.34738255413973,777.8102442975891 L214.44160631704054,777.9615334296323 L214.5289970891691,778.1168697483615 L214.60938136423664,778.2759448478946 L214.68259954670572,778.438442899346 L214.7485062686524,778.6040412778761 L214.80697067838094,778.772411203233 L214.8578767002175,778.9432183925148 L214.90112326496782,779.116123723858 L214.9366245105807,779.2907839097319 L214.96430995261912,779.4668521785048 L214.98412462420058,779.6439789629269 L214.9960291851288,779.8218125941632 L215.0,780.0 " />
			<path d="M240.0,738.0 L239.9960148986388,738.4807494128099 L239.9840606897988,738.9613666990585 L239.96414065891,739.4417197684975 L239.9362602806856,739.9216766034941 L239.90042721761756,740.401105295315 L239.85665131787061,740.8798740803787 L239.80494461257558,741.3578513764687 L239.74532131252298,741.8349058188973 L239.67779780425724,742.3109062966086 L239.6023926455731,742.785721988213 L239.5191265604155,743.2592223979409 L239.42802243318366,743.7312773915077 L239.32910530244183,744.2017572318789 L239.22240235403774,744.670532614927 L239.1079429136311,745.1374747049679 L238.98575843863367,745.60245517017 L238.85588250956397,746.065346217824 L238.71835082081796,746.5260206294648 L238.57320117085908,746.9843517958357 L238.42047345182996,747.4402137516843 L238.26020963858858,747.893481210383 L238.09245377717218,748.344029598362 L237.91725197269193,748.7917350893456 L237.7346523766616,749.2364746383847 L237.54470517376384,749.6781260156737 L237.34746256805775,750.1165678401433 L237.14297876863137,750.5516796128203 L236.93130997470314,750.9833417499449 L236.7125143601764,751.4114356158362 L236.4866520576513,751.8358435554981 L236.25378514189808,752.256448926954 L236.01397761279696,752.6731361333048 L235.76729537774867,753.0857906544984 L235.5138062335608,753.4942990788043 L235.25357984781508,753.8985491339826 L234.98668773971997,754.2984297181406 L234.71320326045506,754.6938309302672 L234.4332015730114,755.0846441004376 L234.14675963153422,755.4707618196798 L233.85395616017323,755.8520779694936 L233.55487163144653,756.2284877510168 L233.24958824412394,756.5998877138262 L232.938189900636,756.9661757843703 L232.62076218401455,757.3272512940223 L232.29739233437175,757.6830150067474 L231.9681692249233,758.0333691463762 L231.6331833375631,758.3782174234772 L231.2925267379957,758.7174650618199 L230.9462930504334,759.0510188244235 L230.59457743186516,759.3787870391807 L230.23747654590412,759.700679624053 L229.87508853622103,760.0166081118282 L229.50751299957113,760.326485674434 L229.13485095842145,760.6302271468018 L228.75720483318628,760.9277490502724 L228.37467841407852,761.2189696155397 L227.9873768325847,761.5038088051227 L227.59540653257096,761.7821883353636 L227.19887524102873,762.0540316979417 L226.79789193846767,762.3192641809019 L226.392566828964,762.5778128891868 L225.98301130987255,762.8296067646717 L225.56933794121105,763.0745766056934 L225.15166041472463,763.3126550860694 L224.73009352263944,763.5437767736013 L224.30475312611378,763.767878148058 L223.8757561233955,763.9848976186331 L223.44322041769416,764.1947755408722 L223.00726488477738,764.3974542330656 L222.56800934029943,764.5928779921005 L222.12557450687194,764.780993108771 L221.680081980885,764.9617478825386 L221.23165419908847,765.1350926357416 L220.78041440494184,765.300979727248 L220.3264866147429,765.4593635655494 L219.86999558354373,765.6102006212906 L219.41106677086358,765.7534494392332 L218.94982630620842,765.889070649649 L218.48640095440607,766.0170269791402 L218.02091808076688,766.1372832608829 L217.5535056160794,766.249806444293 L217.08429202145044,766.3545656041089 L216.61340625299965,766.4515319488913 L216.14097772641782,766.540678828936 L215.66713628139908,766.6219817435979 L215.19201214595634,766.6954183480248 L214.7157359006302,766.7609684592986 L214.23843844260094,766.8186140619823 L213.76025094971334,766.8683393130711 L213.28130484442457,766.9101305463466 L212.80173175768473,766.943976276133 L212.32166349276002,766.9698672004533 L211.84123198900886,766.9877962035865 L211.36056928562013,766.9977583580226 L210.87980748532445,766.9997509258169 L210.39907871808762,766.993773359343 L209.91851510479694,766.9798273014428 L209.43824872094956,766.9579165849752 L208.95841156035374,766.9280472317629 L208.47913549885243,766.8902274509367 L208.000552258079,766.8444676366801 L207.5227933692559,766.7907803653724 L207.045990137045,766.7291803921319 L206.57027360346083,766.6596846467613 L206.09577451185547,766.5823122290943 L205.62262327098583,766.4970844037466 L205.15094991917292,766.4040245942714 L204.68088408856272,766.3031583767222 L204.2125549694987,766.194513472623 L203.7460912750161,766.0781197413503 L203.28162120546688,765.9540091719256 L202.81927241328597,765.822215874225 L202.3591719679079,765.6827760696035 L201.90144632084383,765.5357280809409 L201.44622127092813,765.3811123221087 L200.99362192974473,765.2189712868637 L200.5437726872419,765.0493495371687 L200.09679717754577,764.8722936909454 L199.65281824498132,764.6878524092624 L199.2119579103105,764.4960763829611 L198.77433733719676,764.2970183187247 L198.34007679890505,764.0907329245917 L197.90929564524652,763.8772768949215 L197.4821122697772,763.6567088948113 L197.0586440772592,763.4290895439742 L196.63900745139395,763.1944814000781 L196.22331772283584,762.9529489415528 L195.81168913749548,762.7045585498695 L195.40423482514078,762.449378491296 L195.00106676830524,762.187478898136 L194.60229577151102,761.9189317494531 L194.20803143081622,761.6438108512892 L193.818382103694,761.3621918163801 L193.43345487925222,761.0741520433738 L193.05335554880165,760.7797706955595 L192.67818857678083,760.4791286791102 L192.3080570720457,760.1723086208473 L191.94306275953164,759.8593948455315 L191.58330595229603,759.5404733526879 L191.2288855239487,759.2156317929699 L190.87989888147797,758.88495944407 L190.53644193847998,758.5485471861832 L190.19860908879832,758.2064874770301 L189.86649318058113,757.858874326446 L189.54018549076346,757.5058032705439 L189.2197756999811,757.147371345458 L188.90535186792326,756.7836770606748 L188.59700040913071,756.4148203719589 L188.29480606924605,756.0409026538822 L187.99885190172276,755.6620266719626 L187.7092192449992,755.2782965544201 L187.4259877001439,754.889817763559 L187.14923510897864,754.4966970667834 L186.8790375326846,754.0990425072538 L186.61546923089833,753.6969633741923 L186.3586026413024,753.2905701728474 L186.10850835971726,752.8799745941226 L185.86525512069886,752.4652894838799 L185.62890977864822,752.046628811926 L185.39953728943732,751.6241076406893 L185.17720069255714,751.1978420935973 L184.96196109379213,750.7679493231609 L184.75387764842634,750.3345474787778 L184.55300754498532,749.8977556742605 L184.35940598951896,749.4576939550994 L184.17312619042877,749.014483265471 L183.99421934384446,748.5682454149975 L183.8227346195535,748.1191030452695 L183.65871914748746,747.6671795961403 L183.50221800476916,747.2125992717995 L183.35327420332396,746.755487006638 L183.2119286780584,746.2959684309119 L183.0782202756101,745.8341698362143 L182.95218574367127,745.3702181407665 L182.8338597208891,744.9042408545362 L182.723274727346,744.4363660441937 L182.6204611556218,743.9667222979143 L182.525447262441,743.4954386900384 L182.43825916090668,743.0226447455966 L182.35892081332386,742.5484704047126 L182.28745402461365,742.0730459868906 L182.22387843632072,741.5965021551991 L182.16821152121491,741.1189698803605 L182.12046857848932,740.6405804047553 L182.08066272955537,740.1614652063524 L182.0488049144367,739.6817559625747 L182.02490388876245,739.201584514109 L182.00896622136088,738.7210828286719 L182.0009962924541,738.2403829647411 L182.00099629245406,737.7596170352598 L182.00896622136085,737.2789171713289 L182.02490388876242,736.798415485892 L182.04880491443666,736.3182440374262 L182.08066272955529,735.8385347936485 L182.12046857848924,735.3594195952456 L182.16821152121483,734.8810301196404 L182.2238784363206,734.4034978448017 L182.28745402461354,733.9269540131103 L182.35892081332372,733.4515295952882 L182.43825916090654,732.9773552544042 L182.52544726244082,732.5045613099625 L182.62046115562163,732.0332777020865 L182.7232747273458,731.5636339558072 L182.83385972088888,731.0957591454646 L182.95218574367104,730.6297818592344 L183.07822027560988,730.1658301637866 L183.21192867805814,729.704031569089 L183.35327420332368,729.2445129933628 L183.5022180047689,728.7874007282014 L183.65871914748715,728.3328204038605 L183.8227346195532,727.8808969547313 L183.99421934384415,727.4317545850033 L184.17312619042843,726.9855167345298 L184.35940598951862,726.5423060449014 L184.55300754498495,726.1022443257403 L184.75387764842594,725.665452521223 L184.96196109379173,725.2320506768399 L185.1772006925567,724.8021579064035 L185.3995372894369,724.3758923593115 L185.6289097786478,723.9533711880748 L185.86525512069844,723.5347105161209 L186.1085083597168,723.1200254058781 L186.35860264130196,722.7094298271534 L186.61546923089784,722.3030366258084 L186.87903753268412,721.900957492747 L187.14923510897813,721.5033029332172 L187.4259877001434,721.1101822364417 L187.70921924499865,720.7217034455807 L187.99885190172222,720.3379733280382 L188.2948060692455,719.9590973461185 L188.59700040913015,719.5851796280418 L188.9053518679227,719.2163229393259 L189.21977569998052,718.8526286545426 L189.54018549076287,718.4941967294568 L189.8664931805805,718.1411256735546 L190.1986090887977,717.7935125229704 L190.53644193847938,717.4514528138174 L190.87989888147732,717.1150405559306 L191.22888552394804,716.7843682070308 L191.58330595229538,716.4595266473127 L191.943062759531,716.1406051544691 L192.30805707204502,715.8276913791533 L192.67818857678014,715.5208713208904 L193.05335554880097,715.2202293044411 L193.4334548792515,714.9258479566267 L193.8183821036933,714.6378081836205 L194.2080314308155,714.3561891487112 L194.60229577151028,714.0810682505474 L195.0010667683045,713.8125211018645 L195.40423482514004,713.5506215087045 L195.8116891374947,713.2954414501311 L196.2233177228351,713.0470510584477 L196.63900745139318,712.8055185999224 L197.05864407725844,712.5709104560262 L197.4821122697764,712.3432911051891 L197.90929564524572,712.1227231050789 L198.34007679890425,711.9092670754086 L198.77433733719596,711.7029816812758 L199.21195791030968,711.5039236170393 L199.6528182449805,711.3121475907379 L200.09679717754491,711.1277063090549 L200.54377268724105,710.9506504628316 L200.99362192974385,710.7810287131365 L201.44622127092725,710.6188876778916 L201.90144632084295,710.4642719190595 L202.359171967907,710.3172239303968 L202.81927241328506,710.1777841257752 L203.28162120546597,710.0459908280747 L203.74609127501517,709.9218802586499 L204.21255496949777,709.8054865273772 L204.68088408856175,709.696841623278 L205.15094991917198,709.5959754057287 L205.62262327098486,709.5029155962536 L206.09577451185447,709.4176877709059 L206.57027360345987,709.3403153532389 L207.04599013704404,709.2708196078682 L207.5227933692549,709.2092196346277 L208.00055225807802,709.15553236332 L208.4791354988514,709.1097725490635 L208.95841156035272,709.0719527682372 L209.4382487209485,709.0420834150248 L209.9185151047959,709.0201726985573 L210.3990787180866,709.0062266406571 L210.8798074853234,709.0002490741831 L211.36056928561908,709.0022416419774 L211.84123198900778,709.0122037964134 L212.32166349275897,709.0301327995465 L212.80173175768365,709.0560237238669 L213.2813048444235,709.0898694536533 L213.76025094971226,709.1316606869287 L214.23843844259986,709.1813859380176 L214.7157359006291,709.2390315407013 L215.19201214595523,709.3045816519751 L215.66713628139797,709.378018256402 L216.14097772641674,709.4593211710638 L216.61340625299854,709.5484680511084 L217.08429202144933,709.6454343958909 L217.5535056160783,709.7501935557068 L218.02091808076577,709.8627167391169 L218.48640095440496,709.9829730208595 L218.94982630620729,710.1109293503506 L219.41106677086245,710.2465505607664 L219.8699955835426,710.3897993787091 L220.32648661474178,710.5406364344502 L220.7804144049407,710.6990202727516 L221.23165419908736,710.864907364258 L221.6800819808839,711.038252117461 L222.1255745068708,711.2190068912286 L222.56800934029832,711.407122007899 L223.00726488477628,711.6025457669339 L223.44322041769306,711.8052244591272 L223.87575612339438,712.0151023813663 L224.30475312611267,712.2321218519414 L224.73009352263833,712.456223226398 L225.15166041472352,712.68734491393 L225.56933794120997,712.925423394306 L225.98301130987147,713.1703932353277 L226.39256682896294,713.4221871108125 L226.79789193846662,713.6807358190974 L227.19887524102768,713.9459683020575 L227.59540653256988,714.2178116646357 L227.98737683258366,714.4961911948765 L228.3746784140775,714.7810303844595 L228.75720483318523,715.0722509497268 L229.13485095842043,715.3697728531974 L229.5075129995701,715.6735143255652 L229.87508853622,715.983391888171 L230.23747654590312,716.2993203759461 L230.5945774318642,716.6212129608184 L230.94629305043244,716.9489811755756 L231.29252673799473,717.2825349381791 L231.63318333756214,717.6217825765219 L231.96816922492235,717.9666308536227 L232.2973923343708,718.3169849932516 L232.62076218401364,718.6727487059767 L232.93818990063508,719.0338242156287 L233.24958824412306,719.4001122861728 L233.55487163144565,719.7715122489822 L233.85395616017237,720.1479220305052 L234.14675963153337,720.5292381803192 L234.43320157301056,720.9153558995613 L234.71320326045424,721.3061690697317 L234.98668773971917,721.7015702818583 L235.2535798478143,722.1014508660162 L235.51380623356005,722.5057009211945 L235.7672953777479,722.9142093455004 L236.01397761279623,723.326863866694 L236.25378514189737,723.7435510730447 L236.48665205765062,724.1641564445006 L236.71251436017573,724.5885643841624 L236.9313099747025,725.0166582500539 L237.14297876863074,725.4483203871783 L237.34746256805713,725.8834321598554 L237.54470517376325,726.321873984325 L237.73465237666102,726.7635253616139 L237.91725197269136,727.208264910653 L238.09245377717164,727.6559704016366 L238.26020963858804,728.1065187896155 L238.42047345182948,728.5597862483144 L238.57320117085862,729.015648204163 L238.7183508208175,729.4739793705337 L238.85588250956354,729.9346537821745 L238.98575843863327,730.3975448298286 L239.1079429136307,730.8625252950307 L239.2224023540374,731.3294673850716 L239.3291053024415,731.7982427681195 L239.42802243318334,732.2687226084907 L239.5191265604152,732.7407776020575 L239.60239264557285,733.2142780117854 L239.67779780425698,733.6890937033899 L239.74532131252278,734.1650941811012 L239.8049446125754,734.6421486235297 L239.85665131787044,735.1201259196197 L239.90042721761742,735.5988947046833 L239.9362602806855,736.0783233965043 L239.9641406589099,736.5582802315009 L239.98406068979875,737.0386333009398 L239.99601489863878,737.5192505871884 L240.0,737.9999999999983 " />
			<path d="M215.0,696.0 L214.9960291851288,696.1781874058368 L214.98412462420058,696.3560210370731 L214.96430995261912,696.5331478214952 L214.9366245105807,696.7092160902681 L214.90112326496785,696.883876276142 L214.8578767002175,697.0567816074852 L214.80697067838094,697.227588796767 L214.74850626865242,697.3959587221239 L214.68259954670572,697.561557100654 L214.60938136423667,697.7240551521054 L214.52899708916914,697.8831302516385 L214.44160631704057,698.0384665703676 L214.34738255413973,698.1897557024109 L214.24651287302612,698.3366972772004 L214.13919754111464,698.478999555841 L214.02564962306323,698.6163800103305 L213.90609455775265,698.7485658844932 L213.78076971069856,698.8752947355117 L213.64992390278417,698.9963149549827 L213.51381691624943,699.1113862684628 L213.37271897891742,699.2202802125103 L213.22691022768208,699.3227805882792 L213.0766801523223,699.4186838907613 L212.92232702074674,699.5077997128267 L212.76415728681053,699.5899511232597 L212.6024849818795,699.6649750180391 L212.43763109135006,699.7327224441664 L212.26992291736218,699.7930588953981 L212.09969342897153,699.8458645792952 L211.92728060107012,699.8910346550601 L211.75302674336845,699.9284794416889 L211.57727782077131,699.9581245960234 L211.4003827664964,699.979911260354 L211.2226927892998,699.9937961792753 L211.04456067618347,699.999751785566 L210.8663400919693,699.997766254921 L210.6883848771304,699.9878435294278 L210.51104834527348,699.9700033097392 L210.3346825816675,699.9442810159601 L210.1596377442109,699.9107277173239 L209.98626136822554,699.869410030799 L209.81489767645746,699.8204099888277 L209.6458868956545,699.7638248764574 L209.47956458107754,699.6997670381912 L209.31626095028668,699.6283636549374 L209.1563002275247,699.549756491504 L209.0,699.4641016151378 L208.84767058734653,699.3715690856671 L208.69961442551275,699.2723426178643 L208.55612546630334,699.1666192166961 L208.4174885937648,699.0546087861893 L208.28397905857472,698.9365337126857 L208.15586193155696,698.8126284233139 L208.03339157740817,698.6831389205569 L207.91681114968011,698.5483222938363 L207.80635210802083,698.4084462090852 L207.70223375863296,698.2637883773224 L207.60466281886158,698.1146360032826 L207.51383300677597,697.9612852151982 L207.42992465656047,697.8040404768644 L207.3531043604775,697.6432139831536 L207.28352463811405,697.4791250401825 L207.22132363356832,697.3120994313583 L207.16662484117722,697.1424687705669 L207.1195368603299,696.9705698437834 L207.08015317985365,696.7967439404154 L207.04855199240052,696.6213361757037 L207.02479603920307,696.4446948055288 L207.0089324855074,696.2671705349804 L207.00099282693097,696.0891158220654 L207.00099282693097,695.9108841779346 L207.0089324855074,695.7328294650194 L207.02479603920307,695.5553051944712 L207.04855199240052,695.3786638242963 L207.08015317985365,695.2032560595846 L207.1195368603299,695.0294301562166 L207.16662484117722,694.8575312294331 L207.22132363356832,694.6879005686417 L207.28352463811405,694.5208749598175 L207.3531043604775,694.3567860168464 L207.42992465656047,694.1959595231356 L207.513833006776,694.0387147848016 L207.60466281886158,693.8853639967174 L207.70223375863296,693.7362116226776 L207.80635210802083,693.5915537909148 L207.91681114968011,693.4516777061637 L208.0333915774082,693.3168610794431 L208.15586193155698,693.1873715766861 L208.28397905857472,693.0634662873143 L208.4174885937648,692.9453912138107 L208.55612546630334,692.8333807833039 L208.69961442551278,692.7276573821357 L208.84767058734653,692.6284309143329 L209.0,692.5358983848622 L209.1563002275247,692.450243508496 L209.31626095028668,692.3716363450626 L209.47956458107754,692.3002329618088 L209.6458868956545,692.2361751235426 L209.81489767645746,692.1795900111723 L209.98626136822554,692.130589969201 L210.1596377442109,692.0892722826761 L210.3346825816675,692.0557189840399 L210.51104834527348,692.0299966902608 L210.6883848771304,692.0121564705722 L210.8663400919693,692.002233745079 L211.04456067618347,692.000248214434 L211.2226927892998,692.0062038207247 L211.4003827664964,692.020088739646 L211.57727782077131,692.0418754039766 L211.75302674336845,692.0715205583111 L211.92728060107012,692.1089653449399 L212.0996934289715,692.1541354207048 L212.26992291736215,692.2069411046019 L212.43763109135006,692.2672775558336 L212.6024849818795,692.3350249819609 L212.76415728681053,692.4100488767403 L212.92232702074674,692.4922002871733 L213.0766801523223,692.5813161092387 L213.22691022768208,692.6772194117208 L213.37271897891742,692.7797197874897 L213.51381691624943,692.8886137315372 L213.64992390278417,693.0036850450173 L213.78076971069856,693.1247052644883 L213.90609455775265,693.2514341155066 L214.0256496230632,693.3836199896695 L214.13919754111464,693.521000444159 L214.24651287302612,693.6633027227996 L214.34738255413973,693.8102442975891 L214.44160631704054,693.9615334296323 L214.5289970891691,694.1168697483615 L214.60938136423664,694.2759448478946 L214.68259954670572,694.438442899346 L214.7485062686524,694.6040412778761 L214.80697067838094,694.772411203233 L214.8578767002175,694.9432183925148 L214.90112326496782,695.116123723858 L214.9366245105807,695.2907839097319 L214.96430995261912,695.4668521785048 L214.98412462420058,695.6439789629269 L214.9960291851288,695.8218125941632 L215.0,696.0 " />
			<path d="M358.5,660.0 L358.5,816.0 " />
			<path d="M358.5,816.0 L270.5,816.0 " />
			<path d="M270.5,816.0 L270.5,660.0 " />
			<path d="M270.5,660.0 L358.5,660.0 " />
			<path d="M262.5,542.625 L262.5,620.625 " />
			<path d="M262.5,620.625 L159.5,620.625 " />
			<path d="M159.5,620.625 L159.5,542.625 " />
			<path d="M159.5,542.625 L262.5,542.625 " />
			<path d="M262.5,436.875 L262.5,514.875 " />
			<path d="M262.5,514.875 L159.5,514.875 " />
			<path d="M159.5,514.875 L159.5,436.875 " />
			<path d="M159.5,436.875 L262.5,436.875 " />
			<path d="M131.5,331.125 L131.5,409.125 " />
			<path d="M131.5,409.125 L28.5,409.125 " />
			<path d="M28.5,409.125 L28.5,331.125 " />
			<path d="M28.5,331.125 L131.5,331.125 " />
			<path d="M131.5,225.375 L131.5,303.375 " />
			<path d="M131.5,303.375 L28.5,303.375 " />
			<path d="M28.5,303.375 L28.5,225.375 " />
			<path d="M28.5,225.375 L131.5,225.375 " />
			<path d="M150.05,370.125 L150.0460590480673,370.2667156440014 L150.0342483735257,370.4079932530685 L150.01460448249344,370.5483961462082 L149.9871880931119,370.6874903461237 L149.95208394786954,370.8248459206144 L149.90940055166752,370.96003831147095 L149.85926983643742,371.09264964676095 L149.80184675334718,371.2222700324465 L149.7373087938558,371.3484988193437 L149.6658554410976,371.47094584150625 L149.58770755329107,371.5892326222057 L149.50310668107898,371.7029935437817 L149.41231432090908,371.811876977745 L149.3156111067635,371.9155463716411 L149.21329594273539,372.01368128931443 L149.10568507913325,372.10597840135847 L148.9931111349696,372.19215242268916 L148.8759220698545,372.271936994345 L148.75448010847236,372.3450855067873 L148.62916062096627,372.4113718621561 L148.50035096269033,372.47059117312557 L148.36844927691652,372.52256039619925 L148.23386326419654,372.5671188974869 L148.09700892218294,372.6041289492146 L147.95830925980405,372.63347615543336 L147.81819298976777,372.65506980561065 L147.677093203435,372.66884315501113 L147.5354460321592,372.6747536310013 L147.39368929922935,372.67278296463843 L147.25226116658314,372.6629372471393 L147.1115987804737,372.64524691105265 L146.97213692027543,372.6197666361934 L146.834306654606,372.5865751806309 L146.69853400891785,372.54577513725224 L146.565238648678,372.49749261665335 L146.43483258220604,372.4418768573384 L146.30771888718024,372.3790997644322 L146.18429046474733,372.30935537833136 L146.0649288250876,372.23285927493646 L145.95000290818896,372.1498478993192 L145.8398679434744,372.06057783488444 L145.73486435180823,371.9653250102856 L145.6353166932748,371.8643838465446 L145.54153266398183,371.75806634701405 L145.45380214498925,371.6467011329921 L145.3723963063037,371.5306324279732 L145.29756676870733,371.41021899367297 L145.22954482601259,371.2858330211162 L145.1685407301461,371.1578589802158 L145.11474304127228,371.02669243139826 L145.06831804496434,370.8927388029492 L145.02940923822538,370.7564121378576 L144.99813688594725,370.61813381403255 L144.97459764917872,370.4783312418487 L144.95886428635166,370.33743654304493 L144.9509854283889,370.1958852150608 L144.9509854283889,370.0541147849392 L144.95886428635166,369.9125634569551 L144.97459764917872,369.7716687581513 L144.99813688594725,369.63186618596745 L145.02940923822536,369.4935878621425 L145.06831804496431,369.3572611970508 L145.11474304127228,369.22330756860174 L145.1685407301461,369.0921410197842 L145.22954482601259,368.96416697888384 L145.29756676870733,368.83978100632703 L145.37239630630367,368.71936757202684 L145.45380214498925,368.60329886700794 L145.5415326639818,368.49193365298595 L145.6353166932748,368.3856161534554 L145.7348643518082,368.28467498971446 L145.8398679434744,368.18942216511556 L145.95000290818896,368.1001521006808 L146.0649288250876,368.01714072506354 L146.1842904647473,367.94064462166864 L146.30771888718024,367.87090023556783 L146.43483258220604,367.80812314266166 L146.56523864867796,367.75250738334665 L146.69853400891785,367.70422486274776 L146.834306654606,367.6634248193691 L146.97213692027543,367.6302333638066 L147.11159878047368,367.60475308894735 L147.25226116658314,367.5870627528607 L147.39368929922932,367.57721703536157 L147.5354460321592,367.5752463689987 L147.67709320343496,367.5811568449888 L147.81819298976774,367.59493019438935 L147.95830925980405,367.6165238445666 L148.0970089221829,367.6458710507854 L148.23386326419651,367.6828811025131 L148.3684492769165,367.72743960380075 L148.50035096269033,367.77940882687443 L148.62916062096625,367.8386281378439 L148.75448010847234,367.9049144932127 L148.87592206985448,367.978063005655 L148.9931111349696,368.0578475773108 L149.10568507913325,368.14402159864153 L149.21329594273536,368.2363187106855 L149.3156111067635,368.3344536283589 L149.41231432090905,368.438123022255 L149.50310668107898,368.5470064562183 L149.58770755329104,368.6607673777943 L149.66585544109756,368.7790541584937 L149.7373087938558,368.9015011806562 L149.80184675334715,369.0277299675535 L149.85926983643742,369.15735035323905 L149.9094005516675,369.289961688529 L149.9520839478695,369.4251540793856 L149.9871880931119,369.5625096538763 L150.01460448249344,369.7016038537918 L150.0342483735257,369.8420067469314 L150.0460590480673,369.9832843559986 L150.05,370.125 " />
			<path d="M150.05,264.375 L150.0460590480673,264.5167156440014 L150.0342483735257,264.6579932530685 L150.01460448249344,264.7983961462082 L149.9871880931119,264.9374903461237 L149.95208394786954,265.0748459206144 L149.90940055166752,265.21003831147095 L149.85926983643742,265.34264964676095 L149.80184675334718,265.4722700324465 L149.7373087938558,265.5984988193437 L149.6658554410976,265.72094584150625 L149.58770755329107,265.8392326222057 L149.50310668107898,265.9529935437817 L149.41231432090908,266.061876977745 L149.3156111067635,266.1655463716411 L149.21329594273539,266.26368128931443 L149.10568507913325,266.35597840135847 L148.9931111349696,266.44215242268916 L148.8759220698545,266.521936994345 L148.75448010847236,266.5950855067873 L148.62916062096627,266.6613718621561 L148.50035096269033,266.72059117312557 L148.36844927691652,266.77256039619925 L148.23386326419654,266.8171188974869 L148.09700892218294,266.8541289492146 L147.95830925980405,266.88347615543336 L147.81819298976777,266.90506980561065 L147.677093203435,266.91884315501113 L147.5354460321592,266.9247536310013 L147.39368929922935,266.92278296463843 L147.25226116658314,266.9129372471393 L147.1115987804737,266.89524691105265 L146.97213692027543,266.8697666361934 L146.834306654606,266.8365751806309 L146.69853400891785,266.79577513725224 L146.565238648678,266.74749261665335 L146.43483258220604,266.6918768573384 L146.30771888718024,266.6290997644322 L146.18429046474733,266.55935537833136 L146.0649288250876,266.48285927493646 L145.95000290818896,266.3998478993192 L145.8398679434744,266.31057783488444 L145.73486435180823,266.2153250102856 L145.6353166932748,266.1143838465446 L145.54153266398183,266.00806634701405 L145.45380214498925,265.8967011329921 L145.3723963063037,265.7806324279732 L145.29756676870733,265.66021899367297 L145.22954482601259,265.5358330211162 L145.1685407301461,265.4078589802158 L145.11474304127228,265.27669243139826 L145.06831804496434,265.1427388029492 L145.02940923822538,265.0064121378576 L144.99813688594725,264.86813381403255 L144.97459764917872,264.7283312418487 L144.95886428635166,264.58743654304493 L144.9509854283889,264.4458852150608 L144.9509854283889,264.3041147849392 L144.95886428635166,264.1625634569551 L144.97459764917872,264.0216687581513 L144.99813688594725,263.88186618596745 L145.02940923822536,263.7435878621425 L145.06831804496431,263.6072611970508 L145.11474304127228,263.47330756860174 L145.1685407301461,263.3421410197842 L145.22954482601259,263.21416697888384 L145.29756676870733,263.08978100632703 L145.37239630630367,262.96936757202684 L145.45380214498925,262.85329886700794 L145.5415326639818,262.74193365298595 L145.6353166932748,262.6356161534554 L145.7348643518082,262.53467498971446 L145.8398679434744,262.43942216511556 L145.95000290818896,262.3501521006808 L146.0649288250876,262.26714072506354 L146.1842904647473,262.19064462166864 L146.30771888718024,262.12090023556783 L146.43483258220604,262.05812314266166 L146.56523864867796,262.00250738334665 L146.69853400891785,261.95422486274776 L146.834306654606,261.9134248193691 L146.97213692027543,261.8802333638066 L147.11159878047368,261.85475308894735 L147.25226116658314,261.8370627528607 L147.39368929922932,261.82721703536157 L147.5354460321592,261.8252463689987 L147.67709320343496,261.8311568449888 L147.81819298976774,261.84493019438935 L147.95830925980405,261.8665238445666 L148.0970089221829,261.8958710507854 L148.23386326419651,261.9328811025131 L148.3684492769165,261.97743960380075 L148.50035096269033,262.02940882687443 L148.62916062096625,262.0886281378439 L148.75448010847234,262.1549144932127 L148.87592206985448,262.228063005655 L148.9931111349696,262.3078475773108 L149.10568507913325,262.39402159864153 L149.21329594273536,262.4863187106855 L149.3156111067635,262.5844536283589 L149.41231432090905,262.688123022255 L149.50310668107898,262.7970064562183 L149.58770755329104,262.9107673777943 L149.66585544109756,263.0290541584937 L149.7373087938558,263.1515011806562 L149.80184675334715,263.2777299675535 L149.85926983643742,263.40735035323905 L149.9094005516675,263.539961688529 L149.9520839478695,263.6751540793856 L149.9871880931119,263.8125096538763 L150.01460448249344,263.9516038537918 L150.0342483735257,264.0920067469314 L150.0460590480673,264.2332843559986 L150.05,264.375 " />
			<path d="M131.5,119.625 L131.5,197.625 " />
			<path d="M131.5,197.625 L28.5,197.625 " />
			<path d="M28.5,197.625 L28.5,119.625 " />
			<path d="M28.5,119.625 L131.5,119.625 " />
			<path d="M131.5,13.875 L131.5,91.875 " />
			<path d="M131.5,91.875 L28.5,91.875 " />
			<path d="M28.5,91.875 L28.5,13.875 " />
			<path d="M28.5,13.875 L131.5,13.875 " />
			<path d="M150.05,158.625 L150.0460590480673,158.76671564400138 L150.0342483735257,158.90799325306855 L150.01460448249344,159.04839614620818 L149.9871880931119,159.1874903461237 L149.95208394786954,159.32484592061437 L149.90940055166752,159.46003831147098 L149.85926983643742,159.59264964676092 L149.80184675334718,159.7222700324465 L149.7373087938558,159.84849881934372 L149.6658554410976,159.97094584150625 L149.58770755329107,160.0892326222057 L149.50310668107898,160.2029935437817 L149.41231432090908,160.311876977745 L149.3156111067635,160.41554637164108 L149.21329594273539,160.51368128931446 L149.10568507913325,160.60597840135847 L148.9931111349696,160.6921524226892 L148.8759220698545,160.77193699434503 L148.75448010847236,160.84508550678734 L148.62916062096627,160.91137186215607 L148.50035096269033,160.97059117312554 L148.36844927691652,161.02256039619925 L148.23386326419654,161.06711889748692 L148.09700892218294,161.1041289492146 L147.95830925980405,161.13347615543339 L147.81819298976777,161.15506980561065 L147.677093203435,161.16884315501116 L147.5354460321592,161.17475363100127 L147.39368929922935,161.1727829646384 L147.25226116658314,161.16293724713935 L147.1115987804737,161.14524691105265 L146.97213692027543,161.1197666361934 L146.834306654606,161.08657518063092 L146.69853400891785,161.04577513725226 L146.565238648678,160.99749261665335 L146.43483258220604,160.94187685733837 L146.30771888718024,160.8790997644322 L146.18429046474733,160.80935537833136 L146.0649288250876,160.73285927493643 L145.95000290818896,160.64984789931918 L145.8398679434744,160.56057783488447 L145.73486435180823,160.46532501028557 L145.6353166932748,160.36438384654463 L145.54153266398183,160.25806634701405 L145.45380214498925,160.1467011329921 L145.3723963063037,160.0306324279732 L145.29756676870733,159.91021899367297 L145.22954482601259,159.7858330211162 L145.1685407301461,159.6578589802158 L145.11474304127228,159.5266924313983 L145.06831804496434,159.39273880294922 L145.02940923822538,159.25641213785758 L144.99813688594725,159.11813381403255 L144.97459764917872,158.9783312418487 L144.95886428635166,158.83743654304493 L144.9509854283889,158.6958852150608 L144.9509854283889,158.5541147849392 L144.95886428635166,158.4125634569551 L144.97459764917872,158.2716687581513 L144.99813688594725,158.13186618596745 L145.02940923822536,157.99358786214245 L145.06831804496431,157.8572611970508 L145.11474304127228,157.72330756860174 L145.1685407301461,157.59214101978424 L145.22954482601259,157.4641669788838 L145.29756676870733,157.33978100632706 L145.37239630630367,157.2193675720268 L145.45380214498925,157.1032988670079 L145.5415326639818,156.99193365298595 L145.6353166932748,156.88561615345537 L145.7348643518082,156.78467498971443 L145.8398679434744,156.68942216511553 L145.95000290818896,156.60015210068082 L146.0649288250876,156.51714072506357 L146.1842904647473,156.44064462166864 L146.30771888718024,156.3709002355678 L146.43483258220604,156.30812314266163 L146.56523864867796,156.25250738334665 L146.69853400891785,156.20422486274774 L146.834306654606,156.16342481936908 L146.97213692027543,156.1302333638066 L147.11159878047368,156.10475308894735 L147.25226116658314,156.08706275286065 L147.39368929922932,156.0772170353616 L147.5354460321592,156.07524636899873 L147.67709320343496,156.08115684498884 L147.81819298976774,156.09493019438935 L147.95830925980405,156.11652384456661 L148.0970089221829,156.1458710507854 L148.23386326419651,156.18288110251305 L148.3684492769165,156.22743960380072 L148.50035096269033,156.27940882687443 L148.62916062096625,156.3386281378439 L148.75448010847234,156.40491449321266 L148.87592206985448,156.47806300565495 L148.9931111349696,156.5578475773108 L149.10568507913325,156.6440215986415 L149.21329594273536,156.73631871068554 L149.3156111067635,156.83445362835892 L149.41231432090905,156.93812302225498 L149.50310668107898,157.04700645621827 L149.58770755329104,157.16076737779426 L149.66585544109756,157.27905415849372 L149.7373087938558,157.40150118065625 L149.80184675334715,157.5277299675535 L149.85926983643742,157.65735035323905 L149.9094005516675,157.789961688529 L149.9520839478695,157.9251540793856 L149.9871880931119,158.06250965387628 L150.01460448249344,158.20160385379182 L150.0342483735257,158.34200674693142 L150.0460590480673,158.4832843559986 L150.05,158.62499999999997 " />
			<path d="M150.05,52.875 L150.0460590480673,53.01671564400138 L150.0342483735257,53.15799325306855 L150.01460448249344,53.29839614620816 L149.9871880931119,53.437490346123695 L149.95208394786954,53.57484592061438 L149.90940055166752,53.710038311470974 L149.85926983643742,53.84264964676092 L149.80184675334718,53.972270032446474 L149.7373087938558,54.09849881934373 L149.6658554410976,54.220945841506264 L149.58770755329107,54.33923262220572 L149.50310668107898,54.45299354378171 L149.41231432090908,54.561876977745 L149.3156111067635,54.66554637164107 L149.21329594273539,54.76368128931445 L149.10568507913325,54.855978401358485 L148.9931111349696,54.942152422689176 L148.8759220698545,55.02193699434503 L148.75448010847236,55.095085506787335 L148.62916062096627,55.16137186215608 L148.50035096269033,55.220591173125555 L148.36844927691652,55.27256039619927 L148.23386326419654,55.317118897486935 L148.09700892218294,55.35412894921461 L147.95830925980405,55.383476155433385 L147.81819298976777,55.40506980561064 L147.677093203435,55.41884315501116 L147.5354460321592,55.42475363100127 L147.39368929922935,55.4227829646384 L147.25226116658314,55.41293724713935 L147.1115987804737,55.39524691105266 L146.97213692027543,55.3697666361934 L146.834306654606,55.33657518063092 L146.69853400891785,55.295775137252264 L146.565238648678,55.247492616653346 L146.43483258220604,55.19187685733838 L146.30771888718024,55.1290997644322 L146.18429046474733,55.059355378331375 L146.0649288250876,54.982859274936445 L145.95000290818896,54.8998478993192 L145.8398679434744,54.81057783488447 L145.73486435180823,54.715325010285575 L145.6353166932748,54.614383846544634 L145.54153266398183,54.50806634701406 L145.45380214498925,54.39670113299209 L145.3723963063037,54.2806324279732 L145.29756676870733,54.16021899367296 L145.22954482601259,54.0358330211162 L145.1685407301461,53.90785898021579 L145.11474304127228,53.77669243139829 L145.06831804496434,53.642738802949225 L145.02940923822538,53.506412137857566 L144.99813688594725,53.368133814032554 L144.97459764917872,53.228331241848714 L144.95886428635166,53.087436543044916 L144.9509854283889,52.945885215060805 L144.9509854283889,52.80411478493921 L144.95886428635166,52.662563456955105 L144.97459764917872,52.5216687581513 L144.99813688594725,52.38186618596746 L145.02940923822536,52.24358786214245 L145.06831804496431,52.107261197050796 L145.11474304127228,51.97330756860173 L145.1685407301461,51.84214101978422 L145.22954482601259,51.714166978883824 L145.29756676870733,51.58978100632705 L145.37239630630367,51.46936757202681 L145.45380214498925,51.35329886700792 L145.5415326639818,51.241933652985956 L145.6353166932748,51.13561615345538 L145.7348643518082,51.03467498971444 L145.8398679434744,50.939422165115545 L145.95000290818896,50.850152100680816 L146.0649288250876,50.76714072506357 L146.1842904647473,50.69064462166864 L146.30771888718024,50.62090023556781 L146.43483258220604,50.55812314266163 L146.56523864867796,50.50250738334666 L146.69853400891785,50.45422486274774 L146.834306654606,50.413424819369084 L146.97213692027543,50.38023336380661 L147.11159878047368,50.35475308894734 L147.25226116658314,50.33706275286065 L147.39368929922932,50.3272170353616 L147.5354460321592,50.32524636899873 L147.67709320343496,50.33115684498884 L147.81819298976774,50.34493019438936 L147.95830925980405,50.366523844566615 L148.0970089221829,50.39587105078538 L148.23386326419651,50.432881102513065 L148.3684492769165,50.477439603800725 L148.50035096269033,50.52940882687444 L148.62916062096625,50.58862813784391 L148.75448010847234,50.65491449321266 L148.87592206985448,50.72806300565495 L148.9931111349696,50.80784757731081 L149.10568507913325,50.8940215986415 L149.21329594273536,50.98631871068554 L149.3156111067635,51.084453628358915 L149.41231432090905,51.188123022254985 L149.50310668107898,51.29700645621828 L149.58770755329104,51.41076737779426 L149.66585544109756,51.52905415849372 L149.7373087938558,51.65150118065625 L149.80184675334715,51.777729967553505 L149.85926983643742,51.90735035323906 L149.9094005516675,52.039961688529004 L149.9520839478695,52.1751540793856 L149.9871880931119,52.312509653876276 L150.01460448249344,52.451603853791816 L150.0342483735257,52.59200674693143 L150.0460590480673,52.7332843559986 L150.05,52.87499999999998 " />
			<path d="M358.5,36.0 L358.5,386.0 " />
			<path d="M358.5,386.0 L159.5,386.0 " />
			<path d="M159.5,386.0 L159.5,36.0 " />
			<path d="M159.5,36.0 L358.5,36.0 " />

       </g>

       <!-- solid lines -->
       <g  stroke="rgb(0,0,0)" fill="none">
			<path d="M0.0,846.0 L0.0,0.0 " />
			<path d="M0.0,846.0 L379.01187316494,846.0 " />
			<path d="M379.01187316494,846.0 L379.01187316494,0.0 " />
			<path d="M0.0,0.0 L379.01187316494,0.0 " />
			<path d="M131.5,754.125 L131.5,832.125 " />
			<path d="M131.5,832.125 L28.5,832.125 " />
			<path d="M28.5,832.125 L28.5,754.125 " />
			<path d="M28.5,754.125 L131.5,754.125 " />
			<path d="M131.5,648.375 L131.5,726.375 " />
			<path d="M131.5,726.375 L28.5,726.375 " />
			<path d="M28.5,726.375 L28.5,648.375 " />
			<path d="M28.5,648.375 L131.5,648.375 " />
			<path d="M131.5,542.625 L131.5,620.625 " />
			<path d="M131.5,620.625 L28.5,620.625 " />
			<path d="M28.5,620.625 L28.5,542.625 " />
			<path d="M28.5,542.625 L131.5,542.625 " />
			<path d="M131.5,436.875 L131.5,514.875 " />
			<path d="M131.5,514.875 L28.5,514.875 " />
			<path d="M28.5,514.875 L28.5,436.875 " />
			<path d="M28.5,436.875 L131.5,436.875 " />
			<path d="M215.0,780.0 L214.9960291851288,780.1781874058368 L214.98412462420058,780.3560210370731 L214.96430995261912,780.5331478214952 L214.9366245105807,780.7092160902681 L214.90112326496785,780.883876276142 L214.8578767002175,781.0567816074852 L214.80697067838094,781.227588796767 L214.74850626865242,781.3959587221239 L214.68259954670572,781.561557100654 L214.60938136423667,781.7240551521054 L214.52899708916914,781.8831302516385 L214.44160631704057,782.0384665703676 L214.34738255413973,782.1897557024109 L214.24651287302612,782.3366972772004 L214.13919754111464,782.478999555841 L214.02564962306323,782.6163800103305 L213.90609455775265,782.7485658844932 L213.78076971069856,782.8752947355117 L213.64992390278417,782.9963149549827 L213.51381691624943,783.1113862684628 L213.37271897891742,783.2202802125103 L213.22691022768208,783.3227805882792 L213.0766801523223,783.4186838907613 L212.92232702074674,783.5077997128267 L212.76415728681053,783.5899511232597 L212.6024849818795,783.6649750180391 L212.43763109135006,783.7327224441664 L212.26992291736218,783.7930588953981 L212.09969342897153,783.8458645792952 L211.92728060107012,783.8910346550601 L211.75302674336845,783.9284794416889 L211.57727782077131,783.9581245960234 L211.4003827664964,783.979911260354 L211.2226927892998,783.9937961792753 L211.04456067618347,783.999751785566 L210.8663400919693,783.997766254921 L210.6883848771304,783.9878435294278 L210.51104834527348,783.9700033097392 L210.3346825816675,783.9442810159601 L210.1596377442109,783.9107277173239 L209.98626136822554,783.869410030799 L209.81489767645746,783.8204099888277 L209.6458868956545,783.7638248764574 L209.47956458107754,783.6997670381912 L209.31626095028668,783.6283636549374 L209.1563002275247,783.549756491504 L209.0,783.4641016151378 L208.84767058734653,783.3715690856671 L208.69961442551275,783.2723426178643 L208.55612546630334,783.1666192166961 L208.4174885937648,783.0546087861893 L208.28397905857472,782.9365337126857 L208.15586193155696,782.8126284233139 L208.03339157740817,782.6831389205569 L207.91681114968011,782.5483222938363 L207.80635210802083,782.4084462090852 L207.70223375863296,782.2637883773224 L207.60466281886158,782.1146360032826 L207.51383300677597,781.9612852151982 L207.42992465656047,781.8040404768644 L207.3531043604775,781.6432139831536 L207.28352463811405,781.4791250401825 L207.22132363356832,781.3120994313583 L207.16662484117722,781.1424687705669 L207.1195368603299,780.9705698437834 L207.08015317985365,780.7967439404154 L207.04855199240052,780.6213361757037 L207.02479603920307,780.4446948055288 L207.0089324855074,780.2671705349804 L207.00099282693097,780.0891158220654 L207.00099282693097,779.9108841779346 L207.0089324855074,779.7328294650194 L207.02479603920307,779.5553051944712 L207.04855199240052,779.3786638242963 L207.08015317985365,779.2032560595846 L207.1195368603299,779.0294301562166 L207.16662484117722,778.8575312294331 L207.22132363356832,778.6879005686417 L207.28352463811405,778.5208749598175 L207.3531043604775,778.3567860168464 L207.42992465656047,778.1959595231356 L207.513833006776,778.0387147848016 L207.60466281886158,777.8853639967174 L207.70223375863296,777.7362116226776 L207.80635210802083,777.5915537909148 L207.91681114968011,777.4516777061637 L208.0333915774082,777.3168610794431 L208.15586193155698,777.1873715766861 L208.28397905857472,777.0634662873143 L208.4174885937648,776.9453912138107 L208.55612546630334,776.8333807833039 L208.69961442551278,776.7276573821357 L208.84767058734653,776.6284309143329 L209.0,776.5358983848622 L209.1563002275247,776.450243508496 L209.31626095028668,776.3716363450626 L209.47956458107754,776.3002329618088 L209.6458868956545,776.2361751235426 L209.81489767645746,776.1795900111723 L209.98626136822554,776.130589969201 L210.1596377442109,776.0892722826761 L210.3346825816675,776.0557189840399 L210.51104834527348,776.0299966902608 L210.6883848771304,776.0121564705722 L210.8663400919693,776.002233745079 L211.04456067618347,776.000248214434 L211.2226927892998,776.0062038207247 L211.4003827664964,776.020088739646 L211.57727782077131,776.0418754039766 L211.75302674336845,776.0715205583111 L211.92728060107012,776.1089653449399 L212.0996934289715,776.1541354207048 L212.26992291736215,776.2069411046019 L212.43763109135006,776.2672775558336 L212.6024849818795,776.3350249819609 L212.76415728681053,776.4100488767403 L212.92232702074674,776.4922002871733 L213.0766801523223,776.5813161092387 L213.22691022768208,776.6772194117208 L213.37271897891742,776.7797197874897 L213.51381691624943,776.8886137315372 L213.64992390278417,777.0036850450173 L213.78076971069856,777.1247052644883 L213.90609455775265,777.2514341155066 L214.0256496230632,777.3836199896695 L214.13919754111464,777.521000444159 L214.24651287302612,777.6633027227996 L214.34738255413973,777.8102442975891 L214.44160631704054,777.9615334296323 L214.5289970891691,778.1168697483615 L214.60938136423664,778.2759448478946 L214.68259954670572,778.438442899346 L214.7485062686524,778.6040412778761 L214.80697067838094,778.772411203233 L214.8578767002175,778.9432183925148 L214.90112326496782,779.116123723858 L214.9366245105807,779.2907839097319 L214.96430995261912,779.4668521785048 L214.98412462420058,779.6439789629269 L214.9960291851288,779.8218125941632 L215.0,780.0 " />
			<path d="M240.0,738.0 L239.9960148986388,738.4807494128099 L239.9840606897988,738.9613666990585 L239.96414065891,739.4417197684975 L239.9362602806856,739.9216766034941 L239.90042721761756,740.401105295315 L239.85665131787061,740.8798740803787 L239.80494461257558,741.3578513764687 L239.74532131252298,741.8349058188973 L239.67779780425724,742.3109062966086 L239.6023926455731,742.785721988213 L239.5191265604155,743.2592223979409 L239.42802243318366,743.7312773915077 L239.32910530244183,744.2017572318789 L239.22240235403774,744.670532614927 L239.1079429136311,745.1374747049679 L238.98575843863367,745.60245517017 L238.85588250956397,746.065346217824 L238.71835082081796,746.5260206294648 L238.57320117085908,746.9843517958357 L238.42047345182996,747.4402137516843 L238.26020963858858,747.893481210383 L238.09245377717218,748.344029598362 L237.91725197269193,748.7917350893456 L237.7346523766616,749.2364746383847 L237.54470517376384,749.6781260156737 L237.34746256805775,750.1165678401433 L237.14297876863137,750.5516796128203 L236.93130997470314,750.9833417499449 L236.7125143601764,751.4114356158362 L236.4866520576513,751.8358435554981 L236.25378514189808,752.256448926954 L236.01397761279696,752.6731361333048 L235.76729537774867,753.0857906544984 L235.5138062335608,753.4942990788043 L235.25357984781508,753.8985491339826 L234.98668773971997,754.2984297181406 L234.71320326045506,754.6938309302672 L234.4332015730114,755.0846441004376 L234.14675963153422,755.4707618196798 L233.85395616017323,755.8520779694936 L233.55487163144653,756.2284877510168 L233.24958824412394,756.5998877138262 L232.938189900636,756.9661757843703 L232.62076218401455,757.3272512940223 L232.29739233437175,757.6830150067474 L231.9681692249233,758.0333691463762 L231.6331833375631,758.3782174234772 L231.2925267379957,758.7174650618199 L230.9462930504334,759.0510188244235 L230.59457743186516,759.3787870391807 L230.23747654590412,759.700679624053 L229.87508853622103,760.0166081118282 L229.50751299957113,760.326485674434 L229.13485095842145,760.6302271468018 L228.75720483318628,760.9277490502724 L228.37467841407852,761.2189696155397 L227.9873768325847,761.5038088051227 L227.59540653257096,761.7821883353636 L227.19887524102873,762.0540316979417 L226.79789193846767,762.3192641809019 L226.392566828964,762.5778128891868 L225.98301130987255,762.8296067646717 L225.56933794121105,763.0745766056934 L225.15166041472463,763.3126550860694 L224.73009352263944,763.5437767736013 L224.30475312611378,763.767878148058 L223.8757561233955,763.9848976186331 L223.44322041769416,764.1947755408722 L223.00726488477738,764.3974542330656 L222.56800934029943,764.5928779921005 L222.12557450687194,764.780993108771 L221.680081980885,764.9617478825386 L221.23165419908847,765.1350926357416 L220.78041440494184,765.300979727248 L220.3264866147429,765.4593635655494 L219.86999558354373,765.6102006212906 L219.41106677086358,765.7534494392332 L218.94982630620842,765.889070649649 L218.48640095440607,766.0170269791402 L218.02091808076688,766.1372832608829 L217.5535056160794,766.249806444293 L217.08429202145044,766.3545656041089 L216.61340625299965,766.4515319488913 L216.14097772641782,766.540678828936 L215.66713628139908,766.6219817435979 L215.19201214595634,766.6954183480248 L214.7157359006302,766.7609684592986 L214.23843844260094,766.8186140619823 L213.76025094971334,766.8683393130711 L213.28130484442457,766.9101305463466 L212.80173175768473,766.943976276133 L212.32166349276002,766.9698672004533 L211.84123198900886,766.9877962035865 L211.36056928562013,766.9977583580226 L210.87980748532445,766.9997509258169 L210.39907871808762,766.993773359343 L209.91851510479694,766.9798273014428 L209.43824872094956,766.9579165849752 L208.95841156035374,766.9280472317629 L208.47913549885243,766.8902274509367 L208.000552258079,766.8444676366801 L207.5227933692559,766.7907803653724 L207.045990137045,766.7291803921319 L206.57027360346083,766.6596846467613 L206.09577451185547,766.5823122290943 L205.62262327098583,766.4970844037466 L205.15094991917292,766.4040245942714 L204.68088408856272,766.3031583767222 L204.2125549694987,766.194513472623 L203.7460912750161,766.0781197413503 L203.28162120546688,765.9540091719256 L202.81927241328597,765.822215874225 L202.3591719679079,765.6827760696035 L201.90144632084383,765.5357280809409 L201.44622127092813,765.3811123221087 L200.99362192974473,765.2189712868637 L200.5437726872419,765.0493495371687 L200.09679717754577,764.8722936909454 L199.65281824498132,764.6878524092624 L199.2119579103105,764.4960763829611 L198.77433733719676,764.2970183187247 L198.34007679890505,764.0907329245917 L197.90929564524652,763.8772768949215 L197.4821122697772,763.6567088948113 L197.0586440772592,763.4290895439742 L196.63900745139395,763.1944814000781 L196.22331772283584,762.9529489415528 L195.81168913749548,762.7045585498695 L195.40423482514078,762.449378491296 L195.00106676830524,762.187478898136 L194.60229577151102,761.9189317494531 L194.20803143081622,761.6438108512892 L193.818382103694,761.3621918163801 L193.43345487925222,761.0741520433738 L193.05335554880165,760.7797706955595 L192.67818857678083,760.4791286791102 L192.3080570720457,760.1723086208473 L191.94306275953164,759.8593948455315 L191.58330595229603,759.5404733526879 L191.2288855239487,759.2156317929699 L190.87989888147797,758.88495944407 L190.53644193847998,758.5485471861832 L190.19860908879832,758.2064874770301 L189.86649318058113,757.858874326446 L189.54018549076346,757.5058032705439 L189.2197756999811,757.147371345458 L188.90535186792326,756.7836770606748 L188.59700040913071,756.4148203719589 L188.29480606924605,756.0409026538822 L187.99885190172276,755.6620266719626 L187.7092192449992,755.2782965544201 L187.4259877001439,754.889817763559 L187.14923510897864,754.4966970667834 L186.8790375326846,754.0990425072538 L186.61546923089833,753.6969633741923 L186.3586026413024,753.2905701728474 L186.10850835971726,752.8799745941226 L185.86525512069886,752.4652894838799 L185.62890977864822,752.046628811926 L185.39953728943732,751.6241076406893 L185.17720069255714,751.1978420935973 L184.96196109379213,750.7679493231609 L184.75387764842634,750.3345474787778 L184.55300754498532,749.8977556742605 L184.35940598951896,749.4576939550994 L184.17312619042877,749.014483265471 L183.99421934384446,748.5682454149975 L183.8227346195535,748.1191030452695 L183.65871914748746,747.6671795961403 L183.50221800476916,747.2125992717995 L183.35327420332396,746.755487006638 L183.2119286780584,746.2959684309119 L183.0782202756101,745.8341698362143 L182.95218574367127,745.3702181407665 L182.8338597208891,744.9042408545362 L182.723274727346,744.4363660441937 L182.6204611556218,743.9667222979143 L182.525447262441,743.4954386900384 L182.43825916090668,743.0226447455966 L182.35892081332386,742.5484704047126 L182.28745402461365,742.0730459868906 L182.22387843632072,741.5965021551991 L182.16821152121491,741.1189698803605 L182.12046857848932,740.6405804047553 L182.08066272955537,740.1614652063524 L182.0488049144367,739.6817559625747 L182.02490388876245,739.201584514109 L182.00896622136088,738.7210828286719 L182.0009962924541,738.2403829647411 L182.00099629245406,737.7596170352598 L182.00896622136085,737.2789171713289 L182.02490388876242,736.798415485892 L182.04880491443666,736.3182440374262 L182.08066272955529,735.8385347936485 L182.12046857848924,735.3594195952456 L182.16821152121483,734.8810301196404 L182.2238784363206,734.4034978448017 L182.28745402461354,733.9269540131103 L182.35892081332372,733.4515295952882 L182.43825916090654,732.9773552544042 L182.52544726244082,732.5045613099625 L182.62046115562163,732.0332777020865 L182.7232747273458,731.5636339558072 L182.83385972088888,731.0957591454646 L182.95218574367104,730.6297818592344 L183.07822027560988,730.1658301637866 L183.21192867805814,729.704031569089 L183.35327420332368,729.2445129933628 L183.5022180047689,728.7874007282014 L183.65871914748715,728.3328204038605 L183.8227346195532,727.8808969547313 L183.99421934384415,727.4317545850033 L184.17312619042843,726.9855167345298 L184.35940598951862,726.5423060449014 L184.55300754498495,726.1022443257403 L184.75387764842594,725.665452521223 L184.96196109379173,725.2320506768399 L185.1772006925567,724.8021579064035 L185.3995372894369,724.3758923593115 L185.6289097786478,723.9533711880748 L185.86525512069844,723.5347105161209 L186.1085083597168,723.1200254058781 L186.35860264130196,722.7094298271534 L186.61546923089784,722.3030366258084 L186.87903753268412,721.900957492747 L187.14923510897813,721.5033029332172 L187.4259877001434,721.1101822364417 L187.70921924499865,720.7217034455807 L187.99885190172222,720.3379733280382 L188.2948060692455,719.9590973461185 L188.59700040913015,719.5851796280418 L188.9053518679227,719.2163229393259 L189.21977569998052,718.8526286545426 L189.54018549076287,718.4941967294568 L189.8664931805805,718.1411256735546 L190.1986090887977,717.7935125229704 L190.53644193847938,717.4514528138174 L190.87989888147732,717.1150405559306 L191.22888552394804,716.7843682070308 L191.58330595229538,716.4595266473127 L191.943062759531,716.1406051544691 L192.30805707204502,715.8276913791533 L192.67818857678014,715.5208713208904 L193.05335554880097,715.2202293044411 L193.4334548792515,714.9258479566267 L193.8183821036933,714.6378081836205 L194.2080314308155,714.3561891487112 L194.60229577151028,714.0810682505474 L195.0010667683045,713.8125211018645 L195.40423482514004,713.5506215087045 L195.8116891374947,713.2954414501311 L196.2233177228351,713.0470510584477 L196.63900745139318,712.8055185999224 L197.05864407725844,712.5709104560262 L197.4821122697764,712.3432911051891 L197.90929564524572,712.1227231050789 L198.34007679890425,711.9092670754086 L198.77433733719596,711.7029816812758 L199.21195791030968,711.5039236170393 L199.6528182449805,711.3121475907379 L200.09679717754491,711.1277063090549 L200.54377268724105,710.9506504628316 L200.99362192974385,710.7810287131365 L201.44622127092725,710.6188876778916 L201.90144632084295,710.4642719190595 L202.359171967907,710.3172239303968 L202.81927241328506,710.1777841257752 L203.28162120546597,710.0459908280747 L203.74609127501517,709.9218802586499 L204.21255496949777,709.8054865273772 L204.68088408856175,709.696841623278 L205.15094991917198,709.5959754057287 L205.62262327098486,709.5029155962536 L206.09577451185447,709.4176877709059 L206.57027360345987,709.3403153532389 L207.04599013704404,709.2708196078682 L207.5227933692549,709.2092196346277 L208.00055225807802,709.15553236332 L208.4791354988514,709.1097725490635 L208.95841156035272,709.0719527682372 L209.4382487209485,709.0420834150248 L209.9185151047959,709.0201726985573 L210.3990787180866,709.0062266406571 L210.8798074853234,709.0002490741831 L211.36056928561908,709.0022416419774 L211.84123198900778,709.0122037964134 L212.32166349275897,709.0301327995465 L212.80173175768365,709.0560237238669 L213.2813048444235,709.0898694536533 L213.76025094971226,709.1316606869287 L214.23843844259986,709.1813859380176 L214.7157359006291,709.2390315407013 L215.19201214595523,709.3045816519751 L215.66713628139797,709.378018256402 L216.14097772641674,709.4593211710638 L216.61340625299854,709.5484680511084 L217.08429202144933,709.6454343958909 L217.5535056160783,709.7501935557068 L218.02091808076577,709.8627167391169 L218.48640095440496,709.9829730208595 L218.94982630620729,710.1109293503506 L219.41106677086245,710.2465505607664 L219.8699955835426,710.3897993787091 L220.32648661474178,710.5406364344502 L220.7804144049407,710.6990202727516 L221.23165419908736,710.864907364258 L221.6800819808839,711.038252117461 L222.1255745068708,711.2190068912286 L222.56800934029832,711.407122007899 L223.00726488477628,711.6025457669339 L223.44322041769306,711.8052244591272 L223.87575612339438,712.0151023813663 L224.30475312611267,712.2321218519414 L224.73009352263833,712.456223226398 L225.15166041472352,712.68734491393 L225.56933794120997,712.925423394306 L225.98301130987147,713.1703932353277 L226.39256682896294,713.4221871108125 L226.79789193846662,713.6807358190974 L227.19887524102768,713.9459683020575 L227.59540653256988,714.2178116646357 L227.98737683258366,714.4961911948765 L228.3746784140775,714.7810303844595 L228.75720483318523,715.0722509497268 L229.13485095842043,715.3697728531974 L229.5075129995701,715.6735143255652 L229.87508853622,715.983391888171 L230.23747654590312,716.2993203759461 L230.5945774318642,716.6212129608184 L230.94629305043244,716.9489811755756 L231.29252673799473,717.2825349381791 L231.63318333756214,717.6217825765219 L231.96816922492235,717.9666308536227 L232.2973923343708,718.3169849932516 L232.62076218401364,718.6727487059767 L232.93818990063508,719.0338242156287 L233.24958824412306,719.4001122861728 L233.55487163144565,719.7715122489822 L233.85395616017237,720.1479220305052 L234.14675963153337,720.5292381803192 L234.43320157301056,720.9153558995613 L234.71320326045424,721.3061690697317 L234.98668773971917,721.7015702818583 L235.2535798478143,722.1014508660162 L235.51380623356005,722.5057009211945 L235.7672953777479,722.9142093455004 L236.01397761279623,723.326863866694 L236.25378514189737,723.7435510730447 L236.48665205765062,724.1641564445006 L236.71251436017573,724.5885643841624 L236.9313099747025,725.0166582500539 L237.14297876863074,725.4483203871783 L237.34746256805713,725.8834321598554 L237.54470517376325,726.321873984325 L237.73465237666102,726.7635253616139 L237.91725197269136,727.208264910653 L238.09245377717164,727.6559704016366 L238.26020963858804,728.1065187896155 L238.42047345182948,728.5597862483144 L238.57320117085862,729.015648204163 L238.7183508208175,729.4739793705337 L238.85588250956354,729.9346537821745 L238.98575843863327,730.3975448298286 L239.1079429136307,730.8625252950307 L239.2224023540374,731.3294673850716 L239.3291053024415,731.7982427681195 L239.42802243318334,732.2687226084907 L239.5191265604152,732.7407776020575 L239.60239264557285,733.2142780117854 L239.67779780425698,733.6890937033899 L239.74532131252278,734.1650941811012 L239.8049446125754,734.6421486235297 L239.85665131787044,735.1201259196197 L239.90042721761742,735.5988947046833 L239.9362602806855,736.0783233965043 L239.9641406589099,736.5582802315009 L239.98406068979875,737.0386333009398 L239.99601489863878,737.5192505871884 L240.0,737.9999999999983 " />
			<path d="M215.0,696.0 L214.9960291851288,696.1781874058368 L214.98412462420058,696.3560210370731 L214.96430995261912,696.5331478214952 L214.9366245105807,696.7092160902681 L214.90112326496785,696.883876276142 L214.8578767002175,697.0567816074852 L214.80697067838094,697.227588796767 L214.74850626865242,697.3959587221239 L214.68259954670572,697.561557100654 L214.60938136423667,697.7240551521054 L214.52899708916914,697.8831302516385 L214.44160631704057,698.0384665703676 L214.34738255413973,698.1897557024109 L214.24651287302612,698.3366972772004 L214.13919754111464,698.478999555841 L214.02564962306323,698.6163800103305 L213.90609455775265,698.7485658844932 L213.78076971069856,698.8752947355117 L213.64992390278417,698.9963149549827 L213.51381691624943,699.1113862684628 L213.37271897891742,699.2202802125103 L213.22691022768208,699.3227805882792 L213.0766801523223,699.4186838907613 L212.92232702074674,699.5077997128267 L212.76415728681053,699.5899511232597 L212.6024849818795,699.6649750180391 L212.43763109135006,699.7327224441664 L212.26992291736218,699.7930588953981 L212.09969342897153,699.8458645792952 L211.92728060107012,699.8910346550601 L211.75302674336845,699.9284794416889 L211.57727782077131,699.9581245960234 L211.4003827664964,699.979911260354 L211.2226927892998,699.9937961792753 L211.04456067618347,699.999751785566 L210.8663400919693,699.997766254921 L210.6883848771304,699.9878435294278 L210.51104834527348,699.9700033097392 L210.3346825816675,699.9442810159601 L210.1596377442109,699.9107277173239 L209.98626136822554,699.869410030799 L209.81489767645746,699.8204099888277 L209.6458868956545,699.7638248764574 L209.47956458107754,699.6997670381912 L209.31626095028668,699.6283636549374 L209.1563002275247,699.549756491504 L209.0,699.4641016151378 L208.84767058734653,699.3715690856671 L208.69961442551275,699.2723426178643 L208.55612546630334,699.1666192166961 L208.4174885937648,699.0546087861893 L208.28397905857472,698.9365337126857 L208.15586193155696,698.8126284233139 L208.03339157740817,698.6831389205569 L207.91681114968011,698.5483222938363 L207.80635210802083,698.4084462090852 L207.70223375863296,698.2637883773224 L207.60466281886158,698.1146360032826 L207.51383300677597,697.9612852151982 L207.42992465656047,697.8040404768644 L207.3531043604775,697.6432139831536 L207.28352463811405,697.4791250401825 L207.22132363356832,697.3120994313583 L207.16662484117722,697.1424687705669 L207.1195368603299,696.9705698437834 L207.08015317985365,696.7967439404154 L207.04855199240052,696.6213361757037 L207.02479603920307,696.4446948055288 L207.0089324855074,696.2671705349804 L207.00099282693097,696.0891158220654 L207.00099282693097,695.9108841779346 L207.0089324855074,695.7328294650194 L207.02479603920307,695.5553051944712 L207.04855199240052,695.3786638242963 L207.08015317985365,695.2032560595846 L207.1195368603299,695.0294301562166 L207.16662484117722,694.8575312294331 L207.22132363356832,694.6879005686417 L207.28352463811405,694.5208749598175 L207.3531043604775,694.3567860168464 L207.42992465656047,694.1959595231356 L207.513833006776,694.0387147848016 L207.60466281886158,693.8853639967174 L207.70223375863296,693.7362116226776 L207.80635210802083,693.5915537909148 L207.91681114968011,693.4516777061637 L208.0333915774082,693.3168610794431 L208.15586193155698,693.1873715766861 L208.28397905857472,693.0634662873143 L208.4174885937648,692.9453912138107 L208.55612546630334,692.8333807833039 L208.69961442551278,692.7276573821357 L208.84767058734653,692.6284309143329 L209.0,692.5358983848622 L209.1563002275247,692.450243508496 L209.31626095028668,692.3716363450626 L209.47956458107754,692.3002329618088 L209.6458868956545,692.2361751235426 L209.81489767645746,692.1795900111723 L209.98626136822554,692.130589969201 L210.1596377442109,692.0892722826761 L210.3346825816675,692.0557189840399 L210.51104834527348,692.0299966902608 L210.6883848771304,692.0121564705722 L210.8663400919693,692.002233745079 L211.04456067618347,692.000248214434 L211.2226927892998,692.0062038207247 L211.4003827664964,692.020088739646 L211.57727782077131,692.0418754039766 L211.75302674336845,692.0715205583111 L211.92728060107012,692.1089653449399 L212.0996934289715,692.1541354207048 L212.26992291736215,692.2069411046019 L212.43763109135006,692.2672775558336 L212.6024849818795,692.3350249819609 L212.76415728681053,692.4100488767403 L212.92232702074674,692.4922002871733 L213.0766801523223,692.5813161092387 L213.22691022768208,692.6772194117208 L213.37271897891742,692.7797197874897 L213.51381691624943,692.8886137315372 L213.64992390278417,693.0036850450173 L213.78076971069856,693.1247052644883 L213.90609455775265,693.2514341155066 L214.0256496230632,693.3836199896695 L214.13919754111464,693.521000444159 L214.24651287302612,693.6633027227996 L214.34738255413973,693.8102442975891 L214.44160631704054,693.9615334296323 L214.5289970891691,694.1168697483615 L214.60938136423664,694.2759448478946 L214.68259954670572,694.438442899346 L214.7485062686524,694.6040412778761 L214.80697067838094,694.772411203233 L214.8578767002175,694.9432183925148 L214.90112326496782,695.116123723858 L214.9366245105807,695.2907839097319 L214.96430995261912,695.4668521785048 L214.98412462420058,695.6439789629269 L214.9960291851288,695.8218125941632 L215.0,696.0 " />
			<path d="M358.5,660.0 L358.5,816.0 " />
			<path d="M358.5,816.0 L270.5,816.0 " />
			<path d="M270.5,816.0 L270.5,660.0 " />
			<path d="M270.5,660.0 L358.5,660.0 " />
			<path d="M262.5,542.625 L262.5,620.625 " />
			<path d="M262.5,620.625 L159.5,620.625 " />
			<path d="M159.5,620.625 L159.5,542.625 " />
			<path d="M159.5,542.625 L262.5,542.625 " />
			<path d="M262.5,436.875 L262.5,514.875 " />
			<path d="M262.5,514.875 L159.5,514.875 " />
			<path d="M159.5,514.875 L159.5,436.875 " />
			<path d="M159.5,436.875 L262.5,436.875 " />
			<path d="M131.5,331.125 L131.5,409.125 " />
			<path d="M131.5,409.125 L28.5,409.125 " />
			<path d="M28.5,409.125 L28.5,331.125 " />
			<path d="M28.5,331.125 L131.5,331.125 " />
			<path d="M131.5,225.375 L131.5,303.375 " />
			<path d="M131.5,303.375 L28.5,303.375 " />
			<path d="M28.5,303.375 L28.5,225.375 " />
			<path d="M28.5,225.375 L131.5,225.375 " />
			<path d="M150.05,370.125 L150.0460590480673,370.2667156440014 L150.0342483735257,370.4079932530685 L150.01460448249344,370.5483961462082 L149.9871880931119,370.6874903461237 L149.95208394786954,370.8248459206144 L149.90940055166752,370.96003831147095 L149.85926983643742,371.09264964676095 L149.80184675334718,371.2222700324465 L149.7373087938558,371.3484988193437 L149.6658554410976,371.47094584150625 L149.58770755329107,371.5892326222057 L149.50310668107898,371.7029935437817 L149.41231432090908,371.811876977745 L149.3156111067635,371.9155463716411 L149.21329594273539,372.01368128931443 L149.10568507913325,372.10597840135847 L148.9931111349696,372.19215242268916 L148.8759220698545,372.271936994345 L148.75448010847236,372.3450855067873 L148.62916062096627,372.4113718621561 L148.50035096269033,372.47059117312557 L148.36844927691652,372.52256039619925 L148.23386326419654,372.5671188974869 L148.09700892218294,372.6041289492146 L147.95830925980405,372.63347615543336 L147.81819298976777,372.65506980561065 L147.677093203435,372.66884315501113 L147.5354460321592,372.6747536310013 L147.39368929922935,372.67278296463843 L147.25226116658314,372.6629372471393 L147.1115987804737,372.64524691105265 L146.97213692027543,372.6197666361934 L146.834306654606,372.5865751806309 L146.69853400891785,372.54577513725224 L146.565238648678,372.49749261665335 L146.43483258220604,372.4418768573384 L146.30771888718024,372.3790997644322 L146.18429046474733,372.30935537833136 L146.0649288250876,372.23285927493646 L145.95000290818896,372.1498478993192 L145.8398679434744,372.06057783488444 L145.73486435180823,371.9653250102856 L145.6353166932748,371.8643838465446 L145.54153266398183,371.75806634701405 L145.45380214498925,371.6467011329921 L145.3723963063037,371.5306324279732 L145.29756676870733,371.41021899367297 L145.22954482601259,371.2858330211162 L145.1685407301461,371.1578589802158 L145.11474304127228,371.02669243139826 L145.06831804496434,370.8927388029492 L145.02940923822538,370.7564121378576 L144.99813688594725,370.61813381403255 L144.97459764917872,370.4783312418487 L144.95886428635166,370.33743654304493 L144.9509854283889,370.1958852150608 L144.9509854283889,370.0541147849392 L144.95886428635166,369.9125634569551 L144.97459764917872,369.7716687581513 L144.99813688594725,369.63186618596745 L145.02940923822536,369.4935878621425 L145.06831804496431,369.3572611970508 L145.11474304127228,369.22330756860174 L145.1685407301461,369.0921410197842 L145.22954482601259,368.96416697888384 L145.29756676870733,368.83978100632703 L145.37239630630367,368.71936757202684 L145.45380214498925,368.60329886700794 L145.5415326639818,368.49193365298595 L145.6353166932748,368.3856161534554 L145.7348643518082,368.28467498971446 L145.8398679434744,368.18942216511556 L145.95000290818896,368.1001521006808 L146.0649288250876,368.01714072506354 L146.1842904647473,367.94064462166864 L146.30771888718024,367.87090023556783 L146.43483258220604,367.80812314266166 L146.56523864867796,367.75250738334665 L146.69853400891785,367.70422486274776 L146.834306654606,367.6634248193691 L146.97213692027543,367.6302333638066 L147.11159878047368,367.60475308894735 L147.25226116658314,367.5870627528607 L147.39368929922932,367.57721703536157 L147.5354460321592,367.5752463689987 L147.67709320343496,367.5811568449888 L147.81819298976774,367.59493019438935 L147.95830925980405,367.6165238445666 L148.0970089221829,367.6458710507854 L148.23386326419651,367.6828811025131 L148.3684492769165,367.72743960380075 L148.50035096269033,367.77940882687443 L148.62916062096625,367.8386281378439 L148.75448010847234,367.9049144932127 L148.87592206985448,367.978063005655 L148.9931111349696,368.0578475773108 L149.10568507913325,368.14402159864153 L149.21329594273536,368.2363187106855 L149.3156111067635,368.3344536283589 L149.41231432090905,368.438123022255 L149.50310668107898,368.5470064562183 L149.58770755329104,368.6607673777943 L149.66585544109756,368.7790541584937 L149.7373087938558,368.9015011806562 L149.80184675334715,369.0277299675535 L149.85926983643742,369.15735035323905 L149.9094005516675,369.289961688529 L149.9520839478695,369.4251540793856 L149.9871880931119,369.5625096538763 L150.01460448249344,369.7016038537918 L150.0342483735257,369.8420067469314 L150.0460590480673,369.9832843559986 L150.05,370.125 " />
			<path d="M150.05,264.375 L150.0460590480673,264.5167156440014 L150.0342483735257,264.6579932530685 L150.01460448249344,264.7983961462082 L149.9871880931119,264.9374903461237 L149.95208394786954,265.0748459206144 L149.90940055166752,265.21003831147095 L149.85926983643742,265.34264964676095 L149.80184675334718,265.4722700324465 L149.7373087938558,265.5984988193437 L149.6658554410976,265.72094584150625 L149.58770755329107,265.8392326222057 L149.50310668107898,265.9529935437817 L149.41231432090908,266.061876977745 L149.3156111067635,266.1655463716411 L149.21329594273539,266.26368128931443 L149.10568507913325,266.35597840135847 L148.9931111349696,266.44215242268916 L148.8759220698545,266.521936994345 L148.75448010847236,266.5950855067873 L148.62916062096627,266.6613718621561 L148.50035096269033,266.72059117312557 L148.36844927691652,266.77256039619925 L148.23386326419654,266.8171188974869 L148.09700892218294,266.8541289492146 L147.95830925980405,266.88347615543336 L147.81819298976777,266.90506980561065 L147.677093203435,266.91884315501113 L147.5354460321592,266.9247536310013 L147.39368929922935,266.92278296463843 L147.25226116658314,266.9129372471393 L147.1115987804737,266.89524691105265 L146.97213692027543,266.8697666361934 L146.834306654606,266.8365751806309 L146.69853400891785,266.79577513725224 L146.565238648678,266.74749261665335 L146.43483258220604,266.6918768573384 L146.30771888718024,266.6290997644322 L146.18429046474733,266.55935537833136 L146.0649288250876,266.48285927493646 L145.95000290818896,266.3998478993192 L145.8398679434744,266.31057783488444 L145.73486435180823,266.2153250102856 L145.6353166932748,266.1143838465446 L145.54153266398183,266.00806634701405 L145.45380214498925,265.8967011329921 L145.3723963063037,265.7806324279732 L145.29756676870733,265.66021899367297 L145.22954482601259,265.5358330211162 L145.1685407301461,265.4078589802158 L145.11474304127228,265.27669243139826 L145.06831804496434,265.1427388029492 L145.02940923822538,265.0064121378576 L144.99813688594725,264.86813381403255 L144.97459764917872,264.7283312418487 L144.95886428635166,264.58743654304493 L144.9509854283889,264.4458852150608 L144.9509854283889,264.3041147849392 L144.95886428635166,264.1625634569551 L144.97459764917872,264.0216687581513 L144.99813688594725,263.88186618596745 L145.02940923822536,263.7435878621425 L145.06831804496431,263.6072611970508 L145.11474304127228,263.47330756860174 L145.1685407301461,263.3421410197842 L145.22954482601259,263.21416697888384 L145.29756676870733,263.08978100632703 L145.37239630630367,262.96936757202684 L145.45380214498925,262.85329886700794 L145.5415326639818,262.74193365298595 L145.6353166932748,262.6356161534554 L145.7348643518082,262.53467498971446 L145.8398679434744,262.43942216511556 L145.95000290818896,262.3501521006808 L146.0649288250876,262.26714072506354 L146.1842904647473,262.19064462166864 L146.30771888718024,262.12090023556783 L146.43483258220604,262.05812314266166 L146.56523864867796,262.00250738334665 L146.69853400891785,261.95422486274776 L146.834306654606,261.9134248193691 L146.97213692027543,261.8802333638066 L147.11159878047368,261.85475308894735 L147.25226116658314,261.8370627528607 L147.39368929922932,261.82721703536157 L147.5354460321592,261.8252463689987 L147.67709320343496,261.8311568449888 L147.81819298976774,261.84493019438935 L147.95830925980405,261.8665238445666 L148.0970089221829,261.8958710507854 L148.23386326419651,261.9328811025131 L148.3684492769165,261.97743960380075 L148.50035096269033,262.02940882687443 L148.62916062096625,262.0886281378439 L148.75448010847234,262.1549144932127 L148.87592206985448,262.228063005655 L148.9931111349696,262.3078475773108 L149.10568507913325,262.39402159864153 L149.21329594273536,262.4863187106855 L149.3156111067635,262.5844536283589 L149.41231432090905,262.688123022255 L149.50310668107898,262.7970064562183 L149.58770755329104,262.9107673777943 L149.66585544109756,263.0290541584937 L149.7373087938558,263.1515011806562 L149.80184675334715,263.2777299675535 L149.85926983643742,263.40735035323905 L149.9094005516675,263.539961688529 L149.9520839478695,263.6751540793856 L149.9871880931119,263.8125096538763 L150.01460448249344,263.9516038537918 L150.0342483735257,264.0920067469314 L150.0460590480673,264.2332843559986 L150.05,264.375 " />
			<path d="M131.5,119.625 L131.5,197.625 " />
			<path d="M131.5,197.625 L28.5,197.625 " />
			<path d="M28.5,197.625 L28.5,119.625 " />
			<path d="M28.5,119.625 L131.5,119.625 " />
			<path d="M131.5,13.875 L131.5,91.875 " />
			<path d="M131.5,91.875 L28.5,91.875 " />
			<path d="M28.5,91.875 L28.5,13.875 " />
			<path d="M28.5,13.875 L131.5,13.875 " />
			<path d="M150.05,158.625 L150.0460590480673,158.76671564400138 L150.0342483735257,158.90799325306855 L150.01460448249344,159.04839614620818 L149.9871880931119,159.1874903461237 L149.95208394786954,159.32484592061437 L149.90940055166752,159.46003831147098 L149.85926983643742,159.59264964676092 L149.80184675334718,159.7222700324465 L149.7373087938558,159.84849881934372 L149.6658554410976,159.97094584150625 L149.58770755329107,160.0892326222057 L149.50310668107898,160.2029935437817 L149.41231432090908,160.311876977745 L149.3156111067635,160.41554637164108 L149.21329594273539,160.51368128931446 L149.10568507913325,160.60597840135847 L148.9931111349696,160.6921524226892 L148.8759220698545,160.77193699434503 L148.75448010847236,160.84508550678734 L148.62916062096627,160.91137186215607 L148.50035096269033,160.97059117312554 L148.36844927691652,161.02256039619925 L148.23386326419654,161.06711889748692 L148.09700892218294,161.1041289492146 L147.95830925980405,161.13347615543339 L147.81819298976777,161.15506980561065 L147.677093203435,161.16884315501116 L147.5354460321592,161.17475363100127 L147.39368929922935,161.1727829646384 L147.25226116658314,161.16293724713935 L147.1115987804737,161.14524691105265 L146.97213692027543,161.1197666361934 L146.834306654606,161.08657518063092 L146.69853400891785,161.04577513725226 L146.565238648678,160.99749261665335 L146.43483258220604,160.94187685733837 L146.30771888718024,160.8790997644322 L146.18429046474733,160.80935537833136 L146.0649288250876,160.73285927493643 L145.95000290818896,160.64984789931918 L145.8398679434744,160.56057783488447 L145.73486435180823,160.46532501028557 L145.6353166932748,160.36438384654463 L145.54153266398183,160.25806634701405 L145.45380214498925,160.1467011329921 L145.3723963063037,160.0306324279732 L145.29756676870733,159.91021899367297 L145.22954482601259,159.7858330211162 L145.1685407301461,159.6578589802158 L145.11474304127228,159.5266924313983 L145.06831804496434,159.39273880294922 L145.02940923822538,159.25641213785758 L144.99813688594725,159.11813381403255 L144.97459764917872,158.9783312418487 L144.95886428635166,158.83743654304493 L144.9509854283889,158.6958852150608 L144.9509854283889,158.5541147849392 L144.95886428635166,158.4125634569551 L144.97459764917872,158.2716687581513 L144.99813688594725,158.13186618596745 L145.02940923822536,157.99358786214245 L145.06831804496431,157.8572611970508 L145.11474304127228,157.72330756860174 L145.1685407301461,157.59214101978424 L145.22954482601259,157.4641669788838 L145.29756676870733,157.33978100632706 L145.37239630630367,157.2193675720268 L145.45380214498925,157.1032988670079 L145.5415326639818,156.99193365298595 L145.6353166932748,156.88561615345537 L145.7348643518082,156.78467498971443 L145.8398679434744,156.68942216511553 L145.95000290818896,156.60015210068082 L146.0649288250876,156.51714072506357 L146.1842904647473,156.44064462166864 L146.30771888718024,156.3709002355678 L146.43483258220604,156.30812314266163 L146.56523864867796,156.25250738334665 L146.69853400891785,156.20422486274774 L146.834306654606,156.16342481936908 L146.97213692027543,156.1302333638066 L147.11159878047368,156.10475308894735 L147.25226116658314,156.08706275286065 L147.39368929922932,156.0772170353616 L147.5354460321592,156.07524636899873 L147.67709320343496,156.08115684498884 L147.81819298976774,156.09493019438935 L147.95830925980405,156.11652384456661 L148.0970089221829,156.1458710507854 L148.23386326419651,156.18288110251305 L148.3684492769165,156.22743960380072 L148.50035096269033,156.27940882687443 L148.62916062096625,156.3386281378439 L148.75448010847234,156.40491449321266 L148.87592206985448,156.47806300565495 L148.9931111349696,156.5578475773108 L149.10568507913325,156.6440215986415 L149.21329594273536,156.73631871068554 L149.3156111067635,156.83445362835892 L149.41231432090905,156.93812302225498 L149.50310668107898,157.04700645621827 L149.58770755329104,157.16076737779426 L149.66585544109756,157.27905415849372 L149.7373087938558,157.40150118065625 L149.80184675334715,157.5277299675535 L149.85926983643742,157.65735035323905 L149.9094005516675,157.789961688529 L149.9520839478695,157.9251540793856 L149.9871880931119,158.06250965387628 L150.01460448249344,158.20160385379182 L150.0342483735257,158.34200674693142 L150.0460590480673,158.4832843559986 L150.05,158.62499999999997 " />
			<path d="M150.05,52.875 L150.0460590480673,53.01671564400138 L150.0342483735257,53.15799325306855 L150.01460448249344,53.29839614620816 L149.9871880931119,53.437490346123695 L149.95208394786954,53.57484592061438 L149.90940055166752,53.710038311470974 L149.85926983643742,53.84264964676092 L149.80184675334718,53.972270032446474 L149.7373087938558,54.09849881934373 L149.6658554410976,54.220945841506264 L149.58770755329107,54.33923262220572 L149.50310668107898,54.45299354378171 L149.41231432090908,54.561876977745 L149.3156111067635,54.66554637164107 L149.21329594273539,54.76368128931445 L149.10568507913325,54.855978401358485 L148.9931111349696,54.942152422689176 L148.8759220698545,55.02193699434503 L148.75448010847236,55.095085506787335 L148.62916062096627,55.16137186215608 L148.50035096269033,55.220591173125555 L148.36844927691652,55.27256039619927 L148.23386326419654,55.317118897486935 L148.09700892218294,55.35412894921461 L147.95830925980405,55.383476155433385 L147.81819298976777,55.40506980561064 L147.677093203435,55.41884315501116 L147.5354460321592,55.42475363100127 L147.39368929922935,55.4227829646384 L147.25226116658314,55.41293724713935 L147.1115987804737,55.39524691105266 L146.97213692027543,55.3697666361934 L146.834306654606,55.33657518063092 L146.69853400891785,55.295775137252264 L146.565238648678,55.247492616653346 L146.43483258220604,55.19187685733838 L146.30771888718024,55.1290997644322 L146.18429046474733,55.059355378331375 L146.0649288250876,54.982859274936445 L145.95000290818896,54.8998478993192 L145.8398679434744,54.81057783488447 L145.73486435180823,54.715325010285575 L145.6353166932748,54.614383846544634 L145.54153266398183,54.50806634701406 L145.45380214498925,54.39670113299209 L145.3723963063037,54.2806324279732 L145.29756676870733,54.16021899367296 L145.22954482601259,54.0358330211162 L145.1685407301461,53.90785898021579 L145.11474304127228,53.77669243139829 L145.06831804496434,53.642738802949225 L145.02940923822538,53.506412137857566 L144.99813688594725,53.368133814032554 L144.97459764917872,53.228331241848714 L144.95886428635166,53.087436543044916 L144.9509854283889,52.945885215060805 L144.9509854283889,52.80411478493921 L144.95886428635166,52.662563456955105 L144.97459764917872,52.5216687581513 L144.99813688594725,52.38186618596746 L145.02940923822536,52.24358786214245 L145.06831804496431,52.107261197050796 L145.11474304127228,51.97330756860173 L145.1685407301461,51.84214101978422 L145.22954482601259,51.714166978883824 L145.29756676870733,51.58978100632705 L145.37239630630367,51.46936757202681 L145.45380214498925,51.35329886700792 L145.5415326639818,51.241933652985956 L145.6353166932748,51.13561615345538 L145.7348643518082,51.03467498971444 L145.8398679434744,50.939422165115545 L145.95000290818896,50.850152100680816 L146.0649288250876,50.76714072506357 L146.1842904647473,50.69064462166864 L146.30771888718024,50.62090023556781 L146.43483258220604,50.55812314266163 L146.56523864867796,50.50250738334666 L146.69853400891785,50.45422486274774 L146.834306654606,50.413424819369084 L146.97213692027543,50.38023336380661 L147.11159878047368,50.35475308894734 L147.25226116658314,50.33706275286065 L147.39368929922932,50.3272170353616 L147.5354460321592,50.32524636899873 L147.67709320343496,50.33115684498884 L147.81819298976774,50.34493019438936 L147.95830925980405,50.366523844566615 L148.0970089221829,50.39587105078538 L148.23386326419651,50.432881102513065 L148.3684492769165,50.477439603800725 L148.50035096269033,50.52940882687444 L148.62916062096625,50.58862813784391 L148.75448010847234,50.65491449321266 L148.87592206985448,50.72806300565495 L148.9931111349696,50.80784757731081 L149.10568507913325,50.8940215986415 L149.21329594273536,50.98631871068554 L149.3156111067635,51.084453628358915 L149.41231432090905,51.188123022254985 L149.50310668107898,51.29700645621828 L149.58770755329104,51.41076737779426 L149.66585544109756,51.52905415849372 L149.7373087938558,51.65150118065625 L149.80184675334715,51.777729967553505 L149.85926983643742,51.90735035323906 L149.9094005516675,52.039961688529004 L149.9520839478695,52.1751540793856 L149.9871880931119,52.312509653876276 L150.01460448249344,52.451603853791816 L150.0342483735257,52.59200674693143 L150.0460590480673,52.7332843559986 L150.05,52.87499999999998 " />
			<path d="M358.5,36.0 L358.5,386.0 " />
			<path d="M358.5,386.0 L159.5,386.0 " />
			<path d="M159.5,386.0 L159.5,36.0 " />
			<path d="M159.5,36.0 L358.5,36.0 " />

       </g>
    </g>
    
</svg>
