<?xml version="1.0" encoding="UTF-8" standalone="no"?>
<svg
   xmlns:svg="http://www.w3.org/2000/svg"
   xmlns="http://www.w3.org/2000/svg"
   width="640.0"
   height="480.0"

>
    <g transform="scale(4.10803474887823, -4.10803474887823)   translate(107.10717579011464,-33.63355954520311)" stroke-width="0.4"  fill="none">
       <!-- hidden lines -->
       <g  stroke="rgb(160,160,160)" fill="none" stroke-dasharray="0.4,0.4" >
			<path d="M57.9827560572969,2.611164839335469 L-7.77817459305202,-29.76727916842433 " />
			<path d="M57.982756057296896,3.8297084310253524 L-7.778174593052024,-28.548735576734448 " />
			<path d="M58.15902757320238,2.715611432908887 L58.11867031014909,2.688028461992882 L58.0757778556328,2.6613890985438413 L58.030441086227725,2.6357497835865824 L57.9827560572969,2.61116483933547 " />
			<path d="M57.9827560572969,3.829708431025354 L58.03352257354952,3.8559622406965968 L58.08161156556119,3.8834109076025762 L58.12690718273805,3.9119883055004974 L58.1693003039709,3.941625588935739 L58.208688800517486,3.972251359096587 L58.24497778203961,4.0037918358202225 L58.27807982520225,4.0361710353356 L58.30791518428401,4.069310953315003 L58.33441198329161,4.103131752793305 L58.35750638911539,4.137551956502211 L58.377142765308896,4.172488643156132 L58.393273806121925,4.207857647216827 L58.40586065046425,4.243573761655555 L58.41487297552538,4.2795509432242715 L58.42028906982484,4.315702519741347 L58.42209588551708,4.3519413988924445 " />
			<path d="M56.36646096690668,1.7109095556072218 L22.890460720570918,-14.771533573776694 " />
			<path d="M20.001373424044907,-16.19402182537204 L1.9318157262016404,-25.090857018830466 " />
			<path d="M-0.9572715703243698,-26.51334527042581 L-8.202438661763955,-30.080618949144586 " />
			<path d="M-9.899494936611665,-28.54873557673445 L-9.846173197102372,-28.573731281443894 L-9.790424691077313,-28.597408664349533 L-9.732383721570494,-28.619710684562047 L-9.672190114361248,-28.640583614561326 L-9.545929870070841,-28.677844628997462 L-9.41285991337948,-28.708832863719977 L-9.274261780713537,-28.733249885088604 L-9.131470247856036,-28.750860543839856 L-8.985860475326186,-28.761495239703 L-8.838834764831844,-28.765051554743355 L-8.691809054337503,-28.761495239703 L-8.546199281807652,-28.750860543839856 L-8.403407748950151,-28.733249885088604 L-8.264809616284209,-28.708832863719977 L-8.131739659592848,-28.677844628997462 L-8.00547941530244,-28.640583614561326 L-7.945285808093195,-28.619710684562047 L-7.887244838586376,-28.597408664349533 L-7.831496332561317,-28.573731281443894 L-7.778174593052028,-28.548735576734455 " />
			<path d="M-58.42209588551708,-4.351941398892448 L-58.42028906982484,-4.388180278043549 L-58.41487297552538,-4.4243318545606245 L-58.405860650464255,-4.46030903612934 L-58.393273806121925,-4.496025150568069 L-58.377142765308896,-4.531394154628764 L-58.35750638911539,-4.566330841282685 L-58.33441198329161,-4.600751044991592 L-58.30791518428401,-4.634571844469893 L-58.27807982520225,-4.667711762449296 L-58.24497778203961,-4.700090961964673 L-58.208688800517486,-4.731631438688309 L-58.1693003039709,-4.762257208849157 L-58.12690718273805,-4.791894492284399 L-58.08161156556119,-4.82047189018232 L-58.03352257354952,-4.847920557088299 L-57.9827560572969,-4.874174366759541 " />
			<path d="M-9.899494936611669,-28.548735576734448 L-57.9827560572969,-4.874174366759542 " />
			<path d="M-7.778174593052023,-29.767279168424334 L-7.831496332561317,-29.792274873133778 L-7.887244838586376,-29.815952256039417 L-7.945285808093194,-29.83825427625193 L-8.00547941530244,-29.85912720625121 L-8.131739659592848,-29.896388220687346 L-8.264809616284209,-29.92737645540986 L-8.403407748950151,-29.951793476778484 L-8.546199281807652,-29.96940413552974 L-8.691809054337503,-29.980038831392882 L-8.838834764831844,-29.983595146433238 L-8.985860475326186,-29.980038831392882 L-9.131470247856036,-29.96940413552974 L-9.274261780713537,-29.951793476778487 L-9.41285991337948,-29.92737645540986 L-9.545929870070841,-29.896388220687346 L-9.672190114361248,-29.85912720625121 L-9.732383721570494,-29.83825427625193 L-9.790424691077313,-29.815952256039417 L-9.846173197102372,-29.792274873133778 L-9.89949493661166,-29.767279168424338 " />
			<path d="M-8.202438661763951,-30.08061894914459 L-8.267880809084563,-30.10982280171364 L-8.338821555114203,-30.135727771840717 L-8.414577701688446,-30.158084380502398 L-8.494419675703263,-30.176677321335905 L-8.577578555302829,-30.191327534157082 L-8.66325347501733,-30.201893929407834 L-8.75061933853524,-30.20827474692572 L-8.838834764831844,-30.21040853594993 L-8.92705019112845,-30.20827474692572 L-9.01441605464636,-30.201893929407834 L-9.10009097436086,-30.191327534157082 L-9.183249853960426,-30.176677321335905 L-9.263091827975241,-30.158084380502398 L-9.338847974549486,-30.135727771840717 L-9.409788720579126,-30.10982280171364 L-9.475230867899734,-30.080618949144593 " />
			<path d="M-9.475230867899732,-30.08061894914459 L-56.36646096690667,-6.992973242177677 " />
			<path d="M56.073567748093225,2.2630095274240736 L56.139471420269416,2.2988111784755545 L56.19793057920923,2.337620966030997 L56.248382231255036,2.3790651306206523 L56.290340499417965,2.422744542283839 L56.3080050320897,2.4452917419360407 L56.323401302638885,2.4682385444086443 L56.33649222010122,2.491529668844592 L56.34724624730991,2.5151090048850553 L56.35563747687146,2.5389197478442074 L56.36164569357888,2.562904535556685 L56.36525642311185,2.5870055865680683 L56.36646096690668,2.611164839335467 " />
			<path d="M-23.930058700317364,9.877862509550118 L-23.928854156522537,9.853703256782717 L-23.92524342698956,9.829602205771334 L-23.919235210282146,9.805617418058857 L-23.910843980720593,9.781806675099704 L-23.90008995351191,9.758227339059241 L-23.886999036049573,9.734936214623293 L-23.871602765500384,9.71198941215069 L-23.85393823282865,9.689442212498488 L-23.81197996466572,9.645762800835302 L-23.76152831261991,9.604318636245646 L-23.7030691536801,9.565508848690204 L-23.637165481503914,9.529707197638723 " />
			<path d="M22.890460720570914,-13.378912326131115 L-23.63716548150391,9.529707197638722 " />
			<path d="M22.890460720570918,-13.378912326131115 L22.963174217593817,-13.411361051207836 L23.041997268737862,-13.44014435134903 L23.126170764931466,-13.464985027639788 L23.214884069392372,-13.485643850788131 L23.307282824503,-13.501921865033882 L23.402477179741336,-13.513662304201384 L23.499550361427904,-13.52075210144348 L23.597567501757464,-13.52312297813705 L23.695584642087024,-13.52075210144348 L23.79265782377359,-13.513662304201384 L23.887852179011926,-13.501921865033882 L23.980250934122555,-13.485643850788131 L24.06896423858346,-13.464985027639788 L24.153137734777065,-13.44014435134903 L24.23196078592111,-13.411361051207836 L24.304674282944006,-13.378912326131115 " />
			<path d="M56.073567748093225,2.2630095274240727 L24.30467428294401,-13.378912326131115 " />
			<path d="M19.708480205231453,-15.641921853555187 L19.774383877407644,-15.606120202503705 L19.83284303634745,-15.567310414948263 L19.883294688393264,-15.525866250358607 L19.925252956556193,-15.482186838695421 L19.942917489227927,-15.45963963904322 L19.958313759777116,-15.436692836570616 L19.971404677239452,-15.413401712134668 L19.98215870444814,-15.389822376094205 L19.99054993400969,-15.366011633135052 L19.996558150717103,-15.342026845422575 L20.00016888025008,-15.317925794411192 L20.001373424044907,-15.293766541643793 " />
			<path d="M19.708480205231453,-15.641921853555186 L3.3460292885747447,-23.69823577118488 " />
			<path d="M1.9318157262016475,-23.69823577118488 L2.0045292232245497,-23.730684496261603 L2.083352274368593,-23.7594677964028 L2.167525770562197,-23.784308472693553 L2.256239075023105,-23.804967295841898 L2.3486378301337325,-23.821245310087647 L2.4438321853720666,-23.83298574925515 L2.540905367058634,-23.840075546497246 L2.638922507388195,-23.842446423190815 L2.7369396477177554,-23.840075546497246 L2.8340128294043234,-23.83298574925515 L2.929207184642657,-23.821245310087647 L3.0216059397532846,-23.804967295841898 L3.1103192442141925,-23.784308472693553 L3.1944927404077967,-23.7594677964028 L3.2733157915518403,-23.730684496261603 L3.3460292885747394,-23.698235771184883 " />
			<path d="M1.9318157262016475,-23.69823577118488 L-44.59581047587318,-0.789616247415046 " />
			<path d="M-44.88870369468663,-0.4414609355036505 L-44.887499150891806,-0.46562018827105134 L-44.88388842135883,-0.48972123928243494 L-44.87788020465141,-0.513706026994912 L-44.869488975089865,-0.5375167699540639 L-44.858734947881175,-0.5610961059945275 L-44.84564403041884,-0.5843872304304751 L-44.83024775986966,-0.6073340329030792 L-44.81258322719792,-0.6298812325552807 L-44.77062495903499,-0.6735606442184673 L-44.72017330698918,-0.7150048088081231 L-44.66171414804937,-0.7538145963635652 L-44.59581047587318,-0.7896162474150459 " />
			<path d="M-1.2501647891378183,-25.96124529860895 L-1.1842611169616286,-25.925443647557472 L-1.1258019580218204,-25.88663386000203 L-1.0753503059760108,-25.845189695412373 L-1.033392037813079,-25.801510283749188 L-1.0157275051413448,-25.778963084096986 L-1.000331234592157,-25.75601628162438 L-0.9872403171298217,-25.732725157188433 L-0.9764862899211353,-25.70914582114797 L-0.9680950603595848,-25.685335078188817 L-0.9620868436521689,-25.661350290476342 L-0.9584761141191933,-25.637249239464957 L-0.9572715703243657,-25.61308998669756 " />
			<path d="M-1.2501647891378165,-25.96124529860895 L-8.131727983645298,-29.349492794130654 " />
			<path d="M-9.545941546018392,-29.349492794130654 L-9.47322804899549,-29.381941519207377 L-9.394404997851447,-29.410724819348573 L-9.310231501657842,-29.435565495639327 L-9.221518197196934,-29.456224318787672 L-9.129119442086306,-29.47250233303342 L-9.033925086847972,-29.484242772200925 L-8.936851905161404,-29.49133256944302 L-8.838834764831844,-29.49370344613659 L-8.740817624502284,-29.49133256944302 L-8.643744442815716,-29.484242772200925 L-8.548550087577382,-29.47250233303342 L-8.456151332466755,-29.456224318787672 L-8.367438028005846,-29.435565495639327 L-8.283264531812243,-29.410724819348573 L-8.2044414806682,-29.381941519207377 L-8.1317279836453,-29.349492794130658 " />
			<path d="M-9.54594154601839,-29.349492794130654 L-56.07356774809322,-6.440873270360819 " />
			<path d="M-56.36646096690667,-6.092717958449425 L-56.365256423111845,-6.116877211216826 L-56.36164569357887,-6.140978262228209 L-56.35563747687145,-6.1649630499406864 L-56.347246247309904,-6.1887737928998385 L-56.33649222010121,-6.212353128940302 L-56.32340130263888,-6.2356442533762495 L-56.308005032089696,-6.258591055848854 L-56.29034049941796,-6.281138255501055 L-56.24838223125503,-6.3248176671642415 L-56.19793057920922,-6.3662618317538975 L-56.13947142026941,-6.405071619309339 L-56.07356774809322,-6.440873270360821 " />
			<path d="M-57.9827560572969,-6.092717958449427 L-58.030441086227725,-6.068133014198313 L-58.0757778556328,-6.042493699241055 L-58.1186703101491,-6.015854335792014 L-58.15902757320237,-5.988271364876011 " />
			<path d="M-9.899494936611667,-29.767279168424334 L-57.9827560572969,-6.092717958449427 " />
			<path d="M56.191082092030214,1.0270581701386188 L56.13558228031716,0.9909099472285878 L56.073567748093225,0.9574271077563401 " />
			<path d="M-23.63716548150391,8.224124777970987 L-23.699180013727847,8.257607617443236 L-23.754679825440892,8.293755840353265 " />
			<path d="M22.890460720570914,-14.68449474579885 L-23.637165481503914,8.224124777970985 " />
			<path d="M24.30467428294401,-14.68449474579885 L24.23196078592111,-14.71694347087557 L24.153137734777065,-14.745726771016765 L24.06896423858346,-14.770567447307522 L23.980250934122555,-14.791226270455866 L23.887852179011926,-14.807504284701617 L23.79265782377359,-14.819244723869119 L23.695584642087024,-14.826334521111214 L23.597567501757464,-14.828705397804784 L23.499550361427904,-14.826334521111214 L23.402477179741336,-14.819244723869119 L23.307282824503,-14.807504284701617 L23.214884069392372,-14.791226270455866 L23.126170764931466,-14.770567447307522 L23.041997268737862,-14.745726771016765 L22.963174217593817,-14.71694347087557 L22.89046072057092,-14.68449474579885 " />
			<path d="M56.073567748093225,0.9574271077563399 L24.304674282944013,-14.684494745798848 " />
			<path d="M19.82599454916844,-16.87787321084064 L19.77049473745539,-16.914021433750673 L19.708480205231456,-16.94750427322292 " />
			<path d="M19.708480205231453,-16.94750427322292 L3.3460292885747447,-25.003818190852613 " />
			<path d="M3.3460292885747425,-25.003818190852616 L3.2733157915518403,-25.03626691592934 L3.194492740407797,-25.065050216070535 L3.110319244214193,-25.08989089236129 L3.021605939753285,-25.110549715509634 L2.9292071846426575,-25.126827729755384 L2.8340128294043234,-25.138568168922887 L2.736939647717756,-25.145657966164983 L2.638922507388195,-25.14802884285855 L2.5409053670586346,-25.145657966164983 L2.4438321853720666,-25.138568168922887 L2.348637830133733,-25.126827729755384 L2.2562390750231054,-25.110549715509634 L2.1675257705621975,-25.08989089236129 L2.0833522743685933,-25.065050216070535 L2.0045292232245497,-25.03626691592934 L1.9318157262016507,-25.00381819085262 " />
			<path d="M1.9318157262016487,-25.003818190852616 L-44.59581047587318,-2.0951986670827814 " />
			<path d="M-44.59581047587318,-2.09519866708278 L-44.65782500809711,-2.061715827610532 L-44.71332481981016,-2.0255676047005027 " />
			<path d="M-1.1326504452008337,-27.19719665589441 L-1.1881502569138838,-27.23334487880444 L-1.2501647891378174,-27.266827718276687 " />
			<path d="M-1.250164789137818,-27.266827718276687 L-8.1317279836453,-30.65507521379839 " />
			<path d="M-8.131727983645296,-30.65507521379839 L-8.2044414806682,-30.687523938875113 L-8.283264531812241,-30.71630723901631 L-8.367438028005846,-30.741147915307064 L-8.456151332466755,-30.76180673845541 L-8.548550087577382,-30.778084752701158 L-8.643744442815716,-30.789825191868662 L-8.740817624502284,-30.796914989110757 L-8.838834764831844,-30.799285865804325 L-8.936851905161404,-30.796914989110757 L-9.033925086847972,-30.789825191868662 L-9.129119442086306,-30.778084752701158 L-9.221518197196934,-30.76180673845541 L-9.310231501657842,-30.741147915307064 L-9.394404997851446,-30.71630723901631 L-9.47322804899549,-30.687523938875113 L-9.545941546018389,-30.655075213798394 " />
			<path d="M-9.54594154601839,-30.65507521379839 L-56.07356774809322,-7.746455690028555 " />
			<path d="M-56.07356774809322,-7.746455690028554 L-56.13558228031715,-7.712972850556307 L-56.1910820920302,-7.676824627646277 " />

       </g>

       <!-- solid lines -->
       <g  stroke="rgb(0,0,0)" fill="none">
			<path d="M57.9827560572969,3.655630775069657 L58.03352257354952,3.6293769653984143 L58.08161156556119,3.601928298492435 L58.12690718273805,3.5733509005945137 L58.1693003039709,3.543713617159272 L58.208688800517486,3.513087846998424 L58.24497778203961,3.4815473702747886 L58.27807982520225,3.4491681707594113 L58.30791518428401,3.4160282527800088 L58.33441198329161,3.3822074533017066 L58.35750638911539,3.347787249592801 L58.377142765308896,3.3128505629388796 L58.393273806121925,3.2774815588781836 L58.405860650464255,3.241765444439455 L58.41487297552538,3.2057882628707395 L58.42028906982484,3.1696366863536642 L58.42209588551708,3.1333978072025697 " />
			<path d="M58.42209588551708,3.133397807202563 L58.42103687345827,3.105650398172985 L58.41786133262388,3.0779421689310915 L58.412573746928636,3.0503122439420762 L58.40518158252855,3.0227996371042694 L58.39569527727861,2.9954431966608843 L58.38412822599436,2.9682815503456768 L58.35482013175708,2.9146957216180014 L58.3174227753837,2.8623447002893405 L58.27214730498572,2.8115240639181343 L58.21924934906203,2.7625207494014217 L58.15902757320238,2.715611432908888 " />
			<path d="M58.42209588551708,4.351941398892448 L58.42028906982484,4.388180278043549 L58.41487297552538,4.4243318545606245 L58.40586065046425,4.46030903612934 L58.393273806121925,4.496025150568069 L58.377142765308896,4.531394154628764 L58.35750638911539,4.566330841282685 L58.33441198329161,4.600751044991591 L58.30791518428401,4.634571844469893 L58.27807982520225,4.667711762449296 L58.24497778203961,4.700090961964673 L58.208688800517486,4.731631438688309 L58.1693003039709,4.762257208849157 L58.12690718273805,4.791894492284398 L58.08161156556119,4.820471890182319 L58.03352257354952,4.847920557088299 L57.98275605729691,4.874174366759539 " />
			<path d="M57.55849198858497,2.2978250586152136 L56.36646096690668,1.7109095556072218 " />
			<path d="M22.890460720570918,-14.771533573776694 L20.001373424044907,-16.19402182537204 " />
			<path d="M1.9318157262016404,-25.090857018830466 L-0.9572715703243698,-26.51334527042581 " />
			<path d="M57.9827560572969,4.874174366759542 L9.899494936611669,28.548735576734448 " />
			<path d="M9.899494936611665,28.54873557673445 L9.846173197102372,28.573731281443894 L9.790424691077313,28.597408664349533 L9.732383721570494,28.619710684562047 L9.672190114361248,28.640583614561326 L9.545929870070841,28.677844628997462 L9.41285991337948,28.708832863719977 L9.27426178071354,28.7332498850886 L9.131470247856038,28.750860543839856 L8.985860475326184,28.761495239703 L8.838834764831844,28.765051554743355 L8.691809054337504,28.761495239703 L8.546199281807652,28.750860543839856 L8.40340774895015,28.7332498850886 L8.264809616284209,28.708832863719977 L8.131739659592848,28.677844628997462 L8.005479415302442,28.640583614561326 L7.945285808093195,28.619710684562047 L7.887244838586377,28.597408664349533 L7.831496332561318,28.573731281443894 L7.778174593052032,28.548735576734455 " />
			<path d="M7.778174593052024,28.548735576734448 L-57.982756057296896,-3.8297084310253524 " />
			<path d="M-57.9827560572969,-3.829708431025354 L-58.03352257354952,-3.8559622406965968 L-58.08161156556119,-3.8834109076025762 L-58.12690718273805,-3.9119883055004974 L-58.1693003039709,-3.941625588935739 L-58.208688800517486,-3.972251359096587 L-58.24497778203961,-4.0037918358202225 L-58.27807982520225,-4.0361710353356 L-58.30791518428401,-4.069310953315003 L-58.33441198329161,-4.103131752793304 L-58.35750638911539,-4.13755195650221 L-58.377142765308896,-4.172488643156131 L-58.393273806121925,-4.207857647216827 L-58.405860650464255,-4.243573761655556 L-58.41487297552538,-4.2795509432242715 L-58.42028906982484,-4.315702519741347 L-58.42209588551708,-4.351941398892441 " />
			<path d="M57.558491988584976,2.924504620055725 L57.6111886179753,2.8962065507215105 L57.658712666135294,2.8657688544013644 L57.70070740023653,2.833420007538682 L57.73685759249739,2.7994028323694584 L57.76689188639768,2.763972674210081 L57.79058483357962,2.727395484742305 L57.80775858614538,2.6899458256829902 L57.8182842316482,2.6519048078237724 L57.82208276075625,2.613557980910997 L57.819125660325454,2.575193190205234 L57.80943512742952,2.537098415809832 L57.79308390274067,2.499559610987291 L57.77019472451156,2.46285855568984 L57.74093940725732,2.427270741416408 L57.705537552053066,2.393063303273008 L57.66425489812826,2.360493014759267 " />
			<path d="M57.664254898128256,2.3604930147592635 L57.614305067586514,2.327959614140236 L57.558491988584976,2.2978250586152136 " />
			<path d="M9.899494936611667,27.330191985044568 L57.9827560572969,3.6556307750696604 " />
			<path d="M9.475230867899732,26.599065830030636 L57.55849198858497,2.9245046200557283 " />
			<path d="M-56.36646096690667,-6.992973242177677 L-57.55849198858497,-6.4060577391696825 " />
			<path d="M8.202438661763951,26.599065830030636 L8.267880809084563,26.628269682599687 L8.338821555114203,26.654174652726763 L8.414577701688446,26.676531261388444 L8.494419675703263,26.69512420222195 L8.577578555302827,26.709774415043128 L8.663253475017328,26.72034081029388 L8.75061933853524,26.726721627811767 L8.838834764831844,26.728855416835977 L8.927050191128448,26.726721627811767 L9.01441605464636,26.72034081029388 L9.10009097436086,26.709774415043128 L9.183249853960426,26.69512420222195 L9.263091827975241,26.676531261388444 L9.338847974549486,26.654174652726763 L9.409788720579124,26.628269682599687 L9.475230867899732,26.59906583003064 " />
			<path d="M-57.558491988584976,-6.406057739169683 L-57.614305067586514,-6.37592318364466 L-57.664254898128256,-6.343389783025634 " />
			<path d="M-57.664254898128256,-6.343389783025632 L-57.705537552053066,-6.310819494511888 L-57.740939407257315,-6.276612056368489 L-57.77019472451156,-6.2410242420950555 L-57.79308390274067,-6.204323186797605 L-57.80943512742952,-6.166784381975064 L-57.819125660325454,-6.128689607579662 L-57.82208276075625,-6.090324816873899 L-57.8182842316482,-6.051977989961124 L-57.80775858614538,-6.013936972101906 L-57.79058483357962,-5.9764873130425915 L-57.76689188639768,-5.9399101235748155 L-57.73685759249739,-5.904479965415438 L-57.70070740023653,-5.870462790246214 L-57.658712666135294,-5.838113943383531 L-57.6111886179753,-5.807676247063386 L-57.558491988584976,-5.779378177729172 " />
			<path d="M-57.55849198858497,-5.779378177729171 L8.202438661763955,26.59906583003063 " />
			<path d="M56.36646096690668,2.611164839335469 L56.36525642311185,2.63532409210287 L56.36164569357888,2.6594251431142535 L56.35563747687146,2.683409930826731 L56.34724624730991,2.7072206737858826 L56.33649222010122,2.7308000098263463 L56.323401302638885,2.7540911342622936 L56.3080050320897,2.7770379367348976 L56.290340499417965,2.7995851363870994 L56.248382231255036,2.843264548050286 L56.19793057920923,2.8847087126399416 L56.139471420269416,2.923518500195384 L56.07356774809323,2.9593201512468634 " />
			<path d="M56.073567748093225,2.959320151246866 L9.545941546018398,25.8679396750167 " />
			<path d="M9.5459415460184,25.867939675016704 L9.473228048995496,25.900388400093426 L9.394404997851453,25.929171700234622 L9.31023150165785,25.954012376525377 L9.221518197196941,25.974671199673722 L9.129119442086315,25.99094921391947 L9.03392508684798,26.002689653086975 L8.936851905161411,26.00977945032907 L8.838834764831851,26.01215032702264 L8.740817624502291,26.00977945032907 L8.643744442815724,26.002689653086975 L8.54855008757739,25.99094921391947 L8.456151332466762,25.974671199673722 L8.367438028005854,25.954012376525377 L8.28326453181225,25.929171700234622 L8.204441480668207,25.900388400093426 L8.13172798364531,25.867939675016707 " />
			<path d="M8.1317279836453,25.867939675016704 L-23.637165481503914,10.226017821461515 " />
			<path d="M-23.63716548150391,10.226017821461515 L-23.7030691536801,10.190216170410032 L-23.76152831261991,10.15140638285459 L-23.811979964665717,10.109962218264934 L-23.85393823282865,10.066282806601748 L-23.871602765500384,10.043735606949546 L-23.886999036049573,10.020788804476943 L-23.90008995351191,9.997497680040995 L-23.910843980720593,9.973918344000532 L-23.919235210282146,9.95010760104138 L-23.92524342698956,9.926122813328902 L-23.928854156522537,9.902021762317519 L-23.930058700317364,9.877862509550123 " />
			<path d="M20.001373424044907,-15.293766541643791 L20.00016888025008,-15.26960728887639 L19.996558150717103,-15.245506237865007 L19.99054993400969,-15.22152145015253 L19.98215870444814,-15.197710707193377 L19.971404677239452,-15.174131371152914 L19.958313759777116,-15.150840246716966 L19.942917489227927,-15.127893444244362 L19.925252956556193,-15.10534624459216 L19.883294688393264,-15.061666832928974 L19.83284303634745,-15.020222668339319 L19.774383877407644,-14.981412880783877 L19.708480205231456,-14.945611229732396 " />
			<path d="M19.708480205231453,-14.945611229732394 L-26.819145996843375,7.963008294037441 " />
			<path d="M-26.81914599684338,7.963008294037441 L-26.891859493866278,7.995457019114163 L-26.970682545010323,8.024240319255357 L-27.054856041203927,8.049080995546115 L-27.143569345664833,8.069739818694458 L-27.235968100775462,8.08601783294021 L-27.331162456013796,8.097758272107711 L-27.428235637700364,8.104848069349806 L-27.526252778029924,8.107218946043377 L-27.624269918359484,8.104848069349806 L-27.721343100046052,8.097758272107711 L-27.816537455284386,8.08601783294021 L-27.908936210395016,8.069739818694458 L-27.997649514855922,8.049080995546115 L-28.081823011049526,8.024240319255357 L-28.16064606219357,7.995457019114163 L-28.233359559216467,7.9630082940374445 " />
			<path d="M-28.23335955921647,7.963008294037442 L-44.59581047587318,-0.09330562359225385 " />
			<path d="M-44.59581047587318,-0.0933056235922547 L-44.66171414804937,-0.129107274643736 L-44.72017330698918,-0.1679170621991779 L-44.77062495903499,-0.20936122678883362 L-44.81258322719792,-0.2530406384520201 L-44.83024775986966,-0.2755878381042214 L-44.84564403041884,-0.2985346405768253 L-44.858734947881175,-0.32182576501277294 L-44.869488975089865,-0.3454051010532368 L-44.87788020465141,-0.36921584401238916 L-44.88388842135883,-0.39320063172486613 L-44.887499150891806,-0.4173016827362496 L-44.88870369468663,-0.441460935503646 " />
			<path d="M-0.9572715703243657,-25.613089986697556 L-0.9584761141191933,-25.588930733930155 L-0.9620868436521688,-25.56482968291877 L-0.9680950603595848,-25.540844895206295 L-0.9764862899211353,-25.51703415224714 L-0.9872403171298217,-25.49345481620668 L-1.000331234592157,-25.470163691770733 L-1.0157275051413448,-25.447216889298126 L-1.033392037813079,-25.424669689645928 L-1.0753503059760106,-25.38099027798274 L-1.1258019580218201,-25.339546113393084 L-1.1842611169616286,-25.30073632583764 L-1.250164789137815,-25.26493467478616 " />
			<path d="M-1.2501647891378171,-25.26493467478616 L-47.77779099121264,-2.3563151510163274 " />
			<path d="M-47.77779099121265,-2.356315151016326 L-47.85050448823555,-2.3238664259396042 L-47.92932753937959,-2.2950831257984095 L-48.0135010355732,-2.2702424495076525 L-48.1022143400341,-2.2495836263593088 L-48.19461309514473,-2.2333056121135586 L-48.289807450383066,-2.2215651729460553 L-48.386880632069634,-2.2144753757039597 L-48.484897772399194,-2.2121044990103904 L-48.582914912728754,-2.2144753757039597 L-48.67998809441532,-2.2215651729460553 L-48.775182449653656,-2.233305612113558 L-48.867581204764285,-2.2495836263593088 L-48.95629450922519,-2.2702424495076525 L-49.040468005418795,-2.2950831257984095 L-49.11929105656284,-2.3238664259396042 L-49.19200455358573,-2.356315151016323 " />
			<path d="M-49.19200455358574,-2.356315151016326 L-56.07356774809322,-5.7445626465380295 " />
			<path d="M-56.07356774809322,-5.7445626465380295 L-56.13947142026941,-5.780364297589511 L-56.19793057920922,-5.819174085144953 L-56.24838223125503,-5.860618249734609 L-56.29034049941796,-5.904297661397795 L-56.308005032089696,-5.926844861049996 L-56.32340130263888,-5.9497916635226 L-56.33649222010121,-5.973082787958547 L-56.347246247309904,-5.996662123999012 L-56.35563747687145,-6.020472866958164 L-56.36164569357887,-6.044457654670641 L-56.365256423111845,-6.068558705682024 L-56.36646096690667,-6.092717958449421 " />
			<path d="M7.778174593052023,27.330191985044568 L7.831496332561317,27.35518768975401 L7.887244838586376,27.37886507265965 L7.945285808093194,27.401167092872164 L8.00547941530244,27.422040022871442 L8.131739659592848,27.45930103730758 L8.264809616284209,27.490289272030093 L8.40340774895015,27.514706293398717 L8.54619928180765,27.532316952149973 L8.691809054337504,27.542951648013116 L8.838834764831844,27.54650796305347 L8.985860475326184,27.542951648013116 L9.131470247856036,27.532316952149973 L9.27426178071354,27.514706293398717 L9.41285991337948,27.490289272030093 L9.545929870070841,27.45930103730758 L9.672190114361246,27.422040022871442 L9.732383721570494,27.401167092872164 L9.790424691077313,27.37886507265965 L9.84617319710237,27.35518768975401 L9.899494936611656,27.33019198504457 " />
			<path d="M-57.9827560572969,-5.048252022715239 L7.77817459305202,27.33019198504456 " />
			<path d="M-58.15902757320238,-5.988271364876009 L-58.21924934906203,-5.941362048383475 L-58.27214730498572,-5.892358733866762 L-58.3174227753837,-5.8415380974955555 L-58.35482013175708,-5.789187076166895 L-58.38412822599436,-5.735601247439219 L-58.39569527727861,-5.708439601124011 L-58.40518158252855,-5.681083160680627 L-58.412573746928636,-5.65357055384282 L-58.41786133262388,-5.6259406288538045 L-58.42103687345827,-5.598232399611911 L-58.42209588551708,-5.570484990582337 " />
			<path d="M-58.42209588551708,-5.570484990582333 L-58.42028906982484,-5.534246111431232 L-58.41487297552538,-5.498094534914157 L-58.40586065046425,-5.462117353345441 L-58.393273806121925,-5.426401238906712 L-58.377142765308896,-5.391032234846017 L-58.35750638911539,-5.356095548192096 L-58.33441198329161,-5.32167534448319 L-58.30791518428401,-5.287854545004888 L-58.27807982520225,-5.254714627025485 L-58.24497778203961,-5.222335427510108 L-58.208688800517486,-5.190794950786472 L-58.1693003039709,-5.1601691806256245 L-58.12690718273805,-5.130531897190383 L-58.08161156556119,-5.101954499292462 L-58.03352257354952,-5.074505832386482 L-57.98275605729691,-5.048252022715242 " />
			<path d="M56.073567748093225,1.6537377315791313 L56.139471420269416,1.61793608052765 L56.19793057920923,1.579126292972208 L56.248382231255036,1.5376821283825524 L56.290340499417965,1.494002716719366 L56.3080050320897,1.4714555170671646 L56.323401302638885,1.4485087145945608 L56.33649222010122,1.425217590158613 L56.34724624730991,1.4016382541181491 L56.35563747687146,1.3778275111589968 L56.36164569357888,1.3538427234465198 L56.36525642311185,1.3297416724351363 L56.36646096690668,1.30558241966774 " />
			<path d="M56.36646096690668,1.3055824196677355 L56.36363793164455,1.2686119941534213 L56.35518476491433,1.231850306268873 L56.34114919389153,1.1955049150964783 L56.32161046440001,1.159781029278028 L56.296678893484426,1.1248803483922545 L56.26649524655244,1.0909999241447834 L56.23122994260331,1.0583310478003085 L56.191082092030214,1.0270581701386192 " />
			<path d="M9.545941546018392,24.562357255348967 L56.073567748093225,1.653737731579132 " />
			<path d="M8.131727983645304,24.562357255348967 L8.204441480668207,24.59480598042569 L8.28326453181225,24.623589280566886 L8.367438028005854,24.64842995685764 L8.456151332466762,24.669088780005985 L8.548550087577388,24.685366794251735 L8.643744442815724,24.69710723341924 L8.740817624502291,24.704197030661334 L8.838834764831851,24.706567907354902 L8.936851905161411,24.704197030661334 L9.03392508684798,24.69710723341924 L9.129119442086314,24.685366794251735 L9.221518197196941,24.669088780005985 L9.31023150165785,24.64842995685764 L9.394404997851453,24.623589280566886 L9.473228048995496,24.59480598042569 L9.545941546018392,24.56235725534897 " />
			<path d="M-23.63716548150391,8.920435401793778 L8.131727983645305,24.562357255348967 " />
			<path d="M-23.754679825440896,8.293755840353267 L-23.794827676014002,8.325028718014956 L-23.830092979963123,8.357697594359431 L-23.860276626895107,8.391578018606902 L-23.885208197810698,8.426478699492677 L-23.90474692730222,8.462202585311125 L-23.91878249832501,8.49854797648352 L-23.92723566505523,8.53530966436807 L-23.930058700317364,8.572280089882382 " />
			<path d="M-23.930058700317364,8.572280089882383 L-23.928854156522537,8.596439342649784 L-23.92524342698956,8.620540393661168 L-23.919235210282146,8.644525181373645 L-23.910843980720593,8.668335924332798 L-23.90008995351191,8.69191526037326 L-23.886999036049573,8.715206384809209 L-23.871602765500384,8.738153187281812 L-23.85393823282865,8.760700386934014 L-23.81197996466572,8.8043797985972 L-23.76152831261991,8.845823963186856 L-23.7030691536801,8.884633750742298 L-23.637165481503914,8.920435401793778 " />
			<path d="M19.708480205231453,-16.25119364940013 L19.774383877407644,-16.286995300451608 L19.83284303634745,-16.32580508800705 L19.88329468839326,-16.367249252596707 L19.925252956556193,-16.41092866425989 L19.942917489227927,-16.433475863912093 L19.958313759777116,-16.4564226663847 L19.971404677239452,-16.479713790820647 L19.982158704448135,-16.50329312686111 L19.99054993400969,-16.527103869820262 L19.996558150717103,-16.551088657532738 L20.00016888025008,-16.575189708544123 L20.001373424044907,-16.59934896131152 " />
			<path d="M20.001373424044907,-16.599348961311524 L19.998550388782775,-16.63631938682584 L19.990097222052555,-16.673081074710385 L19.976061651029763,-16.709426465882782 L19.95652292153824,-16.74515035170123 L19.93159135062265,-16.780051032587004 L19.901407703690666,-16.813931456834474 L19.866142399741545,-16.84660033317895 L19.82599454916844,-16.87787321084064 " />
			<path d="M-26.819145996843382,6.657425874369712 L19.70848020523145,-16.251193649400125 " />
			<path d="M-28.23335955921647,6.657425874369707 L-28.16064606219357,6.689874599446429 L-28.081823011049526,6.718657899587624 L-27.997649514855922,6.74349857587838 L-27.908936210395016,6.7641573990267245 L-27.816537455284386,6.780435413272475 L-27.721343100046052,6.792175852439978 L-27.624269918359484,6.799265649682074 L-27.526252778029924,6.801636526375643 L-27.428235637700364,6.799265649682074 L-27.331162456013796,6.792175852439978 L-27.235968100775462,6.780435413272475 L-27.143569345664833,6.7641573990267245 L-27.054856041203927,6.74349857587838 L-26.970682545010323,6.718657899587624 L-26.891859493866278,6.689874599446429 L-26.819145996843382,6.657425874369711 " />
			<path d="M-44.59581047587318,-1.3988880432599882 L-28.233359559216474,6.657425874369707 " />
			<path d="M-44.71332481981017,-2.025567604700501 L-44.75347267038327,-1.9942947270388116 L-44.78873797433239,-1.9616258506943365 L-44.81892162126438,-1.9277454264468654 L-44.843853192179964,-1.892844745561092 L-44.863391921671486,-1.8571208597426418 L-44.87742749269428,-1.8207754685702469 L-44.8858806594245,-1.7840137806856986 L-44.88870369468663,-1.7470433551713866 " />
			<path d="M-44.88870369468663,-1.7470433551713844 L-44.887499150891806,-1.7228841024039838 L-44.88388842135883,-1.6987830513926 L-44.87788020465141,-1.6747982636801229 L-44.869488975089865,-1.650987520720971 L-44.858734947881175,-1.6274081846805075 L-44.84564403041884,-1.6041170602445598 L-44.83024775986966,-1.581170257771956 L-44.81258322719792,-1.5586230581197542 L-44.77062495903499,-1.5149436464565678 L-44.72017330698918,-1.473499481866912 L-44.66171414804937,-1.43468969431147 L-44.595810475873186,-1.3988880432599904 " />
			<path d="M-1.2501647891378185,-26.570517094453898 L-1.1842611169616286,-26.606318745505376 L-1.1258019580218206,-26.64512853306082 L-1.075350305976011,-26.686572697650476 L-1.0333920378130792,-26.73025210931366 L-1.0157275051413452,-26.752799308965862 L-1.0003312345921571,-26.77574611143847 L-0.987240317129822,-26.799037235874415 L-0.9764862899211354,-26.822616571914878 L-0.9680950603595847,-26.84642731487403 L-0.9620868436521688,-26.870412102586506 L-0.9584761141191933,-26.89451315359789 L-0.9572715703243657,-26.91867240636529 " />
			<path d="M-0.9572715703243657,-26.918672406365292 L-0.9600946055864996,-26.955642831879608 L-0.9685477723167187,-26.992404519764154 L-0.9825833433395108,-27.02874991093655 L-1.002122072831033,-27.064473796755 L-1.0270536437466213,-27.099374477640772 L-1.0572372906786058,-27.133254901888243 L-1.0925025946277287,-27.16592377823272 L-1.132650445200833,-27.19719665589441 " />
			<path d="M-47.77779099121265,-3.6618975706840584 L-1.250164789137821,-26.570517094453894 " />
			<path d="M-49.19200455358574,-3.6618975706840597 L-49.11929105656284,-3.629448845607338 L-49.040468005418795,-3.600665545466143 L-48.95629450922519,-3.5758248691753862 L-48.867581204764285,-3.5551660460270424 L-48.775182449653656,-3.5388880317812923 L-48.67998809441532,-3.527147592613789 L-48.582914912728754,-3.5200577953716934 L-48.484897772399194,-3.517686918678124 L-48.386880632069634,-3.5200577953716934 L-48.289807450383066,-3.527147592613789 L-48.19461309514473,-3.538888031781292 L-48.1022143400341,-3.5551660460270424 L-48.0135010355732,-3.5758248691753862 L-47.92932753937959,-3.600665545466143 L-47.85050448823555,-3.629448845607338 L-47.777790991212655,-3.6618975706840566 " />
			<path d="M-56.07356774809322,-7.050145066205762 L-49.19200455358573,-3.6618975706840593 " />
			<path d="M-56.19108209203021,-7.676824627646275 L-56.231229942603306,-7.645551749984586 L-56.26649524655243,-7.612882873640111 L-56.29667889348442,-7.57900244939264 L-56.3216104644,-7.5441017685068665 L-56.341149193891525,-7.508377882688416 L-56.35518476491432,-7.472032491516021 L-56.36363793164454,-7.4352708036314725 L-56.36646096690667,-7.3983003781171615 " />
			<path d="M-56.36646096690667,-7.398300378117159 L-56.365256423111845,-7.374141125349758 L-56.36164569357887,-7.3500400743383745 L-56.35563747687145,-7.3260552866258974 L-56.347246247309904,-7.302244543666745 L-56.33649222010121,-7.278665207626282 L-56.32340130263888,-7.255374083190334 L-56.308005032089696,-7.23242728071773 L-56.29034049941796,-7.209880081065529 L-56.24838223125503,-7.166200669402342 L-56.19793057920922,-7.124756504812686 L-56.13947142026941,-7.085946717257245 L-56.073567748093225,-7.050145066205765 " />
			<path d="M55.720014357499956,1.0444659357341886 L55.7492902627168,1.028744786104069 L55.77569251169457,1.0118349548150993 L55.799022919528596,0.99386337322472 L55.81910635967351,0.9749649425751515 L55.83579207850701,0.9552815213754973 L55.84895482694142,0.9349608605600662 L55.85849580058907,0.9141554944160024 L55.86434338142397,0.8930215956053259 L55.86645367537289,0.8717178028760063 L55.86481084180022,0.8504040302616936 L55.85942721241359,0.8292402667086924 L55.85034319869756,0.8083853751406141 L55.83762698857028,0.787995899975364 L55.82137403454014,0.7682248920456791 L55.80170633720445,0.7492207597437903 L55.77877152946845,0.7311261550139343 " />
			<path d="M55.77877152946844,0.7311261550139324 L55.75102162361192,0.7130520435589169 L55.720014357499956,0.6963106238227931 " />
			<path d="M9.192388155425116,23.953085459504027 L55.72001435749995,1.044465935734192 " />
			<path d="M8.485281374238578,23.953085459504027 L8.521638122750028,23.969309822042387 L8.56104964832205,23.983701472112983 L8.603136396418853,23.996121810258362 L8.647493048649306,24.006451221832535 L8.69369242620462,24.01459022895541 L8.741289603823788,24.02046044853916 L8.789826194667071,24.02400534716021 L8.838834764831851,24.025190785506993 L8.887843334996631,24.02400534716021 L8.936379925839915,24.02046044853916 L8.983977103459083,24.01459022895541 L9.030176481014397,24.006451221832535 L9.07453313324485,23.996121810258362 L9.116619881341652,23.983701472112983 L9.156031406913675,23.969309822042387 L9.192388155425123,23.953085459504027 " />
			<path d="M-23.283612090910637,8.311163605948837 L8.485281374238578,23.953085459504024 " />
			<path d="M-23.283612090910637,7.963008294037441 L-23.314619357022604,7.979749713773566 L-23.342369262879128,7.99782382522858 " />
			<path d="M-23.34236926287913,7.997823825228581 L-23.36530407061513,8.015918429958438 L-23.38497176795083,8.034922562260327 L-23.401224721980967,8.054693570190013 L-23.413940932108243,8.075083045355262 L-23.423024945824277,8.095937936923342 L-23.428408575210906,8.117101700476342 L-23.430051408783573,8.138415473090655 L-23.427941114834653,8.159719265819975 L-23.422093533999753,8.180853164630651 L-23.41255256035211,8.201658530774715 L-23.399389811917697,8.221979191590146 L-23.3827040930842,8.2416626127898 L-23.36262065293928,8.260561043439369 L-23.33929024510526,8.278532625029747 L-23.312887996127486,8.295442456318717 L-23.28361209091064,8.311163605948837 " />
			<path d="M23.24401411116419,-14.945611229732396 L-23.283612090910637,7.963008294037439 " />
			<path d="M23.951120892350737,-14.945611229732394 L23.914764143839285,-14.961835592270756 L23.875352618267264,-14.976227242341354 L23.83326587017046,-14.988647580486731 L23.78890921794001,-14.998976992060904 L23.742709840384695,-15.007115999183778 L23.695112662765528,-15.01298621876753 L23.646576071922244,-15.016531117388578 L23.597567501757464,-15.017716555735362 L23.548558931592684,-15.016531117388578 L23.5000223407494,-15.01298621876753 L23.452425163130233,-15.007115999183778 L23.406225785574918,-14.998976992060904 L23.361869133344467,-14.988647580486731 L23.319782385247663,-14.976227242341354 L23.280370859675642,-14.961835592270756 L23.24401411116419,-14.945611229732396 " />
			<path d="M55.720014357499956,0.6963106238227925 L23.951120892350744,-14.945611229732394 " />
			<path d="M19.35492681463818,-16.86046544524507 L19.38420271985503,-16.87618659487519 L19.410604968832804,-16.89309642616416 L19.433935376666824,-16.91106800775454 L19.454018816811743,-16.929966438404108 L19.47070453564524,-16.94964985960376 L19.48386728407965,-16.969970520419192 L19.493408257727296,-16.990775886563256 L19.499255838562195,-17.011909785373934 L19.501366132511116,-17.033213578103254 L19.49972329893845,-17.054527350717564 L19.49433966955182,-17.075691114270565 L19.485255655835786,-17.096546005838643 L19.47253944570851,-17.116935481003896 L19.456286491678373,-17.13670648893358 L19.436618794342674,-17.155710621235468 L19.413683986606674,-17.173805225965324 " />
			<path d="M19.413683986606674,-17.173805225965328 L19.385934080750147,-17.191879337420342 L19.35492681463818,-17.208620757156467 " />
			<path d="M19.35492681463818,-17.208620757156467 L2.9924758979814716,-25.26493467478616 " />
			<path d="M-27.172699387436655,6.048154078524767 L19.354926814638176,-16.86046544524507 " />
			<path d="M2.992475897981469,-25.264934674786165 L2.956119149470018,-25.281159037324525 L2.916707623897996,-25.29555068739512 L2.874620875801194,-25.3079710255405 L2.83026422357074,-25.318300437114672 L2.784064846015426,-25.326439444237547 L2.736467668396259,-25.3323096638213 L2.6879310775529754,-25.335854562442346 L2.638922507388195,-25.33704000078913 L2.5899139372234146,-25.335854562442346 L2.541377346380131,-25.3323096638213 L2.493780168760964,-25.326439444237547 L2.44758079120565,-25.318300437114672 L2.403224138975196,-25.3079710255405 L2.361137390878394,-25.29555068739512 L2.321725865306372,-25.281159037324525 L2.285369116794923,-25.264934674786165 " />
			<path d="M-27.879806168623197,6.048154078524765 L-27.843449420111746,6.064378441063125 L-27.804037894539725,6.078770091133722 L-27.761951146442925,6.091190429279101 L-27.71759449421247,6.101519840853273 L-27.671395116657155,6.109658847976148 L-27.62379793903799,6.1155290675598994 L-27.575261348194704,6.119073966180947 L-27.526252778029924,6.120259404527732 L-27.477244207865144,6.119073966180947 L-27.42870761702186,6.1155290675598994 L-27.381110439402693,6.109658847976148 L-27.33491106184738,6.101519840853273 L-27.290554409616927,6.091190429279101 L-27.248467661520124,6.078770091133722 L-27.209056135948103,6.064378441063125 L-27.172699387436655,6.048154078524766 " />
			<path d="M2.285369116794922,-25.264934674786165 L-44.2422570852799,-2.35631515101633 " />
			<path d="M-44.2422570852799,-2.008159839104931 L-27.879806168623197,6.048154078524764 " />
			<path d="M-44.24225708527991,-2.356315151016327 L-44.27326435139187,-2.339573731280203 L-44.3010142572484,-2.3214996198251883 " />
			<path d="M-44.3010142572484,-2.3214996198251874 L-44.323949064984404,-2.3034050150953296 L-44.343616762320096,-2.284400882793441 L-44.35986971635023,-2.264629874863756 L-44.37258592647751,-2.244240399698506 L-44.38166994019355,-2.2233855081304275 L-44.387053569580175,-2.202221744577426 L-44.38869640315284,-2.1809079719631135 L-44.386586109203925,-2.159604179233794 L-44.38073852836902,-2.1384702804231175 L-44.37119755472138,-2.117664914279054 L-44.358034806286966,-2.0973442534636226 L-44.341349087453466,-2.0776608322639682 L-44.32126564730855,-2.0587624016144 L-44.297935239474526,-2.0407908200240206 L-44.27153299049675,-2.023880988735051 L-44.24225708527991,-2.0081598391049322 " />
			<path d="M-1.603718179731092,-27.179788890298838 L-1.574442274514245,-27.19551003992896 L-1.548040025536469,-27.21241987121793 L-1.5247096177024488,-27.23039145280831 L-1.5046261775575298,-27.249289883457877 L-1.487940458724034,-27.26897330465753 L-1.4747777102896202,-27.28929396547296 L-1.4652367366419776,-27.310099331617025 L-1.459389155807076,-27.331233230427703 L-1.4572788618581578,-27.352537023157023 L-1.4589216954308248,-27.373850795771332 L-1.464305324817453,-27.395014559324334 L-1.4733893385334849,-27.415869450892412 L-1.4861055486607633,-27.436258926057665 L-1.5023585026909,-27.45602993398735 L-1.522026200026597,-27.475034066289236 L-1.544961007762597,-27.493128671019093 " />
			<path d="M-1.5449610077625997,-27.493128671019097 L-1.5727109136191246,-27.51120278247411 L-1.6037181797310915,-27.527944202210236 " />
			<path d="M-1.6037181797310918,-27.527944202210236 L-8.485281374238573,-30.91619169773194 " />
			<path d="M-48.13134438180592,-4.271169366529 L-1.6037181797310904,-27.179788890298838 " />
			<path d="M-8.485281374238571,-30.91619169773194 L-8.521638122750021,-30.9324160602703 L-8.561049648322044,-30.946807710340895 L-8.603136396418845,-30.959228048486274 L-8.647493048649299,-30.969557460060447 L-8.693692426204613,-30.97769646718332 L-8.74128960382378,-30.983566686767073 L-8.789826194667064,-30.98711158538812 L-8.838834764831844,-30.988297023734905 L-8.887843334996624,-30.98711158538812 L-8.936379925839908,-30.983566686767073 L-8.983977103459075,-30.97769646718332 L-9.03017648101439,-30.969557460060447 L-9.074533133244843,-30.959228048486274 L-9.116619881341645,-30.946807710340895 L-9.156031406913668,-30.9324160602703 L-9.192388155425117,-30.91619169773194 " />
			<path d="M-48.83845116299247,-4.271169366529002 L-48.80209441448102,-4.254945003990642 L-48.762682888909,-4.240553353920045 L-48.72059614081219,-4.228133015774666 L-48.676239488581736,-4.217803604200494 L-48.630040111026425,-4.2096645970776185 L-48.58244293340726,-4.2037943774938675 L-48.533906342563974,-4.20024947887282 L-48.484897772399194,-4.199064040526035 L-48.435889202234414,-4.20024947887282 L-48.38735261139113,-4.2037943774938675 L-48.33975543377196,-4.2096645970776185 L-48.29355605621665,-4.217803604200494 L-48.249199403986196,-4.228133015774666 L-48.20711265588939,-4.240553353920045 L-48.16770113031737,-4.254945003990642 L-48.131344381805924,-4.271169366529001 " />
			<path d="M-9.192388155425121,-30.91619169773194 L-55.72001435749995,-8.007572173962105 " />
			<path d="M-55.72001435749995,-7.659416862050704 L-48.83845116299246,-4.2711693665290005 " />
			<path d="M-55.72001435749995,-8.007572173962101 L-55.75102162361191,-7.9908307542259776 L-55.778771529468436,-7.972756642770963 " />
			<path d="M-55.778771529468436,-7.972756642770962 L-55.80170633720444,-7.954662038041104 L-55.821374034540135,-7.935657905739216 L-55.83762698857027,-7.915886897809531 L-55.85034319869755,-7.89549742264428 L-55.859427212413586,-7.874642531076202 L-55.864810841800214,-7.853478767523201 L-55.86645367537288,-7.832164994908888 L-55.864343381423964,-7.810861202179569 L-55.85849580058906,-7.789727303368893 L-55.848954826941416,-7.768921937224828 L-55.835792078507005,-7.748601276409397 L-55.819106359673505,-7.728917855209743 L-55.79902291952859,-7.7100194245601745 L-55.775692511694565,-7.692047842969796 L-55.74929026271679,-7.675138011680826 L-55.72001435749995,-7.659416862050707 " />
			<path d="M57.9827560572969,4.874174366759542 L57.9827560572969,3.655630775069657 " />
			<path d="M57.9827560572969,3.655630775069654 L57.55849198858497,2.9245046200557248 " />
			<path d="M9.899494936611667,28.54873557673445 L9.899494936611667,27.330191985044564 " />
			<path d="M7.778174593052023,28.548735576734448 L7.778174593052023,27.330191985044564 " />
			<path d="M-57.9827560572969,-3.829708431025354 L-57.9827560572969,-5.048252022715239 " />
			<path d="M9.899494936611667,27.330191985044568 L9.475230867899738,26.599065830030636 " />
			<path d="M7.778174593052024,27.33019198504456 L8.202438661763953,26.599065830030632 " />
			<path d="M-57.9827560572969,-5.048252022715239 L-57.558491988584976,-5.7793781777291695 " />
			<path d="M56.073567748093225,2.9593201512468656 L56.073567748093225,1.6537377315791317 " />
			<path d="M9.545941546018398,25.867939675016704 L9.545941546018398,24.56235725534897 " />
			<path d="M8.131727983645304,25.867939675016704 L8.131727983645304,24.56235725534897 " />
			<path d="M-23.637165481503914,10.226017821461513 L-23.637165481503914,8.920435401793778 " />
			<path d="M19.708480205231453,-14.945611229732394 L19.708480205231453,-16.25119364940013 " />
			<path d="M-26.819145996843375,7.963008294037442 L-26.819145996843375,6.657425874369708 " />
			<path d="M-28.23335955921647,7.963008294037442 L-28.23335955921647,6.657425874369708 " />
			<path d="M-44.59581047587318,-0.0933056235922547 L-44.59581047587318,-1.3988880432599886 " />
			<path d="M-1.250164789137816,-25.26493467478616 L-1.250164789137816,-26.570517094453894 " />
			<path d="M-47.77779099121265,-2.356315151016327 L-47.77779099121265,-3.6618975706840606 " />
			<path d="M-49.19200455358574,-2.3563151510163256 L-49.19200455358574,-3.6618975706840597 " />
			<path d="M-56.07356774809322,-5.7445626465380295 L-56.07356774809322,-7.050145066205763 " />
			<path d="M56.07356774809322,1.653737731579132 L55.72001435749994,1.0444659357341906 " />
			<path d="M9.545941546018398,24.562357255348967 L9.192388155425125,23.953085459504024 " />
			<path d="M8.131727983645304,24.562357255348967 L8.485281374238578,23.953085459504024 " />
			<path d="M-23.637165481503914,8.920435401793778 L-23.28361209091064,8.311163605948837 " />
			<path d="M19.70848020523145,-16.25119364940013 L19.354926814638173,-16.860465445245072 " />
			<path d="M-26.819145996843375,6.657425874369708 L-27.172699387436648,6.048154078524766 " />
			<path d="M-28.233359559216474,6.657425874369707 L-27.879806168623197,6.048154078524763 " />
			<path d="M-44.59581047587318,-1.3988880432599886 L-44.2422570852799,-2.008159839104931 " />
			<path d="M-1.2501647891378225,-26.570517094453894 L-1.6037181797310962,-27.179788890298834 " />
			<path d="M-47.77779099121265,-3.6618975706840606 L-48.131344381805924,-4.271169366529003 " />
			<path d="M-49.19200455358574,-3.66189757068406 L-48.83845116299246,-4.271169366529005 " />
			<path d="M-56.07356774809322,-7.050145066205763 L-55.72001435749994,-7.659416862050706 " />
			<path d="M58.42209588551708,3.133397807202563 L58.42209588551708,4.351941398892448 " />
			<path d="M57.664254898128256,2.3604930147592627 L58.15902757320237,2.715611432908885 " />
			<path d="M-58.42209588551708,-5.570484990582333 L-58.42209588551708,-4.351941398892448 " />
			<path d="M-57.664254898128256,-6.3433897830256285 L-58.15902757320237,-5.988271364876006 " />
			<path d="M56.36646096690668,1.305582419667737 L56.36646096690668,2.611164839335471 " />
			<path d="M-23.930058700317364,8.572280089882382 L-23.930058700317364,9.877862509550116 " />
			<path d="M20.001373424044903,-16.599348961311524 L20.001373424044903,-15.29376654164379 " />
			<path d="M-44.88870369468663,-1.7470433551713842 L-44.88870369468663,-0.4414609355036503 " />
			<path d="M-0.9572715703243666,-26.91867240636529 L-0.9572715703243666,-25.613089986697556 " />
			<path d="M-56.36646096690667,-7.398300378117159 L-56.36646096690667,-6.092717958449425 " />
			<path d="M55.77877152946844,0.7311261550139353 L56.19108209203021,1.0270581701386217 " />
			<path d="M-23.34236926287913,7.997823825228581 L-23.7546798254409,8.293755840353267 " />
			<path d="M19.41368398660667,-17.173805225965328 L19.82599454916844,-16.87787321084064 " />
			<path d="M-44.301014257248404,-2.3214996198251856 L-44.71332481981017,-2.025567604700499 " />
			<path d="M-1.5449610077625977,-27.493128671019097 L-1.1326504452008315,-27.19719665589441 " />
			<path d="M-55.77877152946844,-7.972756642770961 L-56.19108209203021,-7.676824627646275 " />

       </g>
    </g>
    
</svg>
