<?xml version="1.0" encoding="UTF-8" standalone="no"?>
<svg
   xmlns:svg="http://www.w3.org/2000/svg"
   xmlns="http://www.w3.org/2000/svg"
   width="640.0"
   height="480.0"

>
    <g transform="scale(3.75, -3.75)   translate(88.83333333333334,-53.333333333333336)" stroke-width="0.4"  fill="none">
       <!-- hidden lines -->
       <g  stroke="rgb(160,160,160)" fill="none" stroke-dasharray="0.4,0.4" >
			<path d="M-35.5,-46.5 L-35.5,46.5 " />
			<path d="M-35.5,-46.5 L-35.49617817191538,-46.60700877479885 L-35.4847321628214,-46.713472257409926 L-35.46572029895674,-46.81884793432946 L-35.439239460421746,-46.92259883526214 L-35.405424587499645,-47.024196269398644 L-35.364447993031774,-47.12312251950283 L-35.31651848435089,-47.218873480080084 L-35.26188029924677,-47.310961226183395 L-35.20081186138654,-47.39891649976702 L-35.13362436153139,-47.48229110091793 L-35.06066017177982,-47.56066017177982 L-34.98229110091793,-47.63362436153139 L-34.89891649976702,-47.70081186138654 L-34.810961226183395,-47.76188029924677 L-34.718873480080084,-47.81651848435089 L-34.62312251950283,-47.86444799303178 L-34.524196269398644,-47.905424587499645 L-34.42259883526214,-47.939239460421746 L-34.31884793432946,-47.96572029895674 L-34.213472257409926,-47.9847321628214 L-34.10700877479884,-47.99617817191538 L-33.99999999999999,-48.0 " />
			<path d="M-34.0,48.0 L-34.10700877479885,47.99617817191538 L-34.213472257409926,47.9847321628214 L-34.31884793432946,47.96572029895674 L-34.42259883526214,47.939239460421746 L-34.524196269398644,47.905424587499645 L-34.62312251950283,47.864447993031774 L-34.718873480080084,47.81651848435089 L-34.810961226183395,47.76188029924677 L-34.89891649976702,47.70081186138654 L-34.98229110091793,47.63362436153139 L-35.06066017177982,47.56066017177982 L-35.13362436153139,47.48229110091793 L-35.20081186138654,47.39891649976702 L-35.26188029924677,47.310961226183395 L-35.31651848435088,47.218873480080084 L-35.364447993031774,47.12312251950283 L-35.405424587499645,47.02419626939865 L-35.439239460421746,46.92259883526214 L-35.46572029895674,46.81884793432947 L-35.4847321628214,46.713472257409926 L-35.49617817191538,46.60700877479885 L-35.5,46.5 " />
			<path d="M-34.0,-48.0 L34.0,-48.0 " />
			<path d="M34.0,-48.0 L34.10700877479885,-47.99617817191538 L34.213472257409926,-47.9847321628214 L34.31884793432947,-47.96572029895674 L34.42259883526215,-47.939239460421746 L34.52419626939865,-47.90542458749964 L34.623122519502836,-47.864447993031774 L34.71887348008009,-47.81651848435088 L34.8109612261834,-47.76188029924677 L34.898916499767026,-47.70081186138654 L34.982291100917934,-47.63362436153138 L35.06066017177982,-47.560660171779816 L35.13362436153139,-47.48229110091792 L35.20081186138655,-47.39891649976701 L35.261880299246776,-47.31096122618339 L35.31651848435089,-47.21887348008008 L35.36444799303178,-47.12312251950282 L35.405424587499645,-47.02419626939864 L35.439239460421746,-46.922598835262136 L35.46572029895674,-46.818847934329455 L35.4847321628214,-46.71347225740992 L35.49617817191538,-46.607008774798835 L35.5,-46.499999999999986 " />
			<path d="M35.5,-46.5 L35.5,46.5 " />
			<path d="M35.5,46.5 L35.49617817191538,46.60700877479885 L35.4847321628214,46.713472257409926 L35.46572029895674,46.81884793432946 L35.439239460421746,46.92259883526214 L35.405424587499645,47.02419626939865 L35.364447993031774,47.12312251950283 L35.31651848435088,47.218873480080084 L35.26188029924677,47.310961226183395 L35.20081186138654,47.39891649976702 L35.13362436153139,47.48229110091793 L35.06066017177982,47.56066017177982 L34.98229110091793,47.63362436153139 L34.89891649976702,47.70081186138654 L34.810961226183395,47.76188029924677 L34.718873480080084,47.81651848435088 L34.62312251950283,47.864447993031774 L34.52419626939865,47.905424587499645 L34.42259883526214,47.939239460421746 L34.31884793432947,47.96572029895674 L34.213472257409926,47.9847321628214 L34.10700877479885,47.99617817191538 L34.0,48.0 " />
			<path d="M-34.0,48.0 L34.0,48.0 " />
			<path d="M-33.9,-45.400000000000006 L-33.89619469809175,-45.48715574274766 L-33.884807753012204,-45.57364817766693 L-33.865925826289065,-45.658819045102526 L-33.839692620785904,-45.742020143325675 L-33.80630778703665,-45.82261826174071 L-33.76602540378444,-45.900000000000006 L-33.71915204428899,-45.97357643635105 L-33.66604444311898,-46.04278760968654 L-33.607106781186545,-46.10710678118655 L-33.54278760968654,-46.166044443118984 L-33.473576436351046,-46.219152044289 L-33.4,-46.26602540378445 L-33.3226182617407,-46.30630778703666 L-33.24202014332567,-46.33969262078591 L-33.15881904510252,-46.36592582628907 L-33.07364817766693,-46.38480775301221 L-32.98715574274766,-46.39619469809175 L-32.9,-46.400000000000006 " />
			<path d="M-32.9,-46.400000000000006 L32.9,-46.400000000000006 " />
			<path d="M32.9,-46.400000000000006 L32.98715574274765,-46.396194698091755 L33.073648177666925,-46.38480775301221 L33.15881904510252,-46.36592582628907 L33.24202014332567,-46.33969262078591 L33.3226182617407,-46.30630778703666 L33.4,-46.26602540378445 L33.473576436351046,-46.219152044289 L33.542787609686535,-46.166044443118984 L33.607106781186545,-46.10710678118655 L33.66604444311898,-46.04278760968655 L33.71915204428899,-45.97357643635105 L33.76602540378444,-45.900000000000006 L33.80630778703665,-45.82261826174071 L33.839692620785904,-45.742020143325675 L33.865925826289065,-45.658819045102526 L33.884807753012204,-45.57364817766694 L33.89619469809175,-45.48715574274767 L33.9,-45.400000000000006 " />
			<path d="M33.9,-45.400000000000006 L33.9,-0.47199999999999775 " />
			<path d="M33.9,-0.47199999999999775 L33.89619469809175,-0.3848442572523396 L33.884807753012204,-0.29835182233306745 L33.865925826289065,-0.21318095489747702 L33.839692620785904,-0.12997985667432904 L33.80630778703665,-0.04938173825929831 L33.76602540378444,0.02800000000000219 L33.71915204428899,0.1015764363510483 L33.66604444311898,0.1707876096865415 L33.607106781186545,0.2351067811865497 L33.542787609686535,0.29404444311898026 L33.473576436351046,0.34715204428899404 L33.4,0.39402540378444084 L33.3226182617407,0.43430778703665207 L33.24202014332567,0.46769262078591056 L33.15881904510252,0.49392582628907045 L33.07364817766693,0.5128077530122103 L32.98715574274766,0.5241946980917477 L32.9,0.5280000000000022 " />
			<path d="M-32.9,0.5280000000000022 L32.9,0.5280000000000022 " />
			<path d="M-32.9,0.5280000000000022 L-32.98715574274765,0.5241946980917478 L-33.073648177666925,0.5128077530122104 L-33.15881904510252,0.49392582628907067 L-33.24202014332567,0.4676926207859108 L-33.3226182617407,0.4343077870366524 L-33.4,0.3940254037844413 L-33.473576436351046,0.3471520442889945 L-33.542787609686535,0.2940444431189808 L-33.607106781186545,0.23510678118655048 L-33.66604444311898,0.17078760968654239 L-33.71915204428899,0.10157643635104929 L-33.76602540378444,0.028000000000003356 L-33.80630778703665,-0.04938173825929704 L-33.839692620785904,-0.1299798566743276 L-33.865925826289065,-0.21318095489747546 L-33.884807753012204,-0.29835182233306573 L-33.89619469809175,-0.3848442572523378 L-33.9,-0.47199999999999587 " />
			<path d="M-33.9,-45.400000000000006 L-33.9,-0.47199999999999775 " />
			<path d="M-33.9,6.0280000000000005 L-33.89619469809175,5.940844257252342 L-33.884807753012204,5.85435182233307 L-33.865925826289065,5.76918095489748 L-33.839692620785904,5.685979856674332 L-33.80630778703665,5.605381738259301 L-33.76602540378444,5.528000000000001 L-33.71915204428899,5.454423563648955 L-33.66604444311898,5.385212390313462 L-33.607106781186545,5.3208932188134535 L-33.54278760968654,5.2619555568810235 L-33.473576436351046,5.2088479557110094 L-33.4,5.161974596215563 L-33.3226182617407,5.121692212963351 L-33.24202014332567,5.0883073792140925 L-33.15881904510252,5.062074173710933 L-33.07364817766693,5.043192246987792 L-32.98715574274766,5.031805301908255 L-32.9,5.0280000000000005 " />
			<path d="M-33.9,6.0280000000000005 L-33.9,29.168 " />
			<path d="M-32.9,5.0280000000000005 L32.9,5.0280000000000005 " />
			<path d="M-32.9,30.168 L-32.98715574274765,30.164194698091745 L-33.073648177666925,30.15280775301221 L-33.15881904510252,30.13392582628907 L-33.24202014332567,30.107692620785908 L-33.3226182617407,30.07430778703665 L-33.4,30.034025403784437 L-33.473576436351046,29.98715204428899 L-33.542787609686535,29.934044443118978 L-33.607106781186545,29.87510678118655 L-33.66604444311898,29.81078760968654 L-33.71915204428899,29.741576436351046 L-33.76602540378444,29.668 L-33.80630778703665,29.5906182617407 L-33.839692620785904,29.51002014332567 L-33.865925826289065,29.426819045102523 L-33.884807753012204,29.341648177666933 L-33.89619469809175,29.25515574274766 L-33.9,29.168000000000003 " />
			<path d="M32.9,5.0280000000000005 L32.98715574274765,5.031805301908255 L33.073648177666925,5.043192246987792 L33.15881904510252,5.062074173710932 L33.24202014332567,5.088307379214092 L33.3226182617407,5.12169221296335 L33.4,5.161974596215561 L33.473576436351046,5.208847955711008 L33.542787609686535,5.261955556881022 L33.607106781186545,5.320893218813453 L33.66604444311898,5.38521239031346 L33.71915204428899,5.4544235636489535 L33.76602540378444,5.528 L33.80630778703665,5.605381738259299 L33.839692620785904,5.68597985667433 L33.865925826289065,5.769180954897478 L33.884807753012204,5.854351822333069 L33.89619469809175,5.9408442572523406 L33.9,6.027999999999999 " />
			<path d="M-32.9,30.168 L32.9,30.168 " />
			<path d="M33.9,6.0280000000000005 L33.9,29.168 " />
			<path d="M33.9,29.168 L33.89619469809175,29.255155742747657 L33.884807753012204,29.34164817766693 L33.865925826289065,29.42681904510252 L33.839692620785904,29.51002014332567 L33.80630778703665,29.590618261740698 L33.76602540378444,29.668 L33.71915204428899,29.741576436351046 L33.66604444311898,29.81078760968654 L33.607106781186545,29.875106781186545 L33.542787609686535,29.934044443118978 L33.473576436351046,29.98715204428899 L33.4,30.034025403784437 L33.3226182617407,30.07430778703665 L33.24202014332567,30.107692620785908 L33.15881904510252,30.13392582628907 L33.07364817766693,30.15280775301221 L32.98715574274766,30.164194698091745 L32.9,30.168 " />
			<path d="M-33.9,35.668 L-33.89619469809175,35.580844257252345 L-33.884807753012204,35.49435182233307 L-33.865925826289065,35.40918095489748 L-33.839692620785904,35.32597985667433 L-33.80630778703665,35.2453817382593 L-33.76602540378444,35.168 L-33.71915204428899,35.09442356364895 L-33.66604444311898,35.02521239031346 L-33.607106781186545,34.96089321881345 L-33.54278760968654,34.90195555688102 L-33.473576436351046,34.84884795571101 L-33.4,34.80197459621556 L-33.3226182617407,34.76169221296335 L-33.24202014332567,34.728307379214094 L-33.15881904510252,34.70207417371093 L-33.07364817766693,34.683192246987794 L-32.98715574274766,34.67180530190825 L-32.9,34.668 " />
			<path d="M-33.9,35.668 L-33.9,45.4 " />
			<path d="M-32.9,34.668 L32.9,34.668 " />
			<path d="M-32.9,46.4 L-32.98715574274765,46.39619469809175 L-33.073648177666925,46.384807753012204 L-33.15881904510252,46.365925826289065 L-33.24202014332567,46.339692620785904 L-33.3226182617407,46.30630778703665 L-33.4,46.26602540378444 L-33.473576436351046,46.21915204428899 L-33.542787609686535,46.16604444311898 L-33.607106781186545,46.107106781186545 L-33.66604444311898,46.04278760968654 L-33.71915204428899,45.973576436351046 L-33.76602540378444,45.9 L-33.80630778703665,45.8226182617407 L-33.839692620785904,45.74202014332567 L-33.865925826289065,45.65881904510252 L-33.884807753012204,45.57364817766693 L-33.89619469809175,45.48715574274766 L-33.9,45.4 " />
			<path d="M32.9,34.668 L32.98715574274765,34.67180530190825 L33.073648177666925,34.683192246987794 L33.15881904510252,34.70207417371093 L33.24202014332567,34.728307379214094 L33.3226182617407,34.76169221296335 L33.4,34.80197459621556 L33.473576436351046,34.84884795571101 L33.542787609686535,34.90195555688102 L33.607106781186545,34.96089321881345 L33.66604444311898,35.025212390313456 L33.71915204428899,35.09442356364895 L33.76602540378444,35.168 L33.80630778703665,35.2453817382593 L33.839692620785904,35.32597985667433 L33.865925826289065,35.40918095489748 L33.884807753012204,35.494351822333066 L33.89619469809175,35.58084425725234 L33.9,35.668 " />
			<path d="M-32.9,46.4 L32.9,46.4 " />
			<path d="M33.9,35.668 L33.9,45.4 " />
			<path d="M33.9,45.4 L33.89619469809175,45.48715574274766 L33.884807753012204,45.57364817766693 L33.865925826289065,45.65881904510252 L33.839692620785904,45.74202014332567 L33.80630778703665,45.8226182617407 L33.76602540378444,45.9 L33.71915204428899,45.973576436351046 L33.66604444311898,46.042787609686535 L33.607106781186545,46.107106781186545 L33.542787609686535,46.16604444311898 L33.473576436351046,46.21915204428899 L33.4,46.26602540378444 L33.3226182617407,46.30630778703665 L33.24202014332567,46.339692620785904 L33.15881904510252,46.365925826289065 L33.07364817766693,46.384807753012204 L32.98715574274766,46.39619469809175 L32.9,46.4 " />

       </g>

       <!-- solid lines -->
       <g  stroke="rgb(0,0,0)" fill="none">
			<path d="M-35.5,-46.5 L-35.5,46.5 " />
			<path d="M-34.0,-48.0 L-34.10700877479885,-47.99617817191538 L-34.213472257409926,-47.9847321628214 L-34.31884793432946,-47.96572029895674 L-34.42259883526214,-47.939239460421746 L-34.52419626939865,-47.905424587499645 L-34.62312251950283,-47.864447993031774 L-34.718873480080084,-47.81651848435088 L-34.810961226183395,-47.76188029924677 L-34.89891649976702,-47.70081186138654 L-34.98229110091793,-47.63362436153139 L-35.06066017177982,-47.56066017177982 L-35.13362436153139,-47.48229110091793 L-35.20081186138654,-47.39891649976702 L-35.26188029924677,-47.310961226183395 L-35.31651848435088,-47.218873480080084 L-35.364447993031774,-47.12312251950283 L-35.405424587499645,-47.02419626939865 L-35.439239460421746,-46.92259883526214 L-35.46572029895674,-46.81884793432947 L-35.4847321628214,-46.713472257409926 L-35.49617817191538,-46.60700877479885 L-35.5,-46.5 " />
			<path d="M-34.9,-46.5 L-34.9,46.5 " />
			<path d="M-35.5,46.5 L-35.49617817191538,46.60700877479885 L-35.4847321628214,46.713472257409926 L-35.46572029895674,46.81884793432946 L-35.439239460421746,46.92259883526214 L-35.405424587499645,47.02419626939865 L-35.364447993031774,47.12312251950283 L-35.31651848435088,47.218873480080084 L-35.26188029924677,47.310961226183395 L-35.20081186138654,47.39891649976702 L-35.13362436153139,47.48229110091793 L-35.06066017177982,47.56066017177982 L-34.98229110091793,47.63362436153139 L-34.89891649976702,47.70081186138654 L-34.810961226183395,47.76188029924677 L-34.718873480080084,47.81651848435088 L-34.62312251950283,47.864447993031774 L-34.52419626939865,47.905424587499645 L-34.42259883526214,47.939239460421746 L-34.31884793432947,47.96572029895674 L-34.213472257409926,47.9847321628214 L-34.10700877479885,47.99617817191538 L-34.0,48.0 " />
			<path d="M-34.0,-47.4 L-34.083041523516975,-47.39616075866553 L-34.16537456603491,-47.38467578971551 L-34.24629669106488,-47.365643078855534 L-34.325117499568435,-47.33922500646392 L-34.40116452019888,-47.305646962219555 L-34.47378894658962,-47.26519542215665 L-34.54237117274133,-47.21821550455221 L-34.6063260792819,-47.16510802549859 L-34.66510802549859,-47.1063260792819 L-34.71821550455221,-47.04237117274133 L-34.76519542215665,-46.97378894658962 L-34.805646962219555,-46.90116452019888 L-34.83922500646392,-46.825117499568435 L-34.865643078855534,-46.74629669106488 L-34.88467578971551,-46.66537456603491 L-34.89616075866553,-46.583041523516975 L-34.9,-46.5 " />
			<path d="M34.0,-48.0 L-34.0,-48.0 " />
			<path d="M-34.9,46.5 L-34.89616075866553,46.583041523516975 L-34.88467578971551,46.66537456603491 L-34.865643078855534,46.74629669106488 L-34.83922500646392,46.825117499568435 L-34.805646962219555,46.90116452019888 L-34.76519542215665,46.97378894658962 L-34.71821550455221,47.04237117274133 L-34.66510802549859,47.1063260792819 L-34.6063260792819,47.16510802549859 L-34.54237117274133,47.21821550455221 L-34.47378894658962,47.26519542215665 L-34.40116452019888,47.305646962219555 L-34.325117499568435,47.33922500646392 L-34.24629669106488,47.365643078855534 L-34.16537456603491,47.38467578971551 L-34.083041523516975,47.39616075866553 L-34.0,47.4 " />
			<path d="M34.0,-47.4 L-34.0,-47.4 " />
			<path d="M-34.0,47.4 L34.0,47.4 " />
			<path d="M34.9,-46.5 L34.89616075866553,-46.583041523516975 L34.88467578971551,-46.66537456603491 L34.865643078855534,-46.74629669106488 L34.83922500646392,-46.825117499568435 L34.805646962219555,-46.90116452019888 L34.76519542215665,-46.97378894658962 L34.71821550455221,-47.04237117274133 L34.66510802549859,-47.1063260792819 L34.6063260792819,-47.16510802549859 L34.54237117274133,-47.21821550455221 L34.47378894658962,-47.26519542215665 L34.40116452019888,-47.305646962219555 L34.325117499568435,-47.33922500646392 L34.24629669106488,-47.365643078855534 L34.16537456603491,-47.38467578971551 L34.083041523516975,-47.39616075866553 L34.0,-47.4 " />
			<path d="M34.0,47.4 L34.083041523516975,47.39616075866553 L34.16537456603491,47.38467578971551 L34.24629669106488,47.365643078855534 L34.325117499568435,47.33922500646392 L34.40116452019888,47.305646962219555 L34.47378894658962,47.26519542215665 L34.54237117274133,47.21821550455221 L34.6063260792819,47.16510802549859 L34.66510802549859,47.1063260792819 L34.71821550455221,47.04237117274133 L34.76519542215665,46.97378894658962 L34.805646962219555,46.90116452019888 L34.83922500646392,46.825117499568435 L34.865643078855534,46.74629669106488 L34.88467578971551,46.66537456603491 L34.89616075866553,46.583041523516975 L34.9,46.5 " />
			<path d="M34.9,46.5 L34.9,-46.5 " />
			<path d="M35.5,-46.5 L35.49617817191538,-46.60700877479885 L35.4847321628214,-46.713472257409926 L35.46572029895674,-46.81884793432946 L35.439239460421746,-46.92259883526214 L35.405424587499645,-47.02419626939865 L35.364447993031774,-47.12312251950283 L35.31651848435088,-47.218873480080084 L35.26188029924677,-47.310961226183395 L35.20081186138654,-47.39891649976702 L35.13362436153139,-47.48229110091793 L35.06066017177982,-47.56066017177982 L34.98229110091793,-47.63362436153139 L34.89891649976702,-47.70081186138654 L34.810961226183395,-47.76188029924677 L34.718873480080084,-47.81651848435088 L34.62312251950283,-47.864447993031774 L34.52419626939865,-47.905424587499645 L34.42259883526214,-47.939239460421746 L34.31884793432947,-47.96572029895674 L34.213472257409926,-47.9847321628214 L34.10700877479885,-47.99617817191538 L34.0,-48.0 " />
			<path d="M35.5,46.5 L35.5,-46.5 " />
			<path d="M34.0,48.0 L34.10700877479885,47.99617817191538 L34.213472257409926,47.9847321628214 L34.31884793432946,47.96572029895674 L34.42259883526214,47.939239460421746 L34.52419626939865,47.905424587499645 L34.62312251950283,47.864447993031774 L34.718873480080084,47.81651848435088 L34.810961226183395,47.76188029924677 L34.89891649976702,47.70081186138654 L34.98229110091793,47.63362436153139 L35.06066017177982,47.56066017177982 L35.13362436153139,47.48229110091793 L35.20081186138654,47.39891649976702 L35.26188029924677,47.310961226183395 L35.31651848435088,47.218873480080084 L35.364447993031774,47.12312251950283 L35.405424587499645,47.02419626939865 L35.439239460421746,46.92259883526214 L35.46572029895674,46.81884793432947 L35.4847321628214,46.713472257409926 L35.49617817191538,46.60700877479885 L35.5,46.5 " />
			<path d="M-34.0,48.0 L34.0,48.0 " />
			<path d="M-32.9,-46.400000000000006 L-32.98715574274766,-46.396194698091755 L-33.07364817766693,-46.38480775301221 L-33.15881904510252,-46.36592582628907 L-33.24202014332567,-46.33969262078591 L-33.3226182617407,-46.30630778703666 L-33.4,-46.26602540378445 L-33.473576436351046,-46.219152044289 L-33.542787609686535,-46.166044443118984 L-33.607106781186545,-46.10710678118655 L-33.66604444311898,-46.04278760968654 L-33.71915204428899,-45.97357643635105 L-33.76602540378444,-45.900000000000006 L-33.80630778703665,-45.82261826174071 L-33.839692620785904,-45.742020143325675 L-33.865925826289065,-45.658819045102526 L-33.884807753012204,-45.57364817766694 L-33.89619469809175,-45.48715574274767 L-33.9,-45.400000000000006 " />
			<path d="M32.900000000000006,-46.400000000000006 L-32.89999999999999,-46.400000000000006 " />
			<path d="M33.9,-45.400000000000006 L33.89619469809175,-45.48715574274767 L33.884807753012204,-45.57364817766694 L33.865925826289065,-45.658819045102526 L33.839692620785904,-45.742020143325675 L33.80630778703665,-45.82261826174071 L33.76602540378444,-45.900000000000006 L33.71915204428899,-45.97357643635105 L33.66604444311898,-46.04278760968654 L33.607106781186545,-46.10710678118655 L33.542787609686535,-46.166044443118984 L33.473576436351046,-46.219152044289 L33.4,-46.26602540378445 L33.3226182617407,-46.30630778703666 L33.24202014332567,-46.33969262078591 L33.15881904510252,-46.36592582628907 L33.07364817766693,-46.38480775301221 L32.98715574274766,-46.396194698091755 L32.9,-46.400000000000006 " />
			<path d="M33.9,-0.4720000000000013 L33.9,-45.400000000000006 " />
			<path d="M32.9,0.5280000000000022 L32.98715574274766,0.5241946980917478 L33.07364817766693,0.5128077530122103 L33.15881904510252,0.49392582628907056 L33.24202014332567,0.4676926207859107 L33.3226182617407,0.4343077870366522 L33.4,0.39402540378444095 L33.473576436351046,0.34715204428899404 L33.542787609686535,0.29404444311898026 L33.607106781186545,0.23510678118654982 L33.66604444311898,0.1707876096865416 L33.71915204428899,0.1015764363510483 L33.76602540378444,0.028000000000002356 L33.80630778703665,-0.04938173825929815 L33.839692620785904,-0.1299798566743287 L33.865925826289065,-0.21318095489747657 L33.884807753012204,-0.2983518223330669 L33.89619469809175,-0.38484425725233895 L33.9,-0.47199999999999703 " />
			<path d="M-32.9,0.5280000000000022 L32.9,0.5280000000000022 " />
			<path d="M-33.9,-0.47199999999999775 L-33.89619469809175,-0.3848442572523396 L-33.884807753012204,-0.29835182233306745 L-33.865925826289065,-0.21318095489747702 L-33.839692620785904,-0.12997985667432904 L-33.80630778703665,-0.04938173825929831 L-33.76602540378444,0.02800000000000219 L-33.71915204428899,0.1015764363510483 L-33.66604444311898,0.1707876096865415 L-33.607106781186545,0.2351067811865497 L-33.542787609686535,0.29404444311898026 L-33.473576436351046,0.34715204428899404 L-33.4,0.39402540378444084 L-33.3226182617407,0.43430778703665207 L-33.24202014332567,0.46769262078591056 L-33.15881904510252,0.49392582628907045 L-33.07364817766693,0.5128077530122103 L-32.98715574274766,0.5241946980917477 L-32.9,0.5280000000000022 " />
			<path d="M-33.9,-45.400000000000006 L-33.9,-0.4720000000000013 " />
			<path d="M-32.9,5.0280000000000005 L-32.98715574274766,5.031805301908255 L-33.07364817766693,5.043192246987792 L-33.15881904510252,5.062074173710932 L-33.24202014332567,5.088307379214092 L-33.3226182617407,5.12169221296335 L-33.4,5.161974596215562 L-33.473576436351046,5.208847955711009 L-33.542787609686535,5.261955556881023 L-33.607106781186545,5.320893218813453 L-33.66604444311898,5.385212390313461 L-33.71915204428899,5.454423563648954 L-33.76602540378444,5.5280000000000005 L-33.80630778703665,5.605381738259301 L-33.839692620785904,5.685979856674331 L-33.865925826289065,5.769180954897479 L-33.884807753012204,5.8543518223330695 L-33.89619469809175,5.940844257252341 L-33.9,6.028 " />
			<path d="M-33.9,6.0280000000000005 L-33.9,29.168 " />
			<path d="M32.900000000000006,5.0280000000000005 L-32.89999999999999,5.0280000000000005 " />
			<path d="M-33.9,29.168 L-33.89619469809175,29.255155742747657 L-33.884807753012204,29.34164817766693 L-33.865925826289065,29.42681904510252 L-33.839692620785904,29.51002014332567 L-33.80630778703665,29.590618261740698 L-33.76602540378444,29.668 L-33.71915204428899,29.741576436351046 L-33.66604444311898,29.81078760968654 L-33.607106781186545,29.875106781186545 L-33.542787609686535,29.934044443118978 L-33.473576436351046,29.98715204428899 L-33.4,30.034025403784437 L-33.3226182617407,30.07430778703665 L-33.24202014332567,30.107692620785908 L-33.15881904510252,30.13392582628907 L-33.07364817766693,30.15280775301221 L-32.98715574274766,30.164194698091745 L-32.9,30.168 " />
			<path d="M33.9,6.0280000000000005 L33.89619469809175,5.940844257252342 L33.884807753012204,5.85435182233307 L33.865925826289065,5.76918095489748 L33.839692620785904,5.685979856674332 L33.80630778703665,5.605381738259301 L33.76602540378444,5.5280000000000005 L33.71915204428899,5.454423563648954 L33.66604444311898,5.385212390313461 L33.607106781186545,5.320893218813453 L33.542787609686535,5.261955556881023 L33.473576436351046,5.208847955711009 L33.4,5.161974596215562 L33.3226182617407,5.12169221296335 L33.24202014332567,5.0883073792140925 L33.15881904510252,5.062074173710933 L33.07364817766693,5.043192246987792 L32.98715574274766,5.031805301908255 L32.9,5.0280000000000005 " />
			<path d="M-32.9,30.168 L32.9,30.168 " />
			<path d="M33.9,29.168 L33.9,6.028000000000002 " />
			<path d="M32.9,30.168 L32.98715574274766,30.164194698091745 L33.07364817766693,30.15280775301221 L33.15881904510252,30.13392582628907 L33.24202014332567,30.107692620785908 L33.3226182617407,30.07430778703665 L33.4,30.034025403784437 L33.473576436351046,29.98715204428899 L33.542787609686535,29.934044443118978 L33.607106781186545,29.875106781186545 L33.66604444311898,29.81078760968654 L33.71915204428899,29.741576436351046 L33.76602540378444,29.668 L33.80630778703665,29.590618261740698 L33.839692620785904,29.51002014332567 L33.865925826289065,29.42681904510252 L33.884807753012204,29.34164817766693 L33.89619469809175,29.255155742747657 L33.9,29.168 " />
			<path d="M-32.9,34.668 L-32.98715574274766,34.67180530190825 L-33.07364817766693,34.683192246987794 L-33.15881904510252,34.70207417371093 L-33.24202014332567,34.728307379214094 L-33.3226182617407,34.76169221296335 L-33.4,34.80197459621556 L-33.473576436351046,34.84884795571101 L-33.542787609686535,34.90195555688102 L-33.607106781186545,34.96089321881345 L-33.66604444311898,35.02521239031346 L-33.71915204428899,35.09442356364895 L-33.76602540378444,35.168 L-33.80630778703665,35.2453817382593 L-33.839692620785904,35.32597985667433 L-33.865925826289065,35.40918095489748 L-33.884807753012204,35.494351822333066 L-33.89619469809175,35.58084425725234 L-33.9,35.668 " />
			<path d="M-33.9,35.668 L-33.9,45.4 " />
			<path d="M32.900000000000006,34.668 L-32.89999999999999,34.668 " />
			<path d="M-33.9,45.4 L-33.89619469809175,45.48715574274766 L-33.884807753012204,45.57364817766693 L-33.865925826289065,45.65881904510252 L-33.839692620785904,45.74202014332567 L-33.80630778703665,45.8226182617407 L-33.76602540378444,45.9 L-33.71915204428899,45.973576436351046 L-33.66604444311898,46.042787609686535 L-33.607106781186545,46.107106781186545 L-33.542787609686535,46.16604444311898 L-33.473576436351046,46.21915204428899 L-33.4,46.26602540378444 L-33.3226182617407,46.30630778703665 L-33.24202014332567,46.339692620785904 L-33.15881904510252,46.365925826289065 L-33.07364817766693,46.384807753012204 L-32.98715574274766,46.39619469809175 L-32.9,46.4 " />
			<path d="M33.9,35.668 L33.89619469809175,35.58084425725234 L33.884807753012204,35.494351822333066 L33.865925826289065,35.40918095489748 L33.839692620785904,35.32597985667433 L33.80630778703665,35.2453817382593 L33.76602540378444,35.168 L33.71915204428899,35.09442356364895 L33.66604444311898,35.02521239031346 L33.607106781186545,34.96089321881345 L33.542787609686535,34.90195555688102 L33.473576436351046,34.84884795571101 L33.4,34.80197459621556 L33.3226182617407,34.76169221296335 L33.24202014332567,34.728307379214094 L33.15881904510252,34.70207417371093 L33.07364817766693,34.683192246987794 L32.98715574274766,34.67180530190825 L32.9,34.668 " />
			<path d="M-32.9,46.4 L32.9,46.4 " />
			<path d="M33.9,45.4 L33.9,35.66799999999999 " />
			<path d="M32.9,46.4 L32.98715574274766,46.39619469809175 L33.07364817766693,46.384807753012204 L33.15881904510252,46.365925826289065 L33.24202014332567,46.339692620785904 L33.3226182617407,46.30630778703665 L33.4,46.26602540378444 L33.473576436351046,46.21915204428899 L33.542787609686535,46.16604444311898 L33.607106781186545,46.107106781186545 L33.66604444311898,46.042787609686535 L33.71915204428899,45.973576436351046 L33.76602540378444,45.9 L33.80630778703665,45.8226182617407 L33.839692620785904,45.74202014332567 L33.865925826289065,45.65881904510252 L33.884807753012204,45.57364817766693 L33.89619469809175,45.48715574274766 L33.9,45.4 " />
			<path d="M-32.9,-45.900000000000006 L-32.96026834012766,-45.896354437049034 L-33.01965783214378,-45.88547090871303 L-33.07730244352127,-45.867508121342716 L-33.13236158602188,-45.84272801282661 L-33.184032373365575,-45.811491932946836 L-33.231561329120396,-45.774255374085556 L-33.27425537408555,-45.7315613291204 L-33.31149193294683,-45.68403237336558 L-33.342728012826605,-45.63236158602189 L-33.36750812134271,-45.577302443521276 L-33.385470908713025,-45.519657832143785 L-33.39635443704903,-45.46026834012767 L-33.4,-45.400000000000006 " />
			<path d="M32.900000000000006,-45.900000000000006 L-32.89999999999999,-45.900000000000006 " />
			<path d="M33.4,-45.400000000000006 L33.39635443704903,-45.46026834012767 L33.385470908713025,-45.519657832143785 L33.36750812134271,-45.577302443521276 L33.342728012826605,-45.63236158602189 L33.31149193294683,-45.68403237336558 L33.27425537408555,-45.7315613291204 L33.231561329120396,-45.774255374085556 L33.184032373365575,-45.811491932946836 L33.13236158602188,-45.84272801282661 L33.07730244352127,-45.867508121342716 L33.01965783214378,-45.88547090871303 L32.96026834012766,-45.896354437049034 L32.9,-45.900000000000006 " />
			<path d="M33.4,-0.4720000000000013 L33.4,-45.400000000000006 " />
			<path d="M32.9,0.028000000000002245 L32.96026834012766,0.02435443704902923 L33.01965783214378,0.013470908713028251 L33.07730244352127,-0.004491878657290338 L33.13236158602188,-0.0292719871733928 L33.184032373365575,-0.06050806705316952 L33.231561329120396,-0.09774462591444716 L33.27425537408555,-0.1404386708796001 L33.31149193294683,-0.18796762663441985 L33.342728012826605,-0.23963841397811345 L33.36750812134271,-0.29469755647872986 L33.385470908713025,-0.35234216785621875 L33.39635443704903,-0.411731659872336 L33.4,-0.4719999999999975 " />
			<path d="M-32.9,0.028000000000002245 L32.9,0.028000000000002245 " />
			<path d="M-33.4,-0.47199999999999775 L-33.39635443704903,-0.41173165987233623 L-33.385470908713025,-0.35234216785621886 L-33.36750812134271,-0.29469755647872997 L-33.342728012826605,-0.2396384139781135 L-33.31149193294683,-0.1879676266344199 L-33.27425537408555,-0.14043867087960016 L-33.231561329120396,-0.09774462591444721 L-33.184032373365575,-0.06050806705316958 L-33.13236158602188,-0.029271987173392855 L-33.07730244352127,-0.0044918786572903935 L-33.01965783214378,0.013470908713028251 L-32.96026834012766,0.02435443704902923 L-32.9,0.028000000000002245 " />
			<path d="M-33.4,-45.400000000000006 L-33.4,-0.4720000000000013 " />
			<path d="M-32.9,5.5280000000000005 L-32.96026834012766,5.531645562950973 L-33.01965783214378,5.5425290912869745 L-33.07730244352127,5.560491878657293 L-33.13236158602188,5.585271987173395 L-33.184032373365575,5.616508067053172 L-33.231561329120396,5.65374462591445 L-33.27425537408555,5.696438670879603 L-33.31149193294683,5.743967626634422 L-33.342728012826605,5.795638413978116 L-33.36750812134271,5.850697556478733 L-33.385470908713025,5.908342167856222 L-33.39635443704903,5.967731659872339 L-33.4,6.0280000000000005 " />
			<path d="M-33.4,6.0280000000000005 L-33.4,29.168 " />
			<path d="M32.900000000000006,5.5280000000000005 L-32.89999999999999,5.5280000000000005 " />
			<path d="M-33.4,29.168 L-33.39635443704903,29.22826834012766 L-33.385470908713025,29.28765783214378 L-33.36750812134271,29.345302443521266 L-33.342728012826605,29.400361586021884 L-33.31149193294683,29.452032373365576 L-33.27425537408555,29.499561329120397 L-33.231561329120396,29.54225537408555 L-33.184032373365575,29.579491932946826 L-33.13236158602188,29.610728012826605 L-33.07730244352127,29.635508121342706 L-33.01965783214378,29.653470908713025 L-32.96026834012766,29.664354437049028 L-32.9,29.668 " />
			<path d="M33.4,6.0280000000000005 L33.39635443704903,5.967731659872339 L33.385470908713025,5.908342167856222 L33.36750812134271,5.850697556478733 L33.342728012826605,5.795638413978116 L33.31149193294683,5.743967626634422 L33.27425537408555,5.696438670879603 L33.231561329120396,5.65374462591445 L33.184032373365575,5.616508067053172 L33.13236158602188,5.585271987173396 L33.07730244352127,5.560491878657293 L33.01965783214378,5.5425290912869745 L32.96026834012766,5.531645562950973 L32.9,5.5280000000000005 " />
			<path d="M-32.9,29.668 L32.9,29.668 " />
			<path d="M33.4,29.168 L33.4,6.028000000000002 " />
			<path d="M32.9,29.668 L32.96026834012766,29.664354437049028 L33.01965783214378,29.653470908713025 L33.07730244352127,29.635508121342706 L33.13236158602188,29.610728012826605 L33.184032373365575,29.579491932946826 L33.231561329120396,29.54225537408555 L33.27425537408555,29.499561329120397 L33.31149193294683,29.452032373365576 L33.342728012826605,29.400361586021884 L33.36750812134271,29.345302443521266 L33.385470908713025,29.28765783214378 L33.39635443704903,29.22826834012766 L33.4,29.168 " />
			<path d="M-32.9,35.168 L-32.96026834012766,35.17164556295097 L-33.01965783214378,35.18252909128697 L-33.07730244352127,35.20049187865729 L-33.13236158602188,35.22527198717339 L-33.184032373365575,35.25650806705317 L-33.231561329120396,35.29374462591445 L-33.27425537408555,35.3364386708796 L-33.31149193294683,35.38396762663442 L-33.342728012826605,35.43563841397812 L-33.36750812134271,35.49069755647873 L-33.385470908713025,35.54834216785622 L-33.39635443704903,35.607731659872336 L-33.4,35.668 " />
			<path d="M-33.4,35.668 L-33.4,45.4 " />
			<path d="M32.900000000000006,35.168 L-32.89999999999999,35.168 " />
			<path d="M-33.4,45.4 L-33.39635443704903,45.46026834012766 L-33.385470908713025,45.51965783214378 L-33.36750812134271,45.57730244352127 L-33.342728012826605,45.63236158602188 L-33.31149193294683,45.684032373365575 L-33.27425537408555,45.731561329120396 L-33.231561329120396,45.77425537408555 L-33.184032373365575,45.81149193294683 L-33.13236158602188,45.842728012826605 L-33.07730244352127,45.86750812134271 L-33.01965783214378,45.885470908713025 L-32.96026834012766,45.89635443704903 L-32.9,45.9 " />
			<path d="M33.4,35.668 L33.39635443704903,35.607731659872336 L33.385470908713025,35.54834216785622 L33.36750812134271,35.49069755647873 L33.342728012826605,35.43563841397812 L33.31149193294683,35.38396762663442 L33.27425537408555,35.3364386708796 L33.231561329120396,35.29374462591445 L33.184032373365575,35.25650806705317 L33.13236158602188,35.22527198717339 L33.07730244352127,35.20049187865729 L33.01965783214378,35.18252909128697 L32.96026834012766,35.17164556295097 L32.9,35.168 " />
			<path d="M-32.9,45.9 L32.9,45.9 " />
			<path d="M33.4,45.4 L33.4,35.66799999999999 " />
			<path d="M32.9,45.9 L32.96026834012766,45.89635443704903 L33.01965783214378,45.885470908713025 L33.07730244352127,45.86750812134271 L33.13236158602188,45.842728012826605 L33.184032373365575,45.81149193294683 L33.231561329120396,45.77425537408555 L33.27425537408555,45.731561329120396 L33.31149193294683,45.684032373365575 L33.342728012826605,45.63236158602188 L33.36750812134271,45.57730244352127 L33.385470908713025,45.51965783214378 L33.39635443704903,45.46026834012766 L33.4,45.4 " />
			<path d="M-35.5,-46.5 L-34.9,-46.5 " />
			<path d="M-35.5,46.5 L-34.9,46.5 " />
			<path d="M-34.0,-48.0 L-34.0,-47.400000000000006 " />
			<path d="M-34.0,48.0 L-34.0,47.4 " />
			<path d="M34.0,-48.0 L34.0,-47.4 " />
			<path d="M34.0,48.0 L34.0,47.400000000000006 " />
			<path d="M35.5,-46.5 L34.9,-46.5 " />
			<path d="M35.5,46.5 L34.9,46.5 " />
			<path d="M-32.89999999999999,-46.400000000000006 L-32.89999999999999,-45.900000000000006 " />
			<path d="M-33.9,-45.400000000000006 L-33.4,-45.400000000000006 " />
			<path d="M32.9,-46.400000000000006 L32.9,-45.900000000000006 " />
			<path d="M33.9,-45.400000000000006 L33.4,-45.400000000000006 " />
			<path d="M33.9,-0.47199999999999775 L33.4,-0.4719999999999978 " />
			<path d="M32.9,0.5280000000000005 L32.9,0.028000000000001468 " />
			<path d="M-32.9,0.5280000000000022 L-32.9,0.028000000000002134 " />
			<path d="M-33.9,-0.47199999999999775 L-33.4,-0.47199999999999775 " />
			<path d="M-32.89999999999999,5.028000000000001 L-32.89999999999999,5.528000000000001 " />
			<path d="M-33.9,6.0280000000000005 L-33.4,6.0280000000000005 " />
			<path d="M-33.9,29.168 L-33.4,29.168 " />
			<path d="M32.9,5.0280000000000005 L32.9,5.5280000000000005 " />
			<path d="M-32.9,30.168 L-32.9,29.668 " />
			<path d="M33.9,6.028000000000002 L33.4,6.028000000000002 " />
			<path d="M32.9,30.168 L32.9,29.668 " />
			<path d="M33.9,29.168 L33.4,29.168 " />
			<path d="M-32.89999999999999,34.668 L-32.89999999999999,35.168 " />
			<path d="M-33.9,35.668 L-33.4,35.668 " />
			<path d="M-33.9,45.4 L-33.4,45.4 " />
			<path d="M32.9,34.668 L32.9,35.168 " />
			<path d="M-32.9,46.4 L-32.9,45.9 " />
			<path d="M33.9,35.668 L33.4,35.668 " />
			<path d="M32.9,46.4 L32.9,45.9 " />
			<path d="M33.9,45.4 L33.4,45.4 " />

       </g>
    </g>
    
</svg>
