<?xml version="1.0" encoding="UTF-8" standalone="no"?>
<svg
   xmlns:svg="http://www.w3.org/2000/svg"
   xmlns="http://www.w3.org/2000/svg"
   width="640.0"
   height="480.0"

>
    <g transform="scale(5.070422535211268, -5.070422535211268)   translate(58.38296236492858,-39.44444444444444)" stroke-width="0.4"  fill="none">
       <!-- hidden lines -->
       <g  stroke="rgb(160,160,160)" fill="none" stroke-dasharray="0.4,0.4" >
			<path d="M15.361294749856931,-35.5 L-15.361294749856931,-35.5 " />
			<path d="M-15.361294749856931,-35.5 L-16.682696448769356,-35.5 " />
			<path d="M-15.85682038694909,-34.0 L-15.854434295565557,-34.14702571049434 L-15.847299000779353,-34.29263548302419 L-15.83548321937982,-34.43542701588169 L-15.819100743800993,-34.57402514854763 L-15.798309346238272,-34.707095105239 L-15.773309259215921,-34.833355349529405 L-15.7443412472384,-34.95158992624547 L-15.711684288096581,-35.06066017177982 L-15.675652886159108,-35.15951568004411 L-15.63659404352341,-35.24720441845382 L-15.616045839704105,-35.286592915000405 L-15.594883918195798,-35.32288189652253 L-15.573159259920969,-35.35598393968517 L-15.550924201484257,-35.38581929876693 L-15.528232309088995,-35.41231609777453 L-15.50513824949154,-35.43541050359831 L-15.481697658304263,-35.455046879791816 L-15.457967005964488,-35.471177920604845 L-15.43400346169226,-35.48376476494717 L-15.409864755764689,-35.492777090008296 L-15.385609040438656,-35.49819318430776 L-15.361294749856933,-35.5 " />
			<path d="M15.361294749856931,35.5 L-15.361294749856931,35.5 " />
			<path d="M-15.361294749856931,35.5 L-15.385609040438656,35.49819318430776 L-15.409864755764689,35.492777090008296 L-15.434003461692258,35.483764764947175 L-15.457967005964488,35.471177920604845 L-15.481697658304263,35.455046879791816 L-15.50513824949154,35.43541050359831 L-15.528232309088995,35.41231609777453 L-15.550924201484257,35.38581929876693 L-15.573159259920969,35.35598393968517 L-15.594883918195798,35.32288189652253 L-15.616045839704105,35.286592915000405 L-15.63659404352341,35.24720441845382 L-15.675652886159108,35.15951568004411 L-15.711684288096581,35.06066017177982 L-15.7443412472384,34.95158992624547 L-15.773309259215921,34.833355349529405 L-15.798309346238272,34.707095105239 L-15.819100743800993,34.57402514854763 L-15.83548321937982,34.43542701588169 L-15.847299000779353,34.29263548302419 L-15.854434295565557,34.14702571049434 L-15.85682038694909,34.0 " />
			<path d="M-15.85682038694909,-34.0 L-15.85682038694909,34.0 " />
			<path d="M-16.85613042175161,-35.40512454963964 L-16.890795792344445,-35.36131616818568 L-16.924265233629153,-35.30968441797338 L-16.95634639956047,-35.250526022299624 L-16.986854922394045,-35.18418095945552 L-17.015615472232252,-35.111030508899916 L-17.04246276463028,-35.03149506007863 L-17.067242510471825,-34.946031696481924 L-17.0898123026556,-34.855131568824355 L-17.110042434496858,-34.75931707244321 L-17.127816645140765,-34.659138845136766 L-17.143032787703657,-34.55517260269542 L-17.155603416302554,-34.44801583031187 L-17.165456288599223,-34.33828434888421 L-17.172534780970807,-34.22660877594545 L-17.176798213920968,-34.11363090155789 L-17.178222085861513,-34.0 " />
			<path d="M-17.546326844844263,-33.9 L-17.546326844844263,33.900000000000006 " />
			<path d="M11.694405035374954,33.9 L-1.731791312260369,33.9 " />
			<path d="M-1.7317913122603696,33.9 L-1.7480008393148525,33.89879545620517 L-1.7641713161988744,33.8951847266722 L-1.7802637868172548,33.88917650996478 L-1.7962394829987405,33.88078528040323 L-1.8276869786834424,33.856940335732205 L-1.8582109466785866,33.823879532511285 L-1.8875174244862811,33.781921264348355 L-1.915324174704688,33.73146961230255 L-1.941363403128488,33.673010453362735 L-1.9653843377534694,33.607106781186545 L-1.9871556438480156,33.53439328416364 L-2.006467651833029,33.4555702330196 L-2.023134376514597,33.37139673682599 L-2.0369953082230774,33.28268343236509 L-2.0479169586089614,33.19028467725446 L-2.0557941462086515,33.09509032201613 L-2.060551009399454,32.99801714032956 L-2.0621417369884756,32.9 " />
			<path d="M-2.0621417369884756,-32.9 L-2.0621417369884756,32.9 " />
			<path d="M-2.0621417369884756,-32.9 L-2.060551009399454,-32.99801714032956 L-2.0557941462086515,-33.09509032201613 L-2.0479169586089614,-33.19028467725446 L-2.0369953082230774,-33.28268343236509 L-2.023134376514597,-33.37139673682599 L-2.006467651833029,-33.4555702330196 L-1.9871556438480158,-33.53439328416364 L-1.9653843377534697,-33.607106781186545 L-1.941363403128488,-33.673010453362735 L-1.915324174704688,-33.73146961230255 L-1.8875174244862813,-33.781921264348355 L-1.8582109466785866,-33.823879532511285 L-1.8276869786834424,-33.856940335732205 L-1.7962394829987407,-33.88078528040323 L-1.780263786817255,-33.88917650996478 L-1.7641713161988744,-33.8951847266722 L-1.7480008393148525,-33.89879545620517 L-1.7317913122603712,-33.9 " />
			<path d="M11.694405035374954,-33.9 L-1.731791312260369,-33.9 " />
			<path d="M-3.6035633335568718,-33.451794249669284 L-3.5799572059795364,-33.32447828396286 L-3.5627268207125455,-33.188114318316124 L-3.552239453375777,-33.04560902946531 L-3.548718648264952,-32.900000000000006 " />
			<path d="M-5.294856607542085,-33.9 L-11.523377901201432,-33.9 " />
			<path d="M-3.548718648264952,-32.9 L-3.548718648264952,32.9 " />
			<path d="M-11.853728325929538,-32.9 L-11.852137598340516,-32.99801714032956 L-11.847380735149713,-33.09509032201613 L-11.839503547550024,-33.19028467725446 L-11.82858189716414,-33.28268343236509 L-11.81472096545566,-33.37139673682599 L-11.798054240774091,-33.4555702330196 L-11.778742232789078,-33.53439328416364 L-11.756970926694532,-33.607106781186545 L-11.73294999206955,-33.673010453362735 L-11.70691076364575,-33.73146961230255 L-11.679104013427343,-33.781921264348355 L-11.649797535619648,-33.823879532511285 L-11.619273567624505,-33.856940335732205 L-11.587826071939803,-33.88078528040323 L-11.571850375758316,-33.88917650996478 L-11.555757905139936,-33.8951847266722 L-11.539587428255915,-33.89879545620517 L-11.523377901201433,-33.9 " />
			<path d="M-3.548718648264952,32.9 L-3.552239453375777,33.04560902946531 L-3.5627268207125455,33.188114318316124 L-3.5799572059795364,33.32447828396286 L-3.60356333355687,33.45179424966928 " />
			<path d="M-11.853728325929538,-32.9 L-11.853728325929538,32.9 " />
			<path d="M-5.294856607542085,33.9 L-11.523377901201432,33.9 " />
			<path d="M-11.523377901201432,33.9 L-11.539587428255915,33.89879545620517 L-11.555757905139936,33.8951847266722 L-11.571850375758316,33.88917650996478 L-11.587826071939803,33.88078528040323 L-11.619273567624505,33.856940335732205 L-11.649797535619648,33.823879532511285 L-11.679104013427343,33.781921264348355 L-11.70691076364575,33.73146961230255 L-11.73294999206955,33.673010453362735 L-11.756970926694532,33.607106781186545 L-11.778742232789078,33.53439328416364 L-11.798054240774091,33.4555702330196 L-11.81472096545566,33.37139673682599 L-11.82858189716414,33.28268343236509 L-11.839503547550024,33.19028467725446 L-11.847380735149713,33.09509032201613 L-11.852137598340516,32.99801714032956 L-11.853728325929538,32.9 " />
			<path d="M-13.395149922497934,-33.451794249669284 L-13.371543794920598,-33.32447828396286 L-13.354313409653606,-33.188114318316124 L-13.34382604231684,-33.04560902946531 L-13.340305237206014,-32.900000000000006 " />
			<path d="M-15.086443196483147,-33.9 L-16.88562599538805,-33.9 " />
			<path d="M-13.340305237206016,-32.9 L-13.340305237206016,32.9 " />
			<path d="M-17.215976420116156,-32.9 L-17.214385692527134,-32.99801714032956 L-17.20962882933633,-33.09509032201613 L-17.201751641736642,-33.19028467725446 L-17.190829991350757,-33.28268343236509 L-17.17696905964228,-33.37139673682599 L-17.16030233496071,-33.4555702330196 L-17.140990326975697,-33.53439328416364 L-17.11921902088115,-33.607106781186545 L-17.09519808625617,-33.673010453362735 L-17.06915885783237,-33.73146961230255 L-17.04135210761396,-33.781921264348355 L-17.012045629806266,-33.823879532511285 L-16.981521661811122,-33.856940335732205 L-16.95007416612642,-33.88078528040323 L-16.934098469944935,-33.88917650996478 L-16.918005999326557,-33.8951847266722 L-16.901835522442532,-33.89879545620517 L-16.88562599538805,-33.9 " />
			<path d="M-13.340305237206014,32.9 L-13.34382604231684,33.04560902946531 L-13.354313409653606,33.188114318316124 L-13.371543794920598,33.32447828396286 L-13.395149922497932,33.45179424966928 " />
			<path d="M-17.215976420116156,-32.9 L-17.215976420116156,32.9 " />
			<path d="M-15.086443196483147,33.9 L-16.88562599538805,33.9 " />
			<path d="M-16.88562599538805,33.9 L-16.901835522442532,33.89879545620517 L-16.918005999326557,33.8951847266722 L-16.934098469944935,33.88917650996478 L-16.95007416612642,33.88078528040323 L-16.981521661811122,33.856940335732205 L-17.012045629806266,33.823879532511285 L-17.04135210761396,33.781921264348355 L-17.06915885783237,33.73146961230255 L-17.09519808625617,33.673010453362735 L-17.11921902088115,33.607106781186545 L-17.140990326975697,33.53439328416364 L-17.16030233496071,33.4555702330196 L-17.17696905964228,33.37139673682599 L-17.190829991350757,33.28268343236509 L-17.201751641736642,33.19028467725446 L-17.20962882933633,33.09509032201613 L-17.214385692527134,32.99801714032956 L-17.215976420116156,32.9 " />
			<path d="M-15.361294749856931,35.5 L-16.682696448769356,35.5 " />
			<path d="M-17.178222085861513,34.0 L-17.176798213920968,34.11363090155789 L-17.172534780970807,34.22660877594545 L-17.165456288599223,34.33828434888421 L-17.155603416302554,34.44801583031187 L-17.143032787703657,34.55517260269542 L-17.127816645140765,34.659138845136766 L-17.110042434496858,34.75931707244321 L-17.0898123026556,34.855131568824355 L-17.067242510471825,34.946031696481924 L-17.04246276463028,35.03149506007863 L-17.015615472232252,35.11103050889991 L-16.986854922394045,35.18418095945552 L-16.95634639956047,35.250526022299624 L-16.924265233629153,35.30968441797338 L-16.890795792344445,35.36131616818568 L-16.856130421751615,35.40512454963964 " />
			<path d="M-17.178222085861513,-34.0 L-17.178222085861513,34.0 " />
			<path d="M-1.7317913122603696,33.9 L-3.147578846809396,33.9 " />
			<path d="M-3.477929271537502,32.9 L-3.4741377349436964,33.051072517296966 L-3.4628501584981937,33.19867722020791 L-3.454469739432264,33.27011506846362 L-3.444325644390335,33.33942589675784 L-3.43247617062773,33.40621138162881 L-3.4189894160668897,33.47008771254957 L-3.4039428879443756,33.530687797654615 L-3.387423057383345,33.58766337338575 L-3.369524862451327,33.64068700593327 L-3.350351162559188,33.68945397297034 L-3.3300121473368054,33.73368401486641 L-3.308624703382594,33.773122945315585 L-3.286311742526122,33.807544112123786 L-3.263201495464234,33.83674969975976 " />
			<path d="M-3.477929271537502,-32.9 L-3.477929271537502,32.9 " />
			<path d="M-3.2632014954642328,-33.83674969975976 L-3.286311742526122,-33.807544112123786 L-3.3086247033825944,-33.773122945315585 L-3.3300121473368054,-33.73368401486641 L-3.350351162559188,-33.68945397297034 L-3.369524862451327,-33.64068700593327 L-3.387423057383345,-33.58766337338575 L-3.4039428879443756,-33.530687797654615 L-3.4189894160668897,-33.47008771254957 L-3.43247617062773,-33.40621138162881 L-3.444325644390335,-33.33942589675784 L-3.454469739432264,-33.27011506846362 L-3.4628501584981937,-33.19867722020791 L-3.4741377349436964,-33.051072517296966 L-3.477929271537502,-32.9 " />
			<path d="M-1.7317913122603696,-33.9 L-3.147578846809396,-33.9 " />
			<path d="M-11.523377901201432,-33.9 L-12.939165435750457,-33.9 " />
			<path d="M-13.054788084405295,-33.83674969975976 L-13.077898331467185,-33.807544112123786 L-13.100211292323657,-33.773122945315585 L-13.12159873627787,-33.73368401486641 L-13.141937751500251,-33.68945397297034 L-13.16111145139239,-33.64068700593327 L-13.179009646324408,-33.58766337338575 L-13.195529476885438,-33.530687797654615 L-13.210576005007953,-33.47008771254957 L-13.224062759568794,-33.40621138162881 L-13.235912233331398,-33.33942589675784 L-13.246056328373326,-33.27011506846362 L-13.254436747439257,-33.19867722020791 L-13.26572432388476,-33.051072517296966 L-13.269515860478565,-32.9 " />
			<path d="M-13.269515860478565,-32.9 L-13.269515860478565,32.9 " />
			<path d="M-11.523377901201432,33.9 L-12.939165435750457,33.9 " />
			<path d="M-13.269515860478565,32.9 L-13.26572432388476,33.051072517296966 L-13.254436747439257,33.19867722020791 L-13.246056328373326,33.27011506846362 L-13.235912233331398,33.33942589675784 L-13.224062759568794,33.40621138162881 L-13.210576005007953,33.47008771254957 L-13.195529476885438,33.530687797654615 L-13.179009646324408,33.58766337338575 L-13.16111145139239,33.64068700593327 L-13.141937751500251,33.68945397297034 L-13.12159873627787,33.73368401486641 L-13.100211292323657,33.773122945315585 L-13.077898331467185,33.807544112123786 L-13.054788084405297,33.83674969975976 " />
			<path d="M-16.88562599538805,-33.9 L-18.301413529937076,-33.9 " />
			<path d="M-18.417036178591914,-33.83674969975976 L-18.4401464256538,-33.807544112123786 L-18.462459386510275,-33.773122945315585 L-18.483846830464486,-33.73368401486641 L-18.50418584568687,-33.68945397297034 L-18.523359545579005,-33.64068700593327 L-18.541257740511025,-33.58766337338575 L-18.557777571072055,-33.530687797654615 L-18.57282409919457,-33.47008771254957 L-18.58631085375541,-33.40621138162881 L-18.598160327518016,-33.33942589675784 L-18.608304422559943,-33.27011506846362 L-18.616684841625872,-33.19867722020791 L-18.627972418071376,-33.051072517296966 L-18.631763954665182,-32.9 " />
			<path d="M-18.631763954665182,-32.9 L-18.631763954665182,32.9 " />
			<path d="M-16.88562599538805,33.9 L-18.301413529937076,33.9 " />
			<path d="M-18.631763954665182,32.9 L-18.627972418071376,33.051072517296966 L-18.616684841625872,33.19867722020791 L-18.608304422559943,33.27011506846362 L-18.598160327518016,33.33942589675784 L-18.58631085375541,33.40621138162881 L-18.57282409919457,33.47008771254957 L-18.557777571072055,33.530687797654615 L-18.541257740511025,33.58766337338575 L-18.523359545579005,33.64068700593327 L-18.50418584568687,33.68945397297034 L-18.483846830464486,33.73368401486641 L-18.462459386510275,33.773122945315585 L-18.4401464256538,33.807544112123786 L-18.417036178591914,33.83674969975976 " />

       </g>

       <!-- solid lines -->
       <g  stroke="rgb(0,0,0)" fill="none">
			<path d="M15.361294749856931,-35.5 L14.039893050944507,-35.5 " />
			<path d="M14.039893050944507,-35.5 L-16.682696448769356,-35.5 " />
			<path d="M14.535418688036666,-34.0 L14.533032596653133,-34.14702571049434 L14.525897301866928,-34.29263548302419 L14.514081520467395,-34.43542701588169 L14.497699044888568,-34.57402514854763 L14.476907647325847,-34.707095105239 L14.451907560303496,-34.833355349529405 L14.422939548325976,-34.95158992624547 L14.390282589184157,-35.06066017177982 L14.354251187246684,-35.15951568004411 L14.315192344610985,-35.24720441845382 L14.29464414079168,-35.286592915000405 L14.273482219283373,-35.32288189652253 L14.251757561008544,-35.35598393968517 L14.229522502571832,-35.38581929876693 L14.20683061017657,-35.41231609777453 L14.183736550579116,-35.43541050359831 L14.16029595939184,-35.455046879791816 L14.136565307052063,-35.471177920604845 L14.112601762779834,-35.483764764947175 L14.088463056852264,-35.492777090008296 L14.064207341526231,-35.49819318430776 L14.039893050944512,-35.5 " />
			<path d="M15.361294749856931,-35.5 L15.385609040438656,-35.49819318430776 L15.409864755764689,-35.492777090008296 L15.43400346169226,-35.48376476494717 L15.457967005964488,-35.471177920604845 L15.481697658304263,-35.455046879791816 L15.50513824949154,-35.43541050359831 L15.528232309088995,-35.41231609777453 L15.550924201484257,-35.38581929876693 L15.573159259920969,-35.35598393968517 L15.594883918195798,-35.32288189652253 L15.616045839704105,-35.286592915000405 L15.63659404352341,-35.24720441845382 L15.675652886159108,-35.15951568004411 L15.711684288096581,-35.06066017177982 L15.7443412472384,-34.95158992624547 L15.773309259215921,-34.833355349529405 L15.798309346238272,-34.707095105239 L15.819100743800993,-34.57402514854763 L15.83548321937982,-34.43542701588169 L15.847299000779353,-34.29263548302419 L15.854434295565557,-34.14702571049434 L15.85682038694909,-34.000000000000014 " />
			<path d="M13.473578037124897,-34.9 L-17.249011462588967,-34.9 " />
			<path d="M15.85682038694909,-34.0 L15.85682038694909,34.0 " />
			<path d="M15.85682038694909,34.0 L15.854434295565557,34.14702571049434 L15.847299000779353,34.29263548302419 L15.83548321937982,34.43542701588169 L15.819100743800993,34.57402514854763 L15.798309346238272,34.707095105239 L15.773309259215921,34.833355349529405 L15.7443412472384,34.95158992624547 L15.711684288096581,35.06066017177982 L15.675652886159108,35.15951568004411 L15.63659404352341,35.24720441845382 L15.616045839704105,35.286592915000405 L15.594883918195798,35.32288189652253 L15.573159259920969,35.35598393968517 L15.550924201484257,35.38581929876693 L15.528232309088995,35.41231609777453 L15.50513824949154,35.43541050359831 L15.481697658304265,35.455046879791816 L15.457967005964488,35.471177920604845 L15.434003461692258,35.483764764947175 L15.409864755764689,35.492777090008296 L15.385609040438656,35.49819318430776 L15.361294749856937,35.5 " />
			<path d="M-16.682696448769356,-35.5 L-16.704837281130505,-35.49850192410326 L-16.726933888628594,-35.494010688721566 L-16.748942134736833,-35.48653526480355 L-16.770818059424528,-35.47609058401906 L-16.792517966964347,-35.46269750893414 L-16.8139985132117,-35.44638279133942 L-16.835216792181807,-35.42717901881514 L-16.85613042175161,-35.40512454963964 " />
			<path d="M13.770893419380192,-34.0 L13.769461764550073,-34.08821542629661 L13.765180587678351,-34.17558128981452 L13.75809111883863,-34.261256209529016 L13.748261633491333,-34.34441508912858 L13.735786794953702,-34.4242570631434 L13.720786742740291,-34.50001320971764 L13.703405935553779,-34.57095395574728 L13.683811760068687,-34.636396103067895 L13.662192918906204,-34.69570940802647 L13.638757613324783,-34.74832265107229 L13.613731538128217,-34.793729137913516 L13.587355708101292,-34.83149157926016 L13.559884136905662,-34.86124630215899 L13.53158139078943,-34.88270675236291 L13.502720040669551,-34.89566625400498 L13.48816661147393,-34.898915910584655 L13.4735780371249,-34.9 " />
			<path d="M14.535418688036666,34.0 L14.535418688036666,-34.0 " />
			<path d="M-17.249011462588967,-34.9 L-17.27555392650451,-34.89640641323294 L-17.30188442898207,-34.885654350411436 L-17.327792701254374,-34.86782967480365 L-17.35307184637832,-34.84307472978379 " />
			<path d="M-17.35307184637832,-34.84307472978379 L-17.373871068734022,-34.81678970091141 L-17.393952733504847,-34.78581065078403 L-17.413201433063637,-34.750315613379776 L-17.43150654676378,-34.71050857567331 L-17.448762876666706,-34.666618305339945 L-17.46487125210552,-34.61889703604718 L-17.47973909961045,-34.56761901788916 L-17.49328097492071,-34.51307894129461 L-17.516083580411813,-34.39548330708206 L-17.532755643108885,-34.26880949818712 L-17.542914461909838,-34.13596526556727 L-17.546326844844263,-34.0 " />
			<path d="M13.770893419380192,34.0 L13.770893419380192,-34.0 " />
			<path d="M-17.546326844844263,-34.0 L-17.546326844844263,-33.9 " />
			<path d="M-17.546326844844263,33.900000000000006 L-17.546326844844263,34.0 " />
			<path d="M13.473578037124897,34.9 L13.48816661147393,34.898915910584655 L13.502720040669551,34.89566625400498 L13.53158139078943,34.88270675236291 L13.559884136905662,34.86124630215899 L13.587355708101292,34.83149157926016 L13.613731538128217,34.793729137913516 L13.638757613324783,34.74832265107229 L13.662192918906204,34.69570940802647 L13.683811760068687,34.636396103067895 L13.703405935553779,34.57095395574728 L13.720786742740291,34.50001320971764 L13.735786794953702,34.4242570631434 L13.748261633491333,34.34441508912858 L13.75809111883863,34.261256209529016 L13.76518058767835,34.17558128981452 L13.769461764550073,34.08821542629661 L13.770893419380192,34.00000000000001 " />
			<path d="M-17.546326844844263,34.0 L-17.542914461909838,34.13596526556727 L-17.532755643108885,34.26880949818712 L-17.516083580411813,34.39548330708206 L-17.49328097492071,34.51307894129461 L-17.47973909961045,34.56761901788916 L-17.46487125210552,34.61889703604718 L-17.448762876666706,34.666618305339945 L-17.43150654676378,34.71050857567331 L-17.413201433063637,34.750315613379776 L-17.393952733504847,34.78581065078403 L-17.373871068734022,34.81678970091141 L-17.353071846378324,34.84307472978378 " />
			<path d="M-17.35307184637832,34.84307472978379 L-17.327792701254374,34.86782967480365 L-17.30188442898207,34.885654350411436 L-17.27555392650451,34.89640641323294 L-17.249011462588967,34.9 " />
			<path d="M-17.249011462588967,34.9 L13.473578037124895,34.9 " />
			<path d="M13.110192569923981,-33.9 L13.126402096978465,-33.89879545620517 L13.142572573862486,-33.8951847266722 L13.158665044480866,-33.88917650996478 L13.174640740662353,-33.88078528040323 L13.206088236347053,-33.856940335732205 L13.236612204342197,-33.823879532511285 L13.265918682149893,-33.781921264348355 L13.2937254323683,-33.73146961230255 L13.3197646607921,-33.673010453362735 L13.343785595417081,-33.607106781186545 L13.365556901511628,-33.53439328416364 L13.38486890949664,-33.4555702330196 L13.40153563417821,-33.371396736826 L13.41539656588669,-33.28268343236509 L13.426318216272573,-33.19028467725446 L13.434195403872263,-33.09509032201613 L13.438952267063065,-32.99801714032956 L13.440542994652088,-32.900000000000006 " />
			<path d="M13.440542994652088,-32.9 L13.440542994652088,32.9 " />
			<path d="M13.440542994652088,32.9 L13.438952267063065,32.99801714032956 L13.434195403872263,33.09509032201613 L13.426318216272573,33.19028467725446 L13.41539656588669,33.28268343236509 L13.40153563417821,33.37139673682599 L13.38486890949664,33.4555702330196 L13.365556901511628,33.53439328416364 L13.343785595417081,33.607106781186545 L13.3197646607921,33.673010453362735 L13.2937254323683,33.73146961230255 L13.265918682149893,33.781921264348355 L13.2366122043422,33.823879532511285 L13.206088236347055,33.856940335732205 L13.174640740662353,33.88078528040323 L13.158665044480866,33.88917650996478 L13.142572573862486,33.8951847266722 L13.126402096978465,33.89879545620517 L13.110192569923985,33.9 " />
			<path d="M13.110192569923981,33.9 L11.694405035374954,33.9 " />
			<path d="M13.110192569923981,-33.9 L11.694405035374954,-33.9 " />
			<path d="M-3.879069072993058,-33.9 L-3.8587182956953403,-33.898100694203 L-3.838444823096213,-33.89240999153702 L-3.818325666243741,-33.88294950877119 L-3.798437250000406,-33.869755182605026 L-3.7788551227347367,-33.85287713315887 L-3.7596536693423985,-33.83237947358705 L-3.74090582868687,-33.80834006653684 L-3.7226828165330277,-33.780850228378604 L-3.7050538550261165,-33.750014382330264 L-3.688085909743707,-33.71594966179414 L-3.6563881306050843,-33.638662965532916 L-3.6280706519409986,-33.550163352952325 L-3.6035633335568735,-33.45179424966929 " />
			<path d="M-3.8790690729930586,-33.9 L-5.294856607542085,-33.9 " />
			<path d="M-3.6035633335568718,33.451794249669284 L-3.6280706519409986,33.550163352952325 L-3.6563881306050843,33.638662965532916 L-3.688085909743707,33.71594966179414 L-3.7050538550261165,33.75001438233027 L-3.7226828165330277,33.780850228378604 L-3.7409058286868695,33.80834006653684 L-3.759653669342398,33.83237947358705 L-3.7788551227347362,33.85287713315887 L-3.798437250000406,33.86975518260502 L-3.818325666243741,33.88294950877119 L-3.838444823096213,33.89240999153702 L-3.8587182956953403,33.898100694203 L-3.879069072993055,33.9 " />
			<path d="M-3.8790690729930586,33.9 L-5.294856607542085,33.9 " />
			<path d="M-13.67065566193412,-33.9 L-13.650304884636402,-33.898100694203 L-13.630031412037274,-33.89240999153702 L-13.609912255184803,-33.88294950877119 L-13.590023838941468,-33.869755182605026 L-13.570441711675798,-33.85287713315887 L-13.55124025828346,-33.83237947358705 L-13.532492417627932,-33.80834006653684 L-13.51426940547409,-33.780850228378604 L-13.496640443967179,-33.75001438233027 L-13.479672498684769,-33.71594966179414 L-13.447974719546146,-33.638662965532916 L-13.41965724088206,-33.550163352952325 L-13.395149922497936,-33.45179424966929 " />
			<path d="M-13.67065566193412,-33.9 L-15.086443196483147,-33.9 " />
			<path d="M-13.395149922497934,33.451794249669284 L-13.41965724088206,33.550163352952325 L-13.447974719546146,33.638662965532916 L-13.479672498684769,33.71594966179414 L-13.496640443967179,33.75001438233027 L-13.51426940547409,33.780850228378604 L-13.532492417627932,33.80834006653684 L-13.55124025828346,33.83237947358705 L-13.570441711675798,33.85287713315887 L-13.590023838941468,33.869755182605026 L-13.609912255184803,33.88294950877119 L-13.630031412037274,33.89240999153702 L-13.650304884636402,33.898100694203 L-13.670655661934116,33.9 " />
			<path d="M-13.67065566193412,33.9 L-15.086443196483147,33.9 " />
			<path d="M14.039893050944507,35.5 L14.064207341526231,35.49819318430776 L14.088463056852264,35.492777090008296 L14.112601762779835,35.48376476494717 L14.136565307052063,35.471177920604845 L14.160295959391838,35.455046879791816 L14.183736550579116,35.43541050359831 L14.20683061017657,35.41231609777453 L14.229522502571832,35.38581929876693 L14.251757561008544,35.35598393968517 L14.273482219283373,35.32288189652253 L14.29464414079168,35.286592915000405 L14.315192344610985,35.24720441845382 L14.354251187246684,35.15951568004411 L14.390282589184157,35.06066017177982 L14.422939548325976,34.95158992624547 L14.451907560303496,34.833355349529405 L14.476907647325847,34.707095105239 L14.497699044888568,34.57402514854763 L14.514081520467395,34.43542701588169 L14.525897301866928,34.29263548302419 L14.533032596653133,34.14702571049434 L14.535418688036666,34.000000000000014 " />
			<path d="M15.361294749856931,35.5 L14.039893050944507,35.5 " />
			<path d="M-16.682696448769356,35.5 L14.039893050944507,35.5 " />
			<path d="M-16.85613042175161,35.40512454963964 L-16.835216792181807,35.42717901881514 L-16.8139985132117,35.44638279133942 L-16.792517966964347,35.46269750893414 L-16.770818059424528,35.47609058401906 L-16.748942134736833,35.48653526480355 L-16.726933888628594,35.494010688721566 L-16.704837281130505,35.49850192410326 L-16.68269644876936,35.5 " />
			<path d="M13.110192569923981,-33.9 L11.694405035374956,-33.9 " />
			<path d="M12.02475546010306,-32.9 L12.023164732514038,-32.99801714032956 L12.018407869323235,-33.09509032201613 L12.010530681723546,-33.19028467725446 L11.999609031337663,-33.28268343236509 L11.985748099629182,-33.37139673682599 L11.969081374947613,-33.4555702330196 L11.9497693669626,-33.53439328416364 L11.927998060868054,-33.607106781186545 L11.903977126243072,-33.673010453362735 L11.877937897819272,-33.73146961230255 L11.850131147600866,-33.781921264348355 L11.820824669793172,-33.823879532511285 L11.790300701798028,-33.856940335732205 L11.758853206113326,-33.88078528040323 L11.742877509931839,-33.88917650996478 L11.726785039313459,-33.8951847266722 L11.710614562429438,-33.89879545620517 L11.694405035374958,-33.9 " />
			<path d="M12.02475546010306,32.900000000000006 L12.02475546010306,-32.89999999999999 " />
			<path d="M11.694405035374954,33.9 L11.710614562429438,33.89879545620517 L11.726785039313459,33.8951847266722 L11.742877509931839,33.88917650996478 L11.758853206113326,33.88078528040323 L11.790300701798026,33.856940335732205 L11.82082466979317,33.823879532511285 L11.850131147600866,33.781921264348355 L11.877937897819272,33.73146961230255 L11.903977126243072,33.673010453362735 L11.927998060868054,33.607106781186545 L11.9497693669626,33.53439328416364 L11.969081374947613,33.4555702330196 L11.985748099629182,33.371396736826 L11.999609031337663,33.28268343236509 L12.010530681723546,33.19028467725446 L12.018407869323235,33.09509032201613 L12.023164732514038,32.99801714032956 L12.02475546010306,32.900000000000006 " />
			<path d="M13.110192569923981,33.9 L11.694405035374956,33.9 " />
			<path d="M-3.147578846809395,33.9 L11.694405035374956,33.9 " />
			<path d="M-3.2632014954642328,33.83674969975976 L-3.235113556437625,33.864255194226274 L-3.2063265872461764,33.88406038934604 L-3.1770704733822206,33.89600712581438 L-3.147578846809397,33.9 " />
			<path d="M-3.1475788468093957,-33.9 L-3.1770704733822206,-33.89600712581438 L-3.2063265872461764,-33.88406038934604 L-3.235113556437625,-33.864255194226274 L-3.2632014954642328,-33.83674969975976 " />
			<path d="M11.694405035374954,-33.9 L-3.1475788468093953,-33.9 " />
			<path d="M-3.879069072993058,-33.9 L-5.294856607542084,-33.9 " />
			<path d="M-4.964506182813978,-32.9 L-4.966096910403,-32.99801714032956 L-4.970853773593802,-33.09509032201613 L-4.978730961193493,-33.19028467725446 L-4.989652611579377,-33.28268343236509 L-5.003513543287857,-33.37139673682599 L-5.020180267969425,-33.4555702330196 L-5.039492275954438,-33.53439328416364 L-5.061263582048984,-33.607106781186545 L-5.085284516673966,-33.673010453362735 L-5.111323745097766,-33.73146961230255 L-5.139130495316173,-33.781921264348355 L-5.1684369731238675,-33.823879532511285 L-5.198960941119012,-33.856940335732205 L-5.230408436803713,-33.88078528040323 L-5.2463841329852,-33.88917650996478 L-5.26247660360358,-33.8951847266722 L-5.278647080487602,-33.89879545620517 L-5.294856607542082,-33.9 " />
			<path d="M-5.294856607542084,-33.9 L-12.939165435750457,-33.9 " />
			<path d="M-4.964506182813978,32.900000000000006 L-4.964506182813978,-32.89999999999999 " />
			<path d="M-12.939165435750459,-33.9 L-12.968657062323285,-33.89600712581438 L-12.99791317618724,-33.88406038934604 L-13.026700145378689,-33.864255194226274 L-13.054788084405295,-33.83674969975976 " />
			<path d="M-5.294856607542084,33.9 L-5.278647080487602,33.89879545620517 L-5.26247660360358,33.8951847266722 L-5.246384132985199,33.88917650996478 L-5.230408436803714,33.88078528040323 L-5.198960941119012,33.856940335732205 L-5.1684369731238675,33.823879532511285 L-5.139130495316173,33.781921264348355 L-5.111323745097766,33.73146961230255 L-5.085284516673966,33.673010453362735 L-5.061263582048984,33.607106781186545 L-5.039492275954438,33.53439328416364 L-5.020180267969425,33.4555702330196 L-5.003513543287857,33.371396736826 L-4.989652611579377,33.28268343236509 L-4.978730961193493,33.19028467725446 L-4.970853773593802,33.09509032201613 L-4.966096910403,32.99801714032956 L-4.964506182813978,32.900000000000006 " />
			<path d="M-3.879069072993058,33.9 L-5.294856607542084,33.9 " />
			<path d="M-12.939165435750459,33.9 L-5.294856607542085,33.9 " />
			<path d="M-13.054788084405295,33.83674969975976 L-13.026700145378689,33.864255194226274 L-12.99791317618724,33.88406038934604 L-12.968657062323285,33.89600712581438 L-12.93916543575046,33.9 " />
			<path d="M-13.67065566193412,-33.9 L-15.086443196483145,-33.9 " />
			<path d="M-14.756092771755041,-32.9 L-14.757683499344063,-32.99801714032956 L-14.762440362534866,-33.09509032201613 L-14.770317550134555,-33.19028467725446 L-14.781239200520439,-33.28268343236509 L-14.795100132228919,-33.37139673682599 L-14.811766856910488,-33.4555702330196 L-14.8310788648955,-33.53439328416364 L-14.852850170990047,-33.607106781186545 L-14.87687110561503,-33.673010453362735 L-14.902910334038829,-33.73146961230255 L-14.930717084257235,-33.781921264348355 L-14.96002356206493,-33.823879532511285 L-14.990547530060073,-33.856940335732205 L-15.021995025744776,-33.88078528040323 L-15.037970721926262,-33.88917650996478 L-15.054063192544643,-33.8951847266722 L-15.070233669428664,-33.89879545620517 L-15.086443196483144,-33.9 " />
			<path d="M-15.086443196483147,-33.9 L-18.301413529937076,-33.9 " />
			<path d="M-14.756092771755043,32.900000000000006 L-14.756092771755043,-32.89999999999999 " />
			<path d="M-18.301413529937076,-33.9 L-18.3309051565099,-33.89600712581438 L-18.360161270373858,-33.88406038934604 L-18.388948239565305,-33.864255194226274 L-18.417036178591914,-33.83674969975976 " />
			<path d="M-15.086443196483147,33.9 L-15.070233669428664,33.89879545620517 L-15.054063192544643,33.8951847266722 L-15.037970721926262,33.88917650996478 L-15.021995025744776,33.88078528040323 L-14.990547530060075,33.856940335732205 L-14.960023562064931,33.823879532511285 L-14.930717084257235,33.781921264348355 L-14.902910334038829,33.73146961230255 L-14.87687110561503,33.673010453362735 L-14.852850170990047,33.607106781186545 L-14.8310788648955,33.53439328416364 L-14.811766856910488,33.4555702330196 L-14.795100132228919,33.371396736826 L-14.781239200520439,33.28268343236509 L-14.770317550134555,33.19028467725446 L-14.762440362534866,33.09509032201613 L-14.757683499344063,32.99801714032956 L-14.756092771755041,32.900000000000006 " />
			<path d="M-13.67065566193412,33.9 L-15.086443196483145,33.9 " />
			<path d="M-18.301413529937076,33.9 L-15.086443196483147,33.9 " />
			<path d="M-18.417036178591914,33.83674969975976 L-18.388948239565305,33.864255194226274 L-18.360161270373858,33.88406038934604 L-18.3309051565099,33.89600712581438 L-18.301413529937076,33.9 " />
			<path d="M11.387651069555998,-32.9 L11.384477274166086,-32.99754516100806 L11.375077855173299,-33.09134171618254 L11.359814026978276,-33.1777851165098 L11.339272369938495,-33.253553390593275 L11.327261902626004,-33.28650522668137 L11.314242288414105,-33.31573480615127 L11.3003389133049,-33.34096063217417 L11.285685674401053,-33.361939766255645 L11.270423690403481,-33.378470167866105 L11.25469994256113,-33.39039264020161 L11.238665859161198,-33.397592363336095 L11.222475857191947,-33.4 " />
			<path d="M11.387651069556,32.900000000000006 L11.387651069556,-32.89999999999999 " />
			<path d="M11.222475857191945,33.4 L11.238665859161198,33.397592363336095 L11.25469994256113,33.39039264020161 L11.270423690403481,33.378470167866105 L11.285685674401053,33.361939766255645 L11.3003389133049,33.34096063217417 L11.314242288414105,33.31573480615127 L11.327261902626004,33.28650522668137 L11.339272369938495,33.253553390593275 L11.359814026978276,33.1777851165098 L11.375077855173299,33.09134171618254 L11.384477274166086,32.99754516100806 L11.387651069555998,32.900000000000006 " />
			<path d="M-3.6195080249924034,33.4 L11.222475857191947,33.4 " />
			<path d="M-3.7846832373564574,32.9 L-3.7827874690595547,32.97553625864848 L-3.777143680836803,33.04933861010395 L-3.7678814237828737,33.11971294837892 L-3.7552133096211513,33.18504385627478 L-3.739430130279379,33.24383168669288 L-3.7208941828673003,33.29472698648517 L-3.7000309532790037,33.33656147265779 L-3.6773193493198235,33.36837484987988 " />
			<path d="M-3.6773193493198226,33.36837484987988 L-3.663275379806519,33.38212759711314 L-3.6488818952107946,33.39203019467302 L-3.6342538382788168,33.398003562907185 L-3.619508024992405,33.4 " />
			<path d="M-3.7846832373564574,-32.9 L-3.7846832373564574,32.9 " />
			<path d="M-3.6195080249924043,-33.4 L-3.6342538382788168,-33.398003562907185 L-3.6488818952107946,-33.39203019467302 L-3.663275379806519,-33.38212759711314 L-3.6773193493198226,-33.36837484987988 " />
			<path d="M-3.677319349319823,-33.36837484987988 L-3.7000309532790037,-33.33656147265779 L-3.7208941828673003,-33.29472698648517 L-3.739430130279379,-33.24383168669288 L-3.7552133096211513,-33.18504385627478 L-3.7678814237828737,-33.11971294837892 L-3.777143680836803,-33.04933861010395 L-3.7827874690595547,-32.97553625864848 L-3.7846832373564574,-32.9 " />
			<path d="M11.222475857191945,-33.4 L-3.6195080249924043,-33.4 " />
			<path d="M-5.60161057336104,-32.9 L-5.604784368750953,-32.99754516100806 L-5.614183787743739,-33.09134171618254 L-5.629447615938764,-33.1777851165098 L-5.6499892729785435,-33.253553390593275 L-5.6619997402910345,-33.28650522668137 L-5.675019354502934,-33.31573480615127 L-5.688922729612138,-33.34096063217417 L-5.703575968515985,-33.361939766255645 L-5.718837952513557,-33.378470167866105 L-5.734561700355908,-33.39039264020161 L-5.750595783755841,-33.397592363336095 L-5.766785785725092,-33.4 " />
			<path d="M-5.7667857857250935,-33.4 L-13.411094613933466,-33.4 " />
			<path d="M-5.60161057336104,32.900000000000006 L-5.60161057336104,-32.89999999999999 " />
			<path d="M-13.411094613933468,-33.4 L-13.42584042721988,-33.398003562907185 L-13.44046848415186,-33.39203019467302 L-13.454861968747583,-33.38212759711314 L-13.468905938260887,-33.36837484987988 " />
			<path d="M-13.468905938260887,-33.36837484987988 L-13.491617542220068,-33.33656147265779 L-13.512480771808365,-33.29472698648517 L-13.531016719220442,-33.24383168669288 L-13.546799898562215,-33.18504385627478 L-13.559468012723938,-33.11971294837892 L-13.568730269777866,-33.04933861010395 L-13.574374058000618,-32.97553625864848 L-13.576269826297521,-32.9 " />
			<path d="M-5.7667857857250935,33.4 L-5.750595783755841,33.397592363336095 L-5.734561700355908,33.39039264020161 L-5.7188379525135575,33.378470167866105 L-5.7035759685159855,33.361939766255645 L-5.688922729612138,33.34096063217417 L-5.675019354502934,33.31573480615127 L-5.6619997402910345,33.28650522668137 L-5.6499892729785435,33.253553390593275 L-5.629447615938764,33.1777851165098 L-5.614183787743739,33.09134171618254 L-5.604784368750953,32.99754516100806 L-5.60161057336104,32.900000000000006 " />
			<path d="M-13.57626982629752,-32.9 L-13.57626982629752,32.9 " />
			<path d="M-13.411094613933466,33.4 L-5.766785785725093,33.4 " />
			<path d="M-13.576269826297521,32.9 L-13.574374058000618,32.97553625864848 L-13.568730269777866,33.04933861010395 L-13.559468012723938,33.11971294837892 L-13.546799898562215,33.18504385627478 L-13.531016719220442,33.24383168669288 L-13.512480771808365,33.29472698648517 L-13.491617542220068,33.33656147265779 L-13.468905938260887,33.36837484987988 " />
			<path d="M-13.468905938260887,33.36837484987988 L-13.454861968747583,33.38212759711314 L-13.44046848415186,33.39203019467302 L-13.42584042721988,33.398003562907185 L-13.411094613933468,33.4 " />
			<path d="M-15.393197162302103,-32.9 L-15.396370957692016,-32.99754516100806 L-15.405770376684803,-33.09134171618254 L-15.421034204879826,-33.1777851165098 L-15.441575861919606,-33.253553390593275 L-15.453586329232097,-33.28650522668137 L-15.466605943443996,-33.31573480615127 L-15.480509318553201,-33.34096063217417 L-15.495162557457048,-33.361939766255645 L-15.51042454145462,-33.378470167866105 L-15.526148289296971,-33.39039264020161 L-15.542182372696903,-33.397592363336095 L-15.558372374666154,-33.4 " />
			<path d="M-15.558372374666156,-33.4 L-18.773342708120083,-33.4 " />
			<path d="M-15.393197162302105,32.900000000000006 L-15.393197162302105,-32.89999999999999 " />
			<path d="M-18.773342708120083,-33.4 L-18.788088521406497,-33.398003562907185 L-18.802716578338472,-33.39203019467302 L-18.817110062934198,-33.38212759711314 L-18.8311540324475,-33.36837484987988 " />
			<path d="M-18.8311540324475,-33.36837484987988 L-18.85386563640668,-33.33656147265779 L-18.874728865994978,-33.29472698648517 L-18.893264813407058,-33.24383168669288 L-18.90904799274883,-33.18504385627478 L-18.92171610691055,-33.11971294837892 L-18.93097836396448,-33.04933861010395 L-18.936622152187233,-32.97553625864848 L-18.938517920484134,-32.9 " />
			<path d="M-15.558372374666156,33.4 L-15.542182372696903,33.397592363336095 L-15.526148289296971,33.39039264020161 L-15.51042454145462,33.378470167866105 L-15.495162557457048,33.361939766255645 L-15.480509318553201,33.34096063217417 L-15.466605943443996,33.31573480615127 L-15.453586329232097,33.28650522668137 L-15.441575861919606,33.253553390593275 L-15.421034204879826,33.1777851165098 L-15.405770376684803,33.09134171618254 L-15.396370957692016,32.99754516100806 L-15.393197162302103,32.900000000000006 " />
			<path d="M-18.938517920484138,-32.9 L-18.938517920484138,32.9 " />
			<path d="M-18.773342708120083,33.4 L-15.558372374666154,33.4 " />
			<path d="M-18.938517920484134,32.9 L-18.936622152187233,32.97553625864848 L-18.93097836396448,33.04933861010395 L-18.92171610691055,33.11971294837892 L-18.90904799274883,33.18504385627478 L-18.893264813407058,33.24383168669288 L-18.874728865994978,33.29472698648517 L-18.85386563640668,33.33656147265779 L-18.831154032447504,33.36837484987988 " />
			<path d="M-18.8311540324475,33.36837484987988 L-18.817110062934198,33.38212759711314 L-18.802716578338472,33.39203019467302 L-18.788088521406497,33.398003562907185 L-18.773342708120083,33.4 " />
			<path d="M15.85682038694909,-34.0 L14.535418688036666,-34.0 " />
			<path d="M14.039893050944503,-35.5 L13.473578037124893,-34.9 " />
			<path d="M-16.68269644876936,-35.5 L-17.249011462588967,-34.9 " />
			<path d="M14.535418688036668,-34.0 L13.770893419380194,-34.0 " />
			<path d="M15.85682038694909,34.0 L14.535418688036666,34.0 " />
			<path d="M14.535418688036666,34.0 L13.770893419380192,34.0 " />
			<path d="M14.039893050944503,35.5 L13.473578037124893,34.9 " />
			<path d="M-16.682696448769356,35.5 L-17.249011462588967,34.9 " />
			<path d="M13.440542994652088,-32.9 L12.024755460103062,-32.9 " />
			<path d="M13.440542994652088,32.9 L12.024755460103062,32.9 " />
			<path d="M-3.7846832373564574,-32.9 L-4.964506182813978,-32.9 " />
			<path d="M-3.7846832373564574,32.9 L-4.964506182813978,32.9 " />
			<path d="M-13.57626982629752,-32.9 L-14.756092771755043,-32.9 " />
			<path d="M-13.57626982629752,32.9 L-14.756092771755043,32.9 " />
			<path d="M12.02475546010306,-32.89999999999999 L11.387651069556,-32.89999999999999 " />
			<path d="M11.694405035374954,-33.9 L11.222475857191943,-33.4 " />
			<path d="M12.02475546010306,32.9 L11.387651069555998,32.9 " />
			<path d="M11.694405035374954,33.9 L11.222475857191943,33.4 " />
			<path d="M-3.1475788468093957,33.9 L-3.6195080249924043,33.4 " />
			<path d="M-3.147578846809396,-33.9 L-3.6195080249924065,-33.4 " />
			<path d="M-4.964506182813979,-32.89999999999999 L-5.601610573361041,-32.89999999999999 " />
			<path d="M-5.294856607542085,-33.9 L-5.766785785725095,-33.4 " />
			<path d="M-12.939165435750459,-33.9 L-13.41109461393347,-33.4 " />
			<path d="M-4.964506182813978,32.9 L-5.60161057336104,32.9 " />
			<path d="M-5.294856607542085,33.9 L-5.766785785725095,33.4 " />
			<path d="M-12.939165435750459,33.9 L-13.411094613933468,33.4 " />
			<path d="M-14.756092771755041,-32.89999999999999 L-15.393197162302103,-32.89999999999999 " />
			<path d="M-15.086443196483147,-33.9 L-15.558372374666158,-33.4 " />
			<path d="M-18.301413529937076,-33.9 L-18.773342708120087,-33.4 " />
			<path d="M-14.756092771755043,32.9 L-15.393197162302105,32.9 " />
			<path d="M-15.086443196483147,33.9 L-15.558372374666158,33.4 " />
			<path d="M-18.301413529937076,33.9 L-18.773342708120083,33.4 " />
			<path d="M-17.35307184637832,-34.84307472978378 L-16.85613042175161,-35.40512454963964 " />
			<path d="M-17.35307184637832,34.84307472978378 L-16.85613042175161,35.40512454963964 " />
			<path d="M-3.6773193493198226,33.36837484987988 L-3.2632014954642328,33.83674969975976 " />
			<path d="M-3.6773193493198226,-33.36837484987988 L-3.2632014954642328,-33.83674969975976 " />
			<path d="M-13.468905938260885,-33.36837484987988 L-13.054788084405295,-33.83674969975976 " />
			<path d="M-13.468905938260885,33.36837484987988 L-13.054788084405295,33.83674969975976 " />
			<path d="M-18.831154032447504,-33.36837484987988 L-18.417036178591914,-33.83674969975976 " />
			<path d="M-18.831154032447504,33.36837484987988 L-18.417036178591914,33.83674969975976 " />

       </g>
    </g>
    
</svg>
