<?xml version="1.0" encoding="UTF-8" standalone="no"?>
<svg
   xmlns:svg="http://www.w3.org/2000/svg"
   xmlns="http://www.w3.org/2000/svg"
   width="640.0"
   height="480.0"

>
    <g transform="scale(4.395604395604395, -4.395604395604395)   translate(74.9,-45.5)" stroke-width="0.4"  fill="none">
       <!-- hidden lines -->
       <g  stroke="rgb(160,160,160)" fill="none" stroke-dasharray="0.4,0.4" >
			<path d="M-29.4,-39.45 L-29.4,39.45 " />
			<path d="M-29.4,-39.45 L-29.39617817191538,-39.55700877479885 L-29.384732162821397,-39.66347225740993 L-29.365720298956738,-39.768847934329465 L-29.339239460421744,-39.872598835262146 L-29.30542458749964,-39.97419626939865 L-29.264447993031776,-40.07312251950283 L-29.216518484350882,-40.16887348008009 L-29.16188029924677,-40.2609612261834 L-29.10081186138654,-40.34891649976702 L-29.033624361531388,-40.43229110091793 L-28.96066017177982,-40.510660171779826 L-28.882291100917925,-40.58362436153139 L-28.79891649976702,-40.65081186138654 L-28.710961226183393,-40.71188029924677 L-28.618873480080083,-40.76651848435089 L-28.523122519502827,-40.814447993031784 L-28.424196269398642,-40.85542458749965 L-28.32259883526214,-40.88923946042175 L-28.21884793432946,-40.91572029895674 L-28.11347225740992,-40.934732162821405 L-28.00700877479884,-40.946178171915385 L-27.899999999999995,-40.95 " />
			<path d="M-27.9,40.95 L-28.007008774798848,40.946178171915385 L-28.113472257409928,40.934732162821405 L-28.218847934329464,40.91572029895674 L-28.32259883526214,40.88923946042175 L-28.424196269398646,40.85542458749965 L-28.523122519502827,40.81444799303178 L-28.618873480080083,40.76651848435089 L-28.710961226183393,40.71188029924677 L-28.798916499767017,40.65081186138654 L-28.882291100917925,40.58362436153139 L-28.960660171779818,40.510660171779826 L-29.033624361531384,40.43229110091793 L-29.10081186138654,40.34891649976702 L-29.161880299246768,40.2609612261834 L-29.216518484350882,40.16887348008009 L-29.264447993031776,40.07312251950283 L-29.30542458749964,39.974196269398654 L-29.339239460421744,39.872598835262146 L-29.365720298956738,39.76884793432947 L-29.384732162821397,39.66347225740993 L-29.39617817191538,39.55700877479885 L-29.4,39.45 " />
			<path d="M-27.9,-40.95 L27.9,-40.95 " />
			<path d="M27.9,-40.95 L28.007008774798848,-40.946178171915385 L28.113472257409928,-40.934732162821405 L28.218847934329464,-40.91572029895674 L28.322598835262145,-40.88923946042175 L28.42419626939865,-40.85542458749964 L28.52312251950283,-40.81444799303178 L28.618873480080087,-40.76651848435088 L28.7109612261834,-40.71188029924677 L28.798916499767024,-40.65081186138654 L28.882291100917932,-40.583624361531385 L28.960660171779825,-40.51066017177982 L29.03362436153139,-40.43229110091792 L29.100811861386543,-40.348916499767014 L29.161880299246775,-40.26096122618339 L29.216518484350885,-40.16887348008008 L29.26444799303178,-40.073122519502824 L29.305424587499644,-39.97419626939864 L29.339239460421748,-39.87259883526214 L29.36572029895674,-39.76884793432946 L29.3847321628214,-39.66347225740992 L29.39617817191538,-39.55700877479884 L29.4,-39.44999999999999 " />
			<path d="M29.4,-39.45 L29.4,39.45 " />
			<path d="M29.4,39.45 L29.39617817191538,39.55700877479885 L29.384732162821397,39.66347225740993 L29.365720298956738,39.768847934329465 L29.339239460421744,39.872598835262146 L29.30542458749964,39.974196269398654 L29.264447993031776,40.07312251950283 L29.216518484350882,40.16887348008009 L29.16188029924677,40.2609612261834 L29.10081186138654,40.34891649976702 L29.033624361531388,40.43229110091793 L28.96066017177982,40.510660171779826 L28.882291100917925,40.58362436153139 L28.79891649976702,40.65081186138654 L28.710961226183397,40.71188029924677 L28.618873480080083,40.76651848435088 L28.523122519502827,40.81444799303178 L28.424196269398646,40.85542458749965 L28.322598835262145,40.88923946042175 L28.218847934329464,40.91572029895674 L28.113472257409928,40.934732162821405 L28.007008774798848,40.946178171915385 L27.9,40.95 " />
			<path d="M-27.9,40.95 L27.9,40.95 " />
			<path d="M-27.799999999999997,-38.35000000000001 L-27.796194698091742,-38.43715574274766 L-27.784807753012206,-38.523648177666935 L-27.765925826289067,-38.60881904510253 L-27.739692620785906,-38.69202014332568 L-27.706307787036646,-38.77261826174071 L-27.666025403784435,-38.85000000000001 L-27.619152044288988,-38.923576436351055 L-27.566044443118976,-38.992787609686545 L-27.507106781186547,-39.057106781186555 L-27.442787609686537,-39.11604444311899 L-27.373576436351044,-39.169152044289 L-27.299999999999997,-39.21602540378445 L-27.2226182617407,-39.25630778703666 L-27.142020143325666,-39.289692620785914 L-27.05881904510252,-39.315925826289075 L-26.97364817766693,-39.334807753012214 L-26.88715574274766,-39.34619469809175 L-26.8,-39.35000000000001 " />
			<path d="M-26.799999999999997,-39.35000000000001 L26.799999999999997,-39.35000000000001 " />
			<path d="M26.799999999999997,-39.35000000000001 L26.887155742747655,-39.34619469809176 L26.973648177666927,-39.334807753012214 L27.058819045102517,-39.315925826289075 L27.142020143325666,-39.289692620785914 L27.222618261740696,-39.25630778703666 L27.299999999999997,-39.21602540378445 L27.373576436351044,-39.169152044289 L27.442787609686537,-39.11604444311899 L27.507106781186543,-39.057106781186555 L27.566044443118976,-38.99278760968655 L27.619152044288988,-38.923576436351055 L27.666025403784435,-38.85000000000001 L27.706307787036646,-38.77261826174071 L27.739692620785906,-38.69202014332568 L27.765925826289067,-38.60881904510253 L27.784807753012206,-38.52364817766694 L27.796194698091742,-38.43715574274767 L27.799999999999997,-38.35000000000001 " />
			<path d="M27.799999999999997,-38.35000000000001 L27.799999999999997,-1.3180000000000014 " />
			<path d="M27.799999999999997,-1.3180000000000014 L27.796194698091742,-1.2308442572523433 L27.784807753012206,-1.144351822333071 L27.765925826289067,-1.0591809548974807 L27.739692620785906,-0.9759798566743327 L27.706307787036646,-0.8953817382593019 L27.666025403784435,-0.8180000000000014 L27.619152044288988,-0.7444235636489553 L27.566044443118976,-0.6752123903134621 L27.507106781186543,-0.6108932188134539 L27.442787609686537,-0.5519555568810234 L27.373576436351044,-0.4988479557110096 L27.299999999999997,-0.4519745962155628 L27.222618261740696,-0.41169221296335157 L27.142020143325666,-0.3783073792140931 L27.058819045102517,-0.3520741737109332 L26.973648177666927,-0.3331922469877934 L26.887155742747655,-0.32180530190825596 L26.799999999999997,-0.3180000000000014 " />
			<path d="M-26.799999999999997,-0.3180000000000014 L26.799999999999997,-0.3180000000000014 " />
			<path d="M-26.799999999999997,-0.3180000000000014 L-26.887155742747655,-0.32180530190825585 L-26.973648177666927,-0.33319224698779326 L-27.058819045102517,-0.35207417371093297 L-27.142020143325666,-0.37830737921409285 L-27.222618261740696,-0.41169221296335123 L-27.299999999999997,-0.45197459621556235 L-27.373576436351044,-0.49884795571100915 L-27.442787609686537,-0.5519555568810228 L-27.507106781186543,-0.6108932188134532 L-27.566044443118976,-0.6752123903134613 L-27.619152044288988,-0.7444235636489543 L-27.666025403784435,-0.8180000000000003 L-27.706307787036646,-0.8953817382593007 L-27.739692620785906,-0.9759798566743312 L-27.765925826289067,-1.059180954897479 L-27.784807753012206,-1.1443518223330693 L-27.796194698091742,-1.2308442572523415 L-27.799999999999997,-1.3179999999999994 " />
			<path d="M-27.799999999999997,-38.35000000000001 L-27.799999999999997,-1.3180000000000014 " />
			<path d="M-27.799999999999997,5.181999999999999 L-27.796194698091742,5.0948442572523405 L-27.784807753012206,5.0083518223330685 L-27.765925826289067,4.923180954897478 L-27.739692620785906,4.83997985667433 L-27.706307787036646,4.759381738259299 L-27.666025403784435,4.6819999999999995 L-27.619152044288988,4.6084235636489534 L-27.566044443118976,4.53921239031346 L-27.507106781186547,4.474893218813452 L-27.442787609686537,4.415955556881022 L-27.373576436351044,4.362847955711008 L-27.299999999999997,4.315974596215561 L-27.2226182617407,4.2756922129633494 L-27.142020143325666,4.242307379214091 L-27.05881904510252,4.216074173710931 L-26.97364817766693,4.1971922469877905 L-26.88715574274766,4.185805301908253 L-26.8,4.181999999999999 " />
			<path d="M-27.799999999999997,5.181999999999999 L-27.799999999999997,24.092 " />
			<path d="M-26.799999999999997,4.181999999999999 L26.799999999999997,4.181999999999999 " />
			<path d="M-26.799999999999997,25.092 L-26.887155742747655,25.088194698091744 L-26.973648177666927,25.076807753012208 L-27.058819045102517,25.05792582628907 L-27.142020143325666,25.031692620785908 L-27.222618261740696,24.998307787036648 L-27.299999999999997,24.958025403784436 L-27.373576436351044,24.91115204428899 L-27.442787609686537,24.858044443118978 L-27.507106781186543,24.79910678118655 L-27.566044443118976,24.73478760968654 L-27.619152044288988,24.665576436351046 L-27.666025403784435,24.592 L-27.706307787036646,24.5146182617407 L-27.739692620785906,24.434020143325668 L-27.765925826289067,24.350819045102522 L-27.784807753012206,24.265648177666932 L-27.796194698091742,24.17915574274766 L-27.799999999999997,24.092000000000002 " />
			<path d="M26.799999999999997,4.181999999999999 L26.887155742747655,4.185805301908253 L26.973648177666927,4.1971922469877905 L27.058819045102517,4.21607417371093 L27.142020143325666,4.24230737921409 L27.222618261740696,4.275692212963349 L27.299999999999997,4.315974596215559 L27.373576436351044,4.362847955711006 L27.442787609686537,4.41595555688102 L27.507106781186543,4.474893218813451 L27.566044443118976,4.539212390313458 L27.619152044288988,4.608423563648952 L27.666025403784435,4.681999999999998 L27.706307787036646,4.759381738259298 L27.739692620785906,4.839979856674328 L27.765925826289067,4.923180954897476 L27.784807753012206,5.008351822333067 L27.796194698091742,5.094844257252339 L27.799999999999997,5.181999999999997 " />
			<path d="M-26.799999999999997,25.092 L26.799999999999997,25.092 " />
			<path d="M27.799999999999997,5.181999999999999 L27.799999999999997,24.092 " />
			<path d="M27.799999999999997,24.092 L27.796194698091742,24.179155742747657 L27.784807753012206,24.26564817766693 L27.765925826289067,24.35081904510252 L27.739692620785906,24.434020143325668 L27.706307787036646,24.514618261740697 L27.666025403784435,24.592 L27.619152044288988,24.665576436351046 L27.566044443118976,24.73478760968654 L27.507106781186543,24.799106781186545 L27.442787609686537,24.858044443118978 L27.373576436351044,24.91115204428899 L27.299999999999997,24.958025403784436 L27.222618261740696,24.998307787036648 L27.142020143325666,25.031692620785908 L27.058819045102517,25.05792582628907 L26.973648177666927,25.076807753012208 L26.887155742747655,25.088194698091744 L26.799999999999997,25.092 " />
			<path d="M-27.799999999999997,30.592000000000002 L-27.796194698091742,30.504844257252344 L-27.784807753012206,30.418351822333072 L-27.765925826289067,30.333180954897482 L-27.739692620785906,30.249979856674333 L-27.706307787036646,30.169381738259304 L-27.666025403784435,30.092000000000002 L-27.619152044288988,30.018423563648955 L-27.566044443118976,29.949212390313463 L-27.507106781186547,29.884893218813456 L-27.442787609686537,29.825955556881024 L-27.373576436351044,29.77284795571101 L-27.299999999999997,29.725974596215565 L-27.2226182617407,29.685692212963353 L-27.142020143325666,29.652307379214093 L-27.05881904510252,29.626074173710933 L-26.97364817766693,29.607192246987793 L-26.88715574274766,29.595805301908257 L-26.8,29.592000000000002 " />
			<path d="M-27.799999999999997,30.592000000000002 L-27.799999999999997,38.35 " />
			<path d="M-26.799999999999997,29.592000000000002 L26.799999999999997,29.592000000000002 " />
			<path d="M-26.799999999999997,39.35 L-26.887155742747655,39.34619469809175 L-26.973648177666927,39.33480775301221 L-27.058819045102517,39.31592582628907 L-27.142020143325666,39.28969262078591 L-27.222618261740696,39.256307787036654 L-27.299999999999997,39.21602540378444 L-27.373576436351044,39.16915204428899 L-27.442787609686537,39.11604444311898 L-27.507106781186543,39.05710678118655 L-27.566044443118976,38.992787609686545 L-27.619152044288988,38.92357643635105 L-27.666025403784435,38.85 L-27.706307787036646,38.7726182617407 L-27.739692620785906,38.69202014332567 L-27.765925826289067,38.60881904510252 L-27.784807753012206,38.523648177666935 L-27.796194698091742,38.43715574274766 L-27.799999999999997,38.35 " />
			<path d="M26.799999999999997,29.592000000000002 L26.887155742747655,29.595805301908257 L26.973648177666927,29.607192246987793 L27.058819045102517,29.626074173710933 L27.142020143325666,29.652307379214093 L27.222618261740696,29.685692212963353 L27.299999999999997,29.725974596215565 L27.373576436351044,29.77284795571101 L27.442787609686537,29.825955556881024 L27.507106781186543,29.884893218813453 L27.566044443118976,29.949212390313463 L27.619152044288988,30.018423563648955 L27.666025403784435,30.092000000000002 L27.706307787036646,30.1693817382593 L27.739692620785906,30.249979856674333 L27.765925826289067,30.33318095489748 L27.784807753012206,30.41835182233307 L27.796194698091742,30.50484425725234 L27.799999999999997,30.592 " />
			<path d="M-26.799999999999997,39.35 L26.799999999999997,39.35 " />
			<path d="M27.799999999999997,30.592000000000002 L27.799999999999997,38.35 " />
			<path d="M27.799999999999997,38.35 L27.796194698091742,38.43715574274766 L27.784807753012206,38.523648177666935 L27.765925826289067,38.60881904510252 L27.739692620785906,38.69202014332567 L27.706307787036646,38.7726182617407 L27.666025403784435,38.85 L27.619152044288988,38.92357643635105 L27.566044443118976,38.99278760968654 L27.507106781186543,39.05710678118655 L27.442787609686537,39.11604444311898 L27.373576436351044,39.16915204428899 L27.299999999999997,39.21602540378444 L27.222618261740696,39.256307787036654 L27.142020143325666,39.28969262078591 L27.058819045102517,39.31592582628907 L26.973648177666927,39.33480775301221 L26.887155742747655,39.34619469809175 L26.799999999999997,39.35 " />

       </g>

       <!-- solid lines -->
       <g  stroke="rgb(0,0,0)" fill="none">
			<path d="M-29.4,-39.45 L-29.4,39.45 " />
			<path d="M-27.9,-40.95 L-28.007008774798848,-40.946178171915385 L-28.113472257409928,-40.934732162821405 L-28.218847934329464,-40.91572029895674 L-28.32259883526214,-40.88923946042175 L-28.424196269398646,-40.85542458749965 L-28.523122519502827,-40.81444799303178 L-28.618873480080083,-40.76651848435088 L-28.710961226183393,-40.71188029924677 L-28.798916499767017,-40.65081186138654 L-28.882291100917925,-40.58362436153139 L-28.96066017177982,-40.510660171779826 L-29.033624361531388,-40.43229110091793 L-29.10081186138654,-40.34891649976702 L-29.16188029924677,-40.2609612261834 L-29.216518484350882,-40.16887348008009 L-29.264447993031776,-40.07312251950283 L-29.30542458749964,-39.974196269398654 L-29.339239460421744,-39.872598835262146 L-29.365720298956738,-39.76884793432947 L-29.384732162821397,-39.66347225740993 L-29.39617817191538,-39.55700877479885 L-29.4,-39.45 " />
			<path d="M-28.799999999999997,-39.45 L-28.799999999999997,39.45 " />
			<path d="M-29.4,39.45 L-29.39617817191538,39.55700877479885 L-29.384732162821397,39.66347225740993 L-29.365720298956738,39.768847934329465 L-29.339239460421744,39.872598835262146 L-29.30542458749964,39.974196269398654 L-29.264447993031776,40.07312251950283 L-29.216518484350882,40.16887348008009 L-29.16188029924677,40.2609612261834 L-29.10081186138654,40.34891649976702 L-29.033624361531388,40.43229110091793 L-28.96066017177982,40.510660171779826 L-28.882291100917925,40.58362436153139 L-28.79891649976702,40.65081186138654 L-28.710961226183397,40.71188029924677 L-28.618873480080083,40.76651848435088 L-28.523122519502827,40.81444799303178 L-28.424196269398646,40.85542458749965 L-28.322598835262145,40.88923946042175 L-28.218847934329464,40.91572029895674 L-28.113472257409928,40.934732162821405 L-28.007008774798848,40.946178171915385 L-27.9,40.95 " />
			<path d="M-27.9,-40.35 L-27.98304152351697,-40.34616075866553 L-28.06537456603491,-40.33467578971551 L-28.146296691064872,-40.31564307885554 L-28.225117499568437,-40.28922500646392 L-28.30116452019888,-40.25564696221956 L-28.37378894658962,-40.215195422156654 L-28.44237117274133,-40.168215504552215 L-28.5063260792819,-40.11510802549859 L-28.565108025498592,-40.0563260792819 L-28.618215504552214,-39.992371172741336 L-28.66519542215665,-39.923788946589625 L-28.705646962219554,-39.851164520198886 L-28.73922500646392,-39.77511749956844 L-28.765643078855536,-39.69629669106488 L-28.78467578971551,-39.615374566034916 L-28.79616075866553,-39.53304152351698 L-28.799999999999997,-39.45 " />
			<path d="M27.899999999999995,-40.95 L-27.900000000000002,-40.95 " />
			<path d="M-28.799999999999997,39.45 L-28.79616075866553,39.53304152351698 L-28.78467578971551,39.615374566034916 L-28.765643078855536,39.69629669106488 L-28.73922500646392,39.77511749956844 L-28.705646962219554,39.851164520198886 L-28.66519542215665,39.923788946589625 L-28.618215504552214,39.992371172741336 L-28.565108025498592,40.0563260792819 L-28.5063260792819,40.11510802549859 L-28.44237117274133,40.168215504552215 L-28.37378894658962,40.215195422156654 L-28.301164520198885,40.25564696221956 L-28.225117499568437,40.28922500646392 L-28.146296691064872,40.31564307885554 L-28.06537456603491,40.33467578971551 L-27.98304152351697,40.34616075866553 L-27.9,40.35 " />
			<path d="M27.899999999999995,-40.35 L-27.900000000000002,-40.35 " />
			<path d="M-27.9,40.35 L27.9,40.35 " />
			<path d="M28.799999999999997,-39.45 L28.79616075866553,-39.53304152351698 L28.78467578971551,-39.615374566034916 L28.765643078855536,-39.69629669106488 L28.73922500646392,-39.77511749956844 L28.705646962219554,-39.851164520198886 L28.66519542215665,-39.923788946589625 L28.618215504552214,-39.992371172741336 L28.565108025498592,-40.0563260792819 L28.5063260792819,-40.11510802549859 L28.44237117274133,-40.168215504552215 L28.37378894658962,-40.215195422156654 L28.301164520198885,-40.25564696221956 L28.225117499568437,-40.28922500646392 L28.146296691064872,-40.31564307885554 L28.06537456603491,-40.33467578971551 L27.98304152351697,-40.34616075866553 L27.9,-40.35 " />
			<path d="M27.9,40.35 L27.98304152351697,40.34616075866553 L28.06537456603491,40.33467578971551 L28.146296691064872,40.31564307885554 L28.225117499568437,40.28922500646392 L28.30116452019888,40.25564696221956 L28.37378894658962,40.215195422156654 L28.44237117274133,40.168215504552215 L28.5063260792819,40.11510802549859 L28.565108025498592,40.0563260792819 L28.618215504552214,39.992371172741336 L28.66519542215665,39.923788946589625 L28.705646962219554,39.851164520198886 L28.73922500646392,39.77511749956844 L28.765643078855536,39.69629669106488 L28.78467578971551,39.615374566034916 L28.79616075866553,39.53304152351698 L28.799999999999997,39.45 " />
			<path d="M28.799999999999997,39.45 L28.799999999999997,-39.45 " />
			<path d="M29.4,-39.45 L29.39617817191538,-39.55700877479885 L29.384732162821397,-39.66347225740993 L29.365720298956738,-39.768847934329465 L29.339239460421744,-39.872598835262146 L29.30542458749964,-39.974196269398654 L29.264447993031776,-40.07312251950283 L29.216518484350882,-40.16887348008009 L29.16188029924677,-40.2609612261834 L29.10081186138654,-40.34891649976702 L29.033624361531388,-40.43229110091793 L28.96066017177982,-40.510660171779826 L28.882291100917925,-40.58362436153139 L28.79891649976702,-40.65081186138654 L28.710961226183397,-40.71188029924677 L28.618873480080083,-40.76651848435088 L28.523122519502827,-40.81444799303178 L28.424196269398646,-40.85542458749965 L28.322598835262145,-40.88923946042175 L28.218847934329464,-40.91572029895674 L28.113472257409928,-40.934732162821405 L28.007008774798848,-40.946178171915385 L27.9,-40.95 " />
			<path d="M29.4,39.45 L29.4,-39.45 " />
			<path d="M27.9,40.95 L28.007008774798848,40.946178171915385 L28.113472257409928,40.934732162821405 L28.218847934329464,40.91572029895674 L28.32259883526214,40.88923946042175 L28.424196269398646,40.85542458749965 L28.523122519502827,40.81444799303178 L28.618873480080083,40.76651848435088 L28.710961226183393,40.71188029924677 L28.798916499767017,40.65081186138654 L28.882291100917925,40.58362436153139 L28.96066017177982,40.510660171779826 L29.033624361531388,40.43229110091793 L29.10081186138654,40.34891649976702 L29.16188029924677,40.2609612261834 L29.216518484350882,40.16887348008009 L29.264447993031776,40.07312251950283 L29.30542458749964,39.974196269398654 L29.339239460421744,39.872598835262146 L29.365720298956738,39.76884793432947 L29.384732162821397,39.66347225740993 L29.39617817191538,39.55700877479885 L29.4,39.45 " />
			<path d="M-27.9,40.95 L27.9,40.95 " />
			<path d="M-26.799999999999997,-39.35000000000001 L-26.887155742747655,-39.34619469809176 L-26.973648177666927,-39.334807753012214 L-27.058819045102517,-39.315925826289075 L-27.142020143325666,-39.289692620785914 L-27.222618261740696,-39.25630778703666 L-27.299999999999997,-39.21602540378445 L-27.373576436351044,-39.169152044289 L-27.442787609686537,-39.11604444311899 L-27.507106781186543,-39.057106781186555 L-27.566044443118976,-38.992787609686545 L-27.619152044288988,-38.923576436351055 L-27.666025403784435,-38.85000000000001 L-27.706307787036646,-38.77261826174071 L-27.739692620785906,-38.69202014332568 L-27.765925826289067,-38.60881904510253 L-27.784807753012206,-38.52364817766694 L-27.796194698091742,-38.43715574274767 L-27.799999999999997,-38.35000000000001 " />
			<path d="M26.799999999999997,-39.35000000000001 L-26.799999999999997,-39.35000000000001 " />
			<path d="M27.799999999999997,-38.35000000000001 L27.796194698091742,-38.43715574274767 L27.784807753012206,-38.52364817766694 L27.765925826289067,-38.60881904510253 L27.739692620785906,-38.69202014332568 L27.706307787036646,-38.77261826174071 L27.666025403784435,-38.85000000000001 L27.619152044288988,-38.923576436351055 L27.566044443118976,-38.992787609686545 L27.507106781186543,-39.057106781186555 L27.442787609686537,-39.11604444311899 L27.373576436351044,-39.169152044289 L27.299999999999997,-39.21602540378445 L27.222618261740696,-39.25630778703666 L27.142020143325666,-39.289692620785914 L27.058819045102517,-39.315925826289075 L26.973648177666927,-39.334807753012214 L26.887155742747655,-39.34619469809176 L26.799999999999997,-39.35000000000001 " />
			<path d="M27.799999999999997,-1.3179999999999978 L27.799999999999997,-38.35 " />
			<path d="M26.799999999999997,-0.3180000000000014 L26.887155742747655,-0.32180530190825585 L26.973648177666927,-0.3331922469877934 L27.058819045102517,-0.3520741737109331 L27.142020143325666,-0.37830737921409296 L27.222618261740696,-0.41169221296335146 L27.299999999999997,-0.4519745962155627 L27.373576436351044,-0.4988479557110096 L27.442787609686537,-0.5519555568810234 L27.507106781186543,-0.6108932188134538 L27.566044443118976,-0.675212390313462 L27.619152044288988,-0.7444235636489553 L27.666025403784435,-0.8180000000000013 L27.706307787036646,-0.8953817382593018 L27.739692620785906,-0.9759798566743323 L27.765925826289067,-1.0591809548974802 L27.784807753012206,-1.1443518223330704 L27.796194698091742,-1.2308442572523426 L27.799999999999997,-1.3180000000000007 " />
			<path d="M-26.799999999999997,-0.3180000000000014 L26.799999999999997,-0.3180000000000014 " />
			<path d="M-27.799999999999997,-1.3180000000000014 L-27.796194698091742,-1.2308442572523433 L-27.784807753012206,-1.144351822333071 L-27.765925826289067,-1.0591809548974807 L-27.739692620785906,-0.9759798566743327 L-27.706307787036646,-0.8953817382593019 L-27.666025403784435,-0.8180000000000014 L-27.619152044288988,-0.7444235636489553 L-27.566044443118976,-0.6752123903134621 L-27.507106781186543,-0.6108932188134539 L-27.442787609686537,-0.5519555568810234 L-27.373576436351044,-0.4988479557110096 L-27.299999999999997,-0.4519745962155628 L-27.222618261740696,-0.41169221296335157 L-27.142020143325666,-0.3783073792140931 L-27.058819045102517,-0.3520741737109332 L-26.973648177666927,-0.3331922469877934 L-26.887155742747655,-0.32180530190825596 L-26.799999999999997,-0.3180000000000014 " />
			<path d="M-27.799999999999997,-38.35000000000001 L-27.799999999999997,-1.318000000000005 " />
			<path d="M-26.799999999999997,4.181999999999999 L-26.887155742747655,4.185805301908253 L-26.973648177666927,4.1971922469877905 L-27.058819045102517,4.21607417371093 L-27.142020143325666,4.24230737921409 L-27.222618261740696,4.275692212963349 L-27.299999999999997,4.31597459621556 L-27.373576436351044,4.362847955711007 L-27.442787609686537,4.415955556881021 L-27.507106781186543,4.474893218813451 L-27.566044443118976,4.539212390313459 L-27.619152044288988,4.608423563648953 L-27.666025403784435,4.681999999999999 L-27.706307787036646,4.759381738259299 L-27.739692620785906,4.839979856674329 L-27.765925826289067,4.923180954897477 L-27.784807753012206,5.008351822333068 L-27.796194698091742,5.09484425725234 L-27.799999999999997,5.181999999999998 " />
			<path d="M-27.799999999999997,5.181999999999999 L-27.799999999999997,24.092 " />
			<path d="M26.799999999999997,4.181999999999999 L-26.799999999999997,4.181999999999999 " />
			<path d="M-27.799999999999997,24.092 L-27.796194698091742,24.179155742747657 L-27.784807753012206,24.26564817766693 L-27.765925826289067,24.35081904510252 L-27.739692620785906,24.434020143325668 L-27.706307787036646,24.514618261740697 L-27.666025403784435,24.592 L-27.619152044288988,24.665576436351046 L-27.566044443118976,24.73478760968654 L-27.507106781186543,24.799106781186545 L-27.442787609686537,24.858044443118978 L-27.373576436351044,24.91115204428899 L-27.299999999999997,24.958025403784436 L-27.222618261740696,24.998307787036648 L-27.142020143325666,25.031692620785908 L-27.058819045102517,25.05792582628907 L-26.973648177666927,25.076807753012208 L-26.887155742747655,25.088194698091744 L-26.799999999999997,25.092 " />
			<path d="M27.799999999999997,5.181999999999999 L27.796194698091742,5.0948442572523405 L27.784807753012206,5.0083518223330685 L27.765925826289067,4.923180954897478 L27.739692620785906,4.83997985667433 L27.706307787036646,4.759381738259299 L27.666025403784435,4.681999999999999 L27.619152044288988,4.608423563648953 L27.566044443118976,4.539212390313459 L27.507106781186543,4.474893218813451 L27.442787609686537,4.415955556881021 L27.373576436351044,4.362847955711007 L27.299999999999997,4.31597459621556 L27.222618261740696,4.275692212963349 L27.142020143325666,4.242307379214091 L27.058819045102517,4.216074173710931 L26.973648177666927,4.1971922469877905 L26.887155742747655,4.185805301908253 L26.799999999999997,4.181999999999999 " />
			<path d="M-26.799999999999997,25.092 L26.799999999999997,25.092 " />
			<path d="M27.799999999999997,24.091999999999995 L27.799999999999997,5.181999999999995 " />
			<path d="M26.799999999999997,25.092 L26.887155742747655,25.088194698091744 L26.973648177666927,25.076807753012208 L27.058819045102517,25.05792582628907 L27.142020143325666,25.031692620785908 L27.222618261740696,24.998307787036648 L27.299999999999997,24.958025403784436 L27.373576436351044,24.91115204428899 L27.442787609686537,24.858044443118978 L27.507106781186543,24.799106781186545 L27.566044443118976,24.73478760968654 L27.619152044288988,24.665576436351046 L27.666025403784435,24.592 L27.706307787036646,24.514618261740697 L27.739692620785906,24.434020143325668 L27.765925826289067,24.35081904510252 L27.784807753012206,24.26564817766693 L27.796194698091742,24.179155742747657 L27.799999999999997,24.092 " />
			<path d="M-26.799999999999997,29.592000000000002 L-26.887155742747655,29.595805301908257 L-26.973648177666927,29.607192246987793 L-27.058819045102517,29.626074173710933 L-27.142020143325666,29.652307379214093 L-27.222618261740696,29.685692212963353 L-27.299999999999997,29.725974596215565 L-27.373576436351044,29.77284795571101 L-27.442787609686537,29.825955556881024 L-27.507106781186543,29.884893218813456 L-27.566044443118976,29.949212390313463 L-27.619152044288988,30.018423563648955 L-27.666025403784435,30.092000000000002 L-27.706307787036646,30.169381738259304 L-27.739692620785906,30.249979856674333 L-27.765925826289067,30.333180954897482 L-27.784807753012206,30.418351822333072 L-27.796194698091742,30.504844257252344 L-27.799999999999997,30.592000000000002 " />
			<path d="M-27.799999999999997,30.592000000000002 L-27.799999999999997,38.35 " />
			<path d="M26.799999999999997,29.592000000000002 L-26.799999999999997,29.592000000000002 " />
			<path d="M-27.799999999999997,38.35 L-27.796194698091742,38.43715574274766 L-27.784807753012206,38.523648177666935 L-27.765925826289067,38.60881904510252 L-27.739692620785906,38.69202014332567 L-27.706307787036646,38.7726182617407 L-27.666025403784435,38.85 L-27.619152044288988,38.92357643635105 L-27.566044443118976,38.99278760968654 L-27.507106781186543,39.05710678118655 L-27.442787609686537,39.11604444311898 L-27.373576436351044,39.16915204428899 L-27.299999999999997,39.21602540378444 L-27.222618261740696,39.256307787036654 L-27.142020143325666,39.28969262078591 L-27.058819045102517,39.31592582628907 L-26.973648177666927,39.33480775301221 L-26.887155742747655,39.34619469809175 L-26.799999999999997,39.35 " />
			<path d="M27.799999999999997,30.592000000000002 L27.796194698091742,30.504844257252344 L27.784807753012206,30.418351822333072 L27.765925826289067,30.333180954897482 L27.739692620785906,30.249979856674333 L27.706307787036646,30.169381738259304 L27.666025403784435,30.092000000000002 L27.619152044288988,30.018423563648955 L27.566044443118976,29.949212390313463 L27.507106781186543,29.884893218813456 L27.442787609686537,29.825955556881024 L27.373576436351044,29.77284795571101 L27.299999999999997,29.725974596215565 L27.222618261740696,29.685692212963353 L27.142020143325666,29.652307379214093 L27.058819045102517,29.626074173710933 L26.973648177666927,29.607192246987793 L26.887155742747655,29.595805301908257 L26.799999999999997,29.592000000000002 " />
			<path d="M-26.799999999999997,39.35 L26.799999999999997,39.35 " />
			<path d="M27.799999999999997,38.35 L27.799999999999997,30.592 " />
			<path d="M26.799999999999997,39.35 L26.887155742747655,39.34619469809175 L26.973648177666927,39.33480775301221 L27.058819045102517,39.31592582628907 L27.142020143325666,39.28969262078591 L27.222618261740696,39.256307787036654 L27.299999999999997,39.21602540378444 L27.373576436351044,39.16915204428899 L27.442787609686537,39.11604444311898 L27.507106781186543,39.05710678118655 L27.566044443118976,38.99278760968654 L27.619152044288988,38.92357643635105 L27.666025403784435,38.85 L27.706307787036646,38.7726182617407 L27.739692620785906,38.69202014332567 L27.765925826289067,38.60881904510252 L27.784807753012206,38.523648177666935 L27.796194698091742,38.43715574274766 L27.799999999999997,38.35 " />
			<path d="M-26.799999999999997,-38.85000000000001 L-26.860268340127657,-38.84635443704904 L-26.919657832143777,-38.835470908713035 L-26.977302443521264,-38.81750812134272 L-27.03236158602188,-38.792728012826615 L-27.084032373365574,-38.76149193294684 L-27.131561329120395,-38.72425537408556 L-27.174255374085547,-38.681561329120406 L-27.211491932946824,-38.634032373365585 L-27.242728012826603,-38.58236158602189 L-27.267508121342704,-38.52730244352128 L-27.285470908713023,-38.46965783214379 L-27.296354437049025,-38.41026834012767 L-27.299999999999997,-38.35000000000001 " />
			<path d="M26.799999999999997,-38.85000000000001 L-26.799999999999997,-38.85000000000001 " />
			<path d="M27.299999999999997,-38.35000000000001 L27.296354437049025,-38.41026834012767 L27.285470908713023,-38.46965783214379 L27.267508121342704,-38.52730244352128 L27.242728012826603,-38.58236158602189 L27.211491932946824,-38.634032373365585 L27.174255374085547,-38.681561329120406 L27.131561329120395,-38.72425537408556 L27.084032373365574,-38.76149193294684 L27.03236158602188,-38.792728012826615 L26.977302443521264,-38.81750812134272 L26.919657832143777,-38.835470908713035 L26.860268340127657,-38.84635443704904 L26.799999999999997,-38.85000000000001 " />
			<path d="M27.299999999999997,-1.3179999999999978 L27.299999999999997,-38.35 " />
			<path d="M26.799999999999997,-0.8180000000000014 L26.860268340127657,-0.8216455629509745 L26.919657832143777,-0.8325290912869754 L26.977302443521264,-0.8504918786572939 L27.03236158602188,-0.8752719871733965 L27.084032373365574,-0.9065080670531731 L27.131561329120395,-0.9437446259144509 L27.174255374085547,-0.9864386708796038 L27.211491932946824,-1.0339676266344235 L27.242728012826603,-1.085638413978117 L27.267508121342704,-1.1406975564787336 L27.285470908713023,-1.1983421678562223 L27.296354437049025,-1.2577316598723396 L27.299999999999997,-1.3180000000000012 " />
			<path d="M-26.799999999999997,-0.8180000000000014 L26.799999999999997,-0.8180000000000014 " />
			<path d="M-27.299999999999997,-1.3180000000000014 L-27.296354437049025,-1.2577316598723398 L-27.285470908713023,-1.1983421678562225 L-27.267508121342704,-1.1406975564787336 L-27.242728012826603,-1.0856384139781172 L-27.211491932946824,-1.0339676266344235 L-27.174255374085547,-0.9864386708796038 L-27.131561329120395,-0.9437446259144509 L-27.084032373365574,-0.9065080670531732 L-27.03236158602188,-0.8752719871733965 L-26.977302443521264,-0.850491878657294 L-26.919657832143777,-0.8325290912869754 L-26.860268340127657,-0.8216455629509745 L-26.799999999999997,-0.8180000000000014 " />
			<path d="M-27.299999999999997,-38.35000000000001 L-27.299999999999997,-1.318000000000005 " />
			<path d="M-26.799999999999997,4.681999999999999 L-26.860268340127657,4.685645562950971 L-26.919657832143777,4.696529091286973 L-26.977302443521264,4.714491878657292 L-27.03236158602188,4.739271987173393 L-27.084032373365574,4.7705080670531705 L-27.131561329120395,4.807744625914448 L-27.174255374085547,4.850438670879601 L-27.211491932946824,4.89796762663442 L-27.242728012826603,4.949638413978114 L-27.267508121342704,5.004697556478731 L-27.285470908713023,5.06234216785622 L-27.296354437049025,5.121731659872337 L-27.299999999999997,5.181999999999999 " />
			<path d="M-27.299999999999997,5.181999999999999 L-27.299999999999997,24.092 " />
			<path d="M26.799999999999997,4.681999999999999 L-26.799999999999997,4.681999999999999 " />
			<path d="M-27.299999999999997,24.092 L-27.296354437049025,24.15226834012766 L-27.285470908713023,24.21165783214378 L-27.267508121342704,24.269302443521266 L-27.242728012826603,24.324361586021883 L-27.211491932946824,24.376032373365575 L-27.174255374085547,24.423561329120396 L-27.131561329120395,24.46625537408555 L-27.084032373365574,24.503491932946826 L-27.03236158602188,24.534728012826605 L-26.977302443521264,24.559508121342706 L-26.919657832143777,24.577470908713025 L-26.860268340127657,24.588354437049027 L-26.799999999999997,24.592 " />
			<path d="M27.299999999999997,5.181999999999999 L27.296354437049025,5.121731659872337 L27.285470908713023,5.06234216785622 L27.267508121342704,5.004697556478731 L27.242728012826603,4.949638413978114 L27.211491932946824,4.89796762663442 L27.174255374085547,4.850438670879601 L27.131561329120395,4.807744625914448 L27.084032373365574,4.7705080670531705 L27.03236158602188,4.739271987173394 L26.977302443521264,4.714491878657292 L26.919657832143777,4.696529091286973 L26.860268340127657,4.685645562950971 L26.799999999999997,4.681999999999999 " />
			<path d="M-26.799999999999997,24.592 L26.799999999999997,24.592 " />
			<path d="M27.299999999999997,24.091999999999995 L27.299999999999997,5.181999999999995 " />
			<path d="M26.799999999999997,24.592 L26.860268340127657,24.588354437049027 L26.919657832143777,24.577470908713025 L26.977302443521264,24.559508121342706 L27.03236158602188,24.534728012826605 L27.084032373365574,24.503491932946826 L27.131561329120395,24.46625537408555 L27.174255374085547,24.423561329120396 L27.211491932946824,24.376032373365575 L27.242728012826603,24.324361586021883 L27.267508121342704,24.269302443521266 L27.285470908713023,24.21165783214378 L27.296354437049025,24.15226834012766 L27.299999999999997,24.092 " />
			<path d="M-26.799999999999997,30.092000000000002 L-26.860268340127657,30.095645562950974 L-26.919657832143777,30.106529091286976 L-26.977302443521264,30.124491878657295 L-27.03236158602188,30.149271987173396 L-27.084032373365574,30.180508067053175 L-27.131561329120395,30.217744625914452 L-27.174255374085547,30.260438670879605 L-27.211491932946824,30.307967626634426 L-27.242728012826603,30.359638413978118 L-27.267508121342704,30.414697556478735 L-27.285470908713023,30.472342167856223 L-27.296354437049025,30.531731659872342 L-27.299999999999997,30.592000000000002 " />
			<path d="M-27.299999999999997,30.592000000000002 L-27.299999999999997,38.35 " />
			<path d="M26.799999999999997,30.092000000000002 L-26.799999999999997,30.092000000000002 " />
			<path d="M-27.299999999999997,38.35 L-27.296354437049025,38.410268340127665 L-27.285470908713023,38.46965783214378 L-27.267508121342704,38.52730244352127 L-27.242728012826603,38.58236158602188 L-27.211491932946824,38.63403237336558 L-27.174255374085547,38.6815613291204 L-27.131561329120395,38.72425537408555 L-27.084032373365574,38.76149193294683 L-27.03236158602188,38.79272801282661 L-26.977302443521264,38.81750812134271 L-26.919657832143777,38.83547090871303 L-26.860268340127657,38.84635443704903 L-26.799999999999997,38.85 " />
			<path d="M27.299999999999997,30.592000000000002 L27.296354437049025,30.531731659872342 L27.285470908713023,30.472342167856223 L27.267508121342704,30.414697556478735 L27.242728012826603,30.359638413978118 L27.211491932946824,30.307967626634426 L27.174255374085547,30.260438670879605 L27.131561329120395,30.217744625914452 L27.084032373365574,30.180508067053175 L27.03236158602188,30.149271987173396 L26.977302443521264,30.124491878657295 L26.919657832143777,30.106529091286976 L26.860268340127657,30.095645562950974 L26.799999999999997,30.092000000000002 " />
			<path d="M-26.799999999999997,38.85 L26.799999999999997,38.85 " />
			<path d="M27.299999999999997,38.35 L27.299999999999997,30.592 " />
			<path d="M26.799999999999997,38.85 L26.860268340127657,38.84635443704903 L26.919657832143777,38.83547090871303 L26.977302443521264,38.81750812134271 L27.03236158602188,38.79272801282661 L27.084032373365574,38.76149193294683 L27.131561329120395,38.72425537408555 L27.174255374085547,38.6815613291204 L27.211491932946824,38.63403237336558 L27.242728012826603,38.58236158602188 L27.267508121342704,38.52730244352127 L27.285470908713023,38.46965783214378 L27.296354437049025,38.410268340127665 L27.299999999999997,38.35 " />
			<path d="M-29.4,-39.45 L-28.799999999999997,-39.45 " />
			<path d="M-29.4,39.45 L-28.799999999999997,39.45 " />
			<path d="M-27.900000000000002,-40.95 L-27.900000000000002,-40.35 " />
			<path d="M-27.9,40.95 L-27.9,40.35 " />
			<path d="M27.9,-40.95 L27.9,-40.35 " />
			<path d="M27.9,40.95 L27.9,40.35 " />
			<path d="M29.4,-39.45 L28.799999999999997,-39.45 " />
			<path d="M29.4,39.45 L28.799999999999997,39.45 " />
			<path d="M-26.799999999999997,-39.35000000000001 L-26.799999999999997,-38.85000000000001 " />
			<path d="M-27.8,-38.35000000000001 L-27.299999999999997,-38.35000000000001 " />
			<path d="M26.799999999999997,-39.35000000000001 L26.799999999999997,-38.85000000000001 " />
			<path d="M27.8,-38.35 L27.299999999999997,-38.35 " />
			<path d="M27.799999999999997,-1.3180000000000014 L27.299999999999997,-1.3180000000000014 " />
			<path d="M26.799999999999997,-0.31800000000000184 L26.799999999999997,-0.818000000000001 " />
			<path d="M-26.799999999999997,-0.3180000000000014 L-26.799999999999997,-0.8180000000000015 " />
			<path d="M-27.8,-1.3180000000000014 L-27.299999999999997,-1.3180000000000014 " />
			<path d="M-26.799999999999997,4.181999999999999 L-26.799999999999997,4.681999999999999 " />
			<path d="M-27.8,5.181999999999999 L-27.299999999999997,5.181999999999999 " />
			<path d="M-27.8,24.092 L-27.299999999999997,24.092 " />
			<path d="M26.799999999999997,4.181999999999999 L26.799999999999997,4.681999999999999 " />
			<path d="M-26.799999999999997,25.092 L-26.799999999999997,24.592 " />
			<path d="M27.8,5.181999999999997 L27.299999999999997,5.181999999999997 " />
			<path d="M26.799999999999997,25.092 L26.799999999999997,24.592 " />
			<path d="M27.799999999999997,24.092 L27.299999999999997,24.092 " />
			<path d="M-26.799999999999997,29.592000000000002 L-26.799999999999997,30.092000000000002 " />
			<path d="M-27.8,30.592000000000002 L-27.299999999999997,30.592000000000002 " />
			<path d="M-27.8,38.35 L-27.299999999999997,38.35 " />
			<path d="M26.799999999999997,29.592000000000002 L26.799999999999997,30.092000000000002 " />
			<path d="M-26.799999999999997,39.35 L-26.799999999999997,38.85 " />
			<path d="M27.8,30.592000000000002 L27.299999999999997,30.592000000000002 " />
			<path d="M26.799999999999997,39.35 L26.799999999999997,38.85 " />
			<path d="M27.799999999999997,38.35 L27.299999999999997,38.35 " />

       </g>
    </g>
    
</svg>
