<?xml version="1.0" encoding="UTF-8" standalone="no"?>
<svg
   xmlns:svg="http://www.w3.org/2000/svg"
   xmlns="http://www.w3.org/2000/svg"
   width="640.0"
   height="480.0"

>
    <g transform="scale(4.8856312690047785, -4.8856312690047785)   translate(90.06000980700895,-28.280446012518)" stroke-width="0.4"  fill="none">
       <!-- hidden lines -->
       <g  stroke="rgb(160,160,160)" fill="none" stroke-dasharray="0.4,0.4" >
			<path d="M48.6843018846938,2.280417293019644 L-7.106423150924804,-25.18903681678948 " />
			<path d="M48.6843018846938,3.4989608847095277 L-7.106423150924804,-23.970493225099595 " />
			<path d="M48.86057340059928,2.384863886593062 L48.82021613754599,2.3572809156770567 L48.7773236830297,2.330641552228016 L48.731986913624624,2.3050022372707573 L48.6843018846938,2.280417293019645 " />
			<path d="M48.6843018846938,3.498960884709529 L48.73506840094642,3.5252146943807716 L48.78315739295809,3.552663361286751 L48.82845301013495,3.581240759184672 L48.8708461313678,3.610878042619914 L48.910234627914384,3.641503812780762 L48.94652360943651,3.6730442895043978 L48.97962565259915,3.7054234890197746 L49.00946101168091,3.7385634069991776 L49.03595781068851,3.7723842064774797 L49.05905221651229,3.806804410186386 L49.078688592705795,3.841741096840307 L49.094819633518824,3.8771101009010023 L49.10740647786115,3.9128262153397304 L49.116418802922276,3.948803396908446 L49.12183489722174,3.9849549734255216 L49.12364171291398,4.021193852576619 " />
			<path d="M47.06800679430358,1.3801620092913929 L19.175321692216798,-12.353246777240141 " />
			<path d="M16.286234395690787,-13.775735028835486 L1.2077383822666237,-21.199873252908706 " />
			<path d="M-1.6813489142593867,-22.62236150450405 L-7.530687219636731,-25.502376597509734 " />
			<path d="M-9.227743494484448,-23.970493225099595 L-9.174421754975155,-23.99548892980904 L-9.118673248950095,-24.019166312714678 L-9.060632279443277,-24.04146833292719 L-9.000438672234031,-24.06234126292647 L-8.874178427943624,-24.099602277362607 L-8.741108471252263,-24.13059051208512 L-8.60251033858632,-24.155007533453748 L-8.45971880572882,-24.172618192205 L-8.314109033198969,-24.183252888068143 L-8.167083322704627,-24.1868092031085 L-8.020057612210286,-24.183252888068143 L-7.874447839680435,-24.172618192205 L-7.731656306822934,-24.155007533453748 L-7.593058174156993,-24.13059051208512 L-7.4599882174656305,-24.099602277362607 L-7.3337279731752245,-24.06234126292647 L-7.273534365965978,-24.04146833292719 L-7.215493396459159,-24.019166312714678 L-7.1597448904341,-23.99548892980904 L-7.106423150924811,-23.9704932250996 " />
			<path d="M-49.12364171291398,-4.021193852576623 L-49.12183489722174,-4.057432731727724 L-49.116418802922276,-4.093584308244799 L-49.107406477861154,-4.129561489813515 L-49.094819633518824,-4.1652776042522435 L-49.078688592705795,-4.200646608312939 L-49.05905221651229,-4.23558329496686 L-49.03595781068851,-4.2700034986757665 L-49.00946101168091,-4.303824298154068 L-48.97962565259915,-4.336964216133471 L-48.94652360943651,-4.3693434156488475 L-48.910234627914384,-4.400883892372484 L-48.8708461313678,-4.4315096625333315 L-48.82845301013495,-4.461146945968574 L-48.78315739295809,-4.489724343866495 L-48.73506840094642,-4.517173010772474 L-48.6843018846938,-4.543426820443716 " />
			<path d="M-9.227743494484448,-23.970493225099595 L-48.6843018846938,-4.543426820443714 " />
			<path d="M-7.106423150924806,-25.18903681678948 L-7.1597448904341,-25.214032521498922 L-7.215493396459159,-25.23770990440456 L-7.273534365965977,-25.260011924617075 L-7.333727973175224,-25.280884854616353 L-7.4599882174656305,-25.31814586905249 L-7.593058174156993,-25.349134103775004 L-7.731656306822934,-25.373551125143628 L-7.8744478396804345,-25.391161783894884 L-8.020057612210286,-25.401796479758026 L-8.167083322704627,-25.405352794798382 L-8.314109033198969,-25.401796479758026 L-8.45971880572882,-25.391161783894884 L-8.60251033858632,-25.37355112514363 L-8.741108471252263,-25.349134103775004 L-8.874178427943624,-25.31814586905249 L-9.000438672234031,-25.280884854616353 L-9.060632279443277,-25.260011924617075 L-9.118673248950095,-25.23770990440456 L-9.174421754975155,-25.214032521498922 L-9.227743494484443,-25.189036816789482 " />
			<path d="M-7.530687219636734,-25.502376597509734 L-7.596129366957347,-25.531580450078785 L-7.667070112986985,-25.55748542020586 L-7.742826259561229,-25.579842028867542 L-7.822668233576047,-25.59843496970105 L-7.9058271131756115,-25.613085182522227 L-7.991502032890112,-25.62365157777298 L-8.078867896408022,-25.630032395290865 L-8.167083322704627,-25.632166184315075 L-8.255298749001232,-25.630032395290865 L-8.342664612519142,-25.62365157777298 L-8.428339532233643,-25.613085182522227 L-8.511498411833209,-25.59843496970105 L-8.591340385848024,-25.579842028867542 L-8.667096532422269,-25.55748542020586 L-8.738037278451909,-25.531580450078785 L-8.803479425772517,-25.502376597509738 " />
			<path d="M-8.803479425772519,-25.502376597509734 L-47.068006794303564,-6.662225695861855 " />
			<path d="M46.775113575490124,1.93226198110825 L46.841017247666315,1.9680636321597311 L46.89947640660613,2.0068734197151734 L46.949928058651935,2.048317584304829 L46.991886326814864,2.0919969959680156 L47.0095508594866,2.1145441956202173 L47.024947130035784,2.137490998092821 L47.03803804749812,2.1607821225287687 L47.04879207470681,2.184361458569232 L47.05718330426836,2.208172201528384 L47.06319152097578,2.2321569892408615 L47.06680225050875,2.256258040252245 L47.06800679430358,2.2804172930196436 " />
			<path d="M-19.018494998195603,8.048654500767645 L-19.017290454400776,8.024495248000244 L-19.0136797248678,8.00039419698886 L-19.007671508160385,7.976409409276384 L-18.99928027859883,7.952598666317232 L-18.988526251390148,7.929019330276768 L-18.975435333927813,7.905728205840821 L-18.960039063378623,7.882781403368217 L-18.94237453070689,7.860234203716015 L-18.90041626254396,7.816554792052829 L-18.849964610498148,7.775110627463173 L-18.79150545155834,7.736300839907731 L-18.725601779382153,7.7004991888562495 " />
			<path d="M19.175321692216794,-10.960625529594559 L-18.72560177938215,7.7004991888562495 " />
			<path d="M19.175321692216798,-10.960625529594559 L19.248035189239697,-10.99307425467128 L19.326858240383743,-11.021857554812474 L19.411031736577346,-11.046698231103232 L19.499745041038253,-11.067357054251575 L19.592143796148882,-11.083635068497326 L19.687338151387216,-11.095375507664828 L19.784411333073784,-11.102465304906923 L19.882428473403344,-11.104836181600493 L19.980445613732904,-11.102465304906923 L20.077518795419472,-11.095375507664828 L20.172713150657806,-11.083635068497326 L20.265111905768435,-11.067357054251575 L20.353825210229342,-11.046698231103232 L20.437998706422945,-11.021857554812474 L20.51682175756699,-10.99307425467128 L20.58953525458989,-10.960625529594559 " />
			<path d="M46.775113575490124,1.9322619811082486 L20.58953525458989,-10.960625529594559 " />
			<path d="M15.993341176877331,-13.223635057018631 L16.05924484905352,-13.18783340596715 L16.11770400799333,-13.149023618411707 L16.16815566003914,-13.107579453822051 L16.21011392820207,-13.063900042158865 L16.227778460873804,-13.041352842506663 L16.243174731422993,-13.01840604003406 L16.25626564888533,-12.995114915598112 L16.267019676094016,-12.97153557955765 L16.275410905655566,-12.947724836598496 L16.28141912236298,-12.92374004888602 L16.285029851895956,-12.899638997874636 L16.286234395690784,-12.875479745107237 " />
			<path d="M15.993341176877331,-13.223635057018628 L2.621951944639717,-19.80725200526312 " />
			<path d="M1.2077383822666223,-19.80725200526312 L1.2804518792895245,-19.839700730339842 L1.3592749304335676,-19.86848403048104 L1.4434484266271723,-19.893324706771793 L1.5321617310880802,-19.913983529920138 L1.6245604861987077,-19.930261544165887 L1.7197548414370416,-19.94200198333339 L1.8168280231236094,-19.949091780575486 L1.91484516345317,-19.951462657269055 L2.0128623037827307,-19.949091780575486 L2.109935485469298,-19.94200198333339 L2.2051298407076323,-19.930261544165887 L2.29752859581826,-19.913983529920138 L2.3862419002791677,-19.893324706771793 L2.470415396472772,-19.86848403048104 L2.5492384476168155,-19.839700730339842 L2.621951944639714,-19.807252005263123 " />
			<path d="M1.2077383822666203,-19.807252005263123 L-36.693185089332324,-1.1461272868123158 " />
			<path d="M-36.98607830814578,-0.7979719749009191 L-36.98487376435095,-0.8221312276683199 L-36.98126303481798,-0.8462322786797035 L-36.97525481811056,-0.8702170663921805 L-36.96686358854901,-0.8940278093513325 L-36.95610956134032,-0.9176071453917961 L-36.943018643877984,-0.9408982698277437 L-36.9276223733288,-0.9638450723003478 L-36.909957840657064,-0.9863922719525493 L-36.867999572494135,-1.0300716836157358 L-36.81754792044833,-1.0715158482053917 L-36.759088761508515,-1.1103256357608338 L-36.693185089332324,-1.1461272868123145 " />
			<path d="M-1.9742421330728428,-22.070261532687194 L-1.9083384608966534,-22.034459881635716 L-1.849879301956845,-21.995650094080272 L-1.7994276499110353,-21.954205929490616 L-1.7574693817481035,-21.91052651782743 L-1.7398048490763696,-21.88797931817523 L-1.7244085785271814,-21.865032515702623 L-1.7113176610648462,-21.841741391266677 L-1.7005636338561598,-21.818162055226214 L-1.6921724042946094,-21.79435131226706 L-1.6861641875871936,-21.770366524554586 L-1.6825534580542179,-21.7462654735432 L-1.6813489142593903,-21.722106220775803 " />
			<path d="M-1.9742421330728441,-22.070261532687194 L-7.45997654151808,-24.771250442495802 " />
			<path d="M-8.874190103891173,-24.771250442495802 L-8.80147660686827,-24.803699167572525 L-8.722653555724229,-24.83248246771372 L-8.638480059530623,-24.857323144004475 L-8.549766755069715,-24.87798196715282 L-8.457367999959088,-24.89425998139857 L-8.362173644720754,-24.906000420566073 L-8.265100463034186,-24.91309021780817 L-8.167083322704626,-24.915461094501737 L-8.069066182375066,-24.91309021780817 L-7.971993000688498,-24.906000420566073 L-7.8767986454501635,-24.89425998139857 L-7.784399890339536,-24.87798196715282 L-7.695686585878628,-24.857323144004475 L-7.611513089685023,-24.83248246771372 L-7.53269003854098,-24.803699167572525 L-7.459976541518081,-24.771250442495806 " />
			<path d="M-8.874190103891175,-24.771250442495806 L-46.775113575490124,-6.110125724044996 " />
			<path d="M-47.06800679430357,-5.761970412133602 L-47.066802250508744,-5.786129664901003 L-47.06319152097577,-5.810230715912386 L-47.05718330426835,-5.834215503624863 L-47.0487920747068,-5.858026246584015 L-47.03803804749811,-5.881605582624479 L-47.02494713003578,-5.904896707060426 L-47.009550859486595,-5.92784350953303 L-46.99188632681486,-5.950390709185232 L-46.94992805865193,-5.994070120848418 L-46.89947640660612,-6.035514285438074 L-46.84101724766631,-6.074324072993516 L-46.77511357549012,-6.110125724044997 " />
			<path d="M-48.6843018846938,-5.761970412133602 L-48.731986913624624,-5.737385467882488 L-48.7773236830297,-5.71174615292523 L-48.820216137546,-5.685106789476189 L-48.86057340059927,-5.657523818560186 " />
			<path d="M-9.22774349448445,-25.18903681678948 L-48.6843018846938,-5.761970412133598 " />
			<path d="M46.89262791942711,0.6963106238227954 L46.83712810771406,0.6601624009127645 L46.775113575490124,0.6266795614405167 " />
			<path d="M-18.72560177938215,6.394916769188516 L-18.787616311606087,6.428399608660763 L-18.84311612331913,6.464547831570793 " />
			<path d="M19.175321692216794,-12.266207949262293 L-18.725601779382153,6.394916769188514 " />
			<path d="M20.58953525458989,-12.266207949262293 L20.51682175756699,-12.298656674339014 L20.437998706422945,-12.327439974480209 L20.353825210229342,-12.352280650770966 L20.265111905768435,-12.37293947391931 L20.172713150657806,-12.38921748816506 L20.077518795419472,-12.400957927332563 L19.980445613732904,-12.408047724574658 L19.882428473403344,-12.410418601268228 L19.784411333073784,-12.408047724574658 L19.687338151387216,-12.400957927332563 L19.592143796148882,-12.38921748816506 L19.499745041038253,-12.37293947391931 L19.411031736577346,-12.352280650770966 L19.326858240383743,-12.327439974480209 L19.248035189239697,-12.298656674339014 L19.175321692216798,-12.266207949262293 " />
			<path d="M46.775113575490124,0.6266795614405161 L20.589535254589894,-12.266207949262292 " />
			<path d="M16.110855520814315,-14.459586414304086 L16.055355709101267,-14.495734637214117 L15.993341176877331,-14.529217476686364 " />
			<path d="M15.993341176877331,-14.529217476686364 L2.621951944639717,-21.112834424930856 " />
			<path d="M2.6219519446397177,-21.112834424930856 L2.5492384476168155,-21.14528315000758 L2.4704153964727724,-21.174066450148775 L2.3862419002791677,-21.19890712643953 L2.29752859581826,-21.219565949587874 L2.2051298407076323,-21.235843963833624 L2.109935485469298,-21.247584403001127 L2.0128623037827307,-21.254674200243223 L1.91484516345317,-21.25704507693679 L1.8168280231236094,-21.254674200243223 L1.7197548414370418,-21.247584403001127 L1.6245604861987077,-21.235843963833624 L1.5321617310880802,-21.219565949587874 L1.4434484266271723,-21.19890712643953 L1.359274930433568,-21.174066450148775 L1.2804518792895245,-21.14528315000758 L1.2077383822666257,-21.11283442493086 " />
			<path d="M1.2077383822666203,-21.11283442493086 L-36.693185089332324,-2.451709706480052 " />
			<path d="M-36.693185089332324,-2.451709706480049 L-36.75519962155626,-2.418226867007801 L-36.810699433269306,-2.3820786440977715 " />
			<path d="M-1.8567277891358582,-23.306212889972652 L-1.912227600848908,-23.342361112882685 L-1.974242133072842,-23.37584395235493 " />
			<path d="M-1.9742421330728428,-23.37584395235493 L-7.459976541518079,-26.07683286216354 " />
			<path d="M-7.459976541518078,-26.07683286216354 L-7.53269003854098,-26.10928158724026 L-7.611513089685023,-26.138064887381457 L-7.695686585878628,-26.16290556367221 L-7.784399890339536,-26.183564386820557 L-7.8767986454501635,-26.199842401066306 L-7.971993000688498,-26.21158284023381 L-8.069066182375066,-26.218672637475905 L-8.167083322704626,-26.221043514169473 L-8.265100463034186,-26.218672637475905 L-8.362173644720754,-26.21158284023381 L-8.457367999959088,-26.199842401066306 L-8.549766755069715,-26.183564386820557 L-8.638480059530623,-26.16290556367221 L-8.722653555724227,-26.138064887381457 L-8.80147660686827,-26.10928158724026 L-8.87419010389117,-26.076832862163542 " />
			<path d="M-8.874190103891175,-26.07683286216354 L-46.775113575490124,-7.415708143712731 " />
			<path d="M-46.77511357549012,-7.415708143712731 L-46.83712810771405,-7.3822253042404835 L-46.8926279194271,-7.346077081330454 " />

       </g>

       <!-- solid lines -->
       <g  stroke="rgb(0,0,0)" fill="none">
			<path d="M48.6843018846938,3.3248832287538317 L48.73506840094642,3.298629419082589 L48.78315739295809,3.2711807521766096 L48.82845301013495,3.2426033542786885 L48.8708461313678,3.212966070843447 L48.910234627914384,3.1823403006825988 L48.94652360943651,3.1507998239589634 L48.97962565259915,3.118420624443586 L49.00946101168091,3.0852807064641836 L49.03595781068851,3.0514599069858814 L49.05905221651229,3.017039703276976 L49.078688592705795,2.9821030166230544 L49.094819633518824,2.9467340125623585 L49.107406477861154,2.91101789812363 L49.116418802922276,2.8750407165549143 L49.12183489722174,2.838889140037839 L49.12364171291398,2.8026502608867445 " />
			<path d="M49.12364171291398,2.802650260886738 L49.12258270085517,2.77490285185716 L49.11940716002078,2.7471946226152664 L49.114119574325535,2.719564697626251 L49.10672740992545,2.692052090788444 L49.09724110467551,2.664695650345059 L49.08567405339126,2.6375340040298516 L49.05636595915398,2.5839481753021762 L49.018968602780596,2.5315971539735154 L48.97369313238262,2.480776517602309 L48.92079517645893,2.4317732030855965 L48.86057340059928,2.3848638865930627 " />
			<path d="M49.12364171291398,4.021193852576623 L49.12183489722174,4.057432731727724 L49.116418802922276,4.093584308244799 L49.10740647786115,4.129561489813515 L49.094819633518824,4.1652776042522435 L49.078688592705795,4.200646608312939 L49.05905221651229,4.23558329496686 L49.03595781068851,4.270003498675766 L49.00946101168091,4.303824298154068 L48.97962565259915,4.336964216133471 L48.94652360943651,4.3693434156488475 L48.910234627914384,4.400883892372484 L48.8708461313678,4.4315096625333315 L48.82845301013495,4.461146945968573 L48.78315739295809,4.489724343866494 L48.73506840094642,4.517173010772474 L48.68430188469381,4.543426820443714 " />
			<path d="M48.260037815981875,1.9670775122993882 L47.06800679430358,1.3801620092913929 " />
			<path d="M19.175321692216798,-12.353246777240141 L16.286234395690787,-13.775735028835486 " />
			<path d="M1.2077383822666237,-21.199873252908706 L-1.6813489142593867,-22.62236150450405 " />
			<path d="M48.6843018846938,4.543426820443714 L9.227743494484448,23.970493225099595 " />
			<path d="M9.227743494484448,23.970493225099595 L9.174421754975155,23.99548892980904 L9.118673248950095,24.019166312714678 L9.060632279443277,24.04146833292719 L9.000438672234031,24.06234126292647 L8.874178427943624,24.099602277362607 L8.741108471252263,24.13059051208512 L8.602510338586322,24.155007533453745 L8.459718805728821,24.172618192205 L8.314109033198967,24.183252888068143 L8.167083322704627,24.1868092031085 L8.020057612210287,24.183252888068143 L7.8744478396804345,24.172618192205 L7.7316563068229325,24.155007533453745 L7.593058174156992,24.13059051208512 L7.4599882174656305,24.099602277362607 L7.3337279731752245,24.06234126292647 L7.273534365965978,24.04146833292719 L7.21549339645916,24.019166312714678 L7.159744890434101,23.99548892980904 L7.106423150924815,23.9704932250996 " />
			<path d="M7.106423150924804,23.970493225099595 L-48.6843018846938,-3.4989608847095277 " />
			<path d="M-48.6843018846938,-3.498960884709529 L-48.73506840094642,-3.5252146943807716 L-48.78315739295809,-3.552663361286751 L-48.82845301013495,-3.581240759184672 L-48.8708461313678,-3.610878042619914 L-48.910234627914384,-3.641503812780762 L-48.94652360943651,-3.6730442895043973 L-48.97962565259915,-3.7054234890197746 L-49.00946101168091,-3.738563406999177 L-49.03595781068851,-3.7723842064774793 L-49.05905221651229,-3.806804410186385 L-49.078688592705795,-3.8417410968403063 L-49.094819633518824,-3.8771101009010023 L-49.107406477861154,-3.912826215339731 L-49.116418802922276,-3.9488033969084464 L-49.12183489722174,-3.9849549734255216 L-49.12364171291398,-4.021193852576616 " />
			<path d="M48.260037815981875,2.5937570737399 L48.3127344453722,2.5654590044056853 L48.36025849353219,2.5350213080855393 L48.40225322763343,2.502672461222857 L48.438403419894286,2.4686552860536333 L48.46843771379458,2.433225127894256 L48.49213066097652,2.39664793842648 L48.50930441354228,2.359198279367165 L48.5198300590451,2.321157261507947 L48.52362858815315,2.282810434595172 L48.52067148772235,2.2444456438894087 L48.51098095482642,2.206350869494007 L48.49462973013757,2.168812064671466 L48.47174055190846,2.132111009374015 L48.44248523465422,2.0965231951005827 L48.407083379449965,2.062315756957183 L48.36580072552516,2.029745468443442 " />
			<path d="M48.365800725525155,2.0297454684434384 L48.31585089498341,1.997212067824411 L48.260037815981875,1.9670775122993882 " />
			<path d="M9.227743494484452,22.75194963340971 L48.68430188469381,3.3248832287538286 " />
			<path d="M8.80347942577252,22.02082347839578 L48.260037815981875,2.5937570737399 " />
			<path d="M-47.068006794303564,-6.662225695861855 L-48.260037815981875,-6.075310192853854 " />
			<path d="M7.530687219636734,22.02082347839578 L7.596129366957347,22.05002733096483 L7.667070112986986,22.075932301091907 L7.742826259561229,22.098288909753588 L7.822668233576046,22.116881850587095 L7.905827113175611,22.131532063408272 L7.991502032890112,22.142098458659024 L8.078867896408022,22.14847927617691 L8.167083322704627,22.15061306520112 L8.25529874900123,22.14847927617691 L8.342664612519142,22.142098458659024 L8.428339532233643,22.131532063408272 L8.511498411833209,22.116881850587095 L8.591340385848024,22.098288909753588 L8.667096532422269,22.075932301091907 L8.738037278451907,22.05002733096483 L8.803479425772515,22.020823478395783 " />
			<path d="M-48.260037815981875,-6.075310192853858 L-48.31585089498341,-6.045175637328835 L-48.365800725525155,-6.012642236709809 " />
			<path d="M-48.365800725525155,-6.012642236709807 L-48.407083379449965,-5.980071948196063 L-48.442485234654214,-5.9458645100526635 L-48.47174055190846,-5.91027669577923 L-48.49462973013757,-5.87357564048178 L-48.51098095482642,-5.836036835659239 L-48.52067148772235,-5.797942061263837 L-48.52362858815315,-5.759577270558074 L-48.5198300590451,-5.7212304436452985 L-48.50930441354228,-5.683189425786081 L-48.49213066097652,-5.645739766726766 L-48.46843771379458,-5.60916257725899 L-48.438403419894286,-5.5737324190996125 L-48.40225322763343,-5.539715243930389 L-48.36025849353219,-5.507366397067706 L-48.3127344453722,-5.47692870074756 L-48.260037815981875,-5.448630631413347 " />
			<path d="M-48.260037815981875,-5.448630631413345 L7.530687219636731,22.020823478395776 " />
			<path d="M47.06800679430358,2.280417293019646 L47.06680225050875,2.3045765457870466 L47.06319152097578,2.32867759679843 L47.05718330426836,2.3526623845109076 L47.04879207470681,2.3764731274700592 L47.03803804749812,2.400052463510523 L47.024947130035784,2.42334358794647 L47.0095508594866,2.4462903904190743 L46.991886326814864,2.468837590071276 L46.949928058651935,2.5125170017344627 L46.89947640660613,2.553961166324118 L46.841017247666315,2.5927709538795605 L46.77511357549013,2.62857260493104 " />
			<path d="M46.775113575490124,2.6285726049310423 L8.874190103891179,21.28969732338185 " />
			<path d="M8.87419010389118,21.28969732338185 L8.801476606868277,21.322146048458574 L8.722653555724236,21.35092934859977 L8.63848005953063,21.375770024890524 L8.549766755069722,21.39642884803887 L8.457367999959096,21.41270686228462 L8.36217364472076,21.424447301452123 L8.265100463034193,21.431537098694218 L8.167083322704633,21.433907975387786 L8.069066182375073,21.431537098694218 L7.971993000688505,21.424447301452123 L7.87679864545017,21.41270686228462 L7.784399890339543,21.39642884803887 L7.695686585878635,21.375770024890524 L7.6115130896850305,21.35092934859977 L7.532690038540988,21.322146048458574 L7.459976541518092,21.289697323381855 " />
			<path d="M7.459976541518083,21.289697323381848 L-18.72560177938215,8.39680981267904 " />
			<path d="M-18.72560177938215,8.396809812679042 L-18.79150545155834,8.36100816162756 L-18.849964610498148,8.322198374072117 L-18.900416262543956,8.280754209482462 L-18.94237453070689,8.237074797819275 L-18.960039063378623,8.214527598167074 L-18.975435333927813,8.19158079569447 L-18.988526251390148,8.168289671258522 L-18.99928027859883,8.14471033521806 L-19.007671508160385,8.120899592258906 L-19.0136797248678,8.09691480454643 L-19.017290454400776,8.072813753535046 L-19.018494998195603,8.04865450076765 " />
			<path d="M16.286234395690784,-12.875479745107235 L16.285029851895956,-12.851320492339834 L16.28141912236298,-12.82721944132845 L16.275410905655566,-12.803234653615974 L16.267019676094016,-12.77942391065682 L16.25626564888533,-12.755844574616358 L16.243174731422993,-12.73255345018041 L16.227778460873804,-12.709606647707806 L16.21011392820207,-12.687059448055605 L16.16815566003914,-12.643380036392418 L16.11770400799333,-12.601935871802763 L16.05924484905352,-12.56312608424732 L15.993341176877335,-12.52732443319584 " />
			<path d="M15.993341176877331,-12.527324433195838 L-21.907582294721614,6.133800285254969 " />
			<path d="M-21.907582294721614,6.133800285254969 L-21.980295791744513,6.166249010331691 L-22.05911884288856,6.195032310472886 L-22.143292339082162,6.219872986763642 L-22.23200564354307,6.240531809911986 L-22.324404398653698,6.256809824157736 L-22.419598753892032,6.268550263325239 L-22.5166719355786,6.275640060567335 L-22.61468907590816,6.2780109372609045 L-22.71270621623772,6.275640060567335 L-22.809779397924288,6.268550263325239 L-22.904973753162622,6.256809824157736 L-22.99737250827325,6.240531809911986 L-23.086085812734158,6.219872986763642 L-23.17025930892776,6.195032310472886 L-23.249082360071807,6.166249010331691 L-23.321795857094703,6.1338002852549725 " />
			<path d="M-23.321795857094706,6.133800285254969 L-36.693185089332324,-0.4498166629895244 " />
			<path d="M-36.693185089332324,-0.4498166629895233 L-36.759088761508515,-0.4856183140410046 L-36.81754792044833,-0.5244281015964465 L-36.867999572494135,-0.5658722661861022 L-36.909957840657064,-0.6095516778492887 L-36.9276223733288,-0.63209887750149 L-36.943018643877984,-0.6550456799740939 L-36.95610956134032,-0.6783368044100415 L-36.96686358854901,-0.7019161404505053 L-36.97525481811056,-0.7257268834096577 L-36.98126303481798,-0.7497116711221348 L-36.98487376435095,-0.7738127221335183 L-36.98607830814578,-0.7979719749009146 " />
			<path d="M-1.6813489142593903,-21.7221062207758 L-1.6825534580542179,-21.6979469680084 L-1.6861641875871933,-21.673845916997013 L-1.6921724042946094,-21.649861129284538 L-1.7005636338561598,-21.626050386325385 L-1.7113176610648462,-21.602471050284922 L-1.7244085785271812,-21.579179925848976 L-1.7398048490763693,-21.55623312337637 L-1.7574693817481033,-21.53368592372417 L-1.7994276499110353,-21.490006512060983 L-1.849879301956845,-21.448562347471327 L-1.9083384608966532,-21.409752559915884 L-1.9742421330728395,-21.373950908864405 " />
			<path d="M-1.9742421330728444,-21.373950908864405 L-39.87516560467179,-2.7128261904135975 " />
			<path d="M-39.87516560467179,-2.712826190413598 L-39.947879101694696,-2.6803774653368766 L-40.02670215283874,-2.6515941651956814 L-40.11087564903234,-2.6267534889049244 L-40.19958895349325,-2.6060946657565807 L-40.29198770860388,-2.58981665151083 L-40.38718206384221,-2.578076212343327 L-40.48425524552878,-2.5709864151012316 L-40.58227238585834,-2.5686155384076628 L-40.6802895261879,-2.5709864151012316 L-40.77736270787447,-2.578076212343327 L-40.8725570631128,-2.58981665151083 L-40.96495581822343,-2.6060946657565807 L-41.05366912268433,-2.6267534889049244 L-41.13784261887794,-2.6515941651956814 L-41.21666567002198,-2.680377465336876 L-41.28937916704488,-2.712826190413595 " />
			<path d="M-41.289379167044885,-2.7128261904135975 L-46.775113575490124,-5.413815100222205 " />
			<path d="M-46.77511357549012,-5.413815100222206 L-46.84101724766631,-5.4496167512736875 L-46.89947640660612,-5.488426538829129 L-46.94992805865193,-5.529870703418785 L-46.99188632681486,-5.5735501150819715 L-47.009550859486595,-5.596097314734172 L-47.02494713003578,-5.619044117206776 L-47.03803804749811,-5.642335241642724 L-47.0487920747068,-5.665914577683188 L-47.05718330426835,-5.68972532064234 L-47.06319152097577,-5.713710108354817 L-47.066802250508744,-5.737811159366201 L-47.06800679430357,-5.761970412133597 " />
			<path d="M7.106423150924806,22.751949633409712 L7.1597448904341,22.776945338119155 L7.215493396459159,22.800622721024794 L7.273534365965977,22.82292474123731 L7.333727973175224,22.843797671236587 L7.4599882174656305,22.881058685672723 L7.593058174156992,22.912046920395237 L7.7316563068229325,22.93646394176386 L7.8744478396804345,22.954074600515117 L8.020057612210287,22.96470929637826 L8.167083322704627,22.968265611418616 L8.314109033198967,22.96470929637826 L8.45971880572882,22.954074600515117 L8.602510338586322,22.93646394176386 L8.741108471252263,22.912046920395237 L8.874178427943624,22.881058685672723 L9.00043867223403,22.843797671236587 L9.060632279443277,22.82292474123731 L9.118673248950095,22.800622721024794 L9.174421754975153,22.776945338119155 L9.22774349448444,22.751949633409716 " />
			<path d="M-48.6843018846938,-4.717504476399414 L7.106423150924804,22.75194963340971 " />
			<path d="M-48.86057340059928,-5.6575238185601835 L-48.92079517645893,-5.61061450206765 L-48.97369313238262,-5.561611187550937 L-49.018968602780596,-5.51079055117973 L-49.05636595915398,-5.45843952985107 L-49.08567405339126,-5.404853701123394 L-49.09724110467551,-5.377692054808186 L-49.10672740992545,-5.350335614364802 L-49.114119574325535,-5.322823007526995 L-49.11940716002078,-5.295193082537979 L-49.12258270085517,-5.267484853296086 L-49.12364171291398,-5.2397374442665114 " />
			<path d="M-49.12364171291398,-5.239737444266508 L-49.12183489722174,-5.203498565115407 L-49.116418802922276,-5.167346988598331 L-49.10740647786115,-5.131369807029616 L-49.094819633518824,-5.095653692590887 L-49.078688592705795,-5.060284688530192 L-49.05905221651229,-5.025348001876271 L-49.03595781068851,-4.990927798167365 L-49.00946101168091,-4.957106998689063 L-48.97962565259915,-4.92396708070966 L-48.94652360943651,-4.891587881194283 L-48.910234627914384,-4.860047404470647 L-48.8708461313678,-4.829421634309799 L-48.82845301013495,-4.799784350874558 L-48.78315739295809,-4.7712069529766366 L-48.73506840094642,-4.743758286070657 L-48.68430188469381,-4.717504476399417 " />
			<path d="M46.775113575490124,1.322990185263308 L46.841017247666315,1.2871885342118266 L46.89947640660613,1.2483787466563847 L46.949928058651935,1.206934582066729 L46.991886326814864,1.1632551704035425 L47.0095508594866,1.1407079707513412 L47.024947130035784,1.1177611682787374 L47.03803804749812,1.0944700438427897 L47.04879207470681,1.0708907078023258 L47.05718330426836,1.0470799648431734 L47.06319152097578,1.0230951771306964 L47.06680225050875,0.9989941261193129 L47.06800679430358,0.9748348733519165 " />
			<path d="M47.06800679430358,0.9748348733519121 L47.065183759041446,0.9378644478375979 L47.056730592311226,0.9011027599530497 L47.04269502128843,0.8647573687806548 L47.02315629179691,0.8290334829622046 L46.998224720881325,0.794132802076431 L46.96804107394934,0.76025237782896 L46.93277577000021,0.727583501484485 L46.89262791942711,0.6963106238227958 " />
			<path d="M8.874190103891179,19.984114903714115 L46.775113575490124,1.3229901852633075 " />
			<path d="M7.459976541518085,19.984114903714115 L7.532690038540988,20.016563628790838 L7.6115130896850305,20.045346928932034 L7.695686585878635,20.070187605222788 L7.784399890339542,20.090846428371133 L7.87679864545017,20.107124442616882 L7.971993000688504,20.118864881784386 L8.069066182375073,20.12595467902648 L8.167083322704633,20.12832555572005 L8.265100463034193,20.12595467902648 L8.36217364472076,20.118864881784386 L8.457367999959096,20.107124442616882 L8.549766755069722,20.090846428371133 L8.63848005953063,20.070187605222788 L8.722653555724234,20.045346928932034 L8.801476606868277,20.016563628790838 L8.874190103891173,19.98411490371412 " />
			<path d="M-18.72560177938215,7.091227393011305 L7.459976541518083,19.98411490371411 " />
			<path d="M-18.843116123319135,6.464547831570795 L-18.88326397389224,6.4958207092324844 L-18.918529277841362,6.528489585576959 L-18.948712924773346,6.562370009824431 L-18.973644495688937,6.597270690710204 L-18.99318322518046,6.632994576528654 L-19.00721879620325,6.669339967701049 L-19.015671962933467,6.706101655585598 L-19.018494998195603,6.743072081099909 " />
			<path d="M-19.018494998195603,6.743072081099911 L-19.017290454400776,6.767231333867312 L-19.0136797248678,6.791332384878696 L-19.007671508160385,6.815317172591173 L-18.99928027859883,6.839127915550325 L-18.988526251390148,6.8627072515907885 L-18.975435333927813,6.885998376026736 L-18.960039063378623,6.90894517849934 L-18.94237453070689,6.931492378151542 L-18.90041626254396,6.975171789814728 L-18.849964610498148,7.016615954404384 L-18.79150545155834,7.055425741959826 L-18.725601779382153,7.091227393011305 " />
			<path d="M15.993341176877331,-13.832906852863573 L16.05924484905352,-13.868708503915055 L16.11770400799333,-13.907518291470497 L16.168155660039137,-13.948962456060153 L16.21011392820207,-13.99264186772334 L16.227778460873804,-14.015189067375541 L16.243174731422993,-14.038135869848144 L16.25626564888533,-14.061426994284092 L16.267019676094012,-14.085006330324555 L16.275410905655566,-14.108817073283708 L16.28141912236298,-14.132801860996185 L16.285029851895956,-14.156902912007569 L16.286234395690784,-14.181062164774964 " />
			<path d="M16.286234395690784,-14.18106216477497 L16.28341136042865,-14.218032590289283 L16.27495819369843,-14.254794278173831 L16.26092262267564,-14.291139669346228 L16.241383893184118,-14.326863555164676 L16.216452322268527,-14.361764236050451 L16.186268675336542,-14.395644660297922 L16.15100337138742,-14.428313536642397 L16.110855520814315,-14.459586414304086 " />
			<path d="M-21.907582294721614,4.828217865587235 L15.993341176877331,-13.832906852863573 " />
			<path d="M-23.321795857094706,4.828217865587235 L-23.249082360071807,4.860666590663957 L-23.17025930892776,4.889449890805151 L-23.086085812734158,4.914290567095908 L-22.99737250827325,4.9349493902442525 L-22.904973753162622,4.951227404490003 L-22.809779397924288,4.9629678436575055 L-22.71270621623772,4.970057640899602 L-22.61468907590816,4.972428517593171 L-22.5166719355786,4.970057640899602 L-22.419598753892032,4.9629678436575055 L-22.324404398653698,4.951227404490003 L-22.23200564354307,4.9349493902442525 L-22.143292339082162,4.914290567095909 L-22.05911884288856,4.889449890805152 L-21.980295791744513,4.860666590663957 L-21.907582294721617,4.828217865587239 " />
			<path d="M-36.693185089332324,-1.755399082657256 L-23.321795857094706,4.828217865587237 " />
			<path d="M-36.81069943326931,-2.3820786440977697 L-36.85084728384241,-2.35080576643608 L-36.88611258779154,-2.3181368900916053 L-36.916296234723525,-2.2842564658441344 L-36.94122780563911,-2.249355784958361 L-36.96076653513063,-2.213631899139911 L-36.974802106153426,-2.1772865079675157 L-36.983255272883646,-2.1405248200829674 L-36.98607830814578,-2.1035543945686555 " />
			<path d="M-36.98607830814578,-2.1035543945686532 L-36.98487376435095,-2.0793951418012524 L-36.98126303481798,-2.055294090789869 L-36.97525481811056,-2.0313093030773914 L-36.96686358854901,-2.00749856011824 L-36.95610956134032,-1.9839192240777763 L-36.943018643877984,-1.9606280996418286 L-36.9276223733288,-1.9376812971692248 L-36.909957840657064,-1.915134097517023 L-36.867999572494135,-1.8714546858538366 L-36.81754792044833,-1.8300105212641808 L-36.759088761508515,-1.7912007337087388 L-36.69318508933233,-1.7553990826572592 " />
			<path d="M-1.9742421330728428,-22.67953332853214 L-1.908338460896653,-22.71533497958362 L-1.849879301956845,-22.754144767139064 L-1.7994276499110353,-22.79558893172872 L-1.7574693817481037,-22.839268343391904 L-1.7398048490763698,-22.861815543044106 L-1.7244085785271817,-22.884762345516712 L-1.7113176610648466,-22.90805346995266 L-1.7005636338561598,-22.93163280599312 L-1.6921724042946091,-22.955443548952275 L-1.6861641875871933,-22.97942833666475 L-1.6825534580542179,-23.003529387676135 L-1.6813489142593903,-23.027688640443532 " />
			<path d="M-1.6813489142593903,-23.027688640443536 L-1.6841719495215242,-23.06465906595785 L-1.6926251162517434,-23.101420753842397 L-1.7066606872745353,-23.137766145014794 L-1.7261994167660575,-23.173490030833243 L-1.7511309876816459,-23.208390711719016 L-1.7813146346136304,-23.242271135966487 L-1.8165799385627532,-23.274940012310964 L-1.8567277891358576,-23.306212889972652 " />
			<path d="M-39.87516560467179,-4.018408610081331 L-1.9742421330728468,-22.679533328532138 " />
			<path d="M-41.289379167044885,-4.018408610081332 L-41.21666567002198,-3.9859598850046103 L-41.13784261887794,-3.9571765848634155 L-41.05366912268434,-3.9323359085726586 L-40.96495581822343,-3.911677085424315 L-40.8725570631128,-3.895399071178564 L-40.77736270787447,-3.8836586320110613 L-40.6802895261879,-3.8765688347689657 L-40.58227238585834,-3.8741979580753965 L-40.48425524552878,-3.8765688347689657 L-40.38718206384221,-3.8836586320110613 L-40.29198770860388,-3.895399071178564 L-40.19958895349325,-3.911677085424315 L-40.110875649032344,-3.9323359085726586 L-40.02670215283874,-3.9571765848634155 L-39.947879101694696,-3.985959885004611 L-39.8751656046718,-4.018408610081329 " />
			<path d="M-46.77511357549012,-6.71939751988994 L-41.28937916704488,-4.018408610081332 " />
			<path d="M-46.892627919427106,-7.346077081330452 L-46.932775770000205,-7.314804203668762 L-46.96804107394933,-7.282135327324288 L-46.99822472088132,-7.248254903076816 L-47.0231562917969,-7.213354222191043 L-47.042695021288424,-7.177630336372593 L-47.05673059231122,-7.141284945200198 L-47.06518375904144,-7.104523257315649 L-47.06800679430357,-7.067552831801338 " />
			<path d="M-47.06800679430357,-7.067552831801335 L-47.066802250508744,-7.043393579033935 L-47.06319152097577,-7.019292528022551 L-47.05718330426835,-6.995307740310074 L-47.0487920747068,-6.971496997350922 L-47.03803804749811,-6.947917661310458 L-47.02494713003578,-6.924626536874511 L-47.009550859486595,-6.901679734401907 L-46.99188632681486,-6.879132534749705 L-46.94992805865193,-6.835453123086519 L-46.89947640660612,-6.794008958496863 L-46.84101724766631,-6.755199170941421 L-46.775113575490124,-6.719397519889942 " />
			<path d="M46.421560184896855,0.7137183894183653 L46.4508360901137,0.6979972397882458 L46.47723833909147,0.681087408499276 L46.500568746925495,0.6631158269088966 L46.52065218707041,0.6442173962593282 L46.53733790590391,0.6245339750596739 L46.55050065433832,0.6042133142442428 L46.56004162798597,0.583407948100179 L46.56588920882087,0.5622740492895025 L46.56799950276979,0.5409702565601829 L46.56635666919712,0.5196564839458703 L46.56097303981049,0.4984927203928691 L46.55188902609446,0.4776378288247908 L46.53917281596718,0.45724835365954064 L46.52291986193704,0.43747734572985575 L46.50325216460135,0.41847321342796695 L46.48031735686535,0.4003786086981109 " />
			<path d="M46.48031735686534,0.40037860869810904 L46.45256745100882,0.38230449724309357 L46.421560184896855,0.3655630775069697 " />
			<path d="M8.520636713297906,19.37484310786917 L46.421560184896855,0.7137183894183641 " />
			<path d="M7.813529932111359,19.374843107869175 L7.84988668062281,19.391067470407535 L7.889298206194832,19.40545912047813 L7.931384954291634,19.41787945862351 L7.975741606522088,19.428208870197683 L8.021940984077402,19.436347877320557 L8.069538161696569,19.44221809690431 L8.118074752539853,19.445762995525357 L8.167083322704633,19.44694843387214 L8.216091892869413,19.445762995525357 L8.264628483712697,19.44221809690431 L8.312225661331864,19.436347877320557 L8.358425038887178,19.428208870197683 L8.402781691117632,19.41787945862351 L8.444868439214433,19.40545912047813 L8.484279964786456,19.391067470407535 L8.520636713297904,19.374843107869175 " />
			<path d="M-18.372048388788876,6.481955597166363 L7.813529932111356,19.37484310786917 " />
			<path d="M-18.372048388788876,6.133800285254968 L-18.403055654900843,6.150541704991093 L-18.430805560757367,6.168615816446107 " />
			<path d="M-18.43080556075737,6.168615816446108 L-18.45374036849337,6.186710421175966 L-18.47340806582907,6.205714553477854 L-18.489661019859206,6.225485561407539 L-18.502377229986482,6.24587503657279 L-18.511461243702517,6.266729928140868 L-18.516844873089145,6.287893691693869 L-18.518487706661812,6.309207464308182 L-18.51637741271289,6.330511257037501 L-18.510529831877992,6.3516451558481775 L-18.50098885823035,6.372450521992242 L-18.487826109795936,6.392771182807673 L-18.47114039096244,6.412454604007327 L-18.45105695081752,6.431353034656896 L-18.4277265429835,6.449324616247274 L-18.401324294005725,6.4662344475362445 L-18.37204838878888,6.481955597166364 " />
			<path d="M19.52887508281007,-12.52732443319584 L-18.372048388788876,6.133800285254967 " />
			<path d="M20.235981863996617,-12.527324433195838 L20.199625115485166,-12.5435487957342 L20.160213589913145,-12.557940445804798 L20.11812684181634,-12.570360783950175 L20.07377018958589,-12.580690195524348 L20.027570812030575,-12.588829202647222 L19.979973634411408,-12.594699422230974 L19.931437043568124,-12.598244320852022 L19.882428473403344,-12.599429759198806 L19.833419903238564,-12.598244320852022 L19.78488331239528,-12.594699422230974 L19.737286134776113,-12.588829202647222 L19.6910867572208,-12.580690195524348 L19.646730104990347,-12.570360783950175 L19.604643356893543,-12.557940445804798 L19.565231831321523,-12.5435487957342 L19.52887508281007,-12.52732443319584 " />
			<path d="M46.421560184896855,0.36556307750696915 L20.235981863996624,-12.527324433195838 " />
			<path d="M15.639787786284057,-14.442178648708516 L15.669063691500904,-14.457899798338635 L15.69546594047868,-14.474809629627606 L15.7187963483127,-14.492781211217984 L15.73887978845762,-14.511679641867554 L15.755565507291115,-14.531363063067207 L15.768728255725529,-14.551683723882638 L15.778269229373171,-14.572489090026702 L15.784116810208074,-14.593622988837378 L15.78622710415699,-14.614926781566698 L15.784584270584325,-14.636240554181011 L15.779200641197697,-14.657404317734011 L15.770116627481665,-14.678259209302091 L15.757400417354386,-14.69864868446734 L15.74114746332425,-14.718419692397026 L15.721479765988553,-14.737423824698915 L15.698544958252553,-14.75551842942877 " />
			<path d="M15.69854495825255,-14.755518429428772 L15.670795052396025,-14.773592540883788 L15.639787786284058,-14.790333960619911 " />
			<path d="M15.639787786284058,-14.790333960619911 L2.2683985540464437,-21.373950908864405 " />
			<path d="M-22.261135685314887,4.218946069742293 L15.639787786284058,-14.442178648708515 " />
			<path d="M2.2683985540464437,-21.373950908864405 L2.2320418055349927,-21.390175271402764 L2.1926302799629713,-21.40456692147336 L2.1505435318661688,-21.41698725961874 L2.106186879635715,-21.427316671192912 L2.0599875020804013,-21.435455678315787 L2.0123903244612342,-21.44132589789954 L1.9638537336179505,-21.444870796520586 L1.91484516345317,-21.44605623486737 L1.8658365932883898,-21.444870796520586 L1.8173000024451058,-21.44132589789954 L1.769702824825939,-21.435455678315787 L1.7235034472706252,-21.427316671192912 L1.6791467950401713,-21.41698725961874 L1.6370600469433692,-21.40456692147336 L1.5976485213713474,-21.390175271402764 L1.5612917728598978,-21.373950908864405 " />
			<path d="M-22.968242466501433,4.218946069742294 L-22.93188571798998,4.235170432280654 L-22.89247419241796,4.249562082351251 L-22.850387444321157,4.26198242049663 L-22.806030792090706,4.272311832070802 L-22.75983141453539,4.280450839193677 L-22.712234236916224,4.286321058777428 L-22.66369764607294,4.289865957398476 L-22.61468907590816,4.291051395745261 L-22.56568050574338,4.289865957398476 L-22.517143914900096,4.286321058777428 L-22.46954673728093,4.280450839193677 L-22.423347359725614,4.272311832070802 L-22.378990707495163,4.26198242049663 L-22.33690395939836,4.249562082351251 L-22.29749243382634,4.235170432280654 L-22.26113568531489,4.2189460697422945 " />
			<path d="M1.561291772859897,-21.373950908864405 L-36.33963169873905,-2.712826190413597 " />
			<path d="M-36.33963169873905,-2.364670878502199 L-22.96824246650143,4.2189460697422945 " />
			<path d="M-36.339631698739055,-2.7128261904135953 L-36.37063896485102,-2.696084770677471 L-36.39838887070754,-2.6780106592224566 " />
			<path d="M-36.39838887070754,-2.6780106592224557 L-36.42132367844355,-2.659916054492598 L-36.44099137577924,-2.640911922190709 L-36.45724432980938,-2.6211409142610242 L-36.46996053993666,-2.600751439095774 L-36.47904455365269,-2.579896547527696 L-36.48442818303932,-2.5587327839746945 L-36.48607101661199,-2.537419011360382 L-36.48396072266307,-2.5161152186310622 L-36.47811314182817,-2.494981319820386 L-36.46857216818052,-2.474175953676322 L-36.45540941974611,-2.453855292860891 L-36.43872370091261,-2.4341718716612366 L-36.418640260767695,-2.4152734410116685 L-36.39530985293367,-2.397301859421289 L-36.3689076039559,-2.380392028132319 L-36.339631698739055,-2.3646708785022006 " />
			<path d="M-2.3277955236661168,-23.28880512437708 L-2.2985196184492698,-23.304526274007202 L-2.2721173694714936,-23.321436105296172 L-2.2487869616374736,-23.339407686886553 L-2.2287035214925544,-23.35830611753612 L-2.2120178026590582,-23.377989538735772 L-2.198855054224645,-23.398310199551204 L-2.1893140805770024,-23.419115565695268 L-2.1834664997421007,-23.440249464505946 L-2.1813562057931826,-23.461553257235266 L-2.1829990393658494,-23.482867029849576 L-2.1883826687524772,-23.504030793402578 L-2.197466682468509,-23.524885684970656 L-2.2101828925957876,-23.54527516013591 L-2.2264358466259244,-23.565046168065592 L-2.2461035439616213,-23.58405030036748 L-2.269038351697622,-23.602144905097337 " />
			<path d="M-2.269038351697624,-23.60214490509734 L-2.2967882575541494,-23.620219016552355 L-2.327795523666116,-23.63696043628848 " />
			<path d="M-2.3277955236661168,-23.63696043628848 L-7.813529932111353,-26.337949346097087 " />
			<path d="M-40.22871899526506,-4.627680405926273 L-2.3277955236661163,-23.28880512437708 " />
			<path d="M-7.813529932111352,-26.337949346097087 L-7.849886680622803,-26.354173708635447 L-7.889298206194824,-26.368565358706043 L-7.931384954291627,-26.380985696851422 L-7.975741606522081,-26.391315108425594 L-8.021940984077395,-26.39945411554847 L-8.069538161696562,-26.40532433513222 L-8.118074752539846,-26.40886923375327 L-8.167083322704626,-26.410054672100053 L-8.216091892869406,-26.40886923375327 L-8.26462848371269,-26.40532433513222 L-8.312225661331857,-26.39945411554847 L-8.358425038887171,-26.391315108425594 L-8.402781691117625,-26.380985696851422 L-8.444868439214426,-26.368565358706043 L-8.484279964786449,-26.354173708635447 L-8.520636713297897,-26.337949346097087 " />
			<path d="M-40.935825776451615,-4.627680405926274 L-40.899469027940164,-4.611456043387913 L-40.86005750236814,-4.597064393317316 L-40.817970754271336,-4.584644055171937 L-40.77361410204088,-4.5743146435977655 L-40.72741472448557,-4.56617563647489 L-40.6798175468664,-4.560305416891139 L-40.63128095602312,-4.556760518270091 L-40.58227238585834,-4.555575079923306 L-40.53326381569356,-4.556760518270091 L-40.484727224850275,-4.560305416891139 L-40.43713004723111,-4.56617563647489 L-40.3909306696758,-4.5743146435977655 L-40.34657401744534,-4.584644055171937 L-40.304487269348535,-4.597064393317316 L-40.265075743776514,-4.611456043387913 L-40.22871899526507,-4.627680405926273 " />
			<path d="M-8.520636713297902,-26.337949346097087 L-46.42156018489685,-7.67682462764628 " />
			<path d="M-46.42156018489685,-7.3286693157348815 L-40.93582577645161,-4.627680405926274 " />
			<path d="M-46.42156018489685,-7.676824627646279 L-46.45256745100881,-7.660083207910154 L-46.480317356865335,-7.64200909645514 " />
			<path d="M-46.480317356865335,-7.642009096455139 L-46.50325216460134,-7.623914491725281 L-46.522919861937034,-7.604910359423393 L-46.53917281596717,-7.585139351493708 L-46.55188902609445,-7.564749876328457 L-46.560973039810484,-7.543894984760379 L-46.56635666919711,-7.522731221207378 L-46.56799950276978,-7.501417448593065 L-46.56588920882086,-7.480113655863746 L-46.56004162798596,-7.458979757053069 L-46.550500654338315,-7.438174390909005 L-46.537337905903904,-7.417853730093574 L-46.520652187070404,-7.39817030889392 L-46.50056874692549,-7.379271878244351 L-46.477238339091464,-7.3613002966539725 L-46.45083609011369,-7.344390465365002 L-46.42156018489685,-7.328669315734883 " />
			<path d="M48.6843018846938,4.543426820443715 L48.6843018846938,3.32488322875383 " />
			<path d="M48.68430188469381,3.3248832287538286 L48.260037815981875,2.593757073739896 " />
			<path d="M9.22774349448445,23.970493225099595 L9.22774349448445,22.75194963340971 " />
			<path d="M7.1064231509248055,23.970493225099595 L7.1064231509248055,22.75194963340971 " />
			<path d="M-48.6843018846938,-3.498960884709529 L-48.6843018846938,-4.717504476399414 " />
			<path d="M9.22774349448445,22.751949633409712 L8.80347942577252,22.02082347839578 " />
			<path d="M7.106423150924806,22.751949633409712 L7.530687219636736,22.02082347839578 " />
			<path d="M-48.6843018846938,-4.717504476399414 L-48.260037815981875,-5.448630631413344 " />
			<path d="M46.775113575490124,2.6285726049310423 L46.775113575490124,1.3229901852633084 " />
			<path d="M8.874190103891179,21.28969732338185 L8.874190103891179,19.98411490371412 " />
			<path d="M7.459976541518086,21.28969732338185 L7.459976541518086,19.98411490371412 " />
			<path d="M-18.72560177938215,8.396809812679042 L-18.72560177938215,7.091227393011308 " />
			<path d="M15.993341176877331,-12.527324433195838 L15.993341176877331,-13.832906852863573 " />
			<path d="M-21.907582294721614,6.133800285254969 L-21.907582294721614,4.828217865587235 " />
			<path d="M-23.32179585709471,6.133800285254969 L-23.32179585709471,4.828217865587235 " />
			<path d="M-36.693185089332324,-0.4498166629895235 L-36.693185089332324,-1.7553990826572574 " />
			<path d="M-1.9742421330728444,-21.373950908864405 L-1.9742421330728444,-22.679533328532138 " />
			<path d="M-39.87516560467179,-2.712826190413597 L-39.87516560467179,-4.018408610081331 " />
			<path d="M-41.289379167044885,-2.712826190413598 L-41.289379167044885,-4.018408610081332 " />
			<path d="M-46.77511357549012,-5.413815100222205 L-46.77511357549012,-6.719397519889939 " />
			<path d="M46.77511357549013,1.3229901852633075 L46.421560184896855,0.713718389418366 " />
			<path d="M8.874190103891179,19.984114903714115 L8.520636713297906,19.37484310786917 " />
			<path d="M7.459976541518077,19.98411490371412 L7.813529932111352,19.374843107869175 " />
			<path d="M-18.72560177938215,7.091227393011308 L-18.372048388788876,6.481955597166365 " />
			<path d="M15.993341176877331,-13.832906852863573 L15.639787786284058,-14.442178648708516 " />
			<path d="M-21.907582294721614,4.828217865587235 L-22.261135685314887,4.218946069742293 " />
			<path d="M-23.32179585709471,4.828217865587238 L-22.968242466501433,4.218946069742294 " />
			<path d="M-36.693185089332324,-1.7553990826572574 L-36.33963169873905,-2.3646708785021997 " />
			<path d="M-1.9742421330728457,-22.67953332853214 L-2.3277955236661194,-23.28880512437708 " />
			<path d="M-39.87516560467179,-4.018408610081331 L-40.22871899526507,-4.627680405926274 " />
			<path d="M-41.289379167044885,-4.018408610081329 L-40.93582577645161,-4.627680405926274 " />
			<path d="M-46.77511357549012,-6.71939751988994 L-46.42156018489684,-7.328669315734882 " />
			<path d="M49.12364171291398,2.802650260886738 L49.12364171291398,4.021193852576623 " />
			<path d="M48.365800725525155,2.029745468443437 L48.86057340059927,2.3848638865930596 " />
			<path d="M-49.12364171291398,-5.239737444266508 L-49.12364171291398,-4.021193852576623 " />
			<path d="M-48.36580072552516,-6.012642236709804 L-48.86057340059928,-5.657523818560182 " />
			<path d="M47.06800679430358,0.974834873351911 L47.06800679430358,2.280417293019645 " />
			<path d="M-19.018494998195603,6.743072081099911 L-19.018494998195603,8.048654500767645 " />
			<path d="M16.286234395690784,-14.18106216477497 L16.286234395690784,-12.875479745107235 " />
			<path d="M-36.98607830814578,-2.103554394568653 L-36.98607830814578,-0.7979719749009189 " />
			<path d="M-1.681348914259395,-23.027688640443532 L-1.681348914259395,-21.7221062207758 " />
			<path d="M-47.06800679430357,-7.0675528318013345 L-47.06800679430357,-5.761970412133601 " />
			<path d="M46.48031735686535,0.4003786086981097 L46.89262791942711,0.6963106238227961 " />
			<path d="M-18.430805560757367,6.168615816446109 L-18.843116123319135,6.464547831570795 " />
			<path d="M15.69854495825255,-14.755518429428772 L16.110855520814315,-14.459586414304086 " />
			<path d="M-36.39838887070754,-2.6780106592224566 L-36.810699433269306,-2.3820786440977706 " />
			<path d="M-2.269038351697626,-23.60214490509734 L-1.8567277891358598,-23.306212889972652 " />
			<path d="M-46.48031735686534,-7.642009096455137 L-46.892627919427106,-7.346077081330451 " />

       </g>
    </g>
    
</svg>
