<?xml version="1.0" encoding="UTF-8" standalone="no"?>
<svg
   xmlns:svg="http://www.w3.org/2000/svg"
   xmlns="http://www.w3.org/2000/svg"
   width="640.0"
   height="480.0"

>
    <g transform="scale(6.122448979591837, -6.122448979591837)   translate(49.27621409281765,-32.666666666666664)" stroke-width="0.4"  fill="none">
       <!-- hidden lines -->
       <g  stroke="rgb(160,160,160)" fill="none" stroke-dasharray="0.4,0.4" >
			<path d="M13.032324255523784,-29.4 L-13.032324255523784,-29.4 " />
			<path d="M-13.032324255523784,-29.4 L-14.353725954436209,-29.4 " />
			<path d="M-13.527849892615944,-27.9 L-13.52546380123241,-28.04702571049434 L-13.518328506446206,-28.19263548302419 L-13.506512725046672,-28.33542701588169 L-13.490130249467846,-28.474025148547632 L-13.469338851905125,-28.607095105238994 L-13.444338764882774,-28.7333553495294 L-13.415370752905254,-28.851589926245467 L-13.382713793763434,-28.96066017177982 L-13.346682391825961,-29.059515680044104 L-13.307623549190263,-29.147204418453818 L-13.287075345370958,-29.186592915000407 L-13.265913423862651,-29.22288189652253 L-13.244188765587822,-29.255983939685162 L-13.22195370715111,-29.285819298766928 L-13.199261814755848,-29.31231609777453 L-13.176167755158394,-29.33541050359831 L-13.152727163971116,-29.355046879791814 L-13.12899651163134,-29.371177920604843 L-13.105032967359113,-29.38376476494717 L-13.080894261431542,-29.392777090008295 L-13.056638546105509,-29.398193184307758 L-13.032324255523786,-29.4 " />
			<path d="M13.032324255523784,29.4 L-13.032324255523784,29.4 " />
			<path d="M-13.032324255523784,29.4 L-13.056638546105509,29.398193184307758 L-13.080894261431542,29.392777090008295 L-13.105032967359111,29.38376476494717 L-13.12899651163134,29.371177920604843 L-13.152727163971116,29.355046879791814 L-13.176167755158394,29.33541050359831 L-13.199261814755848,29.31231609777453 L-13.22195370715111,29.285819298766928 L-13.244188765587822,29.255983939685162 L-13.265913423862651,29.22288189652253 L-13.287075345370958,29.186592915000407 L-13.307623549190263,29.147204418453818 L-13.346682391825961,29.059515680044104 L-13.382713793763434,28.96066017177982 L-13.415370752905254,28.851589926245467 L-13.444338764882774,28.7333553495294 L-13.469338851905125,28.607095105238994 L-13.490130249467846,28.474025148547632 L-13.506512725046672,28.33542701588169 L-13.518328506446206,28.19263548302419 L-13.52546380123241,28.04702571049434 L-13.527849892615944,27.900000000000002 " />
			<path d="M-13.527849892615944,-27.9 L-13.527849892615944,27.9 " />
			<path d="M-14.527159927418465,-29.305124549639636 L-14.561825298011298,-29.261316168185683 L-14.595294739296007,-29.209684417973374 L-14.627375905227325,-29.15052602229962 L-14.657884428060898,-29.084180959455516 L-14.686644977899105,-29.01103050889991 L-14.713492270297133,-28.93149506007863 L-14.738272016138678,-28.846031696481923 L-14.76084180832245,-28.755131568824353 L-14.781071940163711,-28.659317072443212 L-14.798846150807618,-28.55913884513676 L-14.814062293370512,-28.455172602695423 L-14.826632921969406,-28.348015830311866 L-14.836485794266077,-28.23828434888421 L-14.84356428663766,-28.126608775945446 L-14.84782771958782,-28.013630901557885 L-14.849251591528368,-27.900000000000002 " />
			<path d="M-15.217356350511114,-27.799999999999997 L-15.217356350511114,27.799999999999997 " />
			<path d="M9.365434541041807,27.799999999999997 L-1.4523148529403906,27.799999999999997 " />
			<path d="M-1.4523148529403906,27.799999999999997 L-1.4685243799948735,27.79879545620517 L-1.4846948568788954,27.795184726672193 L-1.5007873274972758,27.78917650996478 L-1.5167630236787617,27.78078528040323 L-1.5482105193634634,27.756940335732207 L-1.5787344873586076,27.723879532511283 L-1.6080409651663021,27.681921264348354 L-1.635847715384709,27.631469612302542 L-1.661886943808509,27.573010453362734 L-1.6859078784334907,27.507106781186543 L-1.7076791845280366,27.434393284163644 L-1.72699119251305,27.3555702330196 L-1.743657917194618,27.271396736825995 L-1.7575188489030982,27.18268343236509 L-1.7684404992889822,27.09028467725446 L-1.7763176868886723,26.995090322016125 L-1.7810745500794751,26.898017140329557 L-1.7826652776684968,26.8 " />
			<path d="M-1.7826652776684968,-26.799999999999997 L-1.7826652776684968,26.799999999999997 " />
			<path d="M-1.7826652776684968,-26.799999999999997 L-1.7810745500794751,-26.898017140329557 L-1.7763176868886723,-26.995090322016125 L-1.7684404992889822,-27.09028467725446 L-1.7575188489030982,-27.18268343236509 L-1.743657917194618,-27.271396736825995 L-1.72699119251305,-27.3555702330196 L-1.7076791845280366,-27.434393284163644 L-1.6859078784334907,-27.507106781186543 L-1.661886943808509,-27.573010453362734 L-1.635847715384709,-27.631469612302542 L-1.6080409651663023,-27.681921264348354 L-1.5787344873586076,-27.723879532511283 L-1.5482105193634634,-27.756940335732207 L-1.5167630236787617,-27.78078528040323 L-1.500787327497276,-27.78917650996478 L-1.4846948568788954,-27.795184726672193 L-1.4685243799948735,-27.79879545620517 L-1.4523148529403922,-27.799999999999997 " />
			<path d="M9.365434541041807,-27.799999999999997 L-1.4523148529403906,-27.799999999999997 " />
			<path d="M-3.3240868742368934,-27.351794249669283 L-3.300480746659558,-27.224478283962856 L-3.283250361392567,-27.088114318316123 L-3.2727629940557987,-26.945609029465313 L-3.2692421889449736,-26.800000000000008 " />
			<path d="M-5.015380148222106,-27.799999999999997 L-9.846519145281565,-27.799999999999997 " />
			<path d="M-3.2692421889449736,-26.799999999999997 L-3.2692421889449736,26.799999999999997 " />
			<path d="M-10.176869570009671,-26.799999999999997 L-10.17527884242065,-26.898017140329557 L-10.170521979229846,-26.995090322016125 L-10.162644791630157,-27.09028467725446 L-10.151723141244274,-27.18268343236509 L-10.137862209535793,-27.271396736825995 L-10.121195484854224,-27.3555702330196 L-10.101883476869212,-27.434393284163644 L-10.080112170774665,-27.507106781186543 L-10.056091236149683,-27.573010453362734 L-10.030052007725883,-27.631469612302542 L-10.002245257507477,-27.681921264348354 L-9.972938779699781,-27.723879532511283 L-9.942414811704639,-27.756940335732207 L-9.910967316019937,-27.78078528040323 L-9.89499161983845,-27.78917650996478 L-9.87889914922007,-27.795184726672193 L-9.862728672336049,-27.79879545620517 L-9.846519145281567,-27.799999999999997 " />
			<path d="M-3.2692421889449736,26.799999999999997 L-3.2727629940557987,26.945609029465313 L-3.283250361392567,27.088114318316123 L-3.300480746659558,27.224478283962856 L-3.3240868742368916,27.351794249669272 " />
			<path d="M-10.176869570009671,-26.799999999999997 L-10.176869570009671,26.799999999999997 " />
			<path d="M-5.015380148222105,27.799999999999997 L-9.846519145281565,27.799999999999997 " />
			<path d="M-9.846519145281565,27.799999999999997 L-9.862728672336049,27.79879545620517 L-9.87889914922007,27.795184726672193 L-9.89499161983845,27.78917650996478 L-9.910967316019937,27.78078528040323 L-9.942414811704639,27.756940335732207 L-9.972938779699781,27.723879532511283 L-10.002245257507477,27.681921264348354 L-10.030052007725883,27.631469612302542 L-10.056091236149683,27.573010453362734 L-10.080112170774665,27.507106781186543 L-10.101883476869212,27.434393284163644 L-10.121195484854224,27.3555702330196 L-10.137862209535793,27.271396736825995 L-10.151723141244274,27.18268343236509 L-10.162644791630157,27.09028467725446 L-10.170521979229846,26.995090322016125 L-10.17527884242065,26.898017140329557 L-10.176869570009671,26.8 " />
			<path d="M-11.71829116657807,-27.351794249669283 L-11.694685039000733,-27.224478283962856 L-11.677454653733742,-27.088114318316123 L-11.666967286396975,-26.945609029465313 L-11.66344648128615,-26.800000000000008 " />
			<path d="M-11.993796906014255,-27.799999999999997 L-14.556655501054903,-27.799999999999997 " />
			<path d="M-11.66344648128615,-26.799999999999997 L-11.66344648128615,26.799999999999997 " />
			<path d="M-14.887005925783008,-26.799999999999997 L-14.885415198193986,-26.898017140329557 L-14.880658335003183,-26.995090322016125 L-14.872781147403494,-27.09028467725446 L-14.86185949701761,-27.18268343236509 L-14.84799856530913,-27.271396736825995 L-14.831331840627561,-27.3555702330196 L-14.812019832642548,-27.434393284163644 L-14.790248526548002,-27.507106781186543 L-14.76622759192302,-27.573010453362734 L-14.74018836349922,-27.631469612302542 L-14.712381613280813,-27.681921264348354 L-14.683075135473118,-27.723879532511283 L-14.652551167477975,-27.756940335732207 L-14.621103671793273,-27.78078528040323 L-14.605127975611786,-27.78917650996478 L-14.589035504993406,-27.795184726672193 L-14.572865028109385,-27.79879545620517 L-14.556655501054903,-27.799999999999997 " />
			<path d="M-11.66344648128615,26.799999999999997 L-11.666967286396975,26.945609029465313 L-11.677454653733742,27.088114318316123 L-11.694685039000733,27.224478283962856 L-11.718291166578068,27.351794249669272 " />
			<path d="M-14.887005925783008,-26.799999999999997 L-14.887005925783008,26.799999999999997 " />
			<path d="M-11.993796906014255,27.799999999999997 L-14.556655501054903,27.799999999999997 " />
			<path d="M-14.556655501054902,27.799999999999997 L-14.572865028109385,27.79879545620517 L-14.589035504993406,27.795184726672193 L-14.605127975611786,27.78917650996478 L-14.621103671793273,27.78078528040323 L-14.652551167477975,27.756940335732207 L-14.683075135473118,27.723879532511283 L-14.712381613280813,27.681921264348354 L-14.74018836349922,27.631469612302542 L-14.76622759192302,27.573010453362734 L-14.790248526548002,27.507106781186543 L-14.812019832642548,27.434393284163644 L-14.831331840627561,27.3555702330196 L-14.84799856530913,27.271396736825995 L-14.86185949701761,27.18268343236509 L-14.872781147403494,27.09028467725446 L-14.880658335003183,26.995090322016125 L-14.885415198193986,26.898017140329557 L-14.887005925783008,26.8 " />
			<path d="M-13.032324255523784,29.4 L-14.353725954436209,29.4 " />
			<path d="M-14.849251591528368,27.9 L-14.84782771958782,28.013630901557885 L-14.84356428663766,28.126608775945446 L-14.836485794266077,28.238284348884207 L-14.826632921969406,28.348015830311866 L-14.814062293370512,28.455172602695423 L-14.798846150807618,28.55913884513676 L-14.781071940163711,28.659317072443212 L-14.76084180832245,28.755131568824353 L-14.738272016138678,28.846031696481923 L-14.713492270297133,28.93149506007863 L-14.686644977899107,29.01103050889991 L-14.657884428060898,29.084180959455516 L-14.627375905227325,29.15052602229962 L-14.595294739296007,29.209684417973374 L-14.561825298011298,29.261316168185683 L-14.527159927418467,29.305124549639636 " />
			<path d="M-14.849251591528368,-27.9 L-14.849251591528368,27.9 " />
			<path d="M-1.4523148529403906,27.799999999999997 L-2.868102387489417,27.799999999999997 " />
			<path d="M-3.198452812217523,26.799999999999997 L-3.1946612756237176,26.95107251729696 L-3.183373699178215,27.098677220207907 L-3.174993280112285,27.170115068463613 L-3.1648491850703557,27.23942589675784 L-3.1529997113077513,27.306211381628806 L-3.139512956746911,27.370087712549566 L-3.124466428624397,27.430687797654613 L-3.107946598063366,27.48766337338575 L-3.090048403131348,27.540687005933272 L-3.0708747032392094,27.589453972970343 L-3.0505356880168266,27.63368401486641 L-3.0291482440626156,27.673122945315583 L-3.006835283206143,27.707544112123788 L-2.9837250361442553,27.736749699759756 " />
			<path d="M-3.198452812217523,-26.799999999999997 L-3.198452812217523,26.799999999999997 " />
			<path d="M-2.983725036144254,-27.736749699759756 L-3.006835283206143,-27.707544112123788 L-3.0291482440626156,-27.673122945315583 L-3.0505356880168266,-27.63368401486641 L-3.0708747032392094,-27.589453972970343 L-3.090048403131348,-27.540687005933272 L-3.107946598063366,-27.48766337338575 L-3.124466428624397,-27.430687797654613 L-3.139512956746911,-27.370087712549566 L-3.1529997113077513,-27.306211381628806 L-3.1648491850703557,-27.23942589675784 L-3.174993280112285,-27.170115068463613 L-3.183373699178215,-27.098677220207907 L-3.1946612756237176,-26.95107251729696 L-3.198452812217523,-26.8 " />
			<path d="M-1.4523148529403906,-27.799999999999997 L-2.868102387489417,-27.799999999999997 " />
			<path d="M-9.846519145281565,-27.799999999999997 L-11.26230667983059,-27.799999999999997 " />
			<path d="M-11.377929328485429,-27.736749699759756 L-11.401039575547319,-27.707544112123788 L-11.42335253640379,-27.673122945315583 L-11.444739980358003,-27.63368401486641 L-11.465078995580384,-27.589453972970343 L-11.484252695472524,-27.540687005933272 L-11.502150890404542,-27.48766337338575 L-11.518670720965572,-27.430687797654613 L-11.533717249088086,-27.370087712549566 L-11.547204003648927,-27.306211381628806 L-11.559053477411531,-27.23942589675784 L-11.56919757245346,-27.170115068463613 L-11.57757799151939,-27.098677220207907 L-11.588865567964893,-26.95107251729696 L-11.592657104558699,-26.8 " />
			<path d="M-11.592657104558699,-26.799999999999997 L-11.592657104558699,26.799999999999997 " />
			<path d="M-9.846519145281565,27.799999999999997 L-11.26230667983059,27.799999999999997 " />
			<path d="M-11.592657104558699,26.799999999999997 L-11.588865567964893,26.95107251729696 L-11.57757799151939,27.098677220207907 L-11.56919757245346,27.170115068463613 L-11.559053477411531,27.23942589675784 L-11.547204003648927,27.306211381628806 L-11.533717249088086,27.370087712549566 L-11.518670720965572,27.430687797654613 L-11.502150890404542,27.48766337338575 L-11.484252695472524,27.540687005933272 L-11.465078995580384,27.589453972970343 L-11.444739980358003,27.63368401486641 L-11.42335253640379,27.673122945315583 L-11.401039575547319,27.707544112123788 L-11.37792932848543,27.736749699759756 " />
			<path d="M-14.556655501054902,-27.799999999999997 L-15.972443035603927,-27.799999999999997 " />
			<path d="M-16.088065684258765,-27.736749699759756 L-16.111175931320656,-27.707544112123788 L-16.133488892177127,-27.673122945315583 L-16.154876336131338,-27.63368401486641 L-16.17521535135372,-27.589453972970343 L-16.19438905124586,-27.540687005933272 L-16.212287246177876,-27.48766337338575 L-16.22880707673891,-27.430687797654613 L-16.243853604861425,-27.370087712549566 L-16.257340359422262,-27.306211381628806 L-16.269189833184868,-27.23942589675784 L-16.279333928226798,-27.170115068463613 L-16.287714347292727,-27.098677220207907 L-16.29900192373823,-26.95107251729696 L-16.302793460332033,-26.8 " />
			<path d="M-16.302793460332033,-26.799999999999997 L-16.302793460332033,26.799999999999997 " />
			<path d="M-14.556655501054902,27.799999999999997 L-15.972443035603927,27.799999999999997 " />
			<path d="M-16.302793460332033,26.799999999999997 L-16.29900192373823,26.95107251729696 L-16.287714347292727,27.098677220207907 L-16.279333928226798,27.170115068463613 L-16.269189833184868,27.23942589675784 L-16.257340359422262,27.306211381628806 L-16.243853604861425,27.370087712549566 L-16.22880707673891,27.430687797654613 L-16.212287246177876,27.48766337338575 L-16.19438905124586,27.540687005933272 L-16.17521535135372,27.589453972970343 L-16.154876336131338,27.63368401486641 L-16.133488892177127,27.673122945315583 L-16.111175931320656,27.707544112123788 L-16.08806568425877,27.736749699759756 " />

       </g>

       <!-- solid lines -->
       <g  stroke="rgb(0,0,0)" fill="none">
			<path d="M13.032324255523784,-29.4 L11.71092255661136,-29.4 " />
			<path d="M11.71092255661136,-29.4 L-14.353725954436209,-29.4 " />
			<path d="M12.206448193703519,-27.9 L12.204062102319986,-28.04702571049434 L12.196926807533782,-28.19263548302419 L12.185111026134248,-28.33542701588169 L12.168728550555421,-28.474025148547632 L12.1479371529927,-28.607095105238994 L12.12293706597035,-28.7333553495294 L12.09396905399283,-28.851589926245467 L12.06131209485101,-28.96066017177982 L12.025280692913537,-29.059515680044104 L11.986221850277838,-29.147204418453818 L11.965673646458534,-29.186592915000407 L11.944511724950226,-29.22288189652253 L11.922787066675397,-29.255983939685162 L11.900552008238686,-29.285819298766928 L11.877860115843424,-29.31231609777453 L11.85476605624597,-29.33541050359831 L11.831325465058693,-29.355046879791814 L11.807594812718916,-29.371177920604843 L11.783631268446687,-29.38376476494717 L11.759492562519117,-29.392777090008295 L11.735236847193084,-29.398193184307758 L11.710922556611365,-29.4 " />
			<path d="M13.032324255523784,-29.4 L13.056638546105509,-29.398193184307758 L13.080894261431542,-29.392777090008295 L13.105032967359113,-29.38376476494717 L13.12899651163134,-29.371177920604843 L13.152727163971116,-29.355046879791814 L13.176167755158394,-29.33541050359831 L13.199261814755848,-29.31231609777453 L13.22195370715111,-29.285819298766928 L13.244188765587822,-29.255983939685162 L13.265913423862651,-29.22288189652253 L13.287075345370958,-29.186592915000407 L13.307623549190263,-29.147204418453818 L13.346682391825961,-29.059515680044104 L13.382713793763434,-28.96066017177982 L13.415370752905254,-28.851589926245467 L13.444338764882774,-28.7333553495294 L13.469338851905125,-28.607095105238997 L13.490130249467846,-28.474025148547636 L13.506512725046672,-28.335427015881695 L13.518328506446206,-28.19263548302419 L13.52546380123241,-28.04702571049434 L13.527849892615944,-27.900000000000013 " />
			<path d="M11.14460754279175,-28.799999999999997 L-14.920040968255819,-28.799999999999997 " />
			<path d="M13.527849892615944,-27.9 L13.527849892615944,27.9 " />
			<path d="M13.527849892615944,27.9 L13.52546380123241,28.04702571049434 L13.518328506446206,28.19263548302419 L13.506512725046672,28.33542701588169 L13.490130249467846,28.474025148547632 L13.469338851905125,28.607095105238994 L13.444338764882774,28.7333553495294 L13.415370752905254,28.851589926245467 L13.382713793763434,28.96066017177982 L13.346682391825961,29.059515680044104 L13.307623549190263,29.147204418453818 L13.287075345370958,29.186592915000407 L13.265913423862651,29.22288189652253 L13.244188765587822,29.255983939685162 L13.22195370715111,29.285819298766928 L13.199261814755848,29.31231609777453 L13.176167755158394,29.33541050359831 L13.152727163971118,29.355046879791814 L13.12899651163134,29.371177920604843 L13.105032967359111,29.38376476494717 L13.080894261431542,29.392777090008295 L13.056638546105509,29.398193184307758 L13.03232425552379,29.4 " />
			<path d="M-14.353725954436209,-29.4 L-14.375866786797356,-29.39850192410326 L-14.397963394295447,-29.39401068872157 L-14.419971640403688,-29.38653526480355 L-14.441847565091381,-29.37609058401906 L-14.4635474726312,-29.36269750893414 L-14.485028018878554,-29.346382791339416 L-14.506246297848662,-29.327179018815137 L-14.527159927418465,-29.305124549639636 " />
			<path d="M11.441922925047045,-27.9 L11.440491270216926,-27.988215426296602 L11.436210093345203,-28.075581289814515 L11.429120624505483,-28.161256209529014 L11.419291139158187,-28.24441508912858 L11.406816300620555,-28.324257063143396 L11.391816248407144,-28.400013209717642 L11.374435441220632,-28.47095395574728 L11.35484126573554,-28.53639610306789 L11.333222424573057,-28.59570940802646 L11.309787118991636,-28.648322651072288 L11.28476104379507,-28.693729137913518 L11.258385213768145,-28.731491579260158 L11.230913642572515,-28.761246302158987 L11.202610896456283,-28.782706752362905 L11.173749546336404,-28.795666254004974 L11.159196117140784,-28.798915910584654 L11.144607542791753,-28.799999999999997 " />
			<path d="M12.206448193703519,27.899999999999995 L12.206448193703519,-27.900000000000002 " />
			<path d="M-14.920040968255819,-28.799999999999997 L-14.946583432171362,-28.79640641323294 L-14.972913934648922,-28.785654350411434 L-14.998822206921226,-28.767829674803647 L-15.024101352045172,-28.743074729783782 " />
			<path d="M-15.024101352045172,-28.743074729783782 L-15.044900574400874,-28.71678970091141 L-15.064982239171698,-28.685810650784024 L-15.084230938730489,-28.65031561337977 L-15.102536052430633,-28.610508575673308 L-15.119792382333557,-28.566618305339947 L-15.135900757772372,-28.51889703604718 L-15.150768605277301,-28.467619017889152 L-15.164310480587563,-28.41307894129461 L-15.187113086078664,-28.29548330708206 L-15.203785148775737,-28.16880949818712 L-15.21394396757669,-28.035965265567267 L-15.217356350511114,-27.900000000000002 " />
			<path d="M11.441922925047045,27.899999999999995 L11.441922925047045,-27.900000000000002 " />
			<path d="M-15.217356350511114,-27.9 L-15.217356350511114,-27.799999999999997 " />
			<path d="M-15.217356350511114,27.799999999999997 L-15.217356350511114,27.9 " />
			<path d="M11.14460754279175,28.799999999999997 L11.159196117140784,28.798915910584654 L11.173749546336404,28.795666254004974 L11.202610896456283,28.782706752362905 L11.230913642572515,28.761246302158987 L11.258385213768145,28.731491579260158 L11.28476104379507,28.693729137913518 L11.309787118991636,28.648322651072288 L11.333222424573057,28.59570940802646 L11.35484126573554,28.53639610306789 L11.374435441220632,28.47095395574728 L11.391816248407144,28.400013209717642 L11.406816300620555,28.324257063143396 L11.419291139158187,28.24441508912858 L11.429120624505483,28.161256209529014 L11.436210093345203,28.075581289814515 L11.440491270216926,27.988215426296602 L11.441922925047045,27.900000000000006 " />
			<path d="M-15.217356350511114,27.9 L-15.21394396757669,28.035965265567267 L-15.203785148775737,28.16880949818712 L-15.187113086078664,28.295483307082055 L-15.164310480587563,28.41307894129461 L-15.150768605277301,28.467619017889152 L-15.135900757772372,28.51889703604718 L-15.119792382333557,28.566618305339947 L-15.102536052430633,28.610508575673308 L-15.084230938730489,28.65031561337977 L-15.064982239171698,28.685810650784024 L-15.044900574400874,28.71678970091141 L-15.024101352045173,28.743074729783782 " />
			<path d="M-15.024101352045172,28.743074729783782 L-14.998822206921226,28.767829674803647 L-14.972913934648922,28.785654350411434 L-14.946583432171362,28.79640641323294 L-14.92004096825582,28.799999999999997 " />
			<path d="M-14.920040968255819,28.799999999999997 L11.14460754279175,28.799999999999997 " />
			<path d="M10.781222075590835,-27.799999999999997 L10.797431602645318,-27.79879545620517 L10.813602079529339,-27.795184726672193 L10.82969455014772,-27.78917650996478 L10.845670246329206,-27.78078528040323 L10.877117742013906,-27.756940335732207 L10.90764171000905,-27.723879532511283 L10.936948187816746,-27.681921264348354 L10.964754938035153,-27.631469612302542 L10.990794166458953,-27.573010453362734 L11.014815101083935,-27.507106781186543 L11.036586407178481,-27.434393284163644 L11.055898415163494,-27.3555702330196 L11.072565139845063,-27.271396736825995 L11.086426071553543,-27.18268343236509 L11.097347721939427,-27.09028467725446 L11.105224909539116,-26.995090322016125 L11.109981772729919,-26.898017140329557 L11.11157250031894,-26.800000000000008 " />
			<path d="M11.11157250031894,-26.799999999999997 L11.11157250031894,26.799999999999997 " />
			<path d="M11.11157250031894,26.799999999999997 L11.109981772729919,26.898017140329557 L11.105224909539116,26.995090322016125 L11.097347721939427,27.09028467725446 L11.086426071553543,27.18268343236509 L11.072565139845063,27.271396736825995 L11.055898415163494,27.3555702330196 L11.036586407178481,27.434393284163644 L11.014815101083935,27.507106781186543 L10.990794166458953,27.573010453362734 L10.964754938035153,27.631469612302542 L10.936948187816746,27.68192126434835 L10.907641710009052,27.723879532511283 L10.877117742013908,27.756940335732207 L10.845670246329206,27.780785280403226 L10.82969455014772,27.78917650996478 L10.813602079529339,27.795184726672193 L10.797431602645318,27.79879545620517 L10.781222075590838,27.799999999999997 " />
			<path d="M10.781222075590833,27.799999999999997 L9.365434541041807,27.799999999999997 " />
			<path d="M10.781222075590833,-27.799999999999997 L9.365434541041807,-27.799999999999997 " />
			<path d="M-3.59959261367308,-27.799999999999997 L-3.579241836375362,-27.798100694202997 L-3.5589683637762346,-27.79240999153702 L-3.5388492069237625,-27.782949508771186 L-3.5189607906804277,-27.76975518260502 L-3.4993786634147583,-27.75287713315887 L-3.48017721002242,-27.732379473587045 L-3.4614293693668916,-27.708340066536845 L-3.4432063572130494,-27.680850228378603 L-3.425577395706138,-27.650014382330266 L-3.4086094504237288,-27.615949661794144 L-3.376911671285106,-27.538662965532918 L-3.3485941926210203,-27.450163352952327 L-3.324086874236895,-27.35179424966929 " />
			<path d="M-3.5995926136730807,-27.799999999999997 L-5.015380148222106,-27.799999999999997 " />
			<path d="M-3.3240868742368934,27.351794249669283 L-3.34859419262102,27.450163352952323 L-3.3769116712851055,27.538662965532914 L-3.4086094504237283,27.61594966179414 L-3.4255773957061377,27.650014382330266 L-3.443206357213049,27.680850228378603 L-3.461429369366891,27.708340066536845 L-3.4801772100224198,27.732379473587045 L-3.499378663414758,27.75287713315887 L-3.5189607906804277,27.76975518260502 L-3.5388492069237625,27.782949508771186 L-3.5589683637762346,27.79240999153702 L-3.579241836375362,27.798100694202997 L-3.5995926136730767,27.799999999999997 " />
			<path d="M-3.5995926136730807,27.799999999999997 L-5.015380148222105,27.799999999999997 " />
			<path d="M-11.993796906014255,-27.799999999999997 L-11.973446128716537,-27.798100694202997 L-11.95317265611741,-27.79240999153702 L-11.933053499264938,-27.782949508771186 L-11.913165083021603,-27.76975518260502 L-11.893582955755933,-27.75287713315887 L-11.874381502363596,-27.732379473587045 L-11.855633661708067,-27.708340066536845 L-11.837410649554224,-27.680850228378603 L-11.819781688047314,-27.650014382330266 L-11.802813742764904,-27.615949661794144 L-11.771115963626281,-27.538662965532918 L-11.742798484962195,-27.450163352952327 L-11.718291166578071,-27.35179424966929 " />
			<path d="M-11.71829116657807,27.351794249669283 L-11.742798484962195,27.450163352952323 L-11.771115963626281,27.538662965532914 L-11.802813742764904,27.61594966179414 L-11.819781688047314,27.650014382330266 L-11.837410649554224,27.680850228378603 L-11.855633661708067,27.708340066536845 L-11.874381502363596,27.732379473587045 L-11.893582955755933,27.75287713315887 L-11.913165083021603,27.76975518260502 L-11.933053499264938,27.782949508771186 L-11.95317265611741,27.79240999153702 L-11.973446128716537,27.798100694202997 L-11.993796906014252,27.799999999999997 " />
			<path d="M11.71092255661136,29.4 L11.735236847193084,29.398193184307758 L11.759492562519117,29.392777090008295 L11.783631268446689,29.38376476494717 L11.807594812718916,29.371177920604843 L11.831325465058692,29.355046879791814 L11.85476605624597,29.33541050359831 L11.877860115843424,29.31231609777453 L11.900552008238686,29.285819298766928 L11.922787066675397,29.255983939685162 L11.944511724950226,29.22288189652253 L11.965673646458534,29.186592915000407 L11.986221850277838,29.147204418453818 L12.025280692913537,29.059515680044104 L12.06131209485101,28.96066017177982 L12.09396905399283,28.851589926245467 L12.12293706597035,28.7333553495294 L12.1479371529927,28.607095105238997 L12.168728550555421,28.474025148547636 L12.185111026134248,28.335427015881695 L12.196926807533782,28.19263548302419 L12.204062102319986,28.04702571049434 L12.206448193703519,27.900000000000013 " />
			<path d="M13.032324255523784,29.4 L11.71092255661136,29.4 " />
			<path d="M-14.353725954436209,29.4 L11.71092255661136,29.4 " />
			<path d="M-14.527159927418465,29.305124549639636 L-14.506246297848662,29.327179018815137 L-14.485028018878554,29.346382791339416 L-14.4635474726312,29.36269750893414 L-14.441847565091381,29.37609058401906 L-14.419971640403688,29.38653526480355 L-14.397963394295447,29.39401068872157 L-14.375866786797356,29.39850192410326 L-14.35372595443621,29.4 " />
			<path d="M10.781222075590835,-27.799999999999997 L9.365434541041807,-27.799999999999997 " />
			<path d="M9.695784965769914,-26.799999999999997 L9.694194238180891,-26.898017140329557 L9.689437374990089,-26.995090322016125 L9.6815601873904,-27.09028467725446 L9.670638537004516,-27.18268343236509 L9.656777605296035,-27.271396736825995 L9.640110880614467,-27.3555702330196 L9.620798872629454,-27.434393284163644 L9.599027566534907,-27.507106781186543 L9.575006631909925,-27.573010453362734 L9.548967403486126,-27.631469612302542 L9.521160653267719,-27.68192126434835 L9.491854175460025,-27.723879532511283 L9.461330207464881,-27.756940335732207 L9.429882711780179,-27.780785280403226 L9.413907015598692,-27.78917650996478 L9.397814544980312,-27.795184726672193 L9.381644068096291,-27.79879545620517 L9.365434541041811,-27.799999999999997 " />
			<path d="M9.695784965769914,26.799999999999997 L9.695784965769914,-26.799999999999997 " />
			<path d="M9.365434541041807,27.799999999999997 L9.381644068096291,27.79879545620517 L9.397814544980312,27.795184726672193 L9.413907015598692,27.78917650996478 L9.429882711780179,27.78078528040323 L9.46133020746488,27.756940335732207 L9.491854175460023,27.723879532511283 L9.521160653267719,27.681921264348354 L9.548967403486126,27.631469612302542 L9.575006631909925,27.573010453362734 L9.599027566534907,27.507106781186543 L9.620798872629454,27.434393284163644 L9.640110880614467,27.3555702330196 L9.656777605296035,27.271396736825995 L9.670638537004516,27.18268343236509 L9.6815601873904,27.09028467725446 L9.689437374990089,26.995090322016125 L9.694194238180891,26.898017140329557 L9.695784965769914,26.800000000000008 " />
			<path d="M10.781222075590835,27.799999999999997 L9.365434541041807,27.799999999999997 " />
			<path d="M-2.868102387489418,27.799999999999997 L9.365434541041807,27.799999999999997 " />
			<path d="M-2.983725036144254,27.736749699759756 L-2.955637097117646,27.764255194226273 L-2.9268501279261976,27.78406038934604 L-2.897594014062242,27.796007125814377 L-2.8681023874894183,27.799999999999997 " />
			<path d="M-2.868102387489417,-27.799999999999997 L-2.897594014062242,-27.796007125814377 L-2.9268501279261976,-27.78406038934604 L-2.955637097117646,-27.764255194226273 L-2.983725036144254,-27.736749699759756 " />
			<path d="M9.365434541041807,-27.799999999999997 L-2.868102387489417,-27.799999999999997 " />
			<path d="M-3.59959261367308,-27.799999999999997 L-5.015380148222106,-27.799999999999997 " />
			<path d="M-4.685029723494,-26.799999999999997 L-4.686620451083022,-26.898017140329557 L-4.691377314273824,-26.995090322016125 L-4.699254501873515,-27.09028467725446 L-4.710176152259399,-27.18268343236509 L-4.724037083967879,-27.271396736825995 L-4.740703808649447,-27.3555702330196 L-4.76001581663446,-27.434393284163644 L-4.781787122729006,-27.507106781186543 L-4.805808057353988,-27.573010453362734 L-4.831847285777788,-27.631469612302542 L-4.859654035996194,-27.68192126434835 L-4.888960513803889,-27.723879532511283 L-4.919484481799033,-27.756940335732207 L-4.950931977483735,-27.780785280403226 L-4.966907673665221,-27.78917650996478 L-4.983000144283602,-27.795184726672193 L-4.9991706211676235,-27.79879545620517 L-5.015380148222103,-27.799999999999997 " />
			<path d="M-5.015380148222106,-27.799999999999997 L-11.26230667983059,-27.799999999999997 " />
			<path d="M-4.685029723494,26.799999999999997 L-4.685029723494,-26.799999999999997 " />
			<path d="M-11.262306679830592,-27.799999999999997 L-11.291798306403418,-27.796007125814377 L-11.321054420267373,-27.78406038934604 L-11.349841389458822,-27.764255194226273 L-11.377929328485429,-27.736749699759756 " />
			<path d="M-5.015380148222106,27.799999999999997 L-4.9991706211676235,27.79879545620517 L-4.983000144283602,27.795184726672193 L-4.9669076736652205,27.78917650996478 L-4.9509319774837355,27.78078528040323 L-4.919484481799033,27.756940335732207 L-4.888960513803889,27.723879532511283 L-4.859654035996194,27.681921264348354 L-4.831847285777788,27.631469612302542 L-4.805808057353988,27.573010453362734 L-4.781787122729006,27.507106781186543 L-4.76001581663446,27.434393284163644 L-4.740703808649447,27.3555702330196 L-4.724037083967879,27.271396736825995 L-4.710176152259399,27.18268343236509 L-4.699254501873515,27.09028467725446 L-4.691377314273824,26.995090322016125 L-4.686620451083022,26.898017140329557 L-4.685029723494,26.800000000000008 " />
			<path d="M-3.59959261367308,27.799999999999997 L-5.015380148222106,27.799999999999997 " />
			<path d="M-11.26230667983059,27.799999999999997 L-5.015380148222106,27.799999999999997 " />
			<path d="M-11.377929328485429,27.736749699759756 L-11.349841389458822,27.764255194226273 L-11.321054420267373,27.78406038934604 L-11.291798306403418,27.796007125814377 L-11.262306679830594,27.799999999999997 " />
			<path d="M-11.993796906014255,-27.799999999999997 L-13.409584440563282,-27.799999999999997 " />
			<path d="M-13.079234015835176,-26.799999999999997 L-13.080824743424198,-26.898017140329557 L-13.085581606615001,-26.995090322016125 L-13.09345879421469,-27.09028467725446 L-13.104380444600574,-27.18268343236509 L-13.118241376309054,-27.271396736825995 L-13.134908100990623,-27.3555702330196 L-13.154220108975636,-27.434393284163644 L-13.175991415070182,-27.507106781186543 L-13.200012349695164,-27.573010453362734 L-13.226051578118964,-27.631469612302542 L-13.25385832833737,-27.68192126434835 L-13.283164806145065,-27.723879532511283 L-13.313688774140209,-27.756940335732207 L-13.345136269824911,-27.780785280403226 L-13.361111966006398,-27.78917650996478 L-13.377204436624778,-27.795184726672193 L-13.393374913508799,-27.79879545620517 L-13.409584440563279,-27.799999999999997 " />
			<path d="M-13.409584440563282,-27.799999999999997 L-15.972443035603929,-27.799999999999997 " />
			<path d="M-13.079234015835176,26.799999999999997 L-13.079234015835176,-26.799999999999997 " />
			<path d="M-15.972443035603929,-27.799999999999997 L-16.001934662176755,-27.796007125814377 L-16.03119077604071,-27.78406038934604 L-16.059977745232157,-27.764255194226273 L-16.088065684258765,-27.736749699759756 " />
			<path d="M-13.409584440563282,27.799999999999997 L-13.393374913508799,27.79879545620517 L-13.377204436624778,27.795184726672193 L-13.361111966006398,27.78917650996478 L-13.345136269824911,27.78078528040323 L-13.313688774140209,27.756940335732207 L-13.283164806145065,27.723879532511283 L-13.25385832833737,27.681921264348354 L-13.226051578118964,27.631469612302542 L-13.200012349695164,27.573010453362734 L-13.175991415070182,27.507106781186543 L-13.154220108975636,27.434393284163644 L-13.134908100990623,27.3555702330196 L-13.118241376309054,27.271396736825995 L-13.104380444600574,27.18268343236509 L-13.09345879421469,27.09028467725446 L-13.085581606615001,26.995090322016125 L-13.080824743424198,26.898017140329557 L-13.079234015835176,26.800000000000008 " />
			<path d="M-11.993796906014255,27.799999999999997 L-13.409584440563282,27.799999999999997 " />
			<path d="M-15.972443035603929,27.799999999999997 L-13.409584440563282,27.799999999999997 " />
			<path d="M-16.088065684258765,27.736749699759756 L-16.059977745232157,27.764255194226273 L-16.03119077604071,27.78406038934604 L-16.001934662176755,27.796007125814377 L-15.97244303560393,27.799999999999997 " />
			<path d="M9.058680575222853,-26.799999999999997 L9.05550677983294,-26.89754516100806 L9.046107360840153,-26.991341716182543 L9.03084353264513,-27.077785116509798 L9.01030187560535,-27.15355339059327 L8.99829140829286,-27.186505226681366 L8.98527179408096,-27.21573480615127 L8.971368418971755,-27.240960632174176 L8.956715180067908,-27.26193976625564 L8.941453196070336,-27.2784701678661 L8.925729448227985,-27.290392640201613 L8.909695364828053,-27.297592363336097 L8.893505362858802,-27.299999999999997 " />
			<path d="M9.058680575222851,26.799999999999997 L9.058680575222851,-26.799999999999997 " />
			<path d="M8.8935053628588,27.299999999999997 L8.909695364828053,27.297592363336097 L8.925729448227985,27.290392640201613 L8.941453196070336,27.2784701678661 L8.956715180067908,27.26193976625564 L8.971368418971755,27.240960632174176 L8.98527179408096,27.21573480615127 L8.99829140829286,27.186505226681366 L9.01030187560535,27.15355339059327 L9.03084353264513,27.077785116509798 L9.046107360840153,26.991341716182543 L9.05550677983294,26.89754516100806 L9.058680575222853,26.8 " />
			<path d="M-3.3400315656724264,27.299999999999997 L8.893505362858798,27.299999999999997 " />
			<path d="M-3.5052067780364786,26.799999999999997 L-3.503311009739576,26.87553625864848 L-3.4976672215168243,26.949338610103954 L-3.488404964462895,27.019712948378917 L-3.4757368503011725,27.085043856274783 L-3.4599536709594,27.143831686692874 L-3.4414177235473216,27.19472698648517 L-3.420554493959025,27.23656147265779 L-3.3978428899998447,27.268374849879876 " />
			<path d="M-3.3978428899998443,27.268374849879876 L-3.3837989204865404,27.282127597113135 L-3.369405435890816,27.292030194673018 L-3.354777378958838,27.298003562907187 L-3.3400315656724264,27.299999999999997 " />
			<path d="M-3.5052067780364786,-26.799999999999997 L-3.5052067780364786,26.799999999999997 " />
			<path d="M-3.3400315656724255,-27.299999999999997 L-3.354777378958838,-27.298003562907187 L-3.369405435890816,-27.292030194673018 L-3.3837989204865404,-27.282127597113135 L-3.397842889999844,-27.268374849879876 " />
			<path d="M-3.3978428899998443,-27.268374849879876 L-3.420554493959025,-27.23656147265779 L-3.4414177235473216,-27.19472698648517 L-3.4599536709594,-27.143831686692874 L-3.4757368503011725,-27.085043856274783 L-3.488404964462895,-27.019712948378917 L-3.4976672215168243,-26.949338610103954 L-3.503311009739576,-26.87553625864848 L-3.5052067780364786,-26.799999999999997 " />
			<path d="M8.8935053628588,-27.299999999999997 L-3.340031565672424,-27.299999999999997 " />
			<path d="M-5.322134114041062,-26.799999999999997 L-5.3253079094309745,-26.89754516100806 L-5.334707328423761,-26.991341716182543 L-5.3499711566187855,-27.077785116509798 L-5.370512813658565,-27.15355339059327 L-5.382523280971056,-27.186505226681366 L-5.395542895182956,-27.21573480615127 L-5.409446270292159,-27.240960632174176 L-5.424099509196006,-27.26193976625564 L-5.439361493193578,-27.2784701678661 L-5.455085241035929,-27.290392640201613 L-5.471119324435863,-27.297592363336097 L-5.487309326405113,-27.299999999999997 " />
			<path d="M-5.487309326405115,-27.299999999999997 L-11.734235858013601,-27.299999999999997 " />
			<path d="M-5.322134114041062,26.799999999999997 L-5.322134114041062,-26.799999999999997 " />
			<path d="M-11.734235858013601,-27.299999999999997 L-11.748981671300013,-27.298003562907187 L-11.763609728231993,-27.292030194673018 L-11.778003212827716,-27.282127597113135 L-11.79204718234102,-27.268374849879876 " />
			<path d="M-11.79204718234102,-27.268374849879876 L-11.814758786300201,-27.23656147265779 L-11.835622015888498,-27.19472698648517 L-11.854157963300576,-27.143831686692874 L-11.869941142642348,-27.085043856274783 L-11.882609256804072,-27.019712948378917 L-11.891871513858,-26.949338610103954 L-11.897515302080752,-26.87553625864848 L-11.899411070377655,-26.799999999999997 " />
			<path d="M-5.487309326405115,27.299999999999997 L-5.471119324435863,27.297592363336097 L-5.455085241035929,27.290392640201613 L-5.439361493193579,27.2784701678661 L-5.424099509196007,27.26193976625564 L-5.409446270292159,27.240960632174176 L-5.395542895182956,27.21573480615127 L-5.382523280971056,27.186505226681366 L-5.370512813658565,27.15355339059327 L-5.3499711566187855,27.077785116509798 L-5.334707328423761,26.991341716182543 L-5.3253079094309745,26.89754516100806 L-5.322134114041062,26.8 " />
			<path d="M-11.899411070377653,-26.799999999999997 L-11.899411070377653,26.799999999999997 " />
			<path d="M-11.7342358580136,27.299999999999997 L-5.487309326405115,27.299999999999997 " />
			<path d="M-11.899411070377655,26.799999999999997 L-11.897515302080752,26.87553625864848 L-11.891871513858,26.949338610103954 L-11.882609256804072,27.019712948378917 L-11.869941142642348,27.085043856274783 L-11.854157963300576,27.143831686692874 L-11.835622015888498,27.19472698648517 L-11.814758786300201,27.23656147265779 L-11.79204718234102,27.268374849879876 " />
			<path d="M-11.79204718234102,27.268374849879876 L-11.778003212827716,27.282127597113135 L-11.763609728231993,27.292030194673018 L-11.748981671300013,27.298003562907187 L-11.734235858013601,27.299999999999997 " />
			<path d="M-13.716338406382237,-26.799999999999997 L-13.71951220177215,-26.89754516100806 L-13.728911620764936,-26.991341716182543 L-13.74417544895996,-27.077785116509798 L-13.76471710599974,-27.15355339059327 L-13.77672757331223,-27.186505226681366 L-13.78974718752413,-27.21573480615127 L-13.803650562633335,-27.240960632174176 L-13.818303801537182,-27.26193976625564 L-13.833565785534754,-27.2784701678661 L-13.849289533377105,-27.290392640201613 L-13.865323616777037,-27.297592363336097 L-13.881513618746288,-27.299999999999997 " />
			<path d="M-13.88151361874629,-27.299999999999997 L-16.444372213786938,-27.299999999999997 " />
			<path d="M-13.716338406382238,26.799999999999997 L-13.716338406382238,-26.799999999999997 " />
			<path d="M-16.444372213786938,-27.299999999999997 L-16.45911802707335,-27.298003562907187 L-16.473746084005327,-27.292030194673018 L-16.488139568601053,-27.282127597113135 L-16.502183538114355,-27.268374849879876 " />
			<path d="M-16.502183538114355,-27.268374849879876 L-16.524895142073536,-27.23656147265779 L-16.545758371661833,-27.19472698648517 L-16.564294319073912,-27.143831686692874 L-16.580077498415687,-27.085043856274783 L-16.592745612577406,-27.019712948378917 L-16.602007869631336,-26.949338610103954 L-16.60765165785409,-26.87553625864848 L-16.60954742615099,-26.799999999999997 " />
			<path d="M-13.88151361874629,27.299999999999997 L-13.865323616777037,27.297592363336097 L-13.849289533377105,27.290392640201613 L-13.833565785534754,27.2784701678661 L-13.818303801537182,27.26193976625564 L-13.803650562633335,27.240960632174176 L-13.78974718752413,27.21573480615127 L-13.77672757331223,27.186505226681366 L-13.76471710599974,27.15355339059327 L-13.74417544895996,27.077785116509798 L-13.728911620764936,26.991341716182543 L-13.71951220177215,26.89754516100806 L-13.716338406382237,26.8 " />
			<path d="M-16.60954742615099,-26.799999999999997 L-16.60954742615099,26.799999999999997 " />
			<path d="M-16.444372213786938,27.299999999999997 L-13.881513618746292,27.299999999999997 " />
			<path d="M-16.60954742615099,26.799999999999997 L-16.60765165785409,26.87553625864848 L-16.602007869631336,26.949338610103954 L-16.592745612577406,27.019712948378917 L-16.580077498415687,27.085043856274783 L-16.564294319073912,27.143831686692874 L-16.545758371661833,27.19472698648517 L-16.524895142073536,27.23656147265779 L-16.50218353811436,27.268374849879876 " />
			<path d="M-16.502183538114355,27.268374849879876 L-16.488139568601053,27.282127597113135 L-16.473746084005327,27.292030194673018 L-16.45911802707335,27.298003562907187 L-16.444372213786938,27.299999999999997 " />
			<path d="M13.527849892615944,-27.9 L12.206448193703519,-27.9 " />
			<path d="M11.710922556611358,-29.4 L11.144607542791746,-28.799999999999997 " />
			<path d="M-14.353725954436209,-29.4 L-14.92004096825582,-28.799999999999997 " />
			<path d="M12.206448193703519,-27.900000000000002 L11.441922925047043,-27.900000000000002 " />
			<path d="M13.527849892615944,27.9 L12.206448193703519,27.9 " />
			<path d="M12.206448193703519,27.9 L11.441922925047045,27.9 " />
			<path d="M11.710922556611358,29.4 L11.144607542791746,28.799999999999997 " />
			<path d="M-14.353725954436209,29.4 L-14.920040968255819,28.799999999999997 " />
			<path d="M11.11157250031894,-26.799999999999997 L9.695784965769914,-26.799999999999997 " />
			<path d="M11.11157250031894,26.799999999999997 L9.695784965769914,26.799999999999997 " />
			<path d="M-3.5052067780364786,-26.799999999999997 L-4.685029723494,-26.799999999999997 " />
			<path d="M-3.5052067780364786,26.799999999999997 L-4.685029723494,26.799999999999997 " />
			<path d="M-11.899411070377653,-26.799999999999997 L-13.079234015835176,-26.799999999999997 " />
			<path d="M-11.899411070377653,26.799999999999997 L-13.079234015835176,26.799999999999997 " />
			<path d="M9.695784965769915,-26.799999999999997 L9.058680575222853,-26.799999999999997 " />
			<path d="M9.365434541041811,-27.8 L8.8935053628588,-27.299999999999997 " />
			<path d="M9.695784965769914,26.799999999999997 L9.058680575222851,26.799999999999997 " />
			<path d="M9.36543454104181,27.8 L8.893505362858798,27.299999999999997 " />
			<path d="M-2.868102387489417,27.799999999999997 L-3.3400315656724255,27.299999999999997 " />
			<path d="M-2.8681023874894147,-27.8 L-3.340031565672425,-27.299999999999997 " />
			<path d="M-4.685029723494,-26.799999999999997 L-5.322134114041062,-26.799999999999997 " />
			<path d="M-5.015380148222104,-27.8 L-5.487309326405114,-27.299999999999997 " />
			<path d="M-11.262306679830589,-27.8 L-11.7342358580136,-27.299999999999997 " />
			<path d="M-4.685029723494,26.799999999999997 L-5.322134114041062,26.799999999999997 " />
			<path d="M-5.015380148222103,27.8 L-5.487309326405113,27.299999999999997 " />
			<path d="M-11.262306679830592,27.799999999999997 L-11.734235858013601,27.299999999999997 " />
			<path d="M-13.079234015835176,-26.799999999999997 L-13.716338406382238,-26.799999999999997 " />
			<path d="M-13.409584440563279,-27.8 L-13.88151361874629,-27.299999999999997 " />
			<path d="M-15.972443035603925,-27.8 L-16.444372213786938,-27.299999999999997 " />
			<path d="M-13.079234015835176,26.799999999999997 L-13.716338406382238,26.799999999999997 " />
			<path d="M-13.409584440563279,27.8 L-13.88151361874629,27.299999999999997 " />
			<path d="M-15.972443035603929,27.799999999999997 L-16.444372213786938,27.299999999999997 " />
			<path d="M-15.024101352045173,-28.743074729783782 L-14.527159927418467,-29.305124549639636 " />
			<path d="M-15.024101352045173,28.743074729783782 L-14.527159927418467,29.305124549639636 " />
			<path d="M-3.397842889999844,27.268374849879876 L-2.983725036144254,27.736749699759756 " />
			<path d="M-3.397842889999844,-27.268374849879876 L-2.983725036144254,-27.736749699759756 " />
			<path d="M-11.792047182341019,-27.268374849879876 L-11.377929328485429,-27.736749699759756 " />
			<path d="M-11.792047182341019,27.268374849879876 L-11.377929328485429,27.736749699759756 " />
			<path d="M-16.502183538114355,-27.268374849879876 L-16.088065684258765,-27.736749699759756 " />
			<path d="M-16.502183538114355,27.268374849879876 L-16.088065684258765,27.736749699759756 " />

       </g>
    </g>
    
</svg>
