<svg viewBox="0 0 934 718" xmlns="http://www.w3.org/2000/svg" font-family="Helvetica,Arial,sans-serif">
<rect width="934" height="718" fill="#0f1623"/>
<text x="44" y="32" fill="#94a3b8" font-size="12" font-weight="600">VAMP TOP FACEPLATE — player view · 850 x 412 x 100 mm · welded shell · slope 7.6deg</text>
<rect x="44" y="44" width="846.0" height="415.7" rx="9" fill="#131c2c" stroke="#5b6b86" stroke-width="2"/>
<rect x="57.9" y="328.2" width="78.0" height="103.0" rx="3" fill="#1c2740" stroke="#8aa0c0" stroke-width="1.4"/>
<rect x="163.6" y="328.2" width="78.0" height="103.0" rx="3" fill="#1c2740" stroke="#8aa0c0" stroke-width="1.4"/>
<rect x="269.4" y="328.2" width="78.0" height="103.0" rx="3" fill="#1c2740" stroke="#8aa0c0" stroke-width="1.4"/>
<rect x="375.1" y="328.2" width="78.0" height="103.0" rx="3" fill="#1c2740" stroke="#8aa0c0" stroke-width="1.4"/>
<rect x="480.9" y="328.2" width="78.0" height="103.0" rx="3" fill="#243149" stroke="#8aa0c0" stroke-width="1.4"/>
<circle cx="519.9" cy="312.2" r="2.5" fill="#22c55e"/>
<rect x="586.6" y="328.2" width="78.0" height="103.0" rx="3" fill="#243149" stroke="#8aa0c0" stroke-width="1.4"/>
<circle cx="625.6" cy="312.2" r="2.5" fill="#22c55e"/>
<rect x="692.4" y="328.2" width="78.0" height="103.0" rx="3" fill="#243149" stroke="#8aa0c0" stroke-width="1.4"/>
<circle cx="731.4" cy="312.2" r="2.5" fill="#22c55e"/>
<rect x="798.1" y="328.2" width="78.0" height="103.0" rx="3" fill="#243149" stroke="#8aa0c0" stroke-width="1.4"/>
<circle cx="837.1" cy="312.2" r="2.5" fill="#22c55e"/>
<rect x="269.4" y="160.2" width="78.0" height="103.0" rx="3" fill="#1c2740" stroke="#8aa0c0" stroke-width="1.4"/>
<rect x="375.1" y="160.2" width="78.0" height="103.0" rx="3" fill="#1c2740" stroke="#8aa0c0" stroke-width="1.4"/>
<rect x="74.0" y="64.2" width="156.0" height="88.0" rx="5" fill="#0c1a24" stroke="#38bdf8" stroke-width="2"/>
<text x="152.0" y="108.2" fill="#4a7f96" font-size="12" text-anchor="middle">7" TOUCH - waveform</text>
<rect x="504.0" y="64.2" width="350.0" height="199.0" rx="5" fill="#0c1a24" stroke="#38bdf8" stroke-width="2"/>
<text x="679.0" y="163.7" fill="#4a7f96" font-size="12" text-anchor="middle">16" TOUCH - main UI</text>
<circle cx="152.0" cy="211.7" r="29.0" fill="none" stroke="#a855f7" stroke-width="3"/>
<circle cx="152.0" cy="211.7" r="3.5" fill="#cbd5e1"/>
<circle cx="110.0" cy="211.7" r="4.0" fill="#22c55e"/>
<circle cx="194.0" cy="211.7" r="4.0" fill="#22c55e"/>
<text x="96.9" y="452.2" fill="#9fb0c8" font-size="8" text-anchor="middle">REC/PLAY</text>
<text x="202.6" y="452.2" fill="#9fb0c8" font-size="8" text-anchor="middle">STOP</text>
<text x="308.4" y="452.2" fill="#9fb0c8" font-size="8" text-anchor="middle">UNDO</text>
<text x="414.1" y="452.2" fill="#9fb0c8" font-size="8" text-anchor="middle">MODE</text>
<text x="519.9" y="452.2" fill="#9fb0c8" font-size="8" text-anchor="middle">TRACK1</text>
<text x="625.6" y="452.2" fill="#9fb0c8" font-size="8" text-anchor="middle">TRACK2</text>
<text x="731.4" y="452.2" fill="#9fb0c8" font-size="8" text-anchor="middle">TRACK3</text>
<text x="837.1" y="452.2" fill="#9fb0c8" font-size="8" text-anchor="middle">TRACK4</text>
<text x="308.4" y="284.2" fill="#9fb0c8" font-size="8" text-anchor="middle">CLEAR</text>
<text x="414.1" y="284.2" fill="#9fb0c8" font-size="8" text-anchor="middle">BANK</text>
<text x="44" y="535.7" fill="#94a3b8" font-size="12" font-weight="600">REAR I/O PANEL — 850 x 100 mm</text>
<rect x="44" y="547.7" width="846.0" height="100.0" rx="6" fill="#131c2c" stroke="#5b6b86" stroke-width="2"/>
<circle cx="104.0" cy="592.7" r="6.0" fill="#0f1623" stroke="#cbd5e1" stroke-width="1.5"/>
<circle cx="154.0" cy="592.7" r="8.0" fill="#0f1623" stroke="#cbd5e1" stroke-width="1.5"/>
<circle cx="204.0" cy="592.7" r="6.0" fill="#0f1623" stroke="#cbd5e1" stroke-width="1.5"/>
<rect x="254.0" y="585.7" width="14.0" height="14.0" fill="#0f1623" stroke="#cbd5e1" stroke-width="1.3"/>
<rect x="289.0" y="585.7" width="14.0" height="14.0" fill="#0f1623" stroke="#cbd5e1" stroke-width="1.3"/>
<circle cx="344.0" cy="625.7" r="3.2" fill="#0f1623" stroke="#22c55e" stroke-width="1.5"/>
<rect x="404.0" y="618.7" width="40.0" height="4.0" fill="none" stroke="#7c8aa3" stroke-width="1"/>
<rect x="458.0" y="618.7" width="40.0" height="4.0" fill="none" stroke="#7c8aa3" stroke-width="1"/>
<rect x="512.0" y="618.7" width="40.0" height="4.0" fill="none" stroke="#7c8aa3" stroke-width="1"/>
<rect x="566.0" y="618.7" width="40.0" height="4.0" fill="none" stroke="#7c8aa3" stroke-width="1"/>
<rect x="620.0" y="618.7" width="40.0" height="4.0" fill="none" stroke="#7c8aa3" stroke-width="1"/>
<rect x="674.0" y="618.7" width="40.0" height="4.0" fill="none" stroke="#7c8aa3" stroke-width="1"/>
<rect x="728.0" y="618.7" width="40.0" height="4.0" fill="none" stroke="#7c8aa3" stroke-width="1"/>
<rect x="782.0" y="618.7" width="40.0" height="4.0" fill="none" stroke="#7c8aa3" stroke-width="1"/>
<rect x="404.0" y="609.7" width="40.0" height="4.0" fill="none" stroke="#7c8aa3" stroke-width="1"/>
<rect x="458.0" y="609.7" width="40.0" height="4.0" fill="none" stroke="#7c8aa3" stroke-width="1"/>
<rect x="512.0" y="609.7" width="40.0" height="4.0" fill="none" stroke="#7c8aa3" stroke-width="1"/>
<rect x="566.0" y="609.7" width="40.0" height="4.0" fill="none" stroke="#7c8aa3" stroke-width="1"/>
<rect x="620.0" y="609.7" width="40.0" height="4.0" fill="none" stroke="#7c8aa3" stroke-width="1"/>
<rect x="674.0" y="609.7" width="40.0" height="4.0" fill="none" stroke="#7c8aa3" stroke-width="1"/>
<rect x="728.0" y="609.7" width="40.0" height="4.0" fill="none" stroke="#7c8aa3" stroke-width="1"/>
<rect x="782.0" y="609.7" width="40.0" height="4.0" fill="none" stroke="#7c8aa3" stroke-width="1"/>
<rect x="404.0" y="600.7" width="40.0" height="4.0" fill="none" stroke="#7c8aa3" stroke-width="1"/>
<rect x="458.0" y="600.7" width="40.0" height="4.0" fill="none" stroke="#7c8aa3" stroke-width="1"/>
<rect x="512.0" y="600.7" width="40.0" height="4.0" fill="none" stroke="#7c8aa3" stroke-width="1"/>
<rect x="566.0" y="600.7" width="40.0" height="4.0" fill="none" stroke="#7c8aa3" stroke-width="1"/>
<rect x="620.0" y="600.7" width="40.0" height="4.0" fill="none" stroke="#7c8aa3" stroke-width="1"/>
<rect x="674.0" y="600.7" width="40.0" height="4.0" fill="none" stroke="#7c8aa3" stroke-width="1"/>
<rect x="728.0" y="600.7" width="40.0" height="4.0" fill="none" stroke="#7c8aa3" stroke-width="1"/>
<rect x="782.0" y="600.7" width="40.0" height="4.0" fill="none" stroke="#7c8aa3" stroke-width="1"/>
<rect x="404.0" y="591.7" width="40.0" height="4.0" fill="none" stroke="#7c8aa3" stroke-width="1"/>
<rect x="458.0" y="591.7" width="40.0" height="4.0" fill="none" stroke="#7c8aa3" stroke-width="1"/>
<rect x="512.0" y="591.7" width="40.0" height="4.0" fill="none" stroke="#7c8aa3" stroke-width="1"/>
<rect x="566.0" y="591.7" width="40.0" height="4.0" fill="none" stroke="#7c8aa3" stroke-width="1"/>
<rect x="620.0" y="591.7" width="40.0" height="4.0" fill="none" stroke="#7c8aa3" stroke-width="1"/>
<rect x="674.0" y="591.7" width="40.0" height="4.0" fill="none" stroke="#7c8aa3" stroke-width="1"/>
<rect x="728.0" y="591.7" width="40.0" height="4.0" fill="none" stroke="#7c8aa3" stroke-width="1"/>
<rect x="782.0" y="591.7" width="40.0" height="4.0" fill="none" stroke="#7c8aa3" stroke-width="1"/>
<rect x="404.0" y="582.7" width="40.0" height="4.0" fill="none" stroke="#7c8aa3" stroke-width="1"/>
<rect x="458.0" y="582.7" width="40.0" height="4.0" fill="none" stroke="#7c8aa3" stroke-width="1"/>
<rect x="512.0" y="582.7" width="40.0" height="4.0" fill="none" stroke="#7c8aa3" stroke-width="1"/>
<rect x="566.0" y="582.7" width="40.0" height="4.0" fill="none" stroke="#7c8aa3" stroke-width="1"/>
<rect x="620.0" y="582.7" width="40.0" height="4.0" fill="none" stroke="#7c8aa3" stroke-width="1"/>
<rect x="674.0" y="582.7" width="40.0" height="4.0" fill="none" stroke="#7c8aa3" stroke-width="1"/>
<rect x="728.0" y="582.7" width="40.0" height="4.0" fill="none" stroke="#7c8aa3" stroke-width="1"/>
<rect x="782.0" y="582.7" width="40.0" height="4.0" fill="none" stroke="#7c8aa3" stroke-width="1"/>
<rect x="404.0" y="573.7" width="40.0" height="4.0" fill="none" stroke="#7c8aa3" stroke-width="1"/>
<rect x="458.0" y="573.7" width="40.0" height="4.0" fill="none" stroke="#7c8aa3" stroke-width="1"/>
<rect x="512.0" y="573.7" width="40.0" height="4.0" fill="none" stroke="#7c8aa3" stroke-width="1"/>
<rect x="566.0" y="573.7" width="40.0" height="4.0" fill="none" stroke="#7c8aa3" stroke-width="1"/>
<rect x="620.0" y="573.7" width="40.0" height="4.0" fill="none" stroke="#7c8aa3" stroke-width="1"/>
<rect x="674.0" y="573.7" width="40.0" height="4.0" fill="none" stroke="#7c8aa3" stroke-width="1"/>
<rect x="728.0" y="573.7" width="40.0" height="4.0" fill="none" stroke="#7c8aa3" stroke-width="1"/>
<rect x="782.0" y="573.7" width="40.0" height="4.0" fill="none" stroke="#7c8aa3" stroke-width="1"/>
<text x="44" y="675.7" fill="#7c8aa3" font-size="10.5">9V · power · fuse · USB-A x2 · earth stud · vents   |   service: remove the vented bottom plate</text>
<text x="44" y="693.7" fill="#7c8aa3" font-size="10.5">10x ASP-1 pedals on welded inner platforms (slot/platform PROVISIONAL - measure a real ASP-1) · track LEDs above TRACK 1-4</text>
</svg>
