%TF.GenerationSoftware,KiCad,Pcbnew,10.0.4*%
%TF.CreationDate,2026-07-19T05:28:34-03:00*%
%TF.ProjectId,loopy_led_strip,6c6f6f70-795f-46c6-9564-5f7374726970,rev?*%
%TF.SameCoordinates,Original*%
%TF.FileFunction,Legend,Top*%
%TF.FilePolarity,Positive*%
%FSLAX46Y46*%
G04 Gerber Fmt 4.6, Leading zero omitted, Abs format (unit mm)*
G04 Created by KiCad (PCBNEW 10.0.4) date 2026-07-19 05:28:34*
%MOMM*%
%LPD*%
G01*
G04 APERTURE LIST*
%ADD10C,0.200000*%
%ADD11C,0.150000*%
%ADD12C,0.120000*%
G04 APERTURE END LIST*
D10*
X96000000Y-54000000D02*
X104000000Y-54000000D01*
X102500000Y-53200000D02*
X104000000Y-54000000D01*
X102500000Y-54800000D02*
X104000000Y-54000000D01*
D11*
X53085714Y-51062295D02*
X52800000Y-51062295D01*
X52800000Y-51062295D02*
X52771428Y-51443247D01*
X52771428Y-51443247D02*
X52800000Y-51405152D01*
X52800000Y-51405152D02*
X52857143Y-51367057D01*
X52857143Y-51367057D02*
X53000000Y-51367057D01*
X53000000Y-51367057D02*
X53057143Y-51405152D01*
X53057143Y-51405152D02*
X53085714Y-51443247D01*
X53085714Y-51443247D02*
X53114285Y-51519438D01*
X53114285Y-51519438D02*
X53114285Y-51709914D01*
X53114285Y-51709914D02*
X53085714Y-51786104D01*
X53085714Y-51786104D02*
X53057143Y-51824200D01*
X53057143Y-51824200D02*
X53000000Y-51862295D01*
X53000000Y-51862295D02*
X52857143Y-51862295D01*
X52857143Y-51862295D02*
X52800000Y-51824200D01*
X52800000Y-51824200D02*
X52771428Y-51786104D01*
X53285714Y-51062295D02*
X53485714Y-51862295D01*
X53485714Y-51862295D02*
X53685714Y-51062295D01*
X52900000Y-54362295D02*
X52900000Y-53562295D01*
X52900000Y-53562295D02*
X53042857Y-53562295D01*
X53042857Y-53562295D02*
X53128571Y-53600390D01*
X53128571Y-53600390D02*
X53185714Y-53676580D01*
X53185714Y-53676580D02*
X53214285Y-53752771D01*
X53214285Y-53752771D02*
X53242857Y-53905152D01*
X53242857Y-53905152D02*
X53242857Y-54019438D01*
X53242857Y-54019438D02*
X53214285Y-54171819D01*
X53214285Y-54171819D02*
X53185714Y-54248009D01*
X53185714Y-54248009D02*
X53128571Y-54324200D01*
X53128571Y-54324200D02*
X53042857Y-54362295D01*
X53042857Y-54362295D02*
X52900000Y-54362295D01*
X53500000Y-54362295D02*
X53500000Y-53562295D01*
X52742857Y-56100390D02*
X52685715Y-56062295D01*
X52685715Y-56062295D02*
X52600000Y-56062295D01*
X52600000Y-56062295D02*
X52514286Y-56100390D01*
X52514286Y-56100390D02*
X52457143Y-56176580D01*
X52457143Y-56176580D02*
X52428572Y-56252771D01*
X52428572Y-56252771D02*
X52400000Y-56405152D01*
X52400000Y-56405152D02*
X52400000Y-56519438D01*
X52400000Y-56519438D02*
X52428572Y-56671819D01*
X52428572Y-56671819D02*
X52457143Y-56748009D01*
X52457143Y-56748009D02*
X52514286Y-56824200D01*
X52514286Y-56824200D02*
X52600000Y-56862295D01*
X52600000Y-56862295D02*
X52657143Y-56862295D01*
X52657143Y-56862295D02*
X52742857Y-56824200D01*
X52742857Y-56824200D02*
X52771429Y-56786104D01*
X52771429Y-56786104D02*
X52771429Y-56519438D01*
X52771429Y-56519438D02*
X52657143Y-56519438D01*
X53028572Y-56862295D02*
X53028572Y-56062295D01*
X53028572Y-56062295D02*
X53371429Y-56862295D01*
X53371429Y-56862295D02*
X53371429Y-56062295D01*
X53657143Y-56862295D02*
X53657143Y-56062295D01*
X53657143Y-56062295D02*
X53800000Y-56062295D01*
X53800000Y-56062295D02*
X53885714Y-56100390D01*
X53885714Y-56100390D02*
X53942857Y-56176580D01*
X53942857Y-56176580D02*
X53971428Y-56252771D01*
X53971428Y-56252771D02*
X54000000Y-56405152D01*
X54000000Y-56405152D02*
X54000000Y-56519438D01*
X54000000Y-56519438D02*
X53971428Y-56671819D01*
X53971428Y-56671819D02*
X53942857Y-56748009D01*
X53942857Y-56748009D02*
X53885714Y-56824200D01*
X53885714Y-56824200D02*
X53800000Y-56862295D01*
X53800000Y-56862295D02*
X53657143Y-56862295D01*
X71000000Y-54362295D02*
X70942857Y-54324200D01*
X70942857Y-54324200D02*
X70914286Y-54248009D01*
X70914286Y-54248009D02*
X70914286Y-53562295D01*
X71314286Y-54362295D02*
X71257143Y-54324200D01*
X71257143Y-54324200D02*
X71228572Y-54286104D01*
X71228572Y-54286104D02*
X71200000Y-54209914D01*
X71200000Y-54209914D02*
X71200000Y-53981342D01*
X71200000Y-53981342D02*
X71228572Y-53905152D01*
X71228572Y-53905152D02*
X71257143Y-53867057D01*
X71257143Y-53867057D02*
X71314286Y-53828961D01*
X71314286Y-53828961D02*
X71400000Y-53828961D01*
X71400000Y-53828961D02*
X71457143Y-53867057D01*
X71457143Y-53867057D02*
X71485715Y-53905152D01*
X71485715Y-53905152D02*
X71514286Y-53981342D01*
X71514286Y-53981342D02*
X71514286Y-54209914D01*
X71514286Y-54209914D02*
X71485715Y-54286104D01*
X71485715Y-54286104D02*
X71457143Y-54324200D01*
X71457143Y-54324200D02*
X71400000Y-54362295D01*
X71400000Y-54362295D02*
X71314286Y-54362295D01*
X71857143Y-54362295D02*
X71800000Y-54324200D01*
X71800000Y-54324200D02*
X71771429Y-54286104D01*
X71771429Y-54286104D02*
X71742857Y-54209914D01*
X71742857Y-54209914D02*
X71742857Y-53981342D01*
X71742857Y-53981342D02*
X71771429Y-53905152D01*
X71771429Y-53905152D02*
X71800000Y-53867057D01*
X71800000Y-53867057D02*
X71857143Y-53828961D01*
X71857143Y-53828961D02*
X71942857Y-53828961D01*
X71942857Y-53828961D02*
X72000000Y-53867057D01*
X72000000Y-53867057D02*
X72028572Y-53905152D01*
X72028572Y-53905152D02*
X72057143Y-53981342D01*
X72057143Y-53981342D02*
X72057143Y-54209914D01*
X72057143Y-54209914D02*
X72028572Y-54286104D01*
X72028572Y-54286104D02*
X72000000Y-54324200D01*
X72000000Y-54324200D02*
X71942857Y-54362295D01*
X71942857Y-54362295D02*
X71857143Y-54362295D01*
X72314286Y-53828961D02*
X72314286Y-54628961D01*
X72314286Y-53867057D02*
X72371429Y-53828961D01*
X72371429Y-53828961D02*
X72485714Y-53828961D01*
X72485714Y-53828961D02*
X72542857Y-53867057D01*
X72542857Y-53867057D02*
X72571429Y-53905152D01*
X72571429Y-53905152D02*
X72600000Y-53981342D01*
X72600000Y-53981342D02*
X72600000Y-54209914D01*
X72600000Y-54209914D02*
X72571429Y-54286104D01*
X72571429Y-54286104D02*
X72542857Y-54324200D01*
X72542857Y-54324200D02*
X72485714Y-54362295D01*
X72485714Y-54362295D02*
X72371429Y-54362295D01*
X72371429Y-54362295D02*
X72314286Y-54324200D01*
X72800000Y-53828961D02*
X72942857Y-54362295D01*
X73085714Y-53828961D02*
X72942857Y-54362295D01*
X72942857Y-54362295D02*
X72885714Y-54552771D01*
X72885714Y-54552771D02*
X72857143Y-54590866D01*
X72857143Y-54590866D02*
X72800000Y-54628961D01*
X74057143Y-54362295D02*
X73771429Y-54362295D01*
X73771429Y-54362295D02*
X73771429Y-53562295D01*
X74257143Y-53943247D02*
X74457143Y-53943247D01*
X74542857Y-54362295D02*
X74257143Y-54362295D01*
X74257143Y-54362295D02*
X74257143Y-53562295D01*
X74257143Y-53562295D02*
X74542857Y-53562295D01*
X74800000Y-54362295D02*
X74800000Y-53562295D01*
X74800000Y-53562295D02*
X74942857Y-53562295D01*
X74942857Y-53562295D02*
X75028571Y-53600390D01*
X75028571Y-53600390D02*
X75085714Y-53676580D01*
X75085714Y-53676580D02*
X75114285Y-53752771D01*
X75114285Y-53752771D02*
X75142857Y-53905152D01*
X75142857Y-53905152D02*
X75142857Y-54019438D01*
X75142857Y-54019438D02*
X75114285Y-54171819D01*
X75114285Y-54171819D02*
X75085714Y-54248009D01*
X75085714Y-54248009D02*
X75028571Y-54324200D01*
X75028571Y-54324200D02*
X74942857Y-54362295D01*
X74942857Y-54362295D02*
X74800000Y-54362295D01*
X75828571Y-54324200D02*
X75885714Y-54362295D01*
X75885714Y-54362295D02*
X76000000Y-54362295D01*
X76000000Y-54362295D02*
X76057143Y-54324200D01*
X76057143Y-54324200D02*
X76085714Y-54248009D01*
X76085714Y-54248009D02*
X76085714Y-54209914D01*
X76085714Y-54209914D02*
X76057143Y-54133723D01*
X76057143Y-54133723D02*
X76000000Y-54095628D01*
X76000000Y-54095628D02*
X75914286Y-54095628D01*
X75914286Y-54095628D02*
X75857143Y-54057533D01*
X75857143Y-54057533D02*
X75828571Y-53981342D01*
X75828571Y-53981342D02*
X75828571Y-53943247D01*
X75828571Y-53943247D02*
X75857143Y-53867057D01*
X75857143Y-53867057D02*
X75914286Y-53828961D01*
X75914286Y-53828961D02*
X76000000Y-53828961D01*
X76000000Y-53828961D02*
X76057143Y-53867057D01*
X76257142Y-53828961D02*
X76485714Y-53828961D01*
X76342857Y-53562295D02*
X76342857Y-54248009D01*
X76342857Y-54248009D02*
X76371428Y-54324200D01*
X76371428Y-54324200D02*
X76428571Y-54362295D01*
X76428571Y-54362295D02*
X76485714Y-54362295D01*
X76685714Y-54362295D02*
X76685714Y-53828961D01*
X76685714Y-53981342D02*
X76714285Y-53905152D01*
X76714285Y-53905152D02*
X76742857Y-53867057D01*
X76742857Y-53867057D02*
X76799999Y-53828961D01*
X76799999Y-53828961D02*
X76857142Y-53828961D01*
X77057143Y-54362295D02*
X77057143Y-53828961D01*
X77057143Y-53562295D02*
X77028571Y-53600390D01*
X77028571Y-53600390D02*
X77057143Y-53638485D01*
X77057143Y-53638485D02*
X77085714Y-53600390D01*
X77085714Y-53600390D02*
X77057143Y-53562295D01*
X77057143Y-53562295D02*
X77057143Y-53638485D01*
X77342857Y-53828961D02*
X77342857Y-54628961D01*
X77342857Y-53867057D02*
X77400000Y-53828961D01*
X77400000Y-53828961D02*
X77514285Y-53828961D01*
X77514285Y-53828961D02*
X77571428Y-53867057D01*
X77571428Y-53867057D02*
X77600000Y-53905152D01*
X77600000Y-53905152D02*
X77628571Y-53981342D01*
X77628571Y-53981342D02*
X77628571Y-54209914D01*
X77628571Y-54209914D02*
X77600000Y-54286104D01*
X77600000Y-54286104D02*
X77571428Y-54324200D01*
X77571428Y-54324200D02*
X77514285Y-54362295D01*
X77514285Y-54362295D02*
X77400000Y-54362295D01*
X77400000Y-54362295D02*
X77342857Y-54324200D01*
X78285714Y-53828961D02*
X78428571Y-54362295D01*
X78428571Y-54362295D02*
X78571428Y-53828961D01*
X79114285Y-54362295D02*
X78771428Y-54362295D01*
X78942857Y-54362295D02*
X78942857Y-53562295D01*
X78942857Y-53562295D02*
X78885714Y-53676580D01*
X78885714Y-53676580D02*
X78828571Y-53752771D01*
X78828571Y-53752771D02*
X78771428Y-53790866D01*
X121685714Y-51062295D02*
X121400000Y-51062295D01*
X121400000Y-51062295D02*
X121371428Y-51443247D01*
X121371428Y-51443247D02*
X121400000Y-51405152D01*
X121400000Y-51405152D02*
X121457143Y-51367057D01*
X121457143Y-51367057D02*
X121600000Y-51367057D01*
X121600000Y-51367057D02*
X121657143Y-51405152D01*
X121657143Y-51405152D02*
X121685714Y-51443247D01*
X121685714Y-51443247D02*
X121714285Y-51519438D01*
X121714285Y-51519438D02*
X121714285Y-51709914D01*
X121714285Y-51709914D02*
X121685714Y-51786104D01*
X121685714Y-51786104D02*
X121657143Y-51824200D01*
X121657143Y-51824200D02*
X121600000Y-51862295D01*
X121600000Y-51862295D02*
X121457143Y-51862295D01*
X121457143Y-51862295D02*
X121400000Y-51824200D01*
X121400000Y-51824200D02*
X121371428Y-51786104D01*
X121885714Y-51062295D02*
X122085714Y-51862295D01*
X122085714Y-51862295D02*
X122285714Y-51062295D01*
X121328572Y-54362295D02*
X121328572Y-53562295D01*
X121328572Y-53562295D02*
X121471429Y-53562295D01*
X121471429Y-53562295D02*
X121557143Y-53600390D01*
X121557143Y-53600390D02*
X121614286Y-53676580D01*
X121614286Y-53676580D02*
X121642857Y-53752771D01*
X121642857Y-53752771D02*
X121671429Y-53905152D01*
X121671429Y-53905152D02*
X121671429Y-54019438D01*
X121671429Y-54019438D02*
X121642857Y-54171819D01*
X121642857Y-54171819D02*
X121614286Y-54248009D01*
X121614286Y-54248009D02*
X121557143Y-54324200D01*
X121557143Y-54324200D02*
X121471429Y-54362295D01*
X121471429Y-54362295D02*
X121328572Y-54362295D01*
X122042857Y-53562295D02*
X122157143Y-53562295D01*
X122157143Y-53562295D02*
X122214286Y-53600390D01*
X122214286Y-53600390D02*
X122271429Y-53676580D01*
X122271429Y-53676580D02*
X122300000Y-53828961D01*
X122300000Y-53828961D02*
X122300000Y-54095628D01*
X122300000Y-54095628D02*
X122271429Y-54248009D01*
X122271429Y-54248009D02*
X122214286Y-54324200D01*
X122214286Y-54324200D02*
X122157143Y-54362295D01*
X122157143Y-54362295D02*
X122042857Y-54362295D01*
X122042857Y-54362295D02*
X121985715Y-54324200D01*
X121985715Y-54324200D02*
X121928572Y-54248009D01*
X121928572Y-54248009D02*
X121900000Y-54095628D01*
X121900000Y-54095628D02*
X121900000Y-53828961D01*
X121900000Y-53828961D02*
X121928572Y-53676580D01*
X121928572Y-53676580D02*
X121985715Y-53600390D01*
X121985715Y-53600390D02*
X122042857Y-53562295D01*
X121342857Y-56100390D02*
X121285715Y-56062295D01*
X121285715Y-56062295D02*
X121200000Y-56062295D01*
X121200000Y-56062295D02*
X121114286Y-56100390D01*
X121114286Y-56100390D02*
X121057143Y-56176580D01*
X121057143Y-56176580D02*
X121028572Y-56252771D01*
X121028572Y-56252771D02*
X121000000Y-56405152D01*
X121000000Y-56405152D02*
X121000000Y-56519438D01*
X121000000Y-56519438D02*
X121028572Y-56671819D01*
X121028572Y-56671819D02*
X121057143Y-56748009D01*
X121057143Y-56748009D02*
X121114286Y-56824200D01*
X121114286Y-56824200D02*
X121200000Y-56862295D01*
X121200000Y-56862295D02*
X121257143Y-56862295D01*
X121257143Y-56862295D02*
X121342857Y-56824200D01*
X121342857Y-56824200D02*
X121371429Y-56786104D01*
X121371429Y-56786104D02*
X121371429Y-56519438D01*
X121371429Y-56519438D02*
X121257143Y-56519438D01*
X121628572Y-56862295D02*
X121628572Y-56062295D01*
X121628572Y-56062295D02*
X121971429Y-56862295D01*
X121971429Y-56862295D02*
X121971429Y-56062295D01*
X122257143Y-56862295D02*
X122257143Y-56062295D01*
X122257143Y-56062295D02*
X122400000Y-56062295D01*
X122400000Y-56062295D02*
X122485714Y-56100390D01*
X122485714Y-56100390D02*
X122542857Y-56176580D01*
X122542857Y-56176580D02*
X122571428Y-56252771D01*
X122571428Y-56252771D02*
X122600000Y-56405152D01*
X122600000Y-56405152D02*
X122600000Y-56519438D01*
X122600000Y-56519438D02*
X122571428Y-56671819D01*
X122571428Y-56671819D02*
X122542857Y-56748009D01*
X122542857Y-56748009D02*
X122485714Y-56824200D01*
X122485714Y-56824200D02*
X122400000Y-56862295D01*
X122400000Y-56862295D02*
X122257143Y-56862295D01*
%TO.C,D1*%
D12*
X59000000Y-51250000D02*
X59000000Y-56750000D01*
X59000000Y-51250000D02*
X66000000Y-51250000D01*
X59000000Y-56750000D02*
X65550000Y-56750000D01*
X59800000Y-54900000D02*
X59800000Y-53100000D01*
X65200000Y-54900000D02*
X65200000Y-53100000D01*
X65550000Y-56750000D02*
X66000000Y-56300000D01*
X66000000Y-56300000D02*
X66000000Y-51250000D01*
%TO.C,C3*%
X107790000Y-54140580D02*
X107790000Y-53859420D01*
X108810000Y-54140580D02*
X108810000Y-53859420D01*
%TO.C,C2*%
X82790000Y-54140580D02*
X82790000Y-53859420D01*
X83810000Y-54140580D02*
X83810000Y-53859420D01*
%TO.C,D3*%
X109000000Y-51250000D02*
X109000000Y-56750000D01*
X109000000Y-51250000D02*
X116000000Y-51250000D01*
X109000000Y-56750000D02*
X115550000Y-56750000D01*
X109800000Y-54900000D02*
X109800000Y-53100000D01*
X115200000Y-54900000D02*
X115200000Y-53100000D01*
X115550000Y-56750000D02*
X116000000Y-56300000D01*
X116000000Y-56300000D02*
X116000000Y-51250000D01*
%TO.C,D2*%
X84000000Y-51250000D02*
X84000000Y-56750000D01*
X84000000Y-51250000D02*
X91000000Y-51250000D01*
X84000000Y-56750000D02*
X90550000Y-56750000D01*
X84800000Y-54900000D02*
X84800000Y-53100000D01*
X90200000Y-54900000D02*
X90200000Y-53100000D01*
X90550000Y-56750000D02*
X91000000Y-56300000D01*
X91000000Y-56300000D02*
X91000000Y-51250000D01*
%TO.C,C1*%
X57790000Y-54140580D02*
X57790000Y-53859420D01*
X58810000Y-54140580D02*
X58810000Y-53859420D01*
%TD*%
M02*
